%FSLAX43Y43*%
%MOMM*%
G71*
G01*
G75*
G04 Layer_Color=16711935*
%ADD10R,1.270X0.508*%
%ADD11R,0.762X0.762*%
%ADD12R,2.160X2.500*%
%ADD13R,0.762X0.762*%
%ADD14R,2.300X0.500*%
%ADD15R,2.500X2.000*%
%ADD16R,6.200X5.800*%
%ADD17R,3.000X1.600*%
G04:AMPARAMS|DCode=18|XSize=2.5mm|YSize=1.7mm|CornerRadius=0.212mm|HoleSize=0mm|Usage=FLASHONLY|Rotation=90.000|XOffset=0mm|YOffset=0mm|HoleType=Round|Shape=RoundedRectangle|*
%AMROUNDEDRECTD18*
21,1,2.500,1.275,0,0,90.0*
21,1,2.075,1.700,0,0,90.0*
1,1,0.425,0.637,1.038*
1,1,0.425,0.637,-1.038*
1,1,0.425,-0.637,-1.038*
1,1,0.425,-0.637,1.038*
%
%ADD18ROUNDEDRECTD18*%
%ADD19R,1.524X1.524*%
%ADD20R,2.032X3.175*%
%ADD21R,1.000X1.000*%
%ADD22R,1.016X1.270*%
%ADD23R,3.500X2.200*%
%ADD24R,1.200X2.200*%
%ADD25R,1.100X0.600*%
%ADD26O,0.650X1.650*%
%ADD27R,5.600X2.100*%
%ADD28O,1.450X0.300*%
%ADD29O,0.300X1.450*%
%ADD30R,1.200X0.750*%
%ADD31R,1.700X2.500*%
%ADD32O,0.800X0.350*%
%ADD33R,4.400X1.900*%
%ADD34R,1.000X0.750*%
%ADD35C,0.203*%
%ADD36C,0.254*%
%ADD37C,0.406*%
%ADD38C,0.762*%
%ADD39C,0.508*%
%ADD40R,1.702X1.270*%
%ADD41R,2.667X3.302*%
%ADD42R,4.318X4.953*%
%ADD43R,2.667X15.240*%
%ADD44R,4.953X5.588*%
%ADD45R,6.604X3.556*%
%ADD46R,2.540X2.540*%
%ADD47R,1.219X0.635*%
%ADD48R,12.192X5.588*%
%ADD49R,9.119X4.715*%
%ADD50R,10.160X2.286*%
%ADD51R,4.826X5.588*%
%ADD52R,1.270X9.652*%
%ADD53R,10.262X8.890*%
%ADD54R,9.906X8.890*%
%ADD55R,1.270X13.589*%
%ADD56R,11.430X3.683*%
%ADD57R,11.836X3.683*%
%ADD58R,11.811X3.683*%
%ADD59R,1.270X11.303*%
%ADD60R,2.540X5.842*%
%ADD61R,4.064X14.732*%
%ADD62R,12.040X3.708*%
%ADD63R,2.413X8.128*%
%ADD64R,4.064X12.294*%
%ADD65R,37.160X3.708*%
%ADD66R,4.064X3.683*%
%ADD67R,2.413X3.175*%
%ADD68R,2.921X13.589*%
%ADD69R,4.826X4.064*%
%ADD70R,2.921X21.234*%
%ADD71R,0.889X0.762*%
%ADD72R,3.048X3.556*%
%ADD73R,5.461X3.302*%
%ADD74R,9.271X8.001*%
%ADD75R,4.953X8.890*%
%ADD76R,1.803X17.018*%
%ADD77C,6.500*%
%ADD78R,1.778X1.778*%
%ADD79C,1.778*%
%ADD80R,2.200X2.200*%
%ADD81C,2.200*%
%ADD82C,2.700*%
%ADD83R,2.700X2.700*%
%ADD84R,2.200X2.200*%
%ADD85C,0.900*%
%ADD86R,1.524X1.524*%
%ADD87C,1.524*%
%ADD88C,1.500*%
%ADD89C,0.700*%
%ADD90C,1.000*%
%ADD91C,0.500*%
%ADD92R,4.191X5.588*%
%ADD93R,6.604X3.048*%
%ADD94R,13.208X3.048*%
%ADD95R,1.270X2.794*%
%ADD96R,4.572X6.858*%
%ADD97R,2.794X17.018*%
%ADD98R,22.860X2.921*%
%ADD99R,2.921X18.796*%
%ADD100R,17.856X6.096*%
%ADD101R,6.350X12.700*%
%ADD102R,15.494X5.842*%
%ADD103C,0.250*%
%ADD104C,0.100*%
%ADD105C,0.600*%
%ADD106C,0.127*%
%ADD107C,0.025*%
%ADD108C,0.203*%
%ADD109C,0.102*%
%ADD110C,0.200*%
%ADD111C,0.152*%
%ADD112C,0.229*%
%ADD113R,0.762X0.500*%
%ADD114R,2.530X2.540*%
%ADD115R,0.500X1.000*%
%ADD116R,1.473X0.711*%
%ADD117R,0.965X0.965*%
%ADD118R,2.363X2.703*%
%ADD119R,0.965X0.965*%
%ADD120R,2.503X0.703*%
%ADD121R,2.703X2.203*%
%ADD122R,6.403X6.003*%
%ADD123R,3.203X1.803*%
G04:AMPARAMS|DCode=124|XSize=2.703mm|YSize=1.903mm|CornerRadius=0.314mm|HoleSize=0mm|Usage=FLASHONLY|Rotation=90.000|XOffset=0mm|YOffset=0mm|HoleType=Round|Shape=RoundedRectangle|*
%AMROUNDEDRECTD124*
21,1,2.703,1.275,0,0,90.0*
21,1,2.075,1.903,0,0,90.0*
1,1,0.628,0.637,1.038*
1,1,0.628,0.637,-1.038*
1,1,0.628,-0.637,-1.038*
1,1,0.628,-0.637,1.038*
%
%ADD124ROUNDEDRECTD124*%
%ADD125R,1.727X1.727*%
%ADD126R,2.235X3.378*%
%ADD127R,1.203X1.203*%
%ADD128R,1.219X1.473*%
%ADD129R,3.703X2.403*%
%ADD130R,1.403X2.403*%
%ADD131R,1.303X0.803*%
%ADD132O,0.853X1.853*%
%ADD133R,5.803X2.303*%
%ADD134O,1.653X0.503*%
%ADD135O,0.503X1.653*%
%ADD136R,1.403X0.953*%
%ADD137R,1.903X2.703*%
%ADD138O,1.003X0.553*%
%ADD139R,4.603X2.103*%
%ADD140R,1.203X0.953*%
%ADD141R,1.981X1.981*%
%ADD142C,1.981*%
%ADD143R,2.403X2.403*%
%ADD144C,2.403*%
%ADD145C,2.903*%
%ADD146R,2.903X2.903*%
%ADD147R,2.403X2.403*%
%ADD148R,1.727X1.727*%
%ADD149C,1.727*%
%ADD150C,1.703*%
%ADD151C,1.203*%
%ADD152C,0.703*%
D77*
X4000Y46000D02*
D03*
X96000D02*
D03*
X4000Y4000D02*
D03*
X96000D02*
D03*
D85*
X93188Y33614D02*
D03*
Y38014D02*
D03*
D141*
X61722Y3302D02*
D03*
X23876Y6096D02*
D03*
X59182Y46482D02*
D03*
X43942D02*
D03*
X74422D02*
D03*
D142*
X64262Y3302D02*
D03*
X66802Y3302D02*
D03*
X69342Y3302D02*
D03*
X71882Y3302D02*
D03*
X26416Y6096D02*
D03*
X28956Y6096D02*
D03*
X31496Y6096D02*
D03*
X34036Y6096D02*
D03*
X36576Y6096D02*
D03*
X61722Y46482D02*
D03*
X64262Y46482D02*
D03*
X66802Y46482D02*
D03*
X69342Y46482D02*
D03*
X46482Y46482D02*
D03*
X49022Y46482D02*
D03*
X51562Y46482D02*
D03*
X54102Y46482D02*
D03*
X76962Y46482D02*
D03*
X79502Y46482D02*
D03*
X82042Y46482D02*
D03*
X84582Y46482D02*
D03*
X87122Y46482D02*
D03*
X12196Y24452D02*
D03*
X12196Y21912D02*
D03*
X61874Y31090D02*
D03*
X61874Y28550D02*
D03*
D143*
X3556Y35560D02*
D03*
D144*
Y30560D02*
D03*
X17700Y3556D02*
D03*
D145*
X5334Y13390D02*
D03*
Y18390D02*
D03*
D146*
Y23390D02*
D03*
D147*
X12700Y3556D02*
D03*
D148*
X82042D02*
D03*
D149*
X84582D02*
D03*
X87122D02*
D03*
D150*
X89968Y10450D02*
D03*
Y14950D02*
D03*
X96468Y10450D02*
D03*
Y14950D02*
D03*
X89968Y23658D02*
D03*
Y28158D02*
D03*
X96468Y23658D02*
D03*
Y28158D02*
D03*
D151*
X1835Y47250D02*
D03*
Y44750D02*
D03*
X4000Y43500D02*
D03*
X6165Y44750D02*
D03*
X4000Y48500D02*
D03*
X6165Y47250D02*
D03*
X93835D02*
D03*
Y44750D02*
D03*
X96000Y43500D02*
D03*
X98165Y44750D02*
D03*
X96000Y48500D02*
D03*
X98165Y47250D02*
D03*
X1835Y5250D02*
D03*
Y2750D02*
D03*
X4000Y1500D02*
D03*
X6165Y2750D02*
D03*
X4000Y6500D02*
D03*
X6165Y5250D02*
D03*
X93835D02*
D03*
Y2750D02*
D03*
X96000Y1500D02*
D03*
X98165Y2750D02*
D03*
X96000Y6500D02*
D03*
X98165Y5250D02*
D03*
M02*
