%FSLAX43Y43*%
%MOMM*%
G71*
G01*
G75*
G04 Layer_Color=8421504*
%ADD10R,1.270X0.508*%
%ADD11R,0.762X0.762*%
%ADD12R,2.160X2.500*%
%ADD13R,0.762X0.762*%
%ADD14R,2.300X0.500*%
%ADD15R,2.500X2.000*%
%ADD16R,6.200X5.800*%
%ADD17R,3.000X1.600*%
G04:AMPARAMS|DCode=18|XSize=2.5mm|YSize=1.7mm|CornerRadius=0.212mm|HoleSize=0mm|Usage=FLASHONLY|Rotation=90.000|XOffset=0mm|YOffset=0mm|HoleType=Round|Shape=RoundedRectangle|*
%AMROUNDEDRECTD18*
21,1,2.500,1.275,0,0,90.0*
21,1,2.075,1.700,0,0,90.0*
1,1,0.425,0.637,1.038*
1,1,0.425,0.637,-1.038*
1,1,0.425,-0.637,-1.038*
1,1,0.425,-0.637,1.038*
%
%ADD18ROUNDEDRECTD18*%
%ADD19R,1.524X1.524*%
%ADD20R,2.032X3.175*%
%ADD21R,1.000X1.000*%
%ADD22R,1.016X1.270*%
%ADD23R,3.500X2.200*%
%ADD24R,1.200X2.200*%
%ADD25R,1.100X0.600*%
%ADD26O,0.650X1.650*%
%ADD27R,5.600X2.100*%
%ADD28O,1.450X0.300*%
%ADD29O,0.300X1.450*%
%ADD30R,1.200X0.750*%
%ADD31R,1.700X2.500*%
%ADD32O,0.800X0.350*%
%ADD33R,4.400X1.900*%
%ADD34R,1.000X0.750*%
%ADD35C,0.203*%
%ADD36C,0.254*%
%ADD37C,0.406*%
%ADD38C,0.762*%
%ADD39C,0.508*%
%ADD40R,1.702X1.270*%
%ADD41R,2.667X3.302*%
%ADD42R,4.318X4.953*%
%ADD43R,2.667X15.240*%
%ADD44R,4.953X5.588*%
%ADD45R,6.604X3.556*%
%ADD46R,2.540X2.540*%
%ADD47R,1.219X0.635*%
%ADD48R,12.192X5.588*%
%ADD49R,9.119X4.715*%
%ADD50R,10.160X2.286*%
%ADD51R,4.826X5.588*%
%ADD52R,1.270X9.652*%
%ADD53R,10.262X8.890*%
%ADD54R,9.906X8.890*%
%ADD55R,1.270X13.589*%
%ADD56R,11.430X3.683*%
%ADD57R,11.836X3.683*%
%ADD58R,11.811X3.683*%
%ADD59R,1.270X11.303*%
%ADD60R,2.540X5.842*%
%ADD61R,4.064X14.732*%
%ADD62R,12.040X3.708*%
%ADD63R,2.413X8.128*%
%ADD64R,4.064X12.294*%
%ADD65R,37.160X3.708*%
%ADD66R,4.064X3.683*%
%ADD67R,2.413X3.175*%
%ADD68R,2.921X13.589*%
%ADD69R,4.826X4.064*%
%ADD70R,2.921X21.234*%
%ADD71R,0.889X0.762*%
%ADD72R,3.048X3.556*%
%ADD73R,5.461X3.302*%
%ADD74R,9.271X8.001*%
%ADD75R,4.953X8.890*%
%ADD76R,1.803X17.018*%
%ADD77C,6.500*%
%ADD78R,1.778X1.778*%
%ADD79C,1.778*%
%ADD80R,2.200X2.200*%
%ADD81C,2.200*%
%ADD82C,2.700*%
%ADD83R,2.700X2.700*%
%ADD84R,2.200X2.200*%
%ADD85C,0.900*%
%ADD86R,1.524X1.524*%
%ADD87C,1.524*%
%ADD88C,1.500*%
%ADD89C,0.700*%
%ADD90C,1.000*%
%ADD91C,0.500*%
%ADD92R,4.191X5.588*%
%ADD93R,6.604X3.048*%
%ADD94R,13.208X3.048*%
%ADD95R,1.270X2.794*%
%ADD96R,4.572X6.858*%
%ADD97R,2.794X17.018*%
%ADD98R,22.860X2.921*%
%ADD99R,2.921X18.796*%
%ADD100R,17.856X6.096*%
%ADD101R,6.350X12.700*%
%ADD102R,15.494X5.842*%
%ADD103C,0.250*%
%ADD104C,0.100*%
%ADD105C,0.600*%
%ADD106C,0.127*%
%ADD107C,0.025*%
%ADD108C,0.203*%
%ADD109C,0.102*%
%ADD110C,0.200*%
%ADD111C,0.152*%
%ADD112C,0.229*%
%ADD113R,0.762X0.500*%
%ADD114R,2.530X2.540*%
%ADD115R,0.500X1.000*%
G36*
X12843Y37586D02*
X13268D01*
Y33026D01*
X12843D01*
Y32531D01*
X11938D01*
Y33026D01*
X8738D01*
Y33776D01*
X9213D01*
Y36836D01*
X8738D01*
Y37586D01*
X11938D01*
Y38081D01*
X12843D01*
Y37586D01*
D02*
G37*
D10*
X83698Y34441D02*
D03*
X83713Y35391D02*
D03*
X83698Y36346D02*
D03*
X86238Y34441D02*
D03*
Y36346D02*
D03*
X86238Y35381D02*
D03*
D11*
X66802Y44196D02*
D03*
X68199D02*
D03*
X62865D02*
D03*
X64262D02*
D03*
X11485Y19829D02*
D03*
X12882D02*
D03*
X9779Y29210D02*
D03*
X11176D02*
D03*
X9779Y30734D02*
D03*
X11176D02*
D03*
X15113Y24130D02*
D03*
X16510D02*
D03*
X17907D02*
D03*
X19304D02*
D03*
X14859Y39116D02*
D03*
X16256D02*
D03*
X17399Y40513D02*
D03*
X18796D02*
D03*
X24003Y41986D02*
D03*
X25400D02*
D03*
X24003Y40589D02*
D03*
X25400D02*
D03*
X36957Y34290D02*
D03*
X38354D02*
D03*
X62103Y24384D02*
D03*
X63500D02*
D03*
X64643Y22606D02*
D03*
X66040D02*
D03*
X62103Y25781D02*
D03*
X63500D02*
D03*
X66421Y18339D02*
D03*
X67818D02*
D03*
X70485D02*
D03*
X71882D02*
D03*
X84238Y37691D02*
D03*
X85635D02*
D03*
X86923Y37679D02*
D03*
X88320D02*
D03*
X82042Y5715D02*
D03*
X83439D02*
D03*
X85725D02*
D03*
X87122D02*
D03*
X88900Y17780D02*
D03*
X90297D02*
D03*
X88900Y19304D02*
D03*
X90297D02*
D03*
X88900Y20828D02*
D03*
X90297D02*
D03*
X82986Y23912D02*
D03*
X84383D02*
D03*
X82986Y25309D02*
D03*
X84383D02*
D03*
X82986Y26706D02*
D03*
X84383D02*
D03*
X82986Y28103D02*
D03*
X84383D02*
D03*
X82986Y29500D02*
D03*
X84383D02*
D03*
X82986Y30897D02*
D03*
X84383D02*
D03*
X82982Y32309D02*
D03*
X84379D02*
D03*
D12*
X17272Y27686D02*
D03*
X21722D02*
D03*
D13*
X12573Y29210D02*
D03*
Y30607D02*
D03*
X50419Y7366D02*
D03*
Y5969D02*
D03*
X52070Y8128D02*
D03*
Y6731D02*
D03*
X34036Y8611D02*
D03*
Y10008D02*
D03*
X35560Y10160D02*
D03*
Y11557D02*
D03*
X36957Y10160D02*
D03*
Y11557D02*
D03*
X49042Y42690D02*
D03*
Y44087D02*
D03*
X51642Y42690D02*
D03*
Y44087D02*
D03*
X84622Y42736D02*
D03*
Y44133D02*
D03*
X82122Y42736D02*
D03*
Y44133D02*
D03*
X77022Y42736D02*
D03*
Y44133D02*
D03*
X79522Y42736D02*
D03*
Y44133D02*
D03*
X16256Y35941D02*
D03*
Y37338D02*
D03*
X23749Y45085D02*
D03*
Y46482D02*
D03*
X31115Y40818D02*
D03*
Y42215D02*
D03*
X29464Y45593D02*
D03*
Y46990D02*
D03*
X31115Y45593D02*
D03*
Y46990D02*
D03*
X40056Y43104D02*
D03*
Y44501D02*
D03*
X41580Y43104D02*
D03*
Y44501D02*
D03*
X35560Y31115D02*
D03*
Y32512D02*
D03*
X34163Y31115D02*
D03*
Y32512D02*
D03*
X36957Y31115D02*
D03*
Y32512D02*
D03*
X38354Y31496D02*
D03*
Y32893D02*
D03*
X53848Y31369D02*
D03*
Y32766D02*
D03*
X60706Y24384D02*
D03*
Y25781D02*
D03*
X64262Y5588D02*
D03*
Y6985D02*
D03*
X69342Y5588D02*
D03*
Y6985D02*
D03*
X71882Y5588D02*
D03*
Y6985D02*
D03*
X73685Y20625D02*
D03*
Y22022D02*
D03*
X72288Y20625D02*
D03*
Y22022D02*
D03*
X70917Y20625D02*
D03*
Y22022D02*
D03*
X75692Y31623D02*
D03*
Y33020D02*
D03*
X77089Y31623D02*
D03*
Y33020D02*
D03*
X86868Y10414D02*
D03*
Y11811D02*
D03*
X88265Y10414D02*
D03*
Y11811D02*
D03*
X86868Y23368D02*
D03*
Y24765D02*
D03*
X88265Y23368D02*
D03*
Y24765D02*
D03*
X65024Y34671D02*
D03*
Y36068D02*
D03*
X66421Y34671D02*
D03*
Y36068D02*
D03*
D14*
X90538Y34214D02*
D03*
Y35814D02*
D03*
Y35014D02*
D03*
Y37414D02*
D03*
Y36614D02*
D03*
D15*
X90638Y31364D02*
D03*
Y40264D02*
D03*
X96138Y31364D02*
D03*
Y40264D02*
D03*
D16*
X11489Y45303D02*
D03*
D17*
X18669Y43053D02*
D03*
Y47553D02*
D03*
D18*
X18796Y38068D02*
D03*
Y34068D02*
D03*
X79781Y27642D02*
D03*
Y31642D02*
D03*
D19*
X21590Y37592D02*
D03*
Y41021D02*
D03*
X86618Y28611D02*
D03*
Y32040D02*
D03*
D20*
X24638Y36449D02*
D03*
X30988D02*
D03*
D21*
X21463Y44355D02*
D03*
Y46355D02*
D03*
D22*
X21539Y48184D02*
D03*
X23571D02*
D03*
D23*
X35560Y40842D02*
D03*
D24*
X33260Y47042D02*
D03*
X35560D02*
D03*
X37860D02*
D03*
D25*
X26894Y40071D02*
D03*
Y41021D02*
D03*
Y41971D02*
D03*
X29494Y40071D02*
D03*
Y41971D02*
D03*
D26*
X36297Y18486D02*
D03*
X37567D02*
D03*
X36297Y24136D02*
D03*
X37567D02*
D03*
X41377Y18486D02*
D03*
X42647D02*
D03*
X38837D02*
D03*
X40107D02*
D03*
X43917D02*
D03*
X45187D02*
D03*
X38837Y24136D02*
D03*
X40107D02*
D03*
X45187D02*
D03*
X41377D02*
D03*
X43917D02*
D03*
X42647D02*
D03*
D27*
X64389Y15037D02*
D03*
X73889D02*
D03*
D28*
X65422Y25876D02*
D03*
Y26376D02*
D03*
Y27876D02*
D03*
Y28376D02*
D03*
Y26876D02*
D03*
Y27376D02*
D03*
Y29876D02*
D03*
Y30376D02*
D03*
Y28876D02*
D03*
Y29376D02*
D03*
Y30876D02*
D03*
Y31376D02*
D03*
X73872Y26876D02*
D03*
Y27376D02*
D03*
Y25876D02*
D03*
Y26376D02*
D03*
Y27876D02*
D03*
Y29376D02*
D03*
Y29876D02*
D03*
Y28376D02*
D03*
Y28876D02*
D03*
Y30376D02*
D03*
Y31376D02*
D03*
Y30876D02*
D03*
D29*
X66897Y24401D02*
D03*
X68397D02*
D03*
X67897D02*
D03*
X67397D02*
D03*
X66897Y32851D02*
D03*
X68397D02*
D03*
X67397D02*
D03*
X67897D02*
D03*
X71397Y24401D02*
D03*
X70897D02*
D03*
X72397D02*
D03*
X71897D02*
D03*
X69397D02*
D03*
X68897D02*
D03*
X70397D02*
D03*
X69897D02*
D03*
X68897Y32851D02*
D03*
X69397D02*
D03*
X70397D02*
D03*
X69897D02*
D03*
X71397D02*
D03*
X70897D02*
D03*
X72397D02*
D03*
X71897D02*
D03*
D30*
X91972Y18229D02*
D03*
Y19304D02*
D03*
Y20379D02*
D03*
X94972Y18229D02*
D03*
X94972Y20379D02*
D03*
Y19304D02*
D03*
D31*
X16514Y21124D02*
D03*
D32*
X18014Y22099D02*
D03*
Y21449D02*
D03*
Y20799D02*
D03*
Y20149D02*
D03*
X15014Y22099D02*
D03*
Y21449D02*
D03*
Y20799D02*
D03*
Y20149D02*
D03*
D33*
X39948Y10770D02*
D03*
X48648D02*
D03*
X41592Y32004D02*
D03*
X50292D02*
D03*
D34*
X9143Y33401D02*
D03*
Y34671D02*
D03*
Y35941D02*
D03*
Y37211D02*
D03*
X14733Y33401D02*
D03*
Y34671D02*
D03*
Y35941D02*
D03*
Y37211D02*
D03*
M02*
