%FSLAX43Y43*%
%MOMM*%
G71*
G01*
G75*
G04 Layer_Physical_Order=1*
G04 Layer_Color=255*
%ADD10R,1.270X0.508*%
%ADD11R,0.762X0.762*%
%ADD12R,2.160X2.500*%
%ADD13R,0.762X0.762*%
%ADD14R,2.300X0.500*%
%ADD15R,2.500X2.000*%
%ADD16R,6.200X5.800*%
%ADD17R,3.000X1.600*%
G04:AMPARAMS|DCode=18|XSize=2.5mm|YSize=1.7mm|CornerRadius=0.212mm|HoleSize=0mm|Usage=FLASHONLY|Rotation=90.000|XOffset=0mm|YOffset=0mm|HoleType=Round|Shape=RoundedRectangle|*
%AMROUNDEDRECTD18*
21,1,2.500,1.275,0,0,90.0*
21,1,2.075,1.700,0,0,90.0*
1,1,0.425,0.637,1.038*
1,1,0.425,0.637,-1.038*
1,1,0.425,-0.637,-1.038*
1,1,0.425,-0.637,1.038*
%
%ADD18ROUNDEDRECTD18*%
%ADD19R,1.524X1.524*%
%ADD20R,2.032X3.175*%
%ADD21R,1.000X1.000*%
%ADD22R,1.016X1.270*%
%ADD23R,3.500X2.200*%
%ADD24R,1.200X2.200*%
%ADD25R,1.100X0.600*%
%ADD26O,0.650X1.650*%
%ADD27R,5.600X2.100*%
%ADD28O,1.450X0.300*%
%ADD29O,0.300X1.450*%
%ADD30R,1.200X0.750*%
%ADD31R,1.700X2.500*%
%ADD32O,0.800X0.350*%
%ADD33R,4.400X1.900*%
%ADD34R,1.000X0.750*%
%ADD35C,0.203*%
%ADD36C,0.254*%
%ADD37C,0.406*%
%ADD38C,0.762*%
%ADD39C,0.508*%
%ADD40R,1.702X1.270*%
%ADD41R,2.667X3.302*%
%ADD42R,4.318X4.953*%
%ADD43R,2.667X15.240*%
%ADD44R,4.953X5.588*%
%ADD45R,6.604X3.556*%
%ADD46R,2.540X2.540*%
%ADD47R,1.219X0.635*%
%ADD48R,12.192X5.588*%
%ADD49R,9.119X4.715*%
%ADD50R,10.160X2.286*%
%ADD51R,4.826X5.588*%
%ADD52R,1.270X9.652*%
%ADD53R,10.262X8.890*%
%ADD54R,9.906X8.890*%
%ADD55R,1.270X13.589*%
%ADD56R,11.430X3.683*%
%ADD57R,11.836X3.683*%
%ADD58R,11.811X3.683*%
%ADD59R,1.270X11.303*%
%ADD60R,2.540X5.842*%
%ADD61R,4.064X14.732*%
%ADD62R,12.040X3.708*%
%ADD63R,2.413X8.128*%
%ADD64R,4.064X12.294*%
%ADD65R,37.160X3.708*%
%ADD66R,4.064X3.683*%
%ADD67R,2.413X3.175*%
%ADD68R,2.921X13.589*%
%ADD69R,4.826X4.064*%
%ADD70R,2.921X21.234*%
%ADD71R,0.889X0.762*%
%ADD72R,3.048X3.556*%
%ADD73R,5.461X3.302*%
%ADD74R,9.271X8.001*%
%ADD75R,4.953X8.890*%
%ADD76R,1.803X17.018*%
%ADD77C,6.500*%
%ADD78R,1.778X1.778*%
%ADD79C,1.778*%
%ADD80R,2.200X2.200*%
%ADD81C,2.200*%
%ADD82C,2.700*%
%ADD83R,2.700X2.700*%
%ADD84R,2.200X2.200*%
%ADD85C,0.900*%
%ADD86R,1.524X1.524*%
%ADD87C,1.524*%
%ADD88C,1.500*%
%ADD89C,0.700*%
%ADD90C,1.000*%
%ADD91C,0.500*%
G36*
X12843Y37586D02*
X13268D01*
Y33026D01*
X12843D01*
Y32531D01*
X11938D01*
Y33026D01*
X8738D01*
Y33776D01*
X9213D01*
Y36836D01*
X8738D01*
Y37586D01*
X11938D01*
Y38081D01*
X12843D01*
Y37586D01*
D02*
G37*
D10*
X83698Y34441D02*
D03*
X83713Y35391D02*
D03*
X83698Y36346D02*
D03*
X86238Y34441D02*
D03*
Y36346D02*
D03*
X86238Y35381D02*
D03*
D11*
X66802Y44196D02*
D03*
X68199D02*
D03*
X62865D02*
D03*
X64262D02*
D03*
X11485Y19829D02*
D03*
X12882D02*
D03*
X9779Y29210D02*
D03*
X11176D02*
D03*
X9779Y30734D02*
D03*
X11176D02*
D03*
X15113Y24130D02*
D03*
X16510D02*
D03*
X17907D02*
D03*
X19304D02*
D03*
X14859Y39116D02*
D03*
X16256D02*
D03*
X17399Y40513D02*
D03*
X18796D02*
D03*
X24003Y41986D02*
D03*
X25400D02*
D03*
X24003Y40589D02*
D03*
X25400D02*
D03*
X36957Y34290D02*
D03*
X38354D02*
D03*
X62103Y24384D02*
D03*
X63500D02*
D03*
X64643Y22606D02*
D03*
X66040D02*
D03*
X62103Y25781D02*
D03*
X63500D02*
D03*
X66421Y18339D02*
D03*
X67818D02*
D03*
X70485D02*
D03*
X71882D02*
D03*
X84238Y37691D02*
D03*
X85635D02*
D03*
X86923Y37679D02*
D03*
X88320D02*
D03*
X82042Y5715D02*
D03*
X83439D02*
D03*
X85725D02*
D03*
X87122D02*
D03*
X88900Y17780D02*
D03*
X90297D02*
D03*
X88900Y19304D02*
D03*
X90297D02*
D03*
X88900Y20828D02*
D03*
X90297D02*
D03*
X82986Y23912D02*
D03*
X84383D02*
D03*
X82986Y25309D02*
D03*
X84383D02*
D03*
X82986Y26706D02*
D03*
X84383D02*
D03*
X82986Y28103D02*
D03*
X84383D02*
D03*
X82986Y29500D02*
D03*
X84383D02*
D03*
X82986Y30897D02*
D03*
X84383D02*
D03*
X82982Y32309D02*
D03*
X84379D02*
D03*
D12*
X17272Y27686D02*
D03*
X21722D02*
D03*
D13*
X12573Y29210D02*
D03*
Y30607D02*
D03*
X50419Y7366D02*
D03*
Y5969D02*
D03*
X52070Y8128D02*
D03*
Y6731D02*
D03*
X34036Y8611D02*
D03*
Y10008D02*
D03*
X35560Y10160D02*
D03*
Y11557D02*
D03*
X36957Y10160D02*
D03*
Y11557D02*
D03*
X49042Y42690D02*
D03*
Y44087D02*
D03*
X51642Y42690D02*
D03*
Y44087D02*
D03*
X84622Y42736D02*
D03*
Y44133D02*
D03*
X82122Y42736D02*
D03*
Y44133D02*
D03*
X77022Y42736D02*
D03*
Y44133D02*
D03*
X79522Y42736D02*
D03*
Y44133D02*
D03*
X16256Y35941D02*
D03*
Y37338D02*
D03*
X23749Y45085D02*
D03*
Y46482D02*
D03*
X31115Y40818D02*
D03*
Y42215D02*
D03*
X29464Y45593D02*
D03*
Y46990D02*
D03*
X31115Y45593D02*
D03*
Y46990D02*
D03*
X40056Y43104D02*
D03*
Y44501D02*
D03*
X41580Y43104D02*
D03*
Y44501D02*
D03*
X35560Y31115D02*
D03*
Y32512D02*
D03*
X34163Y31115D02*
D03*
Y32512D02*
D03*
X36957Y31115D02*
D03*
Y32512D02*
D03*
X38354Y31496D02*
D03*
Y32893D02*
D03*
X53848Y31369D02*
D03*
Y32766D02*
D03*
X60706Y24384D02*
D03*
Y25781D02*
D03*
X64262Y5588D02*
D03*
Y6985D02*
D03*
X69342Y5588D02*
D03*
Y6985D02*
D03*
X71882Y5588D02*
D03*
Y6985D02*
D03*
X73685Y20625D02*
D03*
Y22022D02*
D03*
X72288Y20625D02*
D03*
Y22022D02*
D03*
X70917Y20625D02*
D03*
Y22022D02*
D03*
X75692Y31623D02*
D03*
Y33020D02*
D03*
X77089Y31623D02*
D03*
Y33020D02*
D03*
X86868Y10414D02*
D03*
Y11811D02*
D03*
X88265Y10414D02*
D03*
Y11811D02*
D03*
X86868Y23368D02*
D03*
Y24765D02*
D03*
X88265Y23368D02*
D03*
Y24765D02*
D03*
X65024Y34671D02*
D03*
Y36068D02*
D03*
X66421Y34671D02*
D03*
Y36068D02*
D03*
D14*
X90538Y34214D02*
D03*
Y35814D02*
D03*
Y35014D02*
D03*
Y37414D02*
D03*
Y36614D02*
D03*
D15*
X90638Y31364D02*
D03*
Y40264D02*
D03*
X96138Y31364D02*
D03*
Y40264D02*
D03*
D16*
X11489Y45303D02*
D03*
D17*
X18669Y43053D02*
D03*
Y47553D02*
D03*
D18*
X18796Y38068D02*
D03*
Y34068D02*
D03*
X79781Y27642D02*
D03*
Y31642D02*
D03*
D19*
X21590Y37592D02*
D03*
Y41021D02*
D03*
X86618Y28611D02*
D03*
Y32040D02*
D03*
D20*
X24638Y36449D02*
D03*
X30988D02*
D03*
D21*
X21463Y44355D02*
D03*
Y46355D02*
D03*
D22*
X21539Y48184D02*
D03*
X23571D02*
D03*
D23*
X35560Y40842D02*
D03*
D24*
X33260Y47042D02*
D03*
X35560D02*
D03*
X37860D02*
D03*
D25*
X26894Y40071D02*
D03*
Y41021D02*
D03*
Y41971D02*
D03*
X29494Y40071D02*
D03*
Y41971D02*
D03*
D26*
X36297Y18486D02*
D03*
X37567D02*
D03*
X36297Y24136D02*
D03*
X37567D02*
D03*
X41377Y18486D02*
D03*
X42647D02*
D03*
X38837D02*
D03*
X40107D02*
D03*
X43917D02*
D03*
X45187D02*
D03*
X38837Y24136D02*
D03*
X40107D02*
D03*
X45187D02*
D03*
X41377D02*
D03*
X43917D02*
D03*
X42647D02*
D03*
D27*
X64389Y15037D02*
D03*
X73889D02*
D03*
D28*
X65422Y25876D02*
D03*
Y26376D02*
D03*
Y27876D02*
D03*
Y28376D02*
D03*
Y26876D02*
D03*
Y27376D02*
D03*
Y29876D02*
D03*
Y30376D02*
D03*
Y28876D02*
D03*
Y29376D02*
D03*
Y30876D02*
D03*
Y31376D02*
D03*
X73872Y26876D02*
D03*
Y27376D02*
D03*
Y25876D02*
D03*
Y26376D02*
D03*
Y27876D02*
D03*
Y29376D02*
D03*
Y29876D02*
D03*
Y28376D02*
D03*
Y28876D02*
D03*
Y30376D02*
D03*
Y31376D02*
D03*
Y30876D02*
D03*
D29*
X66897Y24401D02*
D03*
X68397D02*
D03*
X67897D02*
D03*
X67397D02*
D03*
X66897Y32851D02*
D03*
X68397D02*
D03*
X67397D02*
D03*
X67897D02*
D03*
X71397Y24401D02*
D03*
X70897D02*
D03*
X72397D02*
D03*
X71897D02*
D03*
X69397D02*
D03*
X68897D02*
D03*
X70397D02*
D03*
X69897D02*
D03*
X68897Y32851D02*
D03*
X69397D02*
D03*
X70397D02*
D03*
X69897D02*
D03*
X71397D02*
D03*
X70897D02*
D03*
X72397D02*
D03*
X71897D02*
D03*
D30*
X91972Y18229D02*
D03*
Y19304D02*
D03*
Y20379D02*
D03*
X94972Y18229D02*
D03*
X94972Y20379D02*
D03*
Y19304D02*
D03*
D31*
X16514Y21124D02*
D03*
D32*
X18014Y22099D02*
D03*
Y21449D02*
D03*
Y20799D02*
D03*
Y20149D02*
D03*
X15014Y22099D02*
D03*
Y21449D02*
D03*
Y20799D02*
D03*
Y20149D02*
D03*
D33*
X39948Y10770D02*
D03*
X48648D02*
D03*
X41592Y32004D02*
D03*
X50292D02*
D03*
D34*
X9143Y33401D02*
D03*
Y34671D02*
D03*
Y35941D02*
D03*
Y37211D02*
D03*
X14733Y33401D02*
D03*
Y34671D02*
D03*
Y35941D02*
D03*
Y37211D02*
D03*
D35*
X58699Y38659D02*
X62611D01*
X63906Y37363D01*
Y34265D02*
Y37363D01*
X59487Y37770D02*
X61824D01*
X63348Y34239D02*
Y36246D01*
X61824Y37770D02*
X63348Y36246D01*
X57404Y39370D02*
X69215D01*
X62611Y34188D02*
Y35814D01*
X60833Y35357D02*
Y36195D01*
X65422Y29876D02*
X70861D01*
X70243Y29376D02*
X70993Y28626D01*
X65422Y29376D02*
X70243D01*
X78719Y23506D02*
X79491D01*
X75349Y26876D02*
X78719Y23506D01*
X71397Y24401D02*
Y25956D01*
X67716Y8611D02*
X69342Y6985D01*
X72644D02*
X78486Y12827D01*
X71882Y6985D02*
X72644D01*
X63373Y26797D02*
X63452Y26876D01*
X65422D01*
X70485Y16637D02*
Y18339D01*
Y16637D02*
X72085Y15037D01*
X73889D01*
X67818Y16764D02*
Y18339D01*
X66091Y15037D02*
X67818Y16764D01*
X64389Y15037D02*
X66091D01*
X67691Y38481D02*
X69584Y36588D01*
X69666Y37903D02*
X69990Y37579D01*
Y33795D02*
Y37579D01*
X70397Y32851D02*
Y38188D01*
X69215Y39370D02*
X70397Y38188D01*
X69584Y33964D02*
Y36588D01*
X66726Y31445D02*
X67589D01*
X67897Y31753D01*
X65422Y31376D02*
Y31682D01*
X52177Y42607D02*
X52260Y42690D01*
X51725Y42607D02*
X52177D01*
X51642Y42690D02*
X51725Y42607D01*
X67897Y31753D02*
Y32851D01*
X68224Y34573D02*
Y35686D01*
Y34573D02*
X68371Y34425D01*
Y32851D02*
Y34425D01*
X69897Y33702D02*
X69990Y33795D01*
X69442Y33822D02*
X69584Y33964D01*
X69442Y32896D02*
Y33822D01*
X69397Y32851D02*
X69442Y32896D01*
X69897Y32851D02*
Y33702D01*
X72161Y23190D02*
X75362D01*
X71897Y23455D02*
X72161Y23190D01*
X71897Y23455D02*
Y24401D01*
X69897Y19511D02*
Y24401D01*
X84328Y15748D02*
Y18669D01*
X79491Y23506D02*
X84328Y18669D01*
X73872Y26876D02*
X75349D01*
X75362Y23190D02*
X79883Y18669D01*
X73406Y34798D02*
X73660Y35052D01*
X68897Y32851D02*
Y34734D01*
X79883Y11684D02*
Y18669D01*
X78486Y19076D02*
Y19203D01*
Y12827D02*
Y19076D01*
X69397Y19427D02*
Y24401D01*
X74422Y6223D02*
X79883Y11684D01*
X74422Y2286D02*
Y6223D01*
X61087Y24384D02*
X62103D01*
X58801Y1143D02*
X73279D01*
X74422Y2286D01*
X81534Y35052D02*
X82145Y34441D01*
X73660Y35052D02*
X81534D01*
Y35560D02*
X82320Y36346D01*
X73279Y35560D02*
X81534D01*
X82145Y34441D02*
X83698D01*
X82320Y36346D02*
X83698D01*
X15014Y18443D02*
Y20149D01*
X68897Y19418D02*
Y24401D01*
X70897Y22677D02*
Y24401D01*
X67818Y18339D02*
X68897Y19418D01*
X69397Y19427D02*
X70485Y18339D01*
X70917Y22022D02*
Y22657D01*
X36957Y34290D02*
X38227Y35560D01*
X51135Y43376D02*
X52149D01*
X49042Y42690D02*
X50449D01*
X51135Y43376D01*
X69897Y19511D02*
X70358Y19050D01*
X78460D01*
X59766Y8611D02*
X67716D01*
X54508Y34366D02*
X58242Y30632D01*
Y10135D02*
X59766Y8611D01*
X58242Y10135D02*
Y30632D01*
X55245Y32842D02*
X57810Y30277D01*
X55372Y32080D02*
X57353Y30099D01*
Y2591D02*
Y30099D01*
X60817Y6985D02*
X64262D01*
X57810Y9992D02*
X60817Y6985D01*
X57810Y9992D02*
Y30277D01*
X57353Y2591D02*
X58801Y1143D01*
X61443Y27991D02*
X61900Y28448D01*
X63102Y27452D02*
X63887D01*
X63963Y27376D01*
X65422D01*
X61900Y28448D02*
X63754D01*
X64326Y27876D01*
X65422D01*
X60706Y25781D02*
Y27254D01*
X61443Y27991D01*
X60833Y35357D02*
X63932Y32258D01*
Y30870D02*
Y32258D01*
X64426Y30376D02*
X65422D01*
X52149Y43376D02*
X63525Y32000D01*
Y30702D02*
Y32000D01*
X63932Y30870D02*
X64426Y30376D01*
X63906Y34265D02*
X66726Y31445D01*
X63348Y34239D02*
X64922Y32664D01*
Y32182D02*
Y32664D01*
Y32182D02*
X65422Y31682D01*
X62611Y34188D02*
X64338Y32461D01*
Y31039D02*
Y32461D01*
Y31039D02*
X64501Y30876D01*
X65422D01*
X63525Y30702D02*
X64389Y29839D01*
X65377Y28921D02*
X65422Y28876D01*
X64658Y28921D02*
X65377D01*
X64389Y29190D02*
Y29839D01*
Y29190D02*
X64658Y28921D01*
X52260Y42690D02*
X63119Y31831D01*
Y29658D02*
Y31831D01*
Y29658D02*
X64401Y28376D01*
X65422D01*
X38227Y35560D02*
X51181D01*
X54864Y32842D02*
X55245D01*
X51181Y35560D02*
X52784Y33957D01*
Y32560D02*
Y33957D01*
Y32560D02*
X53264Y32080D01*
X55372D01*
X53467Y33909D02*
X53848Y33528D01*
Y32766D02*
Y33528D01*
D36*
X72263Y29591D02*
X72548Y29876D01*
X75097Y26376D02*
X83058Y18415D01*
X78898Y23937D02*
X80076D01*
X75459Y27376D02*
X78898Y23937D01*
X79087Y24395D02*
X80369D01*
X75649Y27833D02*
X79087Y24395D01*
X79277Y24852D02*
X80558D01*
X75753Y28376D02*
X79277Y24852D01*
X79466Y25309D02*
X82986D01*
X75899Y28876D02*
X79466Y25309D01*
X83058Y14224D02*
Y18415D01*
X66980Y19660D02*
X67691Y20371D01*
X73872Y25036D02*
Y25876D01*
X65735Y20117D02*
X67945Y22327D01*
X60464Y20117D02*
X65735D01*
X60274Y19660D02*
X66980D01*
X36195Y34757D02*
X37506Y36068D01*
X72619Y23622D02*
X76454D01*
X65422Y26376D02*
X66889D01*
X67397Y33996D02*
X67615Y34214D01*
X70897Y32851D02*
Y36611D01*
X71397Y32851D02*
Y36464D01*
X71897Y32851D02*
Y36318D01*
X72397Y32851D02*
Y36171D01*
X66421Y34671D02*
X66897Y34195D01*
Y33655D02*
Y34195D01*
X70397Y24401D02*
Y25742D01*
X72397Y23844D02*
Y24401D01*
Y23844D02*
X72619Y23622D01*
X67397Y32851D02*
Y33996D01*
X83058Y14224D02*
X86868Y10414D01*
X73872Y26376D02*
X75097D01*
X78601Y22225D02*
X81915Y18911D01*
X78232Y22225D02*
X78601D01*
X80645Y8890D02*
Y19177D01*
X79248Y20574D02*
X80645Y19177D01*
X86233Y17780D02*
X88900D01*
X80076Y23937D02*
X86233Y17780D01*
X73872Y27376D02*
X75459D01*
X85459Y19304D02*
X88900D01*
X80369Y24395D02*
X85459Y19304D01*
X75291Y27833D02*
X75649D01*
X84582Y20828D02*
X88900D01*
X80558Y24852D02*
X84582Y20828D01*
X73872Y28376D02*
X75753D01*
X73152Y35687D02*
X73279Y35560D01*
X72397Y36171D02*
X76612Y40386D01*
X71897Y36318D02*
X76422Y40843D01*
X76612Y40386D02*
X82272D01*
X76422Y40843D02*
X80229D01*
X78811Y42025D02*
X79522Y42736D01*
X76957Y42025D02*
X78811D01*
X71397Y36464D02*
X76957Y42025D01*
X66802Y40132D02*
Y44196D01*
X66782Y44187D02*
Y46462D01*
X64282Y44187D02*
Y46462D01*
X64262Y40894D02*
Y44196D01*
X72136Y30607D02*
X72367Y30376D01*
X73872D01*
X72548Y29876D02*
X73872D01*
X73660Y19812D02*
Y20599D01*
X70866Y19812D02*
Y20574D01*
X72288Y22022D02*
X73685D01*
X70917D02*
X72288D01*
X64643Y25876D02*
X65422D01*
X66897Y32851D02*
Y33655D01*
X63500Y24384D02*
Y25781D01*
X70897Y36611D02*
X77022Y42736D01*
X80229Y40843D02*
X82122Y42736D01*
X82272Y40386D02*
X84622Y42736D01*
X73872Y28876D02*
X75899D01*
X73872Y27876D02*
X75248D01*
X75291Y27833D01*
X75423Y30876D02*
X75692Y30607D01*
X73872Y30876D02*
X75423D01*
X77089Y33020D02*
Y34036D01*
X75692Y33020D02*
Y34036D01*
Y31623D02*
X77089D01*
X66421Y36068D02*
Y37084D01*
X65024Y36068D02*
Y37084D01*
Y34671D02*
X66421D01*
X63627Y22606D02*
X64643D01*
X68199Y44196D02*
X69215D01*
X61722Y44577D02*
Y46482D01*
Y44577D02*
X62103Y44196D01*
X62865D01*
X15113Y24130D02*
Y25146D01*
X26060Y43078D02*
X26670Y43688D01*
X1575Y39345D02*
X12573D01*
X17399Y39675D02*
Y40513D01*
X26670Y43688D02*
X32258D01*
X37973Y32512D02*
X38354Y32893D01*
X36957Y32512D02*
X37973D01*
X39025Y33259D02*
X39497Y33731D01*
X38748Y33259D02*
X39025D01*
X38383Y32893D02*
X38748Y33259D01*
X38354Y32893D02*
X38383D01*
X82042Y3556D02*
Y5715D01*
Y5461D02*
Y7493D01*
X80645Y8890D02*
X82042Y7493D01*
X83439Y5715D02*
X85725D01*
X86868Y11811D02*
Y12827D01*
X88265Y11811D02*
Y12827D01*
Y10414D02*
X96432D01*
X86868D02*
X88265D01*
X82986Y23912D02*
Y25309D01*
X89968Y23658D02*
X96468D01*
X89678Y23368D02*
X89968Y23658D01*
X88265Y23368D02*
X89678D01*
X86868D02*
X88265D01*
X94972Y18229D02*
X96325D01*
X94972Y19304D02*
X96393D01*
X94972Y20379D02*
X96334D01*
X71882Y3302D02*
Y5588D01*
X69342Y3302D02*
Y5588D01*
X64262Y3302D02*
Y5588D01*
X41275Y46904D02*
Y48133D01*
X24003Y41986D02*
X28067Y46050D01*
X24003Y40589D02*
Y41986D01*
X19304Y22098D02*
Y24130D01*
X18655Y21449D02*
X19304Y22098D01*
X84622Y44133D02*
Y46442D01*
X82122Y44133D02*
Y46402D01*
X79522Y44133D02*
Y46462D01*
X77022Y44133D02*
Y46422D01*
X51642Y44087D02*
Y46402D01*
X49042Y44087D02*
Y46462D01*
X31115Y42164D02*
Y42215D01*
X32588D01*
X40005Y44552D02*
Y45466D01*
X41580Y44501D02*
Y45466D01*
X43942Y46482D02*
Y49149D01*
X33260Y47042D02*
Y47535D01*
X23749Y43942D02*
Y45085D01*
X31115Y39751D02*
Y40818D01*
X16256Y37338D02*
Y39116D01*
X16129Y37211D02*
X16256Y37338D01*
X14733Y37211D02*
X16129D01*
X11485Y21200D02*
X12196Y21912D01*
X11485Y19829D02*
Y21200D01*
X84738Y33920D02*
Y37191D01*
X83713Y35391D02*
X84689D01*
X84738Y33920D02*
X86618Y32040D01*
X88320Y36942D02*
Y37679D01*
Y36942D02*
X88648Y36614D01*
X90538D01*
X88195Y35014D02*
X90538D01*
X87622Y34441D02*
X88195Y35014D01*
X86238Y34441D02*
X87622D01*
X88178Y35814D02*
X90538D01*
X87646Y36346D02*
X88178Y35814D01*
X86238Y36346D02*
X87646D01*
X84238Y37691D02*
X84738Y37191D01*
X86238Y35381D02*
X87476D01*
X86893Y37708D02*
X86923Y37679D01*
X86893Y37708D02*
Y38633D01*
X85649Y37705D02*
Y38633D01*
X85647Y37679D02*
X86923D01*
X82042Y26670D02*
X82950D01*
X82042Y28092D02*
X82975D01*
X88265Y24765D02*
Y25730D01*
X84404Y22885D02*
Y23891D01*
X25415Y41971D02*
X26894D01*
X40107Y24136D02*
Y24455D01*
X39472Y25090D02*
X40107Y24455D01*
X39472Y25090D02*
Y29820D01*
X38583Y24994D02*
X38837Y24740D01*
Y24136D02*
Y24740D01*
X42647Y24136D02*
Y24740D01*
X42901Y24994D01*
X38837Y12802D02*
Y18486D01*
X5334Y18390D02*
X7493Y20549D01*
X5334Y23390D02*
X7515Y21209D01*
X12196Y23186D02*
Y24452D01*
X10990Y23182D02*
X13039D01*
X10496Y22688D02*
X10990Y23182D01*
X9957Y21209D02*
X10496Y21749D01*
Y22688D01*
X7515Y21209D02*
X9957D01*
X7493Y20549D02*
X9931D01*
X10516Y19126D02*
X10719Y18923D01*
X10516Y19126D02*
Y19964D01*
X9931Y20549D02*
X10516Y19964D01*
X13360Y18923D02*
X13614Y19177D01*
Y20549D01*
X13865Y20799D01*
X12882Y18927D02*
Y19829D01*
X10719Y18923D02*
X13360D01*
X13865Y20799D02*
X15014D01*
X13828Y21449D02*
X15014D01*
X16839Y20799D02*
X18014D01*
X29464Y44704D02*
Y45593D01*
X31115Y44704D02*
Y45593D01*
X17907Y24130D02*
Y25273D01*
X16510Y24130D02*
Y25273D01*
X18014Y21449D02*
X18655D01*
X18014Y22099D02*
Y22967D01*
X13716Y39243D02*
X14732D01*
X11176Y29210D02*
Y30734D01*
X9779Y29210D02*
Y30734D01*
X25400Y39497D02*
Y40589D01*
X26894Y41021D02*
X30988D01*
X31039Y42088D02*
X31115Y42164D01*
X29611Y42088D02*
X31039D01*
X11176Y29210D02*
X12573D01*
Y30607D02*
X13081Y31115D01*
X14224D01*
X14605Y31496D01*
Y32893D01*
X9779Y28321D02*
Y29210D01*
X12573Y26670D02*
Y29210D01*
X34036Y6096D02*
Y8611D01*
X60960Y13259D02*
X61849Y12370D01*
X76454D01*
X77470Y13386D01*
Y17704D01*
X71882Y18339D02*
X76835D01*
X77470Y17704D01*
X60960Y13259D02*
Y17780D01*
X61519Y18339D01*
X66421D01*
X38354Y31369D02*
X40569D01*
X38481Y12446D02*
X38837Y12802D01*
X36449Y12446D02*
X38481D01*
X38583Y24994D02*
Y29906D01*
X38288Y30201D02*
X38583Y29906D01*
X34315Y30201D02*
X38288D01*
X38633Y30658D02*
X39472Y29820D01*
X34163Y30353D02*
X34315Y30201D01*
X34163Y30353D02*
Y31115D01*
X37414Y30658D02*
X38633D01*
X36957Y31115D02*
X37414Y30658D01*
X35560Y31115D02*
X36957D01*
Y31369D02*
X37125D01*
X34163Y32512D02*
X36195Y34544D01*
X35560Y32893D02*
X36957Y34290D01*
X35560Y32512D02*
Y32893D01*
X38557Y34493D02*
X39497D01*
X38354Y34290D02*
X38557Y34493D01*
X42901Y24994D02*
Y29947D01*
X43180Y30226D01*
X36195Y34544D02*
Y34757D01*
X66294Y33655D02*
X66897D01*
X73872Y31376D02*
X75438D01*
X86868Y24765D02*
Y25730D01*
X63595Y25876D02*
X64643D01*
X73406Y33528D02*
X73872Y33062D01*
Y31376D02*
Y33062D01*
X72263Y19812D02*
Y20599D01*
X64643Y25273D02*
Y25876D01*
X66057Y24401D02*
X66897D01*
X66040Y24384D02*
X66057Y24401D01*
X19304Y24130D02*
Y24943D01*
X18999Y25248D02*
X19304Y24943D01*
X12573Y26670D02*
X14275Y24968D01*
X59182Y46482D02*
Y49149D01*
X59233Y49200D01*
X59182Y21398D02*
X60464Y20117D01*
X59182Y21398D02*
Y32868D01*
X58674Y21260D02*
X60274Y19660D01*
X58674Y21260D02*
Y31979D01*
X39370Y6604D02*
Y6626D01*
X15014Y22099D02*
Y24031D01*
X14199Y22555D02*
X14275Y22631D01*
Y24968D01*
X13513Y21764D02*
X13828Y21449D01*
X13513Y21764D02*
Y22708D01*
X13039Y23182D02*
X13513Y22708D01*
X18014Y22967D02*
X18059Y22922D01*
X37506Y36068D02*
X54585D01*
X41275Y46904D02*
X51603Y36576D01*
X55474D01*
X59182Y32868D01*
X54585Y36068D02*
X58674Y31979D01*
X18014Y19665D02*
Y20149D01*
X17526Y19177D02*
X18014Y19665D01*
X17120Y19177D02*
X17526D01*
X17043Y19253D02*
X17120Y19177D01*
X84383Y25309D02*
Y26706D01*
X81915Y11938D02*
Y18911D01*
Y11938D02*
X87122Y6731D01*
Y3556D02*
Y6731D01*
X43180Y30226D02*
X52705D01*
X53848Y31369D01*
X34036Y10008D02*
X36551Y7493D01*
X37541D01*
X38278Y6756D01*
X37868Y8128D02*
X39370Y6626D01*
X36576Y8128D02*
X37868D01*
X35560Y9144D02*
X36576Y8128D01*
X35560Y9144D02*
Y10160D01*
Y11557D02*
X36449Y12446D01*
X36957Y11557D02*
X37973D01*
X36957Y8890D02*
Y10160D01*
X36576Y6096D02*
X37846Y4826D01*
X42647Y9677D02*
Y18486D01*
Y9677D02*
X44196Y8128D01*
X51562D01*
Y5588D02*
Y6731D01*
X49276Y5080D02*
X49530D01*
X50419Y5969D01*
X37846Y4826D02*
X47879D01*
X50419Y7366D01*
D37*
X1372Y40513D02*
X15824D01*
X711Y39853D02*
X1372Y40513D01*
X711Y32877D02*
Y39853D01*
Y32877D02*
X1356Y32233D01*
X89789Y44704D02*
Y47752D01*
X88341Y49200D02*
X89789Y47752D01*
X84201Y39116D02*
X89789Y44704D01*
X79756Y39116D02*
X84201D01*
X79781Y27642D02*
Y28042D01*
X90297Y17780D02*
X91186D01*
X91635Y18229D01*
X91972D01*
X90297Y19304D02*
X91972D01*
X90297Y20828D02*
X91313D01*
X91762Y20379D01*
X91972D01*
X8128Y23876D02*
X8890Y23114D01*
X8128Y23876D02*
Y30226D01*
X6121Y32233D02*
X8128Y30226D01*
X1356Y32233D02*
X6121D01*
X33260Y47535D02*
X34925Y49200D01*
X25146Y36449D02*
X26924D01*
X28956Y36957D02*
X29464Y36449D01*
X28956Y36957D02*
Y38481D01*
X29464Y36449D02*
X31369D01*
X26924D02*
X27432Y36957D01*
Y38481D01*
X26924Y38989D02*
X27432Y38481D01*
X26924Y38989D02*
Y40071D01*
X28956Y38481D02*
X29464Y38989D01*
Y40071D01*
Y46990D02*
X30988D01*
X46482Y43180D02*
Y46482D01*
Y43180D02*
X49022Y40640D01*
X52832D01*
X64643Y25273D02*
X65608D01*
X66040Y24841D01*
X66057Y22623D02*
Y24401D01*
X66040Y22606D02*
X66057Y22623D01*
X66040Y24384D02*
Y24841D01*
X66065Y21692D02*
Y22581D01*
X66040Y22606D02*
X66065Y22581D01*
X34925Y49200D02*
X59233D01*
X88341D01*
X15469Y8382D02*
X19914D01*
X21463Y6833D01*
X63017Y22606D02*
X63627D01*
X62103Y23520D02*
X63017Y22606D01*
X62103Y23520D02*
Y24384D01*
Y25781D01*
X52832Y40640D02*
X61874Y31598D01*
Y31090D02*
Y31598D01*
X84383Y30897D02*
Y32305D01*
X84379Y32309D02*
X84383Y32305D01*
X84049Y32639D02*
Y33249D01*
Y32639D02*
X84379Y32309D01*
D38*
X40056Y43104D02*
X41580D01*
X37897D02*
X40056D01*
X31115Y46990D02*
X33208D01*
X29464D02*
X31115D01*
X26289D02*
X29464D01*
X21565Y46457D02*
X25756D01*
X33208Y46990D02*
X33260Y47042D01*
X25756Y46457D02*
X26289Y46990D01*
X21463Y46355D02*
Y48108D01*
X18669Y47553D02*
X21433D01*
X19272Y37592D02*
X21590D01*
X18796Y38068D02*
Y40513D01*
Y42164D01*
X21209Y42291D02*
X21971D01*
X21209Y41402D02*
Y42291D01*
X21971Y41402D02*
Y42291D01*
X21463Y46355D02*
X21844D01*
X18669Y43053D02*
X19304D01*
X20606Y44355D01*
X21463D01*
D39*
X84383Y26706D02*
Y28103D01*
Y28611D02*
X86618D01*
X84383Y28103D02*
Y29500D01*
X82986D02*
Y30897D01*
X86618Y32040D02*
X88792Y34214D01*
X90538D01*
X79781Y31642D02*
X82979D01*
X82986Y30897D02*
Y32305D01*
X90538Y37414D02*
Y38214D01*
X90170Y38608D02*
X90551Y38227D01*
X89281Y38608D02*
X90170D01*
X23952Y47803D02*
X24841D01*
X23952Y48565D02*
X24841D01*
Y47803D02*
Y48565D01*
D40*
X79769Y29159D02*
D03*
D41*
X95567Y19304D02*
D03*
D42*
X5461Y13399D02*
D03*
D43*
X1969Y18542D02*
D03*
D44*
X3112Y28956D02*
D03*
D45*
X35560Y43688D02*
D03*
D46*
X38481Y47117D02*
D03*
D47*
X35560Y45657D02*
D03*
D48*
X7620Y35433D02*
D03*
D49*
X18529Y34091D02*
D03*
D50*
X94361Y31369D02*
D03*
Y40269D02*
D03*
D51*
X32385Y36449D02*
D03*
D52*
X43917Y21311D02*
D03*
X37567D02*
D03*
D53*
X31547D02*
D03*
D54*
X49759Y21311D02*
D03*
D55*
X41377Y18453D02*
D03*
D56*
X32487Y27978D02*
D03*
Y14643D02*
D03*
D57*
X49200D02*
D03*
D58*
X49187Y27978D02*
D03*
D59*
X40107Y17310D02*
D03*
D60*
X41123Y28169D02*
D03*
D61*
X12700Y9144D02*
D03*
D62*
X20752Y14656D02*
D03*
D63*
X23812Y8890D02*
D03*
D64*
X54839Y6655D02*
D03*
D65*
X34252Y2362D02*
D03*
D66*
X17700Y3619D02*
D03*
D67*
X26479Y5779D02*
D03*
D68*
X21628Y24955D02*
D03*
D69*
X16510Y28194D02*
D03*
D70*
X25057Y27483D02*
D03*
D71*
X24397Y48184D02*
D03*
D72*
X18669Y47498D02*
D03*
D73*
X49079Y32360D02*
D03*
X47435Y10414D02*
D03*
D74*
X12128Y45276D02*
D03*
D75*
X4001Y6477D02*
D03*
D76*
X55994Y21311D02*
D03*
D77*
X4000Y46000D02*
D03*
X96000D02*
D03*
X4000Y4000D02*
D03*
X96000D02*
D03*
D78*
X61722Y3302D02*
D03*
X23876Y6096D02*
D03*
X59182Y46482D02*
D03*
X43942D02*
D03*
X74422D02*
D03*
D79*
X64262Y3302D02*
D03*
X66802Y3302D02*
D03*
X69342Y3302D02*
D03*
X71882Y3302D02*
D03*
X26416Y6096D02*
D03*
X28956Y6096D02*
D03*
X31496Y6096D02*
D03*
X34036Y6096D02*
D03*
X36576Y6096D02*
D03*
X61722Y46482D02*
D03*
X64262Y46482D02*
D03*
X66802Y46482D02*
D03*
X69342Y46482D02*
D03*
X46482Y46482D02*
D03*
X49022Y46482D02*
D03*
X51562Y46482D02*
D03*
X54102Y46482D02*
D03*
X76962Y46482D02*
D03*
X79502Y46482D02*
D03*
X82042Y46482D02*
D03*
X84582Y46482D02*
D03*
X87122Y46482D02*
D03*
X12196Y24452D02*
D03*
X12196Y21912D02*
D03*
X61874Y31090D02*
D03*
X61874Y28550D02*
D03*
D80*
X3556Y35560D02*
D03*
D81*
Y30560D02*
D03*
X17700Y3556D02*
D03*
D82*
X5334Y13390D02*
D03*
Y18390D02*
D03*
D83*
Y23390D02*
D03*
D84*
X12700Y3556D02*
D03*
D85*
X93188Y33614D02*
D03*
Y38014D02*
D03*
D86*
X82042Y3556D02*
D03*
D87*
X84582D02*
D03*
X87122D02*
D03*
D88*
X89968Y10450D02*
D03*
Y14950D02*
D03*
X96468Y10450D02*
D03*
Y14950D02*
D03*
X89968Y23658D02*
D03*
Y28158D02*
D03*
X96468Y23658D02*
D03*
Y28158D02*
D03*
D89*
X54508Y34366D02*
D03*
X58699Y38659D02*
D03*
X59461Y37770D02*
D03*
X70942Y29794D02*
D03*
X70993Y28626D02*
D03*
X72263Y29591D02*
D03*
X73889Y25019D02*
D03*
X67691Y20371D02*
D03*
X71501Y26060D02*
D03*
X67945Y22327D02*
D03*
X76429Y12395D02*
D03*
X65380Y18339D02*
D03*
X63373Y26797D02*
D03*
X66929Y26416D02*
D03*
X62611Y35814D02*
D03*
X67691Y38481D02*
D03*
X60833Y36195D02*
D03*
X69666Y37903D02*
D03*
X67615Y34214D02*
D03*
X68929Y34865D02*
D03*
X68250Y35712D02*
D03*
X73152Y35687D02*
D03*
X53467Y33909D02*
D03*
X57404Y39370D02*
D03*
X70358Y25781D02*
D03*
X84328Y15748D02*
D03*
X78232Y22225D02*
D03*
X79248Y20574D02*
D03*
X78486Y19076D02*
D03*
X73406Y34798D02*
D03*
X64262Y40894D02*
D03*
X66802Y40132D02*
D03*
X72136Y30607D02*
D03*
X73660Y19812D02*
D03*
X70866D02*
D03*
X66294Y33655D02*
D03*
X64643Y25273D02*
D03*
X75692Y30607D02*
D03*
X77089Y34036D02*
D03*
X75692D02*
D03*
X66421Y37084D02*
D03*
X65024D02*
D03*
X63627Y22606D02*
D03*
X69215Y44196D02*
D03*
X26060Y43078D02*
D03*
X1575Y39345D02*
D03*
X12573D02*
D03*
X17393Y39375D02*
D03*
X15926Y40615D02*
D03*
X3810Y27686D02*
D03*
X2540D02*
D03*
X3810Y26670D02*
D03*
X2540D02*
D03*
Y28702D02*
D03*
X3810D02*
D03*
X5080D02*
D03*
Y27686D02*
D03*
Y26670D02*
D03*
X15113Y25146D02*
D03*
X84582Y5715D02*
D03*
X86868Y12827D02*
D03*
X88265D02*
D03*
X79756Y39116D02*
D03*
X80137Y29337D02*
D03*
X79375D02*
D03*
X96393Y20396D02*
D03*
Y19304D02*
D03*
Y18237D02*
D03*
X41275Y48133D02*
D03*
X28067Y46050D02*
D03*
X8890Y23114D02*
D03*
X16129Y41910D02*
D03*
X15014Y18443D02*
D03*
X38100Y42926D02*
D03*
Y43942D02*
D03*
Y44958D02*
D03*
X37084D02*
D03*
Y43942D02*
D03*
Y42926D02*
D03*
X36068D02*
D03*
Y43942D02*
D03*
X35052D02*
D03*
Y42926D02*
D03*
X34036D02*
D03*
Y43942D02*
D03*
X36068Y44958D02*
D03*
X35052D02*
D03*
X34036D02*
D03*
X33020Y42926D02*
D03*
Y43942D02*
D03*
Y44958D02*
D03*
X41580Y45466D02*
D03*
X40005D02*
D03*
X39243Y46355D02*
D03*
Y47117D02*
D03*
Y47879D02*
D03*
X23749Y43942D02*
D03*
X19050Y46228D02*
D03*
X18288D02*
D03*
X17526D02*
D03*
X19812D02*
D03*
X87478Y35382D02*
D03*
X85649Y38633D02*
D03*
X86893Y38659D02*
D03*
X82042Y28092D02*
D03*
Y26670D02*
D03*
X88265Y25730D02*
D03*
X92583Y40894D02*
D03*
X93345D02*
D03*
X94107D02*
D03*
X92669Y30734D02*
D03*
X93431D02*
D03*
X94193D02*
D03*
X89281Y38608D02*
D03*
X90551Y38227D02*
D03*
X89967Y38608D02*
D03*
X84404Y22885D02*
D03*
X32766Y34925D02*
D03*
Y35687D02*
D03*
Y36449D02*
D03*
Y37211D02*
D03*
Y37973D02*
D03*
Y38735D02*
D03*
X32004D02*
D03*
X31242D02*
D03*
X30480D02*
D03*
X32766Y34163D02*
D03*
X32004D02*
D03*
X31242D02*
D03*
X30480D02*
D03*
X45187Y22581D02*
D03*
Y21946D02*
D03*
Y21311D02*
D03*
Y20676D02*
D03*
Y20041D02*
D03*
X46457Y22581D02*
D03*
Y23851D02*
D03*
Y25121D02*
D03*
Y21311D02*
D03*
Y20041D02*
D03*
Y18771D02*
D03*
Y17501D02*
D03*
X47727D02*
D03*
Y18771D02*
D03*
Y20041D02*
D03*
Y21311D02*
D03*
Y25121D02*
D03*
Y23851D02*
D03*
Y22581D02*
D03*
X48997Y17501D02*
D03*
Y18771D02*
D03*
Y20041D02*
D03*
Y21311D02*
D03*
Y25121D02*
D03*
Y23851D02*
D03*
Y22581D02*
D03*
X50267Y17501D02*
D03*
Y18771D02*
D03*
Y20041D02*
D03*
Y21311D02*
D03*
Y25121D02*
D03*
Y23851D02*
D03*
Y22581D02*
D03*
X51537Y17501D02*
D03*
Y18771D02*
D03*
Y20041D02*
D03*
Y21311D02*
D03*
Y25121D02*
D03*
Y23851D02*
D03*
Y22581D02*
D03*
X52807Y17501D02*
D03*
Y18771D02*
D03*
Y20041D02*
D03*
Y21311D02*
D03*
Y25121D02*
D03*
Y23851D02*
D03*
Y22581D02*
D03*
X54077Y17501D02*
D03*
Y18771D02*
D03*
Y20041D02*
D03*
Y21311D02*
D03*
Y25121D02*
D03*
Y23851D02*
D03*
Y22581D02*
D03*
X37313Y25375D02*
D03*
X37821Y25883D02*
D03*
X37313Y26391D02*
D03*
X37821Y26899D02*
D03*
X37313Y27407D02*
D03*
X37821Y27915D02*
D03*
X37313Y28423D02*
D03*
X37821Y28931D02*
D03*
X37313Y29439D02*
D03*
X36297Y29312D02*
D03*
Y28042D02*
D03*
Y26772D02*
D03*
X35027Y29312D02*
D03*
Y28042D02*
D03*
Y26772D02*
D03*
X33757Y29312D02*
D03*
Y28042D02*
D03*
Y26772D02*
D03*
X32487Y29312D02*
D03*
Y28042D02*
D03*
Y26772D02*
D03*
X31217Y29312D02*
D03*
Y28042D02*
D03*
Y26772D02*
D03*
X29947Y29312D02*
D03*
Y28042D02*
D03*
Y26772D02*
D03*
X28677Y29312D02*
D03*
Y28042D02*
D03*
Y26772D02*
D03*
X27407Y29312D02*
D03*
Y28042D02*
D03*
Y26772D02*
D03*
X36297Y20041D02*
D03*
Y20676D02*
D03*
Y21311D02*
D03*
Y21946D02*
D03*
Y22581D02*
D03*
X54077Y15850D02*
D03*
Y14580D02*
D03*
Y13310D02*
D03*
X52807Y15850D02*
D03*
Y14580D02*
D03*
Y13310D02*
D03*
X51537Y15850D02*
D03*
Y14580D02*
D03*
Y13310D02*
D03*
X50267Y15850D02*
D03*
Y14580D02*
D03*
Y13310D02*
D03*
X48997Y15850D02*
D03*
Y14580D02*
D03*
Y13310D02*
D03*
X47727Y15850D02*
D03*
Y14580D02*
D03*
Y13310D02*
D03*
X46457Y15850D02*
D03*
Y14580D02*
D03*
Y13310D02*
D03*
X45187Y15850D02*
D03*
Y14580D02*
D03*
Y13310D02*
D03*
X44171Y13183D02*
D03*
X43663Y13691D02*
D03*
X44171Y14199D02*
D03*
X43663Y14707D02*
D03*
X44171Y15215D02*
D03*
X43663Y15723D02*
D03*
X44171Y16231D02*
D03*
X43663Y16739D02*
D03*
X44171Y17247D02*
D03*
X27407Y15850D02*
D03*
Y14580D02*
D03*
Y13310D02*
D03*
X28677Y15850D02*
D03*
Y14580D02*
D03*
Y13310D02*
D03*
X29947Y15850D02*
D03*
Y14580D02*
D03*
Y13310D02*
D03*
X31217Y15850D02*
D03*
Y14580D02*
D03*
Y13310D02*
D03*
X32487Y15850D02*
D03*
Y14580D02*
D03*
Y13310D02*
D03*
X33757Y15850D02*
D03*
Y14580D02*
D03*
Y13310D02*
D03*
X35027Y15850D02*
D03*
Y14580D02*
D03*
Y13310D02*
D03*
X36297Y15850D02*
D03*
Y14580D02*
D03*
Y13310D02*
D03*
X37313Y13183D02*
D03*
X37821Y13691D02*
D03*
X37313Y14199D02*
D03*
X37821Y14707D02*
D03*
X37313Y15215D02*
D03*
X37821Y15723D02*
D03*
X37313Y16231D02*
D03*
X37821Y16739D02*
D03*
X37313Y17247D02*
D03*
X54077Y26772D02*
D03*
Y28042D02*
D03*
Y29312D02*
D03*
X52807Y26772D02*
D03*
Y28042D02*
D03*
Y29312D02*
D03*
X51537Y26772D02*
D03*
Y28042D02*
D03*
Y29312D02*
D03*
X50267Y26772D02*
D03*
Y28042D02*
D03*
Y29312D02*
D03*
X48997Y26772D02*
D03*
Y28042D02*
D03*
Y29312D02*
D03*
X47727Y26772D02*
D03*
Y28042D02*
D03*
Y29312D02*
D03*
X46457Y26772D02*
D03*
Y28042D02*
D03*
Y29312D02*
D03*
X45187Y26772D02*
D03*
Y28042D02*
D03*
Y29312D02*
D03*
X44171Y29439D02*
D03*
X43663Y28931D02*
D03*
X44171Y28423D02*
D03*
X43663Y27915D02*
D03*
X44171Y27407D02*
D03*
X43663Y26899D02*
D03*
X44171Y26391D02*
D03*
X43663Y25883D02*
D03*
X44171Y25375D02*
D03*
X27407Y20041D02*
D03*
Y18771D02*
D03*
Y17501D02*
D03*
Y21311D02*
D03*
Y22581D02*
D03*
Y23851D02*
D03*
Y25121D02*
D03*
X28677Y20041D02*
D03*
Y18771D02*
D03*
Y17501D02*
D03*
Y21311D02*
D03*
Y22581D02*
D03*
Y23851D02*
D03*
Y25121D02*
D03*
X29947Y20041D02*
D03*
Y18771D02*
D03*
Y17501D02*
D03*
Y21311D02*
D03*
Y22581D02*
D03*
Y23851D02*
D03*
Y25121D02*
D03*
X31217Y20041D02*
D03*
Y18771D02*
D03*
Y17501D02*
D03*
Y21311D02*
D03*
Y22581D02*
D03*
Y23851D02*
D03*
Y25121D02*
D03*
X32487Y20041D02*
D03*
Y18771D02*
D03*
Y17501D02*
D03*
Y21311D02*
D03*
Y22581D02*
D03*
Y23851D02*
D03*
Y25121D02*
D03*
X33757Y20041D02*
D03*
Y18771D02*
D03*
Y17501D02*
D03*
Y21311D02*
D03*
Y22581D02*
D03*
Y23851D02*
D03*
Y25121D02*
D03*
X35027D02*
D03*
Y23851D02*
D03*
Y22581D02*
D03*
Y21311D02*
D03*
Y17501D02*
D03*
Y18771D02*
D03*
Y20041D02*
D03*
X41504Y17374D02*
D03*
X40742D02*
D03*
X39980D02*
D03*
X41504Y16104D02*
D03*
X40742D02*
D03*
X39980D02*
D03*
Y14834D02*
D03*
Y13564D02*
D03*
X40742Y14834D02*
D03*
X41504D02*
D03*
Y13564D02*
D03*
X40742D02*
D03*
X41046Y25248D02*
D03*
X41707D02*
D03*
X41885Y27280D02*
D03*
X41123D02*
D03*
X40361Y28296D02*
D03*
Y29312D02*
D03*
Y27280D02*
D03*
Y26264D02*
D03*
X41123D02*
D03*
X41885D02*
D03*
X41123Y28296D02*
D03*
X41885D02*
D03*
Y29312D02*
D03*
X41123D02*
D03*
X49276Y5080D02*
D03*
X45974Y9271D02*
D03*
X45212D02*
D03*
Y10033D02*
D03*
Y10795D02*
D03*
Y11557D02*
D03*
X46736Y9271D02*
D03*
X47498D02*
D03*
X48260D02*
D03*
X49022D02*
D03*
X49784D02*
D03*
X51428Y33503D02*
D03*
X50666D02*
D03*
X49904D02*
D03*
X49142D02*
D03*
X48380D02*
D03*
X46856Y31217D02*
D03*
Y31979D02*
D03*
Y32741D02*
D03*
Y33503D02*
D03*
X47618D02*
D03*
X29464Y44704D02*
D03*
X31115D02*
D03*
X16510Y25273D02*
D03*
X17907D02*
D03*
X20574Y31623D02*
D03*
X21590D02*
D03*
X22606D02*
D03*
Y30607D02*
D03*
X21590D02*
D03*
X20574D02*
D03*
Y29591D02*
D03*
X21590D02*
D03*
X22606D02*
D03*
Y25781D02*
D03*
X21590D02*
D03*
X20574D02*
D03*
Y24765D02*
D03*
X21590D02*
D03*
X22606D02*
D03*
Y23749D02*
D03*
X21590D02*
D03*
X20574D02*
D03*
Y22733D02*
D03*
X21590D02*
D03*
X22606D02*
D03*
Y21717D02*
D03*
X21590D02*
D03*
X20574D02*
D03*
Y20701D02*
D03*
X21590D02*
D03*
X22606D02*
D03*
Y19685D02*
D03*
X21590D02*
D03*
X20574D02*
D03*
Y18669D02*
D03*
X21590D02*
D03*
X22606D02*
D03*
X14605Y26670D02*
D03*
Y27432D02*
D03*
Y28194D02*
D03*
Y28956D02*
D03*
Y29718D02*
D03*
X18415D02*
D03*
X17653D02*
D03*
X16891D02*
D03*
X16129D02*
D03*
X15367D02*
D03*
Y28956D02*
D03*
Y28194D02*
D03*
Y27432D02*
D03*
Y26670D02*
D03*
X17043Y19253D02*
D03*
X8001Y41783D02*
D03*
X9017D02*
D03*
X10033D02*
D03*
X13081D02*
D03*
X12065D02*
D03*
X11049D02*
D03*
X15113D02*
D03*
X14097D02*
D03*
Y48768D02*
D03*
X15113D02*
D03*
X16129D02*
D03*
X11049D02*
D03*
X12065D02*
D03*
X13081D02*
D03*
X10033D02*
D03*
X9017D02*
D03*
X8001D02*
D03*
X15113Y42799D02*
D03*
X16129D02*
D03*
X15113Y43815D02*
D03*
X16129D02*
D03*
Y46863D02*
D03*
X15113D02*
D03*
Y47879D02*
D03*
X16129D02*
D03*
Y45847D02*
D03*
X15113D02*
D03*
Y44831D02*
D03*
X16129D02*
D03*
X13716Y39243D02*
D03*
X33528Y34163D02*
D03*
Y38735D02*
D03*
Y37973D02*
D03*
Y37211D02*
D03*
Y36449D02*
D03*
Y35687D02*
D03*
Y34925D02*
D03*
X34290Y34163D02*
D03*
Y38735D02*
D03*
Y37973D02*
D03*
Y37211D02*
D03*
Y36449D02*
D03*
Y35687D02*
D03*
Y34925D02*
D03*
X25400Y39497D02*
D03*
X31115Y39751D02*
D03*
X9779Y28321D02*
D03*
X39446Y6350D02*
D03*
X21209Y42291D02*
D03*
X21971D02*
D03*
X24841Y47803D02*
D03*
Y48565D02*
D03*
X19812Y48895D02*
D03*
X17526D02*
D03*
X18288D02*
D03*
X19050D02*
D03*
X36957Y8890D02*
D03*
X39497Y34493D02*
D03*
X51562Y5588D02*
D03*
X39497Y33731D02*
D03*
X76454Y23622D02*
D03*
X73406Y33528D02*
D03*
X86868Y25730D02*
D03*
X72263Y19812D02*
D03*
X72923Y18339D02*
D03*
X66065Y21692D02*
D03*
X18999Y25248D02*
D03*
X15469Y8382D02*
D03*
X38481Y6477D02*
D03*
X21463Y6833D02*
D03*
X63144Y27686D02*
D03*
X14199Y22555D02*
D03*
X18059Y22758D02*
D03*
X62662Y22962D02*
D03*
X62967Y12370D02*
D03*
X84049Y33249D02*
D03*
X54991Y32842D02*
D03*
D90*
X1835Y47250D02*
D03*
Y44750D02*
D03*
X4000Y43500D02*
D03*
X6165Y44750D02*
D03*
X4000Y48500D02*
D03*
X6165Y47250D02*
D03*
X93835D02*
D03*
Y44750D02*
D03*
X96000Y43500D02*
D03*
X98165Y44750D02*
D03*
X96000Y48500D02*
D03*
X98165Y47250D02*
D03*
X1835Y5250D02*
D03*
Y2750D02*
D03*
X4000Y1500D02*
D03*
X6165Y2750D02*
D03*
X4000Y6500D02*
D03*
X6165Y5250D02*
D03*
X93835D02*
D03*
Y2750D02*
D03*
X96000Y1500D02*
D03*
X98165Y2750D02*
D03*
X96000Y6500D02*
D03*
X98165Y5250D02*
D03*
D91*
X15914Y21724D02*
D03*
X17114D02*
D03*
X15914Y20524D02*
D03*
X17114D02*
D03*
X9741Y35306D02*
D03*
Y34306D02*
D03*
Y33306D02*
D03*
Y37306D02*
D03*
Y36306D02*
D03*
X12741Y35306D02*
D03*
Y33306D02*
D03*
Y36306D02*
D03*
Y37306D02*
D03*
Y34306D02*
D03*
X10741Y36306D02*
D03*
Y37306D02*
D03*
Y33306D02*
D03*
Y34306D02*
D03*
Y35306D02*
D03*
X11741Y34306D02*
D03*
Y37306D02*
D03*
Y36306D02*
D03*
Y33306D02*
D03*
Y35306D02*
D03*
M02*
