%FSLAX43Y43*%
%MOMM*%
G71*
G01*
G75*
G04 Layer_Color=32896*
%ADD10R,1.270X0.508*%
%ADD11R,0.762X0.762*%
%ADD12R,2.160X2.500*%
%ADD13R,0.762X0.762*%
%ADD14R,2.300X0.500*%
%ADD15R,2.500X2.000*%
%ADD16R,6.200X5.800*%
%ADD17R,3.000X1.600*%
G04:AMPARAMS|DCode=18|XSize=2.5mm|YSize=1.7mm|CornerRadius=0.212mm|HoleSize=0mm|Usage=FLASHONLY|Rotation=90.000|XOffset=0mm|YOffset=0mm|HoleType=Round|Shape=RoundedRectangle|*
%AMROUNDEDRECTD18*
21,1,2.500,1.275,0,0,90.0*
21,1,2.075,1.700,0,0,90.0*
1,1,0.425,0.637,1.038*
1,1,0.425,0.637,-1.038*
1,1,0.425,-0.637,-1.038*
1,1,0.425,-0.637,1.038*
%
%ADD18ROUNDEDRECTD18*%
%ADD19R,1.524X1.524*%
%ADD20R,2.032X3.175*%
%ADD21R,1.000X1.000*%
%ADD22R,1.016X1.270*%
%ADD23R,3.500X2.200*%
%ADD24R,1.200X2.200*%
%ADD25R,1.100X0.600*%
%ADD26O,0.650X1.650*%
%ADD27R,5.600X2.100*%
%ADD28O,1.450X0.300*%
%ADD29O,0.300X1.450*%
%ADD30R,1.200X0.750*%
%ADD31R,1.700X2.500*%
%ADD32O,0.800X0.350*%
%ADD33R,4.400X1.900*%
%ADD34R,1.000X0.750*%
%ADD35C,0.203*%
%ADD36C,0.254*%
%ADD37C,0.406*%
%ADD38C,0.762*%
%ADD39C,0.508*%
%ADD40R,1.702X1.270*%
%ADD41R,2.667X3.302*%
%ADD42R,4.318X4.953*%
%ADD43R,2.667X15.240*%
%ADD44R,4.953X5.588*%
%ADD45R,6.604X3.556*%
%ADD46R,2.540X2.540*%
%ADD47R,1.219X0.635*%
%ADD48R,12.192X5.588*%
%ADD49R,9.119X4.715*%
%ADD50R,10.160X2.286*%
%ADD51R,4.826X5.588*%
%ADD52R,1.270X9.652*%
%ADD53R,10.262X8.890*%
%ADD54R,9.906X8.890*%
%ADD55R,1.270X13.589*%
%ADD56R,11.430X3.683*%
%ADD57R,11.836X3.683*%
%ADD58R,11.811X3.683*%
%ADD59R,1.270X11.303*%
%ADD60R,2.540X5.842*%
%ADD61R,4.064X14.732*%
%ADD62R,12.040X3.708*%
%ADD63R,2.413X8.128*%
%ADD64R,4.064X12.294*%
%ADD65R,37.160X3.708*%
%ADD66R,4.064X3.683*%
%ADD67R,2.413X3.175*%
%ADD68R,2.921X13.589*%
%ADD69R,4.826X4.064*%
%ADD70R,2.921X21.234*%
%ADD71R,0.889X0.762*%
%ADD72R,3.048X3.556*%
%ADD73R,5.461X3.302*%
%ADD74R,9.271X8.001*%
%ADD75R,4.953X8.890*%
%ADD76R,1.803X17.018*%
%ADD77C,6.500*%
%ADD78R,1.778X1.778*%
%ADD79C,1.778*%
%ADD80R,2.200X2.200*%
%ADD81C,2.200*%
%ADD82C,2.700*%
%ADD83R,2.700X2.700*%
%ADD84R,2.200X2.200*%
%ADD85C,0.900*%
%ADD86R,1.524X1.524*%
%ADD87C,1.524*%
%ADD88C,1.500*%
%ADD89C,0.700*%
%ADD90C,1.000*%
%ADD91C,0.500*%
%ADD92R,4.191X5.588*%
%ADD93R,6.604X3.048*%
%ADD94R,13.208X3.048*%
%ADD95R,1.270X2.794*%
%ADD96R,4.572X6.858*%
%ADD97R,2.794X17.018*%
%ADD98R,22.860X2.921*%
%ADD99R,2.921X18.796*%
%ADD100R,17.856X6.096*%
%ADD101R,6.350X12.700*%
%ADD102R,15.494X5.842*%
%ADD103C,0.250*%
%ADD104C,0.100*%
%ADD105C,0.600*%
%ADD106C,0.127*%
%ADD107C,0.025*%
%ADD108C,0.203*%
%ADD109C,0.102*%
%ADD110C,0.200*%
%ADD111C,0.152*%
%ADD112C,0.229*%
%ADD113R,0.762X0.500*%
%ADD114R,2.530X2.540*%
%ADD115R,0.500X1.000*%
%ADD116R,1.473X0.711*%
%ADD117R,0.965X0.965*%
%ADD118R,2.363X2.703*%
%ADD119R,0.965X0.965*%
%ADD120R,2.503X0.703*%
%ADD121R,2.703X2.203*%
%ADD122R,6.403X6.003*%
%ADD123R,3.203X1.803*%
G04:AMPARAMS|DCode=124|XSize=2.703mm|YSize=1.903mm|CornerRadius=0.314mm|HoleSize=0mm|Usage=FLASHONLY|Rotation=90.000|XOffset=0mm|YOffset=0mm|HoleType=Round|Shape=RoundedRectangle|*
%AMROUNDEDRECTD124*
21,1,2.703,1.275,0,0,90.0*
21,1,2.075,1.903,0,0,90.0*
1,1,0.628,0.637,1.038*
1,1,0.628,0.637,-1.038*
1,1,0.628,-0.637,-1.038*
1,1,0.628,-0.637,1.038*
%
%ADD124ROUNDEDRECTD124*%
%ADD125R,1.727X1.727*%
%ADD126R,2.235X3.378*%
%ADD127R,1.203X1.203*%
%ADD128R,1.219X1.473*%
%ADD129R,3.703X2.403*%
%ADD130R,1.403X2.403*%
%ADD131R,1.303X0.803*%
%ADD132O,0.853X1.853*%
%ADD133R,5.803X2.303*%
%ADD134O,1.653X0.503*%
%ADD135O,0.503X1.653*%
%ADD136R,1.403X0.953*%
%ADD137R,1.903X2.703*%
%ADD138O,1.003X0.553*%
%ADD139R,4.603X2.103*%
%ADD140R,1.203X0.953*%
%ADD141R,1.981X1.981*%
%ADD142C,1.981*%
%ADD143R,2.403X2.403*%
%ADD144C,2.403*%
%ADD145C,2.903*%
%ADD146R,2.903X2.903*%
%ADD147R,2.403X2.403*%
%ADD148R,1.727X1.727*%
%ADD149C,1.727*%
%ADD150C,1.703*%
%ADD151C,1.203*%
%ADD152C,0.703*%
D35*
X49022Y44704D02*
X49403Y44323D01*
X49022Y44704D02*
X49403Y44323D01*
X49022Y43688D02*
Y44704D01*
X48641Y44323D02*
X49022Y44704D01*
X51562Y43688D02*
X51943Y44069D01*
X51562Y43688D02*
Y44704D01*
X51181Y44069D02*
X51562Y43688D01*
D36*
X1041Y31043D02*
Y30027D01*
Y36043D02*
Y35027D01*
X1549Y35535D02*
X533D01*
X17217Y1041D02*
X18233D01*
X12217D02*
X13233D01*
X12725Y1549D02*
Y533D01*
X87630Y40259D02*
X87884Y40005D01*
Y39497D01*
X87630Y39243D01*
X86614D01*
X86360Y39497D01*
Y40005D01*
X86614Y40259D01*
X87122D01*
Y39751D01*
X86360Y40767D02*
X87884D01*
X86360Y41782D01*
X87884D01*
Y42290D02*
X86360D01*
Y43052D01*
X86614Y43306D01*
X87630D01*
X87884Y43052D01*
Y42290D01*
X15113Y20193D02*
Y21209D01*
Y20701D01*
X13589D01*
X15113Y22732D02*
Y21717D01*
X13589D01*
Y22732D01*
X14351Y21717D02*
Y22224D01*
X13589Y23240D02*
X15113D01*
Y24002D01*
X14859Y24256D01*
X14351D01*
X14097Y24002D01*
Y23240D01*
Y23748D02*
X13589Y24256D01*
Y24764D02*
X15113D01*
X14605Y25271D01*
X15113Y25779D01*
X13589D01*
X62484Y4953D02*
X61468D01*
X60960Y5461D01*
X61468Y5969D01*
X62484D01*
X62230Y7492D02*
X62484Y7238D01*
Y6730D01*
X62230Y6477D01*
X61214D01*
X60960Y6730D01*
Y7238D01*
X61214Y7492D01*
X62230Y9016D02*
X62484Y8762D01*
Y8254D01*
X62230Y8000D01*
X61214D01*
X60960Y8254D01*
Y8762D01*
X61214Y9016D01*
X64770Y5969D02*
X65024Y5715D01*
Y5207D01*
X64770Y4953D01*
X64516D01*
X64262Y5207D01*
Y5715D01*
X64008Y5969D01*
X63754D01*
X63500Y5715D01*
Y5207D01*
X63754Y4953D01*
X65024Y6477D02*
X63500D01*
X64008Y6984D01*
X63500Y7492D01*
X65024D01*
X64770Y9016D02*
X65024Y8762D01*
Y8254D01*
X64770Y8000D01*
X63754D01*
X63500Y8254D01*
Y8762D01*
X63754Y9016D01*
X65024Y9524D02*
X63500D01*
Y10539D01*
X65024Y11047D02*
X63500D01*
X64008D01*
X65024Y12063D01*
X64262Y11301D01*
X63500Y12063D01*
X67310Y5969D02*
X67564Y5715D01*
Y5207D01*
X67310Y4953D01*
X66294D01*
X66040Y5207D01*
Y5715D01*
X66294Y5969D01*
X66802D01*
Y5461D01*
X66040Y6477D02*
X67564D01*
X66040Y7492D01*
X67564D01*
Y8000D02*
X66040D01*
Y8762D01*
X66294Y9016D01*
X67310D01*
X67564Y8762D01*
Y8000D01*
X69850Y5969D02*
X70104Y5715D01*
Y5207D01*
X69850Y4953D01*
X69596D01*
X69342Y5207D01*
Y5715D01*
X69088Y5969D01*
X68834D01*
X68580Y5715D01*
Y5207D01*
X68834Y4953D01*
X70104Y6477D02*
X68580D01*
X69088Y6984D01*
X68580Y7492D01*
X70104D01*
Y8000D02*
X68580D01*
Y8762D01*
X68834Y9016D01*
X69850D01*
X70104Y8762D01*
Y8000D01*
Y9524D02*
Y10031D01*
Y9777D01*
X68580D01*
Y9524D01*
Y10031D01*
X70104Y11555D02*
Y11047D01*
X69850Y10793D01*
X68834D01*
X68580Y11047D01*
Y11555D01*
X68834Y11809D01*
X69850D01*
X70104Y11555D01*
X71120Y4953D02*
X72644D01*
X71120Y5969D01*
X72644D01*
X71120Y6477D02*
X72644D01*
Y7238D01*
X72390Y7492D01*
X71882D01*
X71628Y7238D01*
Y6477D01*
Y6984D02*
X71120Y7492D01*
X72390Y9016D02*
X72644Y8762D01*
Y8254D01*
X72390Y8000D01*
X72136D01*
X71882Y8254D01*
Y8762D01*
X71628Y9016D01*
X71374D01*
X71120Y8762D01*
Y8254D01*
X71374Y8000D01*
X72644Y9524D02*
Y10539D01*
Y10031D01*
X71120D01*
X6773Y28829D02*
X6985Y29041D01*
Y29464D01*
X6773Y29675D01*
X6561D01*
X6350Y29464D01*
Y29252D01*
Y29464D01*
X6138Y29675D01*
X5927D01*
X5715Y29464D01*
Y29041D01*
X5927Y28829D01*
X6773Y30099D02*
X6985Y30310D01*
Y30733D01*
X6773Y30945D01*
X5927D01*
X5715Y30733D01*
Y30310D01*
X5927Y30099D01*
X6773D01*
X6985Y31368D02*
X6138D01*
X5715Y31791D01*
X6138Y32215D01*
X6985D01*
X5715Y33907D02*
X6985D01*
X6561Y34331D01*
X6985Y34754D01*
X5715D01*
Y35177D02*
X6561D01*
X6985Y35600D01*
X6561Y36023D01*
X5715D01*
X6350D01*
Y35177D01*
X6985Y36447D02*
X5715Y37293D01*
X6985D02*
X5715Y36447D01*
X37338Y7747D02*
X35814D01*
Y8509D01*
X36068Y8763D01*
X36322D01*
X36576Y8509D01*
Y7747D01*
Y8509D01*
X36830Y8763D01*
X37084D01*
X37338Y8509D01*
Y7747D01*
X33274Y7747D02*
X34290D01*
X34798Y8255D01*
X34290Y8763D01*
X33274D01*
X34036D01*
Y7747D01*
X32385Y8763D02*
Y7747D01*
X31623D01*
X31877Y8255D01*
Y8509D01*
X31623Y8763D01*
X31115D01*
X30861Y8509D01*
Y8001D01*
X31115Y7747D01*
X32385Y9271D02*
X31369D01*
X30861Y9778D01*
X31369Y10286D01*
X32385D01*
X29464Y8763D02*
X29718Y8509D01*
Y8001D01*
X29464Y7747D01*
X28448D01*
X28194Y8001D01*
Y8509D01*
X28448Y8763D01*
X28956D01*
Y8255D01*
X28194Y9271D02*
X29718D01*
X28194Y10286D01*
X29718D01*
Y10794D02*
X28194D01*
Y11556D01*
X28448Y11810D01*
X29464D01*
X29718Y11556D01*
Y10794D01*
X85090Y40259D02*
X85343Y40005D01*
Y39497D01*
X85090Y39243D01*
X84074D01*
X83820Y39497D01*
Y40005D01*
X84074Y40259D01*
X85090Y41782D02*
X85343Y41528D01*
Y41020D01*
X85090Y40766D01*
X84836D01*
X84582Y41020D01*
Y41528D01*
X84328Y41782D01*
X84074D01*
X83820Y41528D01*
Y41020D01*
X84074Y40766D01*
X82550Y40259D02*
X82803Y40005D01*
Y39497D01*
X82550Y39243D01*
X82296D01*
X82042Y39497D01*
Y40005D01*
X81788Y40259D01*
X81534D01*
X81280Y40005D01*
Y39497D01*
X81534Y39243D01*
X82550Y41782D02*
X82803Y41528D01*
Y41020D01*
X82550Y40766D01*
X81534D01*
X81280Y41020D01*
Y41528D01*
X81534Y41782D01*
X82803Y42290D02*
X81280D01*
Y43306D01*
X82803Y43814D02*
X81280D01*
X81788D01*
X82803Y44829D01*
X82042Y44067D01*
X81280Y44829D01*
X78740Y39243D02*
X80263D01*
X79756Y39751D01*
X80263Y40259D01*
X78740D01*
X80263Y40766D02*
Y41274D01*
Y41020D01*
X78740D01*
Y40766D01*
Y41274D01*
X80010Y43052D02*
X80263Y42798D01*
Y42290D01*
X80010Y42036D01*
X79756D01*
X79502Y42290D01*
Y42798D01*
X79248Y43052D01*
X78994D01*
X78740Y42798D01*
Y42290D01*
X78994Y42036D01*
X80263Y44321D02*
Y43814D01*
X80010Y43560D01*
X78994D01*
X78740Y43814D01*
Y44321D01*
X78994Y44575D01*
X80010D01*
X80263Y44321D01*
X76200Y39243D02*
X77724D01*
X77216Y39751D01*
X77724Y40259D01*
X76200D01*
X77724Y41528D02*
Y41020D01*
X77470Y40766D01*
X76454D01*
X76200Y41020D01*
Y41528D01*
X76454Y41782D01*
X77470D01*
X77724Y41528D01*
X77470Y43306D02*
X77724Y43052D01*
Y42544D01*
X77470Y42290D01*
X77216D01*
X76962Y42544D01*
Y43052D01*
X76708Y43306D01*
X76454D01*
X76200Y43052D01*
Y42544D01*
X76454Y42290D01*
X77724Y43813D02*
Y44321D01*
Y44067D01*
X76200D01*
Y43813D01*
Y44321D01*
X75183Y39243D02*
X74168D01*
X73660Y39751D01*
X74168Y40259D01*
X75183D01*
X74930Y41782D02*
X75183Y41528D01*
Y41020D01*
X74930Y40766D01*
X73914D01*
X73660Y41020D01*
Y41528D01*
X73914Y41782D01*
X74930Y43306D02*
X75183Y43052D01*
Y42544D01*
X74930Y42290D01*
X73914D01*
X73660Y42544D01*
Y43052D01*
X73914Y43306D01*
X69850Y41783D02*
X70104Y41529D01*
Y41021D01*
X69850Y40767D01*
X68834D01*
X68580Y41021D01*
Y41529D01*
X68834Y41783D01*
X69342D01*
Y41275D01*
X68580Y42291D02*
X70104D01*
X68580Y43306D01*
X70104D01*
Y43814D02*
X68580D01*
Y44576D01*
X68834Y44830D01*
X69850D01*
X70104Y44576D01*
Y43814D01*
X67310Y41783D02*
X67563Y41529D01*
Y41021D01*
X67310Y40767D01*
X67056D01*
X66802Y41021D01*
Y41529D01*
X66548Y41783D01*
X66294D01*
X66040Y41529D01*
Y41021D01*
X66294Y40767D01*
X67563Y42291D02*
X66040D01*
Y43052D01*
X66294Y43306D01*
X67310D01*
X67563Y43052D01*
Y42291D01*
X66040Y43814D02*
X67056D01*
X67563Y44322D01*
X67056Y44830D01*
X66040D01*
X66802D01*
Y43814D01*
X64770Y41783D02*
X65023Y41529D01*
Y41021D01*
X64770Y40767D01*
X64516D01*
X64262Y41021D01*
Y41529D01*
X64008Y41783D01*
X63754D01*
X63500Y41529D01*
Y41021D01*
X63754Y40767D01*
X64770Y43306D02*
X65023Y43052D01*
Y42544D01*
X64770Y42290D01*
X63754D01*
X63500Y42544D01*
Y43052D01*
X63754Y43306D01*
X65023Y43814D02*
X63500D01*
Y44830D01*
X62484Y40767D02*
X61468D01*
X60960Y41275D01*
X61468Y41783D01*
X62484D01*
X62230Y43306D02*
X62484Y43052D01*
Y42544D01*
X62230Y42290D01*
X61214D01*
X60960Y42544D01*
Y43052D01*
X61214Y43306D01*
X62230Y44830D02*
X62484Y44576D01*
Y44068D01*
X62230Y43814D01*
X61214D01*
X60960Y44068D01*
Y44576D01*
X61214Y44830D01*
X59943Y41783D02*
Y40767D01*
X59182D01*
X59436Y41275D01*
Y41529D01*
X59182Y41783D01*
X58674D01*
X58420Y41529D01*
Y41021D01*
X58674Y40767D01*
X59943Y42290D02*
X58928D01*
X58420Y42798D01*
X58928Y43306D01*
X59943D01*
X54610Y41783D02*
X54863Y41529D01*
Y41021D01*
X54610Y40767D01*
X53594D01*
X53340Y41021D01*
Y41529D01*
X53594Y41783D01*
X54102D01*
Y41275D01*
X53340Y42291D02*
X54863D01*
X53340Y43306D01*
X54863D01*
Y43814D02*
X53340D01*
Y44576D01*
X53594Y44830D01*
X54610D01*
X54863Y44576D01*
Y43814D01*
X50800Y40767D02*
X52324D01*
Y41529D01*
X52070Y41783D01*
X51562D01*
X51308Y41529D01*
Y40767D01*
Y41275D02*
X50800Y41783D01*
X52324Y42291D02*
X50800Y43306D01*
X52324D02*
X50800Y42291D01*
X49784Y40767D02*
Y41783D01*
Y41275D01*
X48260D01*
X49784Y42290D02*
X48260Y43306D01*
X49784D02*
X48260Y42290D01*
X47243Y40767D02*
X46228D01*
X45720Y41275D01*
X46228Y41783D01*
X47243D01*
X46990Y43306D02*
X47243Y43052D01*
Y42544D01*
X46990Y42290D01*
X45974D01*
X45720Y42544D01*
Y43052D01*
X45974Y43306D01*
X46990Y44830D02*
X47243Y44576D01*
Y44068D01*
X46990Y43814D01*
X45974D01*
X45720Y44068D01*
Y44576D01*
X45974Y44830D01*
X44703Y41783D02*
Y40767D01*
X43942D01*
X44196Y41275D01*
Y41529D01*
X43942Y41783D01*
X43434D01*
X43180Y41529D01*
Y41021D01*
X43434Y40767D01*
X44703Y42290D02*
X43688D01*
X43180Y42798D01*
X43688Y43306D01*
X44703D01*
X64897Y27305D02*
X63373D01*
Y28067D01*
X63627Y28321D01*
X63881D01*
X64135Y28067D01*
Y27305D01*
Y28067D01*
X64389Y28321D01*
X64643D01*
X64897Y28067D01*
Y27305D01*
Y29590D02*
Y29082D01*
X64643Y28829D01*
X63627D01*
X63373Y29082D01*
Y29590D01*
X63627Y29844D01*
X64643D01*
X64897Y29590D01*
Y31114D02*
Y30606D01*
X64643Y30352D01*
X63627D01*
X63373Y30606D01*
Y31114D01*
X63627Y31368D01*
X64643D01*
X64897Y31114D01*
Y31876D02*
Y32891D01*
Y32383D01*
X63373D01*
X25654Y7747D02*
X27178D01*
X26670Y8255D01*
X27178Y8763D01*
X25654D01*
X27178Y10032D02*
Y9524D01*
X26924Y9271D01*
X25908D01*
X25654Y9524D01*
Y10032D01*
X25908Y10286D01*
X26924D01*
X27178Y10032D01*
Y10794D02*
Y11810D01*
Y11302D01*
X25654D01*
X26416Y12318D02*
Y13333D01*
X23114Y7747D02*
X24638D01*
X24130Y8255D01*
X24638Y8763D01*
X23114D01*
X24638Y10032D02*
Y9524D01*
X24384Y9271D01*
X23368D01*
X23114Y9524D01*
Y10032D01*
X23368Y10286D01*
X24384D01*
X24638Y10032D01*
Y10794D02*
Y11810D01*
Y11302D01*
X23114D01*
X23876Y12318D02*
Y13333D01*
X24384Y12825D02*
X23368D01*
X87630Y6223D02*
X87884Y6477D01*
X88392D01*
X88646Y6223D01*
Y5207D01*
X88392Y4953D01*
X87884D01*
X87630Y5207D01*
X86361Y6477D02*
X86869D01*
X87122Y6223D01*
Y5207D01*
X86869Y4953D01*
X86361D01*
X86107Y5207D01*
Y6223D01*
X86361Y6477D01*
X85599Y4953D02*
Y6477D01*
X84583Y4953D01*
Y6477D01*
X83060D02*
X84075D01*
Y5715D01*
X83568D01*
X84075D01*
Y4953D01*
X82552Y6477D02*
X82044D01*
X82298D01*
Y4953D01*
X82552D01*
X82044D01*
X80267Y6223D02*
X80521Y6477D01*
X81028D01*
X81282Y6223D01*
Y5207D01*
X81028Y4953D01*
X80521D01*
X80267Y5207D01*
Y5715D01*
X80775D01*
X87630Y2286D02*
Y762D01*
X86868D01*
X86614Y1016D01*
Y1270D01*
X86868Y1524D01*
X87630D01*
X86868D01*
X86614Y1778D01*
Y2032D01*
X86868Y2286D01*
X87630D01*
X85090Y2032D02*
X84836Y2286D01*
X84328D01*
X84074Y2032D01*
Y1016D01*
X84328Y762D01*
X84836D01*
X85090Y1016D01*
Y2032D01*
X82550Y762D02*
Y1778D01*
X82042Y2286D01*
X81534Y1778D01*
Y762D01*
Y1524D01*
X82550D01*
D107*
X10770Y41504D02*
X17094D01*
X10287Y45568D02*
X16916D01*
X35433Y43434D02*
X37135D01*
X35458Y43409D02*
X37135D01*
X35484Y43383D02*
X37135D01*
X35535Y43358D02*
X37135D01*
X35560Y43332D02*
X37135D01*
X35611Y43307D02*
X37135D01*
X35687Y43282D02*
X37135D01*
X10770Y41478D02*
X17069D01*
X10770Y41453D02*
X17043D01*
X10770Y41427D02*
X17018D01*
X10795Y41402D02*
X16993D01*
X10795Y41377D02*
X16967D01*
X10795Y41351D02*
X16942D01*
X10795Y41326D02*
X16916D01*
X10820Y41300D02*
X16866D01*
X10820Y41275D02*
X16815D01*
X10820Y41250D02*
X16789D01*
X10820Y41224D02*
X16713D01*
X10846Y41199D02*
X16662D01*
X10846Y41173D02*
X16612D01*
X10871Y41148D02*
X16459D01*
X10897Y41123D02*
X16332D01*
X10897Y41097D02*
X16129D01*
X10897Y41072D02*
X15900D01*
X10922Y41046D02*
X15697D01*
X10947Y41021D02*
X15494D01*
X10973Y40996D02*
X15265D01*
X10973Y40970D02*
X15113D01*
X10998Y40945D02*
X14910D01*
X11024Y40919D02*
X14681D01*
X11049Y40894D02*
X14529D01*
X11074Y40869D02*
X14275D01*
X11100Y40843D02*
X14072D01*
X11125Y40818D02*
X13894D01*
X11151Y40792D02*
X13691D01*
X11201Y40767D02*
X13462D01*
X11227Y40742D02*
X13310D01*
X11278Y40716D02*
X13081D01*
X11303Y40691D02*
X12903D01*
X11354Y40665D02*
X12725D01*
X12675Y40157D02*
X14326D01*
X12471Y40132D02*
X14097D01*
X12268Y40107D02*
X13894D01*
X12065Y40081D02*
X13691D01*
X11633Y40030D02*
X13284D01*
X11430Y40005D02*
X13081D01*
X11227Y39980D02*
X12878D01*
X10592Y42926D02*
X15672D01*
X10592Y42901D02*
X17272D01*
X10617Y42875D02*
X17272D01*
X10617Y42850D02*
X17272D01*
X10617Y42824D02*
X17272D01*
X10617Y42799D02*
X17272D01*
X10617Y42774D02*
X17272D01*
X10617Y42748D02*
X17272D01*
X10617Y42723D02*
X17272D01*
X10617Y42697D02*
X17297D01*
X10617Y42672D02*
X17297D01*
X10617Y42647D02*
X17297D01*
X10643Y42621D02*
X17297D01*
X10643Y42596D02*
X17297D01*
X10643Y42570D02*
X17297D01*
X10643Y42545D02*
X17297D01*
X10643Y42520D02*
X17297D01*
X10643Y42494D02*
X17297D01*
X10668Y42469D02*
X17323D01*
X10668Y42443D02*
X17323D01*
X10668Y42418D02*
X17323D01*
X10668Y42393D02*
X17323D01*
X10668Y42367D02*
X17323D01*
X10668Y42342D02*
X17323D01*
X10668Y42316D02*
X17348D01*
X10668Y42291D02*
X17348D01*
X10668Y42266D02*
X17348D01*
X10668Y42240D02*
X17348D01*
X10693Y42215D02*
X17348D01*
X10693Y42189D02*
X17348D01*
X10693Y42164D02*
X17348D01*
X10693Y42139D02*
X17323D01*
X10693Y42113D02*
X17323D01*
X10693Y42088D02*
X17323D01*
X10693Y42062D02*
X17323D01*
X10693Y42037D02*
X17323D01*
X10719Y42012D02*
X17323D01*
X10719Y41986D02*
X17323D01*
X10719Y41961D02*
X17323D01*
X10719Y41935D02*
X17323D01*
X10719Y41910D02*
X17297D01*
X10719Y41885D02*
X17297D01*
X10744Y41859D02*
X17297D01*
X10744Y41834D02*
X17297D01*
X10744Y41808D02*
X17272D01*
X10744Y41783D02*
X17272D01*
X10744Y41758D02*
X17247D01*
X10744Y41732D02*
X17247D01*
X10744Y41707D02*
X17221D01*
X10744Y41681D02*
X17221D01*
X10744Y41656D02*
X17196D01*
X10744Y41631D02*
X17196D01*
X10744Y41605D02*
X17170D01*
X10770Y41580D02*
X17145D01*
X10770Y41554D02*
X17145D01*
X10770Y41529D02*
X17120D01*
X10312Y45542D02*
X16916D01*
X10312Y45517D02*
X16942D01*
X10312Y45491D02*
X16942D01*
X10312Y45466D02*
X16942D01*
X10312Y45441D02*
X16942D01*
X10312Y45415D02*
X16942D01*
X10312Y45390D02*
X16942D01*
X10312Y45364D02*
X16942D01*
X10312Y45339D02*
X16942D01*
X10312Y45314D02*
X16942D01*
X10338Y45288D02*
X16942D01*
X10338Y45263D02*
X16967D01*
X10338Y45237D02*
X16967D01*
X10338Y45212D02*
X16967D01*
X10338Y45187D02*
X16967D01*
X10338Y45161D02*
X16967D01*
X10338Y45136D02*
X15418D01*
X10338Y45110D02*
X15316D01*
X20752Y44247D02*
X22581D01*
X20752Y44221D02*
X22581D01*
X20752Y44196D02*
X22581D01*
X20752Y44171D02*
X22581D01*
X20752Y44145D02*
X22581D01*
X20752Y44120D02*
X22581D01*
X20752Y44094D02*
X22581D01*
X12573Y47269D02*
X16535D01*
X12319Y47244D02*
X16561D01*
X12141Y47219D02*
X16561D01*
X11887Y47193D02*
X16586D01*
X11709Y47168D02*
X16612D01*
X11532Y47142D02*
X16637D01*
X11278Y47117D02*
X16637D01*
X11100Y47092D02*
X16662D01*
X10998Y47066D02*
X16662D01*
X10897Y47041D02*
X16662D01*
X10846Y47015D02*
X16688D01*
X10820Y46990D02*
X16713D01*
X10770Y46965D02*
X16713D01*
X10719Y46939D02*
X16713D01*
X10693Y46914D02*
X16739D01*
X10643Y46888D02*
X16739D01*
X10617Y46863D02*
X16739D01*
X10592Y46838D02*
X16739D01*
X10566Y46812D02*
X16764D01*
X10541Y46787D02*
X16764D01*
X10516Y46761D02*
X16764D01*
X10490Y46736D02*
X16764D01*
X10465Y46711D02*
X16789D01*
X10439Y46685D02*
X16789D01*
X10439Y46660D02*
X16789D01*
X10414Y46634D02*
X16789D01*
X10389Y46609D02*
X16789D01*
X10389Y46584D02*
X16789D01*
X10363Y46558D02*
X16789D01*
X10363Y46533D02*
X16789D01*
X10338Y46507D02*
X16789D01*
X10338Y46482D02*
X16789D01*
X10312Y46457D02*
X16815D01*
X10312Y46431D02*
X16815D01*
X10312Y46406D02*
X16815D01*
X10287Y46380D02*
X16815D01*
X10287Y46355D02*
X16815D01*
X10287Y46330D02*
X16815D01*
X10262Y46304D02*
X16815D01*
X10262Y46279D02*
X16840D01*
X10262Y46253D02*
X16840D01*
X10262Y46228D02*
X16840D01*
X10236Y46203D02*
X16840D01*
X10236Y46177D02*
X16840D01*
X10236Y46152D02*
X16840D01*
X10236Y46126D02*
X16840D01*
X10236Y46101D02*
X16840D01*
X10236Y46076D02*
X16866D01*
X10236Y46050D02*
X16866D01*
X10236Y46025D02*
X16866D01*
X10236Y45999D02*
X16866D01*
X10236Y45974D02*
X16866D01*
X10236Y45949D02*
X16866D01*
X10236Y45923D02*
X16866D01*
X10262Y45898D02*
X16866D01*
X10262Y45872D02*
X16866D01*
X10262Y45847D02*
X16866D01*
X10262Y45822D02*
X16891D01*
X10262Y45796D02*
X16891D01*
X10262Y45771D02*
X16891D01*
X10262Y45745D02*
X16891D01*
X10287Y45720D02*
X16891D01*
X10287Y45695D02*
X16891D01*
X10287Y45669D02*
X16916D01*
X10287Y45644D02*
X16916D01*
X10287Y45618D02*
X16916D01*
X10287Y45593D02*
X16916D01*
X12497Y48006D02*
X14122D01*
X12294Y47981D02*
X13919D01*
X12065Y47955D02*
X13716D01*
X11659Y47904D02*
X13310D01*
X11455Y47879D02*
X13081D01*
X11252Y47854D02*
X12878D01*
X11049Y47828D02*
X12675D01*
X19583Y43536D02*
X19888D01*
X17729D02*
X17907D01*
X13487D02*
X13691D01*
X15316Y47600D02*
X16002D01*
X10541Y43536D02*
X11659D01*
X9347Y47600D02*
X10820D01*
X9550Y45568D02*
X9754D01*
X33655Y43459D02*
X34087D01*
X31953D02*
X32360D01*
X29921D02*
X30328D01*
X33680Y43434D02*
X34773D01*
X31267D02*
X32334D01*
X29235D02*
X30302D01*
X33731Y43409D02*
X34722D01*
X31293D02*
X32283D01*
X29261D02*
X30277D01*
X33757Y43383D02*
X34696D01*
X31344D02*
X32258D01*
X29312D02*
X30226D01*
X33807Y43358D02*
X34646D01*
X31369D02*
X32207D01*
X29337D02*
X30175D01*
X33858Y43332D02*
X34595D01*
X31445D02*
X32156D01*
X29388D02*
X30124D01*
X33934Y43307D02*
X34519D01*
X31496D02*
X32080D01*
X29464D02*
X30074D01*
X34011Y43282D02*
X34442D01*
X31598D02*
X32004D01*
X29566D02*
X29972D01*
X35331Y45060D02*
X36779D01*
X29591D02*
X29947D01*
X35331Y45034D02*
X36855D01*
X33934D02*
X34493D01*
X29489D02*
X30048D01*
X35331Y45009D02*
X36906D01*
X33884D02*
X34569D01*
X29413D02*
X30124D01*
X35331Y44983D02*
X36932D01*
X33807D02*
X34620D01*
X29362D02*
X30175D01*
X35331Y44958D02*
X36982D01*
X33782D02*
X34671D01*
X29312D02*
X30226D01*
X35331Y44933D02*
X37008D01*
X33731D02*
X34722D01*
X29261D02*
X30251D01*
X35331Y44907D02*
X37033D01*
X33680D02*
X34747D01*
X29235D02*
X30302D01*
X33655Y44882D02*
X34112D01*
X29870D02*
X30328D01*
X33630Y44856D02*
X34011D01*
X35712Y44247D02*
X37033D01*
X35636Y44221D02*
X37008D01*
X35585Y44196D02*
X36982D01*
X35535Y44171D02*
X36957D01*
X35509Y44145D02*
X36906D01*
X35484Y44120D02*
X36855D01*
X35458Y44094D02*
X36779D01*
X27889Y43459D02*
X28296D01*
X23851D02*
X24257D01*
X21819D02*
X22250D01*
X27203Y43434D02*
X28270D01*
X23165D02*
X24232D01*
X21133D02*
X22200D01*
X27229Y43409D02*
X28245D01*
X23190D02*
X24206D01*
X21158D02*
X22174D01*
X27280Y43383D02*
X28194D01*
X23241D02*
X24155D01*
X21209D02*
X22123D01*
X27305Y43358D02*
X28143D01*
X23266D02*
X24105D01*
X21234D02*
X22098D01*
X27381Y43332D02*
X28092D01*
X23343D02*
X24054D01*
X21311D02*
X22022D01*
X27432Y43307D02*
X28042D01*
X23393D02*
X24003D01*
X21361D02*
X21971D01*
X27534Y43282D02*
X27940D01*
X23495D02*
X23901D01*
X21463D02*
X21869D01*
X25527Y45060D02*
X25883D01*
X23520D02*
X23876D01*
X21488D02*
X21844D01*
X25425Y45034D02*
X25984D01*
X23419D02*
X23978D01*
X21387D02*
X21946D01*
X25349Y45009D02*
X26060D01*
X23343D02*
X24054D01*
X21311D02*
X21996D01*
X25298Y44983D02*
X26111D01*
X23292D02*
X24105D01*
X21260D02*
X22073D01*
X25248Y44958D02*
X26162D01*
X23241D02*
X24155D01*
X21209D02*
X22098D01*
X25222Y44933D02*
X26187D01*
X23190D02*
X24181D01*
X21158D02*
X22149D01*
X25171Y44907D02*
X26238D01*
X23165D02*
X24232D01*
X21133D02*
X22200D01*
X25832Y44882D02*
X26264D01*
X23825D02*
X24257D01*
X21793D02*
X22225D01*
X17653Y40767D02*
X18263D01*
X17450Y40742D02*
X18263D01*
X17247Y40716D02*
X18263D01*
X17018Y40691D02*
X18237D01*
X16815Y40665D02*
X18237D01*
X16612Y40640D02*
X18186D01*
X16408Y40615D02*
X18034D01*
X16205Y40589D02*
X17831D01*
X15570Y40513D02*
X17221D01*
X15367Y40488D02*
X17018D01*
X15164Y40462D02*
X16815D01*
X14961Y40437D02*
X16586D01*
X14757Y40411D02*
X16383D01*
X14554Y40386D02*
X16180D01*
X14326Y40361D02*
X15977D01*
X14122Y40335D02*
X15773D01*
X13513Y40259D02*
X15138D01*
X13310Y40234D02*
X14935D01*
X13106Y40208D02*
X14732D01*
X12878Y40183D02*
X14529D01*
X19533Y43510D02*
X19863D01*
X17729D02*
X17907D01*
X13487D02*
X13716D01*
X19482Y43485D02*
X19837D01*
X17729D02*
X17932D01*
X13487D02*
X13741D01*
X19380Y43459D02*
X19812D01*
X17729D02*
X17932D01*
X13487D02*
X13767D01*
X18694Y43434D02*
X19787D01*
X17729D02*
X17932D01*
X13487D02*
X13767D01*
X17729Y43409D02*
X17932D01*
X13487D02*
X13792D01*
X17729Y43383D02*
X17932D01*
X13487D02*
X13818D01*
X17729Y43358D02*
X17932D01*
X13487D02*
X13843D01*
X17755Y43332D02*
X17932D01*
X13487D02*
X13843D01*
X17755Y43307D02*
X17932D01*
X13487D02*
X13868D01*
X17755Y43282D02*
X17958D01*
X13487D02*
X13894D01*
X17755Y43256D02*
X17958D01*
X13487D02*
X13919D01*
X17755Y43231D02*
X17958D01*
X13487D02*
X13919D01*
X17755Y43205D02*
X17958D01*
X13487D02*
X13945D01*
X17755Y43180D02*
X17958D01*
X13487D02*
X13970D01*
X17755Y43155D02*
X17958D01*
X13487D02*
X13995D01*
X17755Y43129D02*
X17958D01*
X13487D02*
X13995D01*
X13487Y43104D02*
X14021D01*
X13487Y43078D02*
X14046D01*
X13487Y43053D02*
X14072D01*
X13487Y43028D02*
X14072D01*
X13487Y43002D02*
X14097D01*
X13487Y42977D02*
X14122D01*
X13487Y42951D02*
X14148D01*
X15621Y45136D02*
X16967D01*
X13487Y45085D02*
X14199D01*
X13487Y45060D02*
X14173D01*
X13487Y45034D02*
X14173D01*
X13487Y45009D02*
X14148D01*
X13487Y44983D02*
X14122D01*
X17551Y44958D02*
X17755D01*
X13487D02*
X14097D01*
X17551Y44933D02*
X17755D01*
X13487D02*
X14097D01*
X17551Y44907D02*
X17755D01*
X13487D02*
X14072D01*
X19355Y44882D02*
X19787D01*
X17551D02*
X17755D01*
X13487D02*
X14046D01*
X19456Y44856D02*
X19837D01*
X17551D02*
X17755D01*
X13487D02*
X14021D01*
X19533Y44831D02*
X19863D01*
X17551D02*
X17755D01*
X13487D02*
X13995D01*
X19583Y44806D02*
X19888D01*
X17551D02*
X17755D01*
X13487D02*
X13995D01*
X19634Y44780D02*
X19914D01*
X17577D02*
X17755D01*
X13487D02*
X13970D01*
X19660Y44755D02*
X19939D01*
X17577D02*
X17755D01*
X13487D02*
X13945D01*
X19685Y44729D02*
X19964D01*
X17577D02*
X17780D01*
X13487D02*
X13919D01*
X19736Y44704D02*
X19964D01*
X17577D02*
X17780D01*
X13487D02*
X13919D01*
X19761Y44679D02*
X19990D01*
X17577D02*
X17780D01*
X13487D02*
X13894D01*
X19787Y44653D02*
X20015D01*
X17577D02*
X17780D01*
X13487D02*
X13868D01*
X19787Y44628D02*
X20015D01*
X17577D02*
X17780D01*
X13487D02*
X13843D01*
X17577Y44602D02*
X17780D01*
X13487D02*
X13843D01*
X17602Y44577D02*
X17780D01*
X13487D02*
X13818D01*
X17602Y44552D02*
X17780D01*
X13487D02*
X13792D01*
X17602Y44526D02*
X17805D01*
X13487D02*
X13767D01*
X17602Y44501D02*
X17805D01*
X13487D02*
X13741D01*
X17602Y44475D02*
X17805D01*
X13487D02*
X13741D01*
X17602Y44450D02*
X17805D01*
X13487D02*
X13716D01*
X17602Y44425D02*
X17805D01*
X13487D02*
X13691D01*
X17602Y44399D02*
X17805D01*
X17602Y44374D02*
X17805D01*
X17628Y44348D02*
X17805D01*
X17628Y44323D02*
X17831D01*
X17628Y44298D02*
X17831D01*
X17628Y44272D02*
X17831D01*
X18339Y44247D02*
X20142D01*
X17628D02*
X17831D01*
X18339Y44221D02*
X20142D01*
X17628D02*
X17831D01*
X18339Y44196D02*
X20142D01*
X17628D02*
X17831D01*
X18339Y44171D02*
X20142D01*
X17628D02*
X17831D01*
X18339Y44145D02*
X20142D01*
X17653D02*
X17831D01*
X18339Y44120D02*
X20142D01*
X17653D02*
X17856D01*
X18339Y44094D02*
X20142D01*
X17653D02*
X17856D01*
X17653Y44069D02*
X17856D01*
X17653Y44044D02*
X17856D01*
X17653Y44018D02*
X17856D01*
X17653Y43993D02*
X17856D01*
X17653Y43967D02*
X17856D01*
X17678Y43942D02*
X17856D01*
X17678Y43917D02*
X17882D01*
X17678Y43891D02*
X17882D01*
X17678Y43866D02*
X17882D01*
X17678Y43840D02*
X17882D01*
X17678Y43815D02*
X17882D01*
X17678Y43790D02*
X17882D01*
X17678Y43764D02*
X17882D01*
X17704Y43739D02*
X17882D01*
X17704Y43713D02*
X17907D01*
X19787Y43688D02*
X20015D01*
X17704D02*
X17907D01*
X19761Y43663D02*
X19990D01*
X17704D02*
X17907D01*
X19736Y43637D02*
X19990D01*
X17704D02*
X17907D01*
X19685Y43612D02*
X19964D01*
X17704D02*
X17907D01*
X19660Y43586D02*
X19939D01*
X17704D02*
X17907D01*
X19634Y43561D02*
X19914D01*
X17704D02*
X17907D01*
X15164Y47574D02*
X16078D01*
X14884Y47549D02*
X16154D01*
X14681Y47523D02*
X16205D01*
X14478Y47498D02*
X16256D01*
X14224Y47473D02*
X16307D01*
X14046Y47447D02*
X16332D01*
X13843Y47422D02*
X16383D01*
X13614Y47396D02*
X16408D01*
X13437Y47371D02*
X16434D01*
X13208Y47346D02*
X16459D01*
X13005Y47320D02*
X16485D01*
X12776Y47295D02*
X16510D01*
X15596Y48387D02*
X17323D01*
X15392Y48362D02*
X17018D01*
X15189Y48336D02*
X16815D01*
X14986Y48311D02*
X16612D01*
X14757Y48285D02*
X16408D01*
X14554Y48260D02*
X16205D01*
X14351Y48235D02*
X16002D01*
X14148Y48209D02*
X15773D01*
X13538Y48133D02*
X15164D01*
X13310Y48108D02*
X14961D01*
X13106Y48082D02*
X14757D01*
X12903Y48057D02*
X14529D01*
X12700Y48031D02*
X14326D01*
X15494Y47625D02*
X15951D01*
X11430Y40640D02*
X12471D01*
X11506Y40615D02*
X12268D01*
X11582Y40589D02*
X12065D01*
X11024Y39954D02*
X12649D01*
X10820Y39929D02*
X12446D01*
X10617Y39903D02*
X12243D01*
X10262Y39878D02*
X12040D01*
X10262Y39853D02*
X11836D01*
X10541Y43510D02*
X11659D01*
X10541Y43485D02*
X11659D01*
X10541Y43459D02*
X11659D01*
X10541Y43434D02*
X11659D01*
X10541Y43409D02*
X11659D01*
X9550Y45542D02*
X9754D01*
X9550Y45517D02*
X9754D01*
X9576Y45491D02*
X9754D01*
X9576Y45466D02*
X9779D01*
X9576Y45441D02*
X9779D01*
X9576Y45415D02*
X9779D01*
X9576Y45390D02*
X9779D01*
X9576Y45364D02*
X9779D01*
X9576Y45339D02*
X9779D01*
X9576Y45314D02*
X9779D01*
X9601Y45288D02*
X9779D01*
X9601Y45263D02*
X9779D01*
X9601Y45237D02*
X9804D01*
X9601Y45212D02*
X9804D01*
X9601Y45187D02*
X9804D01*
X9601Y45161D02*
X9804D01*
X9601Y45136D02*
X9804D01*
X9601Y45110D02*
X9804D01*
X10338Y45085D02*
X11684D01*
X9627D02*
X9804D01*
X10363Y45060D02*
X11659D01*
X9627D02*
X9804D01*
X10363Y45034D02*
X11659D01*
X9627D02*
X9830D01*
X10363Y45009D02*
X11659D01*
X9627D02*
X9830D01*
X10363Y44983D02*
X11659D01*
X9627D02*
X9830D01*
X10363Y44958D02*
X11659D01*
X9627D02*
X9830D01*
X10363Y44933D02*
X11659D01*
X9627D02*
X9830D01*
X10363Y44907D02*
X11659D01*
X9627D02*
X9830D01*
X10363Y44882D02*
X11659D01*
X9627D02*
X9830D01*
X10389Y44856D02*
X11659D01*
X10389Y44831D02*
X11659D01*
X10389Y44806D02*
X11659D01*
X10389Y44780D02*
X11659D01*
X10389Y44755D02*
X11659D01*
X10389Y44729D02*
X11659D01*
X10389Y44704D02*
X11659D01*
X10389Y44679D02*
X11659D01*
X10389Y44653D02*
X11659D01*
X10389Y44628D02*
X11659D01*
X10389Y44602D02*
X11659D01*
X10414Y44577D02*
X11659D01*
X10414Y44552D02*
X11659D01*
X10414Y44526D02*
X11659D01*
X10414Y44501D02*
X11659D01*
X10414Y44475D02*
X11659D01*
X10414Y44450D02*
X11659D01*
X10414Y44425D02*
X11659D01*
X10439Y44399D02*
X11659D01*
X10439Y44374D02*
X11659D01*
X10439Y44348D02*
X11659D01*
X10439Y44323D02*
X11659D01*
X10439Y44298D02*
X11659D01*
X10439Y44272D02*
X11659D01*
X10439Y44247D02*
X11659D01*
X10439Y44221D02*
X11659D01*
X10465Y44196D02*
X11659D01*
X10465Y44171D02*
X11659D01*
X10465Y44145D02*
X11659D01*
X10465Y44120D02*
X11659D01*
X10465Y44094D02*
X11659D01*
X10465Y44069D02*
X11659D01*
X10465Y44044D02*
X11659D01*
X10465Y44018D02*
X11659D01*
X10465Y43993D02*
X11659D01*
X10465Y43967D02*
X11659D01*
X10490Y43942D02*
X11659D01*
X10490Y43917D02*
X11659D01*
X10490Y43891D02*
X11659D01*
X10490Y43866D02*
X11659D01*
X10490Y43840D02*
X11659D01*
X10490Y43815D02*
X11659D01*
X10516Y43790D02*
X11659D01*
X10516Y43764D02*
X11659D01*
X10516Y43739D02*
X11659D01*
X10516Y43713D02*
X11659D01*
X10516Y43688D02*
X11659D01*
X10516Y43663D02*
X11659D01*
X10516Y43637D02*
X11659D01*
X10516Y43612D02*
X11659D01*
X10516Y43586D02*
X11659D01*
X10541Y43561D02*
X11659D01*
X9322Y47574D02*
X10617D01*
X9322Y47549D02*
X10389D01*
X9322Y47523D02*
X10185D01*
X9322Y47498D02*
X9982D01*
X9322Y47473D02*
X9779D01*
X9423Y46685D02*
X9627D01*
X9423Y46660D02*
X9627D01*
X9423Y46634D02*
X9627D01*
X9423Y46609D02*
X9627D01*
X9423Y46584D02*
X9627D01*
X9423Y46558D02*
X9627D01*
X9449Y46533D02*
X9627D01*
X9449Y46507D02*
X9627D01*
X9449Y46482D02*
X9652D01*
X9449Y46457D02*
X9652D01*
X9449Y46431D02*
X9652D01*
X9449Y46406D02*
X9652D01*
X9449Y46380D02*
X9652D01*
X9449Y46355D02*
X9652D01*
X9474Y46330D02*
X9652D01*
X9474Y46304D02*
X9652D01*
X9474Y46279D02*
X9677D01*
X9474Y46253D02*
X9677D01*
X9474Y46228D02*
X9677D01*
X9474Y46203D02*
X9677D01*
X9474Y46177D02*
X9677D01*
X9474Y46152D02*
X9677D01*
X9474Y46126D02*
X9677D01*
X9500Y46101D02*
X9677D01*
X9500Y46076D02*
X9703D01*
X9500Y46050D02*
X9703D01*
X9500Y46025D02*
X9703D01*
X9500Y45999D02*
X9703D01*
X9500Y45974D02*
X9703D01*
X9500Y45949D02*
X9703D01*
X9500Y45923D02*
X9703D01*
X9525Y45898D02*
X9703D01*
X9525Y45872D02*
X9728D01*
X9525Y45847D02*
X9728D01*
X9525Y45822D02*
X9728D01*
X9525Y45796D02*
X9728D01*
X9525Y45771D02*
X9728D01*
X9525Y45745D02*
X9728D01*
X9525Y45720D02*
X9728D01*
X9550Y45695D02*
X9728D01*
X9550Y45669D02*
X9754D01*
X9550Y45644D02*
X9754D01*
X9550Y45618D02*
X9754D01*
X9550Y45593D02*
X9754D01*
X10846Y47803D02*
X12471D01*
X10617Y47777D02*
X12268D01*
X10414Y47752D02*
X12065D01*
X10211Y47727D02*
X11836D01*
X9601Y47650D02*
X11227D01*
X9423Y47625D02*
X11024D01*
X35382Y43536D02*
X35611D01*
X34569D02*
X34874D01*
X33579D02*
X33884D01*
X32918D02*
X33096D01*
X32131D02*
X32436D01*
X31140D02*
X31445D01*
X30124D02*
X30429D01*
X29108D02*
X29413D01*
X28092D02*
X28397D01*
X27076D02*
X27407D01*
X24790D02*
X24994D01*
X24054D02*
X24359D01*
X23038D02*
X23368D01*
X22022D02*
X22327D01*
X21006D02*
X21336D01*
X20371D02*
X20549D01*
X18567D02*
X18898D01*
X17958Y41504D02*
X18161D01*
X16231Y43536D02*
X17170D01*
X17221Y47600D02*
X17424D01*
X17475Y45568D02*
X17678D01*
X14351Y43536D02*
X15672D01*
X12243D02*
X12929D01*
X9804D02*
X10008D01*
X10058Y41504D02*
X10262D01*
X36728Y44882D02*
X37033D01*
X36779Y44856D02*
X37059D01*
X36830Y44831D02*
X37084D01*
X36855Y44806D02*
X37084D01*
X36881Y44780D02*
X37109D01*
X36906Y44755D02*
X37109D01*
X36932Y44729D02*
X37135D01*
X36932Y44704D02*
X37135D01*
X36932Y44679D02*
X37135D01*
X36957Y44653D02*
X37135D01*
X36957Y44628D02*
X37135D01*
X36957Y44602D02*
X37135D01*
X36957Y44577D02*
X37135D01*
X36957Y44552D02*
X37135D01*
X36957Y44526D02*
X37135D01*
X36957Y44501D02*
X37135D01*
X36957Y44475D02*
X37135D01*
X36932Y44450D02*
X37135D01*
X36932Y44425D02*
X37135D01*
X36906Y44399D02*
X37109D01*
X36881Y44374D02*
X37109D01*
X36855Y44348D02*
X37109D01*
X36830Y44323D02*
X37084D01*
X36805Y44298D02*
X37059D01*
X36728Y44272D02*
X37059D01*
X35382Y43510D02*
X35636D01*
X34519D02*
X34849D01*
X35408Y43485D02*
X35687D01*
X34468D02*
X34823D01*
X35433Y43459D02*
X35738D01*
X34366D02*
X34798D01*
X34036Y45060D02*
X34417D01*
X34341Y44882D02*
X34798D01*
X34442Y44856D02*
X34823D01*
X34519Y44831D02*
X34849D01*
X34569Y44806D02*
X34874D01*
X34620Y44780D02*
X34900D01*
X34646Y44755D02*
X34925D01*
X34671Y44729D02*
X34950D01*
X34696Y44704D02*
X34950D01*
X34722Y44679D02*
X34976D01*
X34747Y44653D02*
X35001D01*
X34773Y44628D02*
X35001D01*
X34798Y44602D02*
X35027D01*
X34823Y44577D02*
X35027D01*
X34849Y44552D02*
X35052D01*
X34849Y44526D02*
X35052D01*
X34874Y44501D02*
X35077D01*
X34874Y44475D02*
X35077D01*
X34900Y44450D02*
X35103D01*
X34900Y44425D02*
X35103D01*
X34925Y44399D02*
X35103D01*
X34925Y44374D02*
X35103D01*
X34950Y44348D02*
X35103D01*
X35433Y44069D02*
X35763D01*
X35408Y44044D02*
X35687D01*
X35408Y44018D02*
X35662D01*
X35382Y43993D02*
X35636D01*
X35382Y43967D02*
X35611D01*
X34925D02*
X35103D01*
X35357Y43942D02*
X35585D01*
X34925D02*
X35103D01*
X35357Y43917D02*
X35560D01*
X34900D02*
X35103D01*
X35357Y43891D02*
X35535D01*
X34900D02*
X35103D01*
X35331Y43866D02*
X35535D01*
X34874D02*
X35077D01*
X35331Y43840D02*
X35535D01*
X34874D02*
X35077D01*
X35331Y43815D02*
X35509D01*
X34849D02*
X35052D01*
X35331Y43790D02*
X35509D01*
X34849D02*
X35052D01*
X35331Y43764D02*
X35509D01*
X34823D02*
X35052D01*
X35331Y43739D02*
X35509D01*
X34798D02*
X35027D01*
X35331Y43713D02*
X35509D01*
X34798D02*
X35001D01*
X35331Y43688D02*
X35509D01*
X34773D02*
X35001D01*
X35331Y43663D02*
X35535D01*
X34747D02*
X34976D01*
X35331Y43637D02*
X35535D01*
X34722D02*
X34950D01*
X35357Y43612D02*
X35560D01*
X34696D02*
X34950D01*
X35357Y43586D02*
X35560D01*
X34646D02*
X34925D01*
X35357Y43561D02*
X35585D01*
X34620D02*
X34900D01*
X33579Y43510D02*
X33934D01*
X32918D02*
X33096D01*
X32080D02*
X32410D01*
X33630Y43485D02*
X33985D01*
X32918D02*
X33096D01*
X32029D02*
X32385D01*
X32918Y43459D02*
X33096D01*
X32918Y43434D02*
X33096D01*
X32918Y43409D02*
X33096D01*
X32918Y43383D02*
X33096D01*
X32918Y43358D02*
X33096D01*
X32918Y43332D02*
X33096D01*
X32918Y43307D02*
X33096D01*
X32918Y43282D02*
X33096D01*
X32918Y43104D02*
X33096D01*
X32918Y43078D02*
X33096D01*
X32918Y43053D02*
X33096D01*
X32918Y43028D02*
X33096D01*
X32918Y43002D02*
X33096D01*
X32918Y42977D02*
X33096D01*
X32918Y42951D02*
X33096D01*
X32918Y45060D02*
X33096D01*
X32512D02*
X32715D01*
X32918Y45034D02*
X33096D01*
X32512D02*
X32715D01*
X32918Y45009D02*
X33096D01*
X32512D02*
X32715D01*
X32918Y44983D02*
X33096D01*
X32512D02*
X32715D01*
X32918Y44958D02*
X33096D01*
X32512D02*
X32715D01*
X32918Y44933D02*
X33096D01*
X32512D02*
X32715D01*
X32918Y44907D02*
X33096D01*
X32512D02*
X32715D01*
X32918Y44882D02*
X33096D01*
X32512D02*
X32715D01*
X32918Y44856D02*
X33096D01*
X32512D02*
X32715D01*
X33604Y44831D02*
X33960D01*
X32918D02*
X33096D01*
X32512D02*
X32715D01*
X33579Y44806D02*
X33884D01*
X32918D02*
X33096D01*
X32512D02*
X32715D01*
X33553Y44780D02*
X33858D01*
X32918D02*
X33096D01*
X32512D02*
X32715D01*
X33528Y44755D02*
X33807D01*
X32918D02*
X33096D01*
X32512D02*
X32715D01*
X33503Y44729D02*
X33782D01*
X32918D02*
X33096D01*
X32512D02*
X32715D01*
X33477Y44704D02*
X33757D01*
X32918D02*
X33096D01*
X32512D02*
X32715D01*
X33477Y44679D02*
X33731D01*
X32918D02*
X33096D01*
X32512D02*
X32715D01*
X33452Y44653D02*
X33706D01*
X32918D02*
X33096D01*
X32512D02*
X32715D01*
X33452Y44628D02*
X33680D01*
X32918D02*
X33096D01*
X32512D02*
X32715D01*
X33426Y44602D02*
X33655D01*
X32918D02*
X33096D01*
X32512D02*
X32715D01*
X33401Y44577D02*
X33630D01*
X32918D02*
X33096D01*
X32512D02*
X32715D01*
X33401Y44552D02*
X33630D01*
X32918D02*
X33096D01*
X32512D02*
X32715D01*
X33401Y44526D02*
X33604D01*
X32918D02*
X33096D01*
X32512D02*
X32715D01*
X33376Y44501D02*
X33579D01*
X32918D02*
X33096D01*
X32512D02*
X32715D01*
X33376Y44475D02*
X33579D01*
X32918D02*
X33096D01*
X32512D02*
X32715D01*
X33350Y44450D02*
X33553D01*
X32918D02*
X33096D01*
X32512D02*
X32715D01*
X33350Y44425D02*
X33553D01*
X32918D02*
X33096D01*
X32512D02*
X32715D01*
X33350Y44399D02*
X33553D01*
X32918D02*
X33096D01*
X32512D02*
X32715D01*
X33350Y44374D02*
X33528D01*
X32918D02*
X33096D01*
X32512D02*
X32715D01*
X33325Y44348D02*
X33528D01*
X32918D02*
X33096D01*
X32512D02*
X32715D01*
X33325Y44323D02*
X33528D01*
X32918D02*
X33096D01*
X32512D02*
X32715D01*
X33325Y44298D02*
X33528D01*
X32918D02*
X33096D01*
X32512D02*
X32715D01*
X33325Y44272D02*
X33503D01*
X32918D02*
X33096D01*
X32512D02*
X32715D01*
X33325Y44247D02*
X33503D01*
X32918D02*
X33096D01*
X32512D02*
X32715D01*
X33325Y44221D02*
X33503D01*
X32918D02*
X33096D01*
X32512D02*
X32715D01*
X33325Y44196D02*
X33503D01*
X32918D02*
X33096D01*
X32512D02*
X32715D01*
X33325Y44171D02*
X33503D01*
X32918D02*
X33096D01*
X32512D02*
X32715D01*
X33325Y44145D02*
X33503D01*
X32918D02*
X33096D01*
X32512D02*
X32715D01*
X33325Y44120D02*
X33503D01*
X32918D02*
X33096D01*
X32512D02*
X32715D01*
X33325Y44094D02*
X33503D01*
X32918D02*
X33096D01*
X32512D02*
X32715D01*
X33325Y44069D02*
X33503D01*
X32918D02*
X33096D01*
X32512D02*
X32690D01*
X33325Y44044D02*
X33503D01*
X32918D02*
X33096D01*
X32512D02*
X32690D01*
X33325Y44018D02*
X33528D01*
X32918D02*
X33096D01*
X32512D02*
X32690D01*
X33325Y43993D02*
X33528D01*
X32918D02*
X33096D01*
X32487D02*
X32690D01*
X33350Y43967D02*
X33528D01*
X32918D02*
X33096D01*
X32487D02*
X32690D01*
X33350Y43942D02*
X33553D01*
X32918D02*
X33096D01*
X32487D02*
X32690D01*
X33350Y43917D02*
X33553D01*
X32918D02*
X33096D01*
X32487D02*
X32664D01*
X33350Y43891D02*
X33553D01*
X32918D02*
X33096D01*
X32461D02*
X32664D01*
X33376Y43866D02*
X33579D01*
X32918D02*
X33096D01*
X32461D02*
X32664D01*
X33376Y43840D02*
X33579D01*
X32918D02*
X33096D01*
X32436D02*
X32639D01*
X33376Y43815D02*
X33604D01*
X32918D02*
X33096D01*
X32436D02*
X32639D01*
X33401Y43790D02*
X33604D01*
X32918D02*
X33096D01*
X32410D02*
X32614D01*
X33401Y43764D02*
X33630D01*
X32918D02*
X33096D01*
X32385D02*
X32614D01*
X33426Y43739D02*
X33655D01*
X32918D02*
X33096D01*
X32385D02*
X32588D01*
X33426Y43713D02*
X33680D01*
X32918D02*
X33096D01*
X32360D02*
X32588D01*
X33452Y43688D02*
X33680D01*
X32918D02*
X33096D01*
X32334D02*
X32563D01*
X33477Y43663D02*
X33706D01*
X32918D02*
X33096D01*
X32309D02*
X32537D01*
X33477Y43637D02*
X33731D01*
X32918D02*
X33096D01*
X32283D02*
X32537D01*
X33503Y43612D02*
X33782D01*
X32918D02*
X33096D01*
X32258D02*
X32512D01*
X33528Y43586D02*
X33807D01*
X32918D02*
X33096D01*
X32233D02*
X32487D01*
X33553Y43561D02*
X33833D01*
X32918D02*
X33096D01*
X32182D02*
X32461D01*
X31166Y43510D02*
X31496D01*
X30074D02*
X30404D01*
X31191Y43485D02*
X31572D01*
X29997D02*
X30378D01*
X31217Y43459D02*
X31648D01*
X30886Y45060D02*
X31064D01*
X30886Y45034D02*
X31064D01*
X30886Y45009D02*
X31064D01*
X30886Y44983D02*
X31064D01*
X30886Y44958D02*
X31064D01*
X30886Y44933D02*
X31064D01*
X30886Y44907D02*
X31064D01*
X30886Y44882D02*
X31064D01*
X30886Y44856D02*
X31064D01*
X29972D02*
X30353D01*
X30886Y44831D02*
X31064D01*
X30048D02*
X30404D01*
X30886Y44806D02*
X31064D01*
X30099D02*
X30429D01*
X30886Y44780D02*
X31064D01*
X30150D02*
X30455D01*
X30886Y44755D02*
X31064D01*
X30175D02*
X30455D01*
X30886Y44729D02*
X31064D01*
X30226D02*
X30480D01*
X30886Y44704D02*
X31064D01*
X30251D02*
X30505D01*
X30886Y44679D02*
X31064D01*
X30277D02*
X30531D01*
X30886Y44653D02*
X31064D01*
X30302D02*
X30531D01*
X30886Y44628D02*
X31064D01*
X30328D02*
X30556D01*
X30886Y44602D02*
X31064D01*
X30353D02*
X30582D01*
X30886Y44577D02*
X31064D01*
X30353D02*
X30582D01*
X30886Y44552D02*
X31064D01*
X30378D02*
X30607D01*
X30886Y44526D02*
X31064D01*
X30404D02*
X30607D01*
X30886Y44501D02*
X31064D01*
X30404D02*
X30607D01*
X30886Y44475D02*
X31064D01*
X30429D02*
X30632D01*
X30886Y44450D02*
X31064D01*
X30429D02*
X30632D01*
X30886Y44425D02*
X31064D01*
X30455D02*
X30632D01*
X30886Y44399D02*
X31064D01*
X30455D02*
X30658D01*
X30886Y44374D02*
X31064D01*
X30455D02*
X30658D01*
X30886Y44348D02*
X31064D01*
X30480D02*
X30658D01*
X30886Y44323D02*
X31064D01*
X30480D02*
X30658D01*
X30886Y44298D02*
X31064D01*
X30480D02*
X30658D01*
X30886Y44272D02*
X31064D01*
X30480D02*
X30683D01*
X30886Y44247D02*
X31064D01*
X30480D02*
X30683D01*
X30886Y44221D02*
X31064D01*
X30480D02*
X30683D01*
X30886Y44196D02*
X31064D01*
X30480D02*
X30683D01*
X30886Y44171D02*
X31064D01*
X30505D02*
X30683D01*
X30886Y44145D02*
X31064D01*
X30480D02*
X30683D01*
X30886Y44120D02*
X31090D01*
X30480D02*
X30683D01*
X30886Y44094D02*
X31090D01*
X30480D02*
X30683D01*
X30886Y44069D02*
X31090D01*
X30480D02*
X30683D01*
X30886Y44044D02*
X31090D01*
X30480D02*
X30658D01*
X30912Y44018D02*
X31090D01*
X30480D02*
X30658D01*
X30912Y43993D02*
X31090D01*
X30480D02*
X30658D01*
X30912Y43967D02*
X31115D01*
X30455D02*
X30658D01*
X30912Y43942D02*
X31115D01*
X30455D02*
X30658D01*
X30912Y43917D02*
X31115D01*
X30455D02*
X30632D01*
X30937Y43891D02*
X31140D01*
X30429D02*
X30632D01*
X30937Y43866D02*
X31140D01*
X30429D02*
X30632D01*
X30963Y43840D02*
X31166D01*
X30404D02*
X30607D01*
X30963Y43815D02*
X31166D01*
X30404D02*
X30607D01*
X30963Y43790D02*
X31191D01*
X30378D02*
X30607D01*
X30988Y43764D02*
X31191D01*
X30353D02*
X30582D01*
X30988Y43739D02*
X31217D01*
X30353D02*
X30582D01*
X31013Y43713D02*
X31242D01*
X30328D02*
X30556D01*
X31039Y43688D02*
X31267D01*
X30302D02*
X30531D01*
X31039Y43663D02*
X31293D01*
X30277D02*
X30531D01*
X31064Y43637D02*
X31318D01*
X30251D02*
X30505D01*
X31090Y43612D02*
X31344D01*
X30226D02*
X30480D01*
X31090Y43586D02*
X31369D01*
X30201D02*
X30480D01*
X31115Y43561D02*
X31420D01*
X30150D02*
X30455D01*
X29134Y43510D02*
X29464D01*
X28042D02*
X28372D01*
X29159Y43485D02*
X29540D01*
X27965D02*
X28346D01*
X29185Y43459D02*
X29616D01*
X29210Y44882D02*
X29667D01*
X29159Y44856D02*
X29566D01*
X29134Y44831D02*
X29489D01*
X29108Y44806D02*
X29439D01*
X29083Y44780D02*
X29388D01*
X29058Y44755D02*
X29362D01*
X29058Y44729D02*
X29312D01*
X29032Y44704D02*
X29286D01*
X29007Y44679D02*
X29261D01*
X29007Y44653D02*
X29235D01*
X28981Y44628D02*
X29210D01*
X28956Y44602D02*
X29185D01*
X28956Y44577D02*
X29185D01*
X28931Y44552D02*
X29159D01*
X28931Y44526D02*
X29134D01*
X28931Y44501D02*
X29134D01*
X28905Y44475D02*
X29108D01*
X28905Y44450D02*
X29108D01*
X28905Y44425D02*
X29108D01*
X28880Y44399D02*
X29083D01*
X28880Y44374D02*
X29083D01*
X28880Y44348D02*
X29058D01*
X28880Y44323D02*
X29058D01*
X28880Y44298D02*
X29058D01*
X28854Y44272D02*
X29058D01*
X28854Y44247D02*
X29058D01*
X28854Y44221D02*
X29058D01*
X28854Y44196D02*
X29058D01*
X28854Y44171D02*
X29058D01*
X28854Y44145D02*
X29058D01*
X28473D02*
X28651D01*
X28854Y44120D02*
X29058D01*
X28473D02*
X28651D01*
X28854Y44094D02*
X29058D01*
X28448D02*
X28651D01*
X28854Y44069D02*
X29058D01*
X28448D02*
X28651D01*
X28880Y44044D02*
X29058D01*
X28448D02*
X28651D01*
X28880Y44018D02*
X29058D01*
X28448D02*
X28626D01*
X28880Y43993D02*
X29058D01*
X28448D02*
X28626D01*
X28880Y43967D02*
X29083D01*
X28423D02*
X28626D01*
X28880Y43942D02*
X29083D01*
X28423D02*
X28626D01*
X28905Y43917D02*
X29083D01*
X28423D02*
X28626D01*
X28905Y43891D02*
X29108D01*
X28397D02*
X28600D01*
X28905Y43866D02*
X29108D01*
X28397D02*
X28600D01*
X28931Y43840D02*
X29134D01*
X28372D02*
X28600D01*
X28931Y43815D02*
X29134D01*
X28372D02*
X28575D01*
X28931Y43790D02*
X29159D01*
X28346D02*
X28575D01*
X28956Y43764D02*
X29185D01*
X28346D02*
X28550D01*
X28956Y43739D02*
X29185D01*
X28321D02*
X28550D01*
X28981Y43713D02*
X29210D01*
X28296D02*
X28524D01*
X28981Y43688D02*
X29235D01*
X28270D02*
X28499D01*
X29007Y43663D02*
X29261D01*
X28245D02*
X28499D01*
X29032Y43637D02*
X29286D01*
X28219D02*
X28473D01*
X29032Y43612D02*
X29312D01*
X28194D02*
X28448D01*
X29058Y43586D02*
X29337D01*
X28169D02*
X28448D01*
X29083Y43561D02*
X29388D01*
X28118D02*
X28423D01*
X27102Y43510D02*
X27457D01*
X27127Y43485D02*
X27508D01*
X27153Y43459D02*
X27584D01*
X26822Y45060D02*
X27026D01*
X26822Y45034D02*
X27026D01*
X26822Y45009D02*
X27026D01*
X26822Y44983D02*
X27026D01*
X26822Y44958D02*
X27026D01*
X26822Y44933D02*
X27026D01*
X26822Y44907D02*
X27026D01*
X26822Y44882D02*
X27026D01*
X26822Y44856D02*
X27026D01*
X25933D02*
X26314D01*
X26822Y44831D02*
X27026D01*
X25984D02*
X26340D01*
X26822Y44806D02*
X27026D01*
X26035D02*
X26365D01*
X26822Y44780D02*
X27026D01*
X26086D02*
X26391D01*
X26822Y44755D02*
X27026D01*
X26137D02*
X26416D01*
X26822Y44729D02*
X27026D01*
X26162D02*
X26416D01*
X26822Y44704D02*
X27026D01*
X26187D02*
X26441D01*
X26822Y44679D02*
X27026D01*
X26213D02*
X26467D01*
X26822Y44653D02*
X27026D01*
X26238D02*
X26467D01*
X26822Y44628D02*
X27026D01*
X26264D02*
X26492D01*
X26822Y44602D02*
X27026D01*
X26289D02*
X26518D01*
X26822Y44577D02*
X27026D01*
X26289D02*
X26518D01*
X26822Y44552D02*
X27026D01*
X26314D02*
X26543D01*
X26822Y44526D02*
X27026D01*
X26340D02*
X26543D01*
X26822Y44501D02*
X27026D01*
X26340D02*
X26568D01*
X26822Y44475D02*
X27026D01*
X26365D02*
X26568D01*
X26822Y44450D02*
X27026D01*
X26365D02*
X26568D01*
X26822Y44425D02*
X27026D01*
X26391D02*
X26594D01*
X26822Y44399D02*
X27026D01*
X26391D02*
X26594D01*
X26822Y44374D02*
X27026D01*
X26391D02*
X26594D01*
X26822Y44348D02*
X27026D01*
X26416D02*
X26594D01*
X26822Y44323D02*
X27026D01*
X26416D02*
X26619D01*
X26822Y44298D02*
X27026D01*
X26416D02*
X26619D01*
X26822Y44272D02*
X27026D01*
X26416D02*
X26619D01*
X26822Y44247D02*
X27026D01*
X26441D02*
X26619D01*
X26822Y44221D02*
X27026D01*
X26441D02*
X26619D01*
X26822Y44196D02*
X27026D01*
X26441D02*
X26619D01*
X26822Y44171D02*
X27026D01*
X26441D02*
X26619D01*
X26822Y44145D02*
X27026D01*
X26822Y44120D02*
X27026D01*
X26822Y44094D02*
X27026D01*
X26848Y44069D02*
X27026D01*
X26848Y44044D02*
X27026D01*
X26848Y44018D02*
X27026D01*
X26848Y43993D02*
X27051D01*
X26848Y43967D02*
X27051D01*
X26848Y43942D02*
X27051D01*
X26873Y43917D02*
X27076D01*
X26873Y43891D02*
X27076D01*
X26873Y43866D02*
X27076D01*
X26899Y43840D02*
X27102D01*
X26899Y43815D02*
X27102D01*
X26899Y43790D02*
X27127D01*
X26924Y43764D02*
X27153D01*
X26924Y43739D02*
X27153D01*
X26949Y43713D02*
X27178D01*
X26975Y43688D02*
X27203D01*
X26975Y43663D02*
X27229D01*
X27000Y43637D02*
X27254D01*
X27026Y43612D02*
X27280D01*
X27026Y43586D02*
X27305D01*
X27051Y43561D02*
X27356D01*
X24790Y43510D02*
X24994D01*
X24003D02*
X24333D01*
X24790Y43485D02*
X24994D01*
X23927D02*
X24308D01*
X24790Y43459D02*
X24994D01*
X24790Y43434D02*
X24994D01*
X24790Y43409D02*
X24994D01*
X24790Y43383D02*
X24994D01*
X24790Y43358D02*
X24994D01*
X24790Y43332D02*
X24994D01*
X24790Y43307D02*
X24994D01*
X24790Y43282D02*
X24994D01*
X24790Y43256D02*
X24994D01*
X24790Y43231D02*
X24994D01*
X24790Y43205D02*
X24994D01*
X24790Y43180D02*
X24994D01*
X24790Y43155D02*
X24994D01*
X24790Y43129D02*
X24994D01*
X24790Y43104D02*
X24994D01*
X24790Y43078D02*
X24994D01*
X24790Y43053D02*
X24994D01*
X24790Y43028D02*
X24994D01*
X24790Y43002D02*
X24994D01*
X25146Y44882D02*
X25603D01*
X25095Y44856D02*
X25502D01*
X23927D02*
X24282D01*
X25070Y44831D02*
X25425D01*
X23978D02*
X24308D01*
X25044Y44806D02*
X25375D01*
X24028D02*
X24333D01*
X25019Y44780D02*
X25324D01*
X24079D02*
X24359D01*
X25019Y44755D02*
X25298D01*
X24130D02*
X24384D01*
X24994Y44729D02*
X25273D01*
X24155D02*
X24409D01*
X24968Y44704D02*
X25222D01*
X24181D02*
X24435D01*
X24943Y44679D02*
X25197D01*
X24206D02*
X24435D01*
X24943Y44653D02*
X25171D01*
X24232D02*
X24460D01*
X24917Y44628D02*
X25146D01*
X24257D02*
X24486D01*
X24917Y44602D02*
X25146D01*
X24282D02*
X24486D01*
X24892Y44577D02*
X25121D01*
X24308D02*
X24511D01*
X24892Y44552D02*
X25095D01*
X24308D02*
X24511D01*
X24867Y44526D02*
X25095D01*
X24333D02*
X24536D01*
X24867Y44501D02*
X25070D01*
X24333D02*
X24536D01*
X24841Y44475D02*
X25070D01*
X24359D02*
X24562D01*
X24841Y44450D02*
X25044D01*
X24359D02*
X24562D01*
X24841Y44425D02*
X25044D01*
X24384D02*
X24562D01*
X24816Y44399D02*
X25019D01*
X24384D02*
X24587D01*
X24816Y44374D02*
X25019D01*
X24409D02*
X24587D01*
X24816Y44348D02*
X25019D01*
X24409D02*
X24587D01*
X24816Y44323D02*
X24994D01*
X24816Y44298D02*
X24994D01*
X24816Y44272D02*
X24994D01*
X24816Y44247D02*
X24994D01*
X24816Y44221D02*
X24994D01*
X24790Y44196D02*
X24994D01*
X24790Y44171D02*
X24994D01*
X24790Y44145D02*
X24994D01*
X24790Y44120D02*
X24994D01*
X24790Y44094D02*
X24994D01*
X24790Y44069D02*
X24994D01*
X24790Y44044D02*
X24994D01*
X24790Y44018D02*
X24994D01*
X24790Y43993D02*
X24994D01*
X24790Y43967D02*
X24994D01*
X24409D02*
X24587D01*
X24790Y43942D02*
X24994D01*
X24384D02*
X24587D01*
X24790Y43917D02*
X24994D01*
X24384D02*
X24562D01*
X24790Y43891D02*
X24994D01*
X24359D02*
X24562D01*
X24790Y43866D02*
X24994D01*
X24359D02*
X24562D01*
X24790Y43840D02*
X24994D01*
X24333D02*
X24536D01*
X24790Y43815D02*
X24994D01*
X24333D02*
X24536D01*
X24790Y43790D02*
X25476D01*
X24308D02*
X24536D01*
X24790Y43764D02*
X25476D01*
X24308D02*
X24511D01*
X24790Y43739D02*
X25476D01*
X24282D02*
X24511D01*
X24790Y43713D02*
X25476D01*
X24257D02*
X24486D01*
X24790Y43688D02*
X25476D01*
X24232D02*
X24460D01*
X24790Y43663D02*
X25476D01*
X24206D02*
X24460D01*
X24790Y43637D02*
X25476D01*
X24181D02*
X24435D01*
X24790Y43612D02*
X24994D01*
X24155D02*
X24409D01*
X24790Y43586D02*
X24994D01*
X24130D02*
X24384D01*
X24790Y43561D02*
X24994D01*
X24079D02*
X24384D01*
X23063Y43510D02*
X23419D01*
X21971D02*
X22301D01*
X23089Y43485D02*
X23470D01*
X21895D02*
X22276D01*
X23114Y43459D02*
X23546D01*
X23139Y44882D02*
X23597D01*
X23089Y44856D02*
X23495D01*
X21895D02*
X22250D01*
X23063Y44831D02*
X23419D01*
X21971D02*
X22276D01*
X23038Y44806D02*
X23368D01*
X22022D02*
X22301D01*
X23012Y44780D02*
X23317D01*
X22047D02*
X22327D01*
X22987Y44755D02*
X23292D01*
X22098D02*
X22352D01*
X22987Y44729D02*
X23241D01*
X22123D02*
X22377D01*
X22962Y44704D02*
X23216D01*
X22149D02*
X22403D01*
X22936Y44679D02*
X23190D01*
X22174D02*
X22428D01*
X22936Y44653D02*
X23165D01*
X22200D02*
X22428D01*
X22911Y44628D02*
X23139D01*
X22225D02*
X22454D01*
X22885Y44602D02*
X23114D01*
X22250D02*
X22479D01*
X22885Y44577D02*
X23114D01*
X22276D02*
X22479D01*
X22860Y44552D02*
X23089D01*
X22276D02*
X22504D01*
X22860Y44526D02*
X23063D01*
X22301D02*
X22504D01*
X22860Y44501D02*
X23063D01*
X22301D02*
X22504D01*
X22835Y44475D02*
X23038D01*
X22327D02*
X22530D01*
X22835Y44450D02*
X23038D01*
X22327D02*
X22530D01*
X22835Y44425D02*
X23038D01*
X22809Y44399D02*
X23012D01*
X22809Y44374D02*
X23012D01*
X22809Y44348D02*
X23012D01*
X22809Y44323D02*
X22987D01*
X22809Y44298D02*
X22987D01*
X22784Y44272D02*
X22987D01*
X22784Y44247D02*
X22987D01*
X22784Y44221D02*
X22987D01*
X22784Y44196D02*
X22987D01*
X22784Y44171D02*
X22987D01*
X22784Y44145D02*
X22987D01*
X22784Y44120D02*
X22987D01*
X22784Y44094D02*
X22987D01*
X22784Y44069D02*
X22987D01*
X22377D02*
X22581D01*
X22809Y44044D02*
X22987D01*
X22377D02*
X22555D01*
X22809Y44018D02*
X22987D01*
X22377D02*
X22555D01*
X22809Y43993D02*
X22987D01*
X22377D02*
X22555D01*
X22809Y43967D02*
X23012D01*
X22377D02*
X22555D01*
X22809Y43942D02*
X23012D01*
X22352D02*
X22555D01*
X22835Y43917D02*
X23012D01*
X22352D02*
X22530D01*
X22835Y43891D02*
X23038D01*
X22327D02*
X22530D01*
X22835Y43866D02*
X23038D01*
X22327D02*
X22530D01*
X22860Y43840D02*
X23063D01*
X22301D02*
X22504D01*
X22860Y43815D02*
X23063D01*
X22301D02*
X22504D01*
X22860Y43790D02*
X23089D01*
X22276D02*
X22504D01*
X22885Y43764D02*
X23114D01*
X22276D02*
X22479D01*
X22885Y43739D02*
X23114D01*
X22250D02*
X22479D01*
X22911Y43713D02*
X23139D01*
X22225D02*
X22454D01*
X22936Y43688D02*
X23165D01*
X22200D02*
X22454D01*
X22936Y43663D02*
X23190D01*
X22174D02*
X22428D01*
X22962Y43637D02*
X23216D01*
X22149D02*
X22403D01*
X22987Y43612D02*
X23241D01*
X22123D02*
X22403D01*
X22987Y43586D02*
X23266D01*
X22098D02*
X22377D01*
X23012Y43561D02*
X23317D01*
X22047D02*
X22352D01*
X21031Y43510D02*
X21387D01*
X20371D02*
X20549D01*
X21057Y43485D02*
X21438D01*
X20371D02*
X20549D01*
X21082Y43459D02*
X21514D01*
X20371D02*
X20549D01*
X20371Y43434D02*
X20549D01*
X20371Y43409D02*
X20549D01*
X20371Y43383D02*
X20549D01*
X20371Y43358D02*
X20549D01*
X20371Y43332D02*
X20549D01*
X20371Y43307D02*
X20549D01*
X20371Y43282D02*
X20549D01*
X20371Y43256D02*
X20549D01*
X20371Y43231D02*
X20549D01*
X20371Y43205D02*
X20549D01*
X20371Y43180D02*
X20549D01*
X20371Y43155D02*
X20549D01*
X20371Y43129D02*
X20549D01*
X20371Y43104D02*
X20549D01*
X20371Y43078D02*
X20549D01*
X20371Y43053D02*
X20549D01*
X20371Y43028D02*
X20549D01*
X20371Y43002D02*
X20549D01*
X20371Y42977D02*
X20549D01*
X20371Y42951D02*
X20549D01*
X20371Y45060D02*
X20549D01*
X20371Y45034D02*
X20549D01*
X20371Y45009D02*
X20549D01*
X20371Y44983D02*
X20549D01*
X20371Y44958D02*
X20549D01*
X20371Y44933D02*
X20549D01*
X20371Y44907D02*
X20549D01*
X21107Y44882D02*
X21565D01*
X20371D02*
X20549D01*
X21057Y44856D02*
X21463D01*
X20371D02*
X20549D01*
X21031Y44831D02*
X21387D01*
X20371D02*
X20549D01*
X21006Y44806D02*
X21336D01*
X20371D02*
X20549D01*
X20980Y44780D02*
X21285D01*
X20371D02*
X20549D01*
X20955Y44755D02*
X21260D01*
X20371D02*
X20549D01*
X20955Y44729D02*
X21209D01*
X20371D02*
X20549D01*
X20930Y44704D02*
X21184D01*
X20371D02*
X20549D01*
X20904Y44679D02*
X21158D01*
X20371D02*
X20549D01*
X20904Y44653D02*
X21133D01*
X20371D02*
X20549D01*
X20879Y44628D02*
X21107D01*
X20371D02*
X20549D01*
X20853Y44602D02*
X21082D01*
X20371D02*
X20549D01*
X19812D02*
X20041D01*
X20853Y44577D02*
X21082D01*
X20371D02*
X20549D01*
X19837D02*
X20041D01*
X20853Y44552D02*
X21057D01*
X20371D02*
X20549D01*
X19863D02*
X20066D01*
X20828Y44526D02*
X21031D01*
X20371D02*
X20549D01*
X19863D02*
X20066D01*
X20828Y44501D02*
X21031D01*
X20371D02*
X20549D01*
X19888D02*
X20091D01*
X20803Y44475D02*
X21006D01*
X20371D02*
X20549D01*
X19888D02*
X20091D01*
X20803Y44450D02*
X21006D01*
X20371D02*
X20549D01*
X19914D02*
X20117D01*
X20803Y44425D02*
X20980D01*
X20371D02*
X20549D01*
X20777Y44399D02*
X20980D01*
X20371D02*
X20549D01*
X20777Y44374D02*
X20980D01*
X20371D02*
X20549D01*
X20777Y44348D02*
X20955D01*
X20371D02*
X20549D01*
X20777Y44323D02*
X20955D01*
X20371D02*
X20549D01*
X20777Y44298D02*
X20955D01*
X20371D02*
X20549D01*
X20777Y44272D02*
X20955D01*
X20371D02*
X20549D01*
X20371Y44247D02*
X20549D01*
X20371Y44221D02*
X20549D01*
X20371Y44196D02*
X20549D01*
X20371Y44171D02*
X20549D01*
X20371Y44145D02*
X20549D01*
X20371Y44120D02*
X20549D01*
X20371Y44094D02*
X20549D01*
X20777Y44069D02*
X20955D01*
X20371D02*
X20549D01*
X19964D02*
X20142D01*
X20777Y44044D02*
X20955D01*
X20371D02*
X20549D01*
X19964D02*
X20142D01*
X20777Y44018D02*
X20955D01*
X20371D02*
X20549D01*
X19939D02*
X20142D01*
X20777Y43993D02*
X20955D01*
X20371D02*
X20549D01*
X19939D02*
X20142D01*
X20777Y43967D02*
X20980D01*
X20371D02*
X20549D01*
X19939D02*
X20117D01*
X20777Y43942D02*
X20980D01*
X20371D02*
X20549D01*
X19939D02*
X20117D01*
X20803Y43917D02*
X20980D01*
X20371D02*
X20549D01*
X19914D02*
X20117D01*
X20803Y43891D02*
X21006D01*
X20371D02*
X20549D01*
X19914D02*
X20117D01*
X20803Y43866D02*
X21006D01*
X20371D02*
X20549D01*
X19888D02*
X20091D01*
X20828Y43840D02*
X21031D01*
X20371D02*
X20549D01*
X19888D02*
X20091D01*
X20828Y43815D02*
X21031D01*
X20371D02*
X20549D01*
X19863D02*
X20066D01*
X20828Y43790D02*
X21057D01*
X20371D02*
X20549D01*
X19863D02*
X20066D01*
X20853Y43764D02*
X21057D01*
X20371D02*
X20549D01*
X19837D02*
X20066D01*
X20853Y43739D02*
X21082D01*
X20371D02*
X20549D01*
X19812D02*
X20041D01*
X20879Y43713D02*
X21107D01*
X20371D02*
X20549D01*
X19812D02*
X20041D01*
X20904Y43688D02*
X21133D01*
X20371D02*
X20549D01*
X20904Y43663D02*
X21158D01*
X20371D02*
X20549D01*
X20930Y43637D02*
X21184D01*
X20371D02*
X20549D01*
X20955Y43612D02*
X21209D01*
X20371D02*
X20549D01*
X20955Y43586D02*
X21234D01*
X20371D02*
X20549D01*
X20980Y43561D02*
X21285D01*
X20371D02*
X20549D01*
X17958Y41478D02*
X18161D01*
X17983Y41453D02*
X18161D01*
X17983Y41427D02*
X18186D01*
X17983Y41402D02*
X18186D01*
X17983Y41377D02*
X18186D01*
X17983Y41351D02*
X18186D01*
X17983Y41326D02*
X18186D01*
X17983Y41300D02*
X18186D01*
X17983Y41275D02*
X18186D01*
X18009Y41250D02*
X18186D01*
X18009Y41224D02*
X18212D01*
X18009Y41199D02*
X18212D01*
X18009Y41173D02*
X18212D01*
X18009Y41148D02*
X18212D01*
X18009Y41123D02*
X18212D01*
X18009Y41097D02*
X18212D01*
X18009Y41072D02*
X18212D01*
X18034Y41046D02*
X18212D01*
X18034Y41021D02*
X18237D01*
X18034Y40996D02*
X18237D01*
X18034Y40970D02*
X18237D01*
X18034Y40945D02*
X18237D01*
X18034Y40919D02*
X18237D01*
X18034Y40894D02*
X18237D01*
X18034Y40869D02*
X18237D01*
X18059Y40843D02*
X18237D01*
X18059Y40818D02*
X18237D01*
X17856Y40792D02*
X18263D01*
X18593Y43510D02*
X18948D01*
X18644Y43485D02*
X18999D01*
X18669Y43459D02*
X19101D01*
X18745Y43409D02*
X19736D01*
X18771Y43383D02*
X19710D01*
X18821Y43358D02*
X19660D01*
X18872Y43332D02*
X19609D01*
X18948Y43307D02*
X19533D01*
X19025Y43282D02*
X19456D01*
X17780Y43104D02*
X17958D01*
X17780Y43078D02*
X17983D01*
X17780Y43053D02*
X17983D01*
X17780Y43028D02*
X17983D01*
X17780Y43002D02*
X17983D01*
X17780Y42977D02*
X17983D01*
X17780Y42951D02*
X17983D01*
X17780Y42926D02*
X17983D01*
X17805Y42901D02*
X17983D01*
X17805Y42875D02*
X18009D01*
X17805Y42850D02*
X18009D01*
X17805Y42824D02*
X18009D01*
X17805Y42799D02*
X18009D01*
X17805Y42774D02*
X18009D01*
X17805Y42748D02*
X18009D01*
X17805Y42723D02*
X18009D01*
X17831Y42697D02*
X18009D01*
X17831Y42672D02*
X18034D01*
X17831Y42647D02*
X18034D01*
X17831Y42621D02*
X18034D01*
X17831Y42596D02*
X18034D01*
X17831Y42570D02*
X18034D01*
X17831Y42545D02*
X18034D01*
X17831Y42520D02*
X18034D01*
X17856Y42494D02*
X18034D01*
X17856Y42469D02*
X18059D01*
X17856Y42443D02*
X18059D01*
X17856Y42418D02*
X18059D01*
X17856Y42393D02*
X18059D01*
X17856Y42367D02*
X18059D01*
X17856Y42342D02*
X18059D01*
X17856Y42316D02*
X18059D01*
X17882Y42291D02*
X18059D01*
X17882Y42266D02*
X18085D01*
X17882Y42240D02*
X18085D01*
X17882Y42215D02*
X18085D01*
X17882Y42189D02*
X18085D01*
X17882Y42164D02*
X18085D01*
X17882Y42139D02*
X18085D01*
X17882Y42113D02*
X18085D01*
X17907Y42088D02*
X18085D01*
X17907Y42062D02*
X18085D01*
X17907Y42037D02*
X18110D01*
X17907Y42012D02*
X18110D01*
X17907Y41986D02*
X18110D01*
X17907Y41961D02*
X18110D01*
X17907Y41935D02*
X18110D01*
X17907Y41910D02*
X18110D01*
X17932Y41885D02*
X18110D01*
X17932Y41859D02*
X18110D01*
X17932Y41834D02*
X18136D01*
X17932Y41808D02*
X18136D01*
X17932Y41783D02*
X18136D01*
X17932Y41758D02*
X18136D01*
X17932Y41732D02*
X18136D01*
X17932Y41707D02*
X18136D01*
X17932Y41681D02*
X18136D01*
X17958Y41656D02*
X18136D01*
X17958Y41631D02*
X18161D01*
X17958Y41605D02*
X18161D01*
X17958Y41580D02*
X18161D01*
X17958Y41554D02*
X18161D01*
X17958Y41529D02*
X18161D01*
X19050Y45060D02*
X19406D01*
X18948Y45034D02*
X19507D01*
X18898Y45009D02*
X19583D01*
X18821Y44983D02*
X19634D01*
X18771Y44958D02*
X19685D01*
X18745Y44933D02*
X19710D01*
X18694Y44907D02*
X19761D01*
X18669Y44882D02*
X19126D01*
X18644Y44856D02*
X19025D01*
X18618Y44831D02*
X18948D01*
X18593Y44806D02*
X18898D01*
X18567Y44780D02*
X18872D01*
X18542Y44755D02*
X18821D01*
X18517Y44729D02*
X18796D01*
X18491Y44704D02*
X18745D01*
X18491Y44679D02*
X18720D01*
X18466Y44653D02*
X18694D01*
X18440Y44628D02*
X18694D01*
X18440Y44602D02*
X18669D01*
X18415Y44577D02*
X18644D01*
X18415Y44552D02*
X18618D01*
X18390Y44526D02*
X18618D01*
X18390Y44501D02*
X18593D01*
X18390Y44475D02*
X18593D01*
X18364Y44450D02*
X18567D01*
X18364Y44425D02*
X18567D01*
X18364Y44399D02*
X18542D01*
X18364Y44374D02*
X18542D01*
X18339Y44348D02*
X18542D01*
X18339Y44323D02*
X18517D01*
X18339Y44298D02*
X18517D01*
X18339Y44272D02*
X18517D01*
X18339Y44069D02*
X18517D01*
X18339Y44044D02*
X18517D01*
X18339Y44018D02*
X18517D01*
X18339Y43993D02*
X18542D01*
X18364Y43967D02*
X18542D01*
X18364Y43942D02*
X18542D01*
X18364Y43917D02*
X18567D01*
X18364Y43891D02*
X18567D01*
X18390Y43866D02*
X18593D01*
X18390Y43840D02*
X18593D01*
X18390Y43815D02*
X18618D01*
X18415Y43790D02*
X18618D01*
X18415Y43764D02*
X18644D01*
X18440Y43739D02*
X18669D01*
X18440Y43713D02*
X18669D01*
X18466Y43688D02*
X18694D01*
X18491Y43663D02*
X18720D01*
X18491Y43637D02*
X18745D01*
X18517Y43612D02*
X18771D01*
X18542Y43586D02*
X18821D01*
X18567Y43561D02*
X18847D01*
X16002Y40564D02*
X17628D01*
X15799Y40538D02*
X17424D01*
X16231Y43510D02*
X17170D01*
X16231Y43485D02*
X17196D01*
X16231Y43459D02*
X17196D01*
X16231Y43434D02*
X17196D01*
X16231Y43409D02*
X17196D01*
X16231Y43383D02*
X17196D01*
X16231Y43358D02*
X17196D01*
X16231Y43332D02*
X17221D01*
X16231Y43307D02*
X17221D01*
X16231Y43282D02*
X17221D01*
X16231Y43256D02*
X17221D01*
X16231Y43231D02*
X17221D01*
X16231Y43205D02*
X17221D01*
X16231Y43180D02*
X17221D01*
X16231Y43155D02*
X17221D01*
X16231Y43129D02*
X17221D01*
X16231Y43104D02*
X17221D01*
X16231Y43078D02*
X17247D01*
X16231Y43053D02*
X17247D01*
X16231Y43028D02*
X17247D01*
X16231Y43002D02*
X17247D01*
X16231Y42977D02*
X17247D01*
X16231Y42951D02*
X17247D01*
X16231Y42926D02*
X17247D01*
X17475Y45542D02*
X17678D01*
X17475Y45517D02*
X17678D01*
X17475Y45491D02*
X17678D01*
X17475Y45466D02*
X17678D01*
X17475Y45441D02*
X17678D01*
X17475Y45415D02*
X17678D01*
X17501Y45390D02*
X17678D01*
X17501Y45364D02*
X17704D01*
X17501Y45339D02*
X17704D01*
X17501Y45314D02*
X17704D01*
X17501Y45288D02*
X17704D01*
X17501Y45263D02*
X17704D01*
X17501Y45237D02*
X17704D01*
X17501Y45212D02*
X17704D01*
X17526Y45187D02*
X17704D01*
X17526Y45161D02*
X17729D01*
X17526Y45136D02*
X17729D01*
X17526Y45110D02*
X17729D01*
X15748D02*
X16993D01*
X17526Y45085D02*
X17729D01*
X15824D02*
X16993D01*
X17526Y45060D02*
X17729D01*
X15875D02*
X16993D01*
X17526Y45034D02*
X17729D01*
X15926D02*
X16993D01*
X17526Y45009D02*
X17729D01*
X15951D02*
X16993D01*
X17551Y44983D02*
X17729D01*
X16002D02*
X16993D01*
X16027Y44958D02*
X16993D01*
X16053Y44933D02*
X16993D01*
X16078Y44907D02*
X16993D01*
X16104Y44882D02*
X17018D01*
X16104Y44856D02*
X17018D01*
X16129Y44831D02*
X17018D01*
X16154Y44806D02*
X17018D01*
X16154Y44780D02*
X17018D01*
X16180Y44755D02*
X17018D01*
X16180Y44729D02*
X17018D01*
X16205Y44704D02*
X17018D01*
X16205Y44679D02*
X17043D01*
X16205Y44653D02*
X17043D01*
X16205Y44628D02*
X17043D01*
X16231Y44602D02*
X17043D01*
X16231Y44577D02*
X17043D01*
X16231Y44552D02*
X17043D01*
X16231Y44526D02*
X17043D01*
X16231Y44501D02*
X17069D01*
X16231Y44475D02*
X17069D01*
X16231Y44450D02*
X17069D01*
X16231Y44425D02*
X17069D01*
X16231Y44399D02*
X17069D01*
X16231Y44374D02*
X17069D01*
X16231Y44348D02*
X17069D01*
X16231Y44323D02*
X17069D01*
X16231Y44298D02*
X17094D01*
X16231Y44272D02*
X17094D01*
X16231Y44247D02*
X17094D01*
X16231Y44221D02*
X17094D01*
X16231Y44196D02*
X17094D01*
X16231Y44171D02*
X17094D01*
X16231Y44145D02*
X17094D01*
X16231Y44120D02*
X17094D01*
X16231Y44094D02*
X17094D01*
X16231Y44069D02*
X17120D01*
X16231Y44044D02*
X17120D01*
X16231Y44018D02*
X17120D01*
X16231Y43993D02*
X17120D01*
X16231Y43967D02*
X17120D01*
X16231Y43942D02*
X17120D01*
X16231Y43917D02*
X17145D01*
X16231Y43891D02*
X17145D01*
X16231Y43866D02*
X17145D01*
X16231Y43840D02*
X17145D01*
X16231Y43815D02*
X17145D01*
X16231Y43790D02*
X17145D01*
X16231Y43764D02*
X17145D01*
X16231Y43739D02*
X17145D01*
X16231Y43713D02*
X17145D01*
X16231Y43688D02*
X17170D01*
X16231Y43663D02*
X17170D01*
X16231Y43637D02*
X17170D01*
X16231Y43612D02*
X17170D01*
X16231Y43586D02*
X17170D01*
X16231Y43561D02*
X17170D01*
X17221Y47574D02*
X17424D01*
X17221Y47549D02*
X17424D01*
X17221Y47523D02*
X17424D01*
X17221Y47498D02*
X17424D01*
X17247Y47473D02*
X17424D01*
X17247Y47447D02*
X17424D01*
X17247Y47422D02*
X17450D01*
X17247Y47396D02*
X17450D01*
X17247Y47371D02*
X17450D01*
X17247Y47346D02*
X17450D01*
X17247Y47320D02*
X17450D01*
X17247Y47295D02*
X17450D01*
X17272Y47269D02*
X17450D01*
X17272Y47244D02*
X17450D01*
X17272Y47219D02*
X17475D01*
X17272Y47193D02*
X17475D01*
X17272Y47168D02*
X17475D01*
X17272Y47142D02*
X17475D01*
X17272Y47117D02*
X17475D01*
X17272Y47092D02*
X17475D01*
X17272Y47066D02*
X17475D01*
X17297Y47041D02*
X17475D01*
X17297Y47015D02*
X17501D01*
X17297Y46990D02*
X17501D01*
X17297Y46965D02*
X17501D01*
X17297Y46939D02*
X17501D01*
X17297Y46914D02*
X17501D01*
X17297Y46888D02*
X17501D01*
X17297Y46863D02*
X17501D01*
X17323Y46838D02*
X17501D01*
X17323Y46812D02*
X17526D01*
X17323Y46787D02*
X17526D01*
X17323Y46761D02*
X17526D01*
X17323Y46736D02*
X17526D01*
X17323Y46711D02*
X17526D01*
X17323Y46685D02*
X17526D01*
X17323Y46660D02*
X17526D01*
X17348Y46634D02*
X17526D01*
X17348Y46609D02*
X17551D01*
X17348Y46584D02*
X17551D01*
X17348Y46558D02*
X17551D01*
X17348Y46533D02*
X17551D01*
X17348Y46507D02*
X17551D01*
X17348Y46482D02*
X17551D01*
X17348Y46457D02*
X17551D01*
X17374Y46431D02*
X17551D01*
X17374Y46406D02*
X17577D01*
X17374Y46380D02*
X17577D01*
X17374Y46355D02*
X17577D01*
X17374Y46330D02*
X17577D01*
X17374Y46304D02*
X17577D01*
X17374Y46279D02*
X17577D01*
X17374Y46253D02*
X17577D01*
X17399Y46228D02*
X17577D01*
X17399Y46203D02*
X17577D01*
X17399Y46177D02*
X17602D01*
X17399Y46152D02*
X17602D01*
X17399Y46126D02*
X17602D01*
X17399Y46101D02*
X17602D01*
X17399Y46076D02*
X17602D01*
X17399Y46050D02*
X17602D01*
X17424Y46025D02*
X17602D01*
X17424Y45999D02*
X17602D01*
X17424Y45974D02*
X17628D01*
X17424Y45949D02*
X17628D01*
X17424Y45923D02*
X17628D01*
X17424Y45898D02*
X17628D01*
X17424Y45872D02*
X17628D01*
X17424Y45847D02*
X17628D01*
X17450Y45822D02*
X17628D01*
X17450Y45796D02*
X17628D01*
X17450Y45771D02*
X17653D01*
X17450Y45745D02*
X17653D01*
X17450Y45720D02*
X17653D01*
X17450Y45695D02*
X17653D01*
X17450Y45669D02*
X17653D01*
X17450Y45644D02*
X17653D01*
X17450Y45618D02*
X17653D01*
X17475Y45593D02*
X17653D01*
X17043Y48565D02*
X17247D01*
X16840Y48539D02*
X17272D01*
X16637Y48514D02*
X17297D01*
X16434Y48489D02*
X17297D01*
X16205Y48463D02*
X17323D01*
X16002Y48438D02*
X17323D01*
X15799Y48412D02*
X17323D01*
X17120Y48362D02*
X17323D01*
X17120Y48336D02*
X17323D01*
X17120Y48311D02*
X17323D01*
X17145Y48285D02*
X17323D01*
X17145Y48260D02*
X17348D01*
X17145Y48235D02*
X17348D01*
X17145Y48209D02*
X17348D01*
X17145Y48184D02*
X17348D01*
X17145Y48158D02*
X17348D01*
X17145Y48133D02*
X17348D01*
X17145Y48108D02*
X17348D01*
X17170Y48082D02*
X17348D01*
X17170Y48057D02*
X17374D01*
X17170Y48031D02*
X17374D01*
X17170Y48006D02*
X17374D01*
X17170Y47981D02*
X17374D01*
X17170Y47955D02*
X17374D01*
X17170Y47930D02*
X17374D01*
X17170Y47904D02*
X17374D01*
X17196Y47879D02*
X17374D01*
X17196Y47854D02*
X17399D01*
X17196Y47828D02*
X17399D01*
X17196Y47803D02*
X17399D01*
X17196Y47777D02*
X17399D01*
X17196Y47752D02*
X17399D01*
X17196Y47727D02*
X17399D01*
X17196Y47701D02*
X17399D01*
X17221Y47676D02*
X17399D01*
X17221Y47650D02*
X17424D01*
X17221Y47625D02*
X17424D01*
X13919Y40310D02*
X15570D01*
X13716Y40284D02*
X15342D01*
X14376Y43510D02*
X15672D01*
X14402Y43485D02*
X15672D01*
X14427Y43459D02*
X15672D01*
X14427Y43434D02*
X15672D01*
X14453Y43409D02*
X15672D01*
X14478Y43383D02*
X15672D01*
X14503Y43358D02*
X15672D01*
X14529Y43332D02*
X15672D01*
X14529Y43307D02*
X15672D01*
X14554Y43282D02*
X15672D01*
X14580Y43256D02*
X15672D01*
X14605Y43231D02*
X15672D01*
X14630Y43205D02*
X15672D01*
X14656Y43180D02*
X15672D01*
X14656Y43155D02*
X15672D01*
X14681Y43129D02*
X15672D01*
X14707Y43104D02*
X15672D01*
X14732Y43078D02*
X15672D01*
X14757Y43053D02*
X15672D01*
X14783Y43028D02*
X15672D01*
X14783Y43002D02*
X15672D01*
X14808Y42977D02*
X15672D01*
X14834Y42951D02*
X15672D01*
X14910Y45085D02*
X15265D01*
X14910Y45060D02*
X15215D01*
X14884Y45034D02*
X15164D01*
X14884Y45009D02*
X15138D01*
X14859Y44983D02*
X15113D01*
X14834Y44958D02*
X15062D01*
X14808Y44933D02*
X15037D01*
X14783Y44907D02*
X15037D01*
X14757Y44882D02*
X15011D01*
X14757Y44856D02*
X14986D01*
X14732Y44831D02*
X14961D01*
X14707Y44806D02*
X14986D01*
X14681Y44780D02*
X15011D01*
X14656Y44755D02*
X15037D01*
X14656Y44729D02*
X15062D01*
X14630Y44704D02*
X15088D01*
X14605Y44679D02*
X15113D01*
X14580Y44653D02*
X15138D01*
X15418Y44628D02*
X15596D01*
X14554D02*
X15164D01*
X15392Y44602D02*
X15621D01*
X14554D02*
X15189D01*
X15367Y44577D02*
X15646D01*
X14529D02*
X15215D01*
X15367Y44552D02*
X15646D01*
X14503D02*
X15240D01*
X15367Y44526D02*
X15646D01*
X14478D02*
X15265D01*
X15342Y44501D02*
X15646D01*
X14453D02*
X15291D01*
X15342Y44475D02*
X15672D01*
X14427D02*
X15316D01*
X14427Y44450D02*
X15672D01*
X14402Y44425D02*
X15672D01*
X14376Y44399D02*
X15672D01*
X14351Y44374D02*
X15672D01*
X14326Y44348D02*
X15672D01*
X14326Y44323D02*
X15672D01*
X14300Y44298D02*
X15672D01*
X14275Y44272D02*
X15672D01*
X14249Y44247D02*
X15672D01*
X14224Y44221D02*
X15672D01*
X14224Y44196D02*
X15672D01*
X14199Y44171D02*
X15672D01*
X14173Y44145D02*
X15672D01*
X14148Y44120D02*
X15672D01*
X14122Y44094D02*
X15672D01*
X14097Y44069D02*
X15672D01*
X14097Y44044D02*
X15672D01*
X14072Y44018D02*
X15672D01*
X14046Y43993D02*
X15672D01*
X14021Y43967D02*
X15672D01*
X14021Y43942D02*
X15672D01*
X14046Y43917D02*
X15672D01*
X14046Y43891D02*
X15672D01*
X14072Y43866D02*
X15672D01*
X14097Y43840D02*
X15672D01*
X14122Y43815D02*
X15672D01*
X14148Y43790D02*
X15672D01*
X14173Y43764D02*
X15672D01*
X14173Y43739D02*
X15672D01*
X14199Y43713D02*
X15672D01*
X14224Y43688D02*
X15672D01*
X14249Y43663D02*
X15672D01*
X14275Y43637D02*
X15672D01*
X14300Y43612D02*
X15672D01*
X14300Y43586D02*
X15672D01*
X14326Y43561D02*
X15672D01*
X13945Y48184D02*
X15570D01*
X13741Y48158D02*
X15367D01*
X11862Y40056D02*
X13487D01*
X12243Y43510D02*
X12929D01*
X12243Y43485D02*
X12929D01*
X12243Y43459D02*
X12929D01*
X12243Y43434D02*
X12929D01*
X12243Y43409D02*
X12929D01*
X12700Y43383D02*
X12929D01*
X12700Y43358D02*
X12929D01*
X12700Y43332D02*
X12929D01*
X12700Y43307D02*
X12929D01*
X12700Y43282D02*
X12929D01*
X12700Y43256D02*
X12929D01*
X12700Y43231D02*
X12929D01*
X12700Y43205D02*
X12929D01*
X12700Y43180D02*
X12929D01*
X12700Y43155D02*
X12929D01*
X12700Y43129D02*
X12929D01*
X12700Y43104D02*
X12929D01*
X12700Y43078D02*
X12929D01*
X12700Y43053D02*
X12929D01*
X12700Y43028D02*
X12929D01*
X12700Y43002D02*
X12929D01*
X12700Y42977D02*
X12929D01*
X12700Y42951D02*
X12929D01*
X12217Y45085D02*
X12929D01*
X12243Y45060D02*
X12929D01*
X12243Y45034D02*
X12929D01*
X12243Y45009D02*
X12929D01*
X12243Y44983D02*
X12929D01*
X12243Y44958D02*
X12929D01*
X12243Y44933D02*
X12929D01*
X12243Y44907D02*
X12929D01*
X12243Y44882D02*
X12929D01*
X12243Y44856D02*
X12929D01*
X12243Y44831D02*
X12929D01*
X12243Y44806D02*
X12929D01*
X12243Y44780D02*
X12929D01*
X12243Y44755D02*
X12929D01*
X12243Y44729D02*
X12929D01*
X12243Y44704D02*
X12929D01*
X12243Y44679D02*
X12929D01*
X12243Y44653D02*
X12929D01*
X12243Y44628D02*
X12929D01*
X12243Y44602D02*
X12929D01*
X12243Y44577D02*
X12929D01*
X12243Y44552D02*
X12929D01*
X12243Y44526D02*
X12929D01*
X12243Y44501D02*
X12929D01*
X12243Y44475D02*
X12929D01*
X12243Y44450D02*
X12929D01*
X12243Y44425D02*
X12929D01*
X13487Y44399D02*
X13665D01*
X12243D02*
X12929D01*
X13487Y44374D02*
X13665D01*
X12243D02*
X12929D01*
X13487Y44348D02*
X13640D01*
X12243D02*
X12929D01*
X13487Y44323D02*
X13614D01*
X12243D02*
X12929D01*
X13487Y44298D02*
X13589D01*
X12243D02*
X12929D01*
X13487Y44272D02*
X13589D01*
X12243D02*
X12929D01*
X13487Y44247D02*
X13564D01*
X12243D02*
X12929D01*
X13487Y44221D02*
X13538D01*
X12243D02*
X12929D01*
X13487Y44196D02*
X13513D01*
X12243D02*
X12929D01*
X12243Y44171D02*
X12929D01*
X12243Y44145D02*
X12929D01*
X12243Y44120D02*
X12929D01*
X12243Y44094D02*
X12929D01*
X12243Y44069D02*
X12929D01*
X12243Y44044D02*
X12929D01*
X12243Y44018D02*
X12929D01*
X12243Y43993D02*
X12929D01*
X12243Y43967D02*
X12929D01*
X12243Y43942D02*
X12929D01*
X12243Y43917D02*
X12929D01*
X12243Y43891D02*
X12929D01*
X12243Y43866D02*
X12929D01*
X12243Y43840D02*
X12929D01*
X12243Y43815D02*
X12929D01*
X12243Y43790D02*
X12929D01*
X13487Y43764D02*
X13513D01*
X12243D02*
X12929D01*
X13487Y43739D02*
X13538D01*
X12243D02*
X12929D01*
X13487Y43713D02*
X13564D01*
X12243D02*
X12929D01*
X13487Y43688D02*
X13589D01*
X12243D02*
X12929D01*
X13487Y43663D02*
X13589D01*
X12243D02*
X12929D01*
X13487Y43637D02*
X13614D01*
X12243D02*
X12929D01*
X13487Y43612D02*
X13640D01*
X12243D02*
X12929D01*
X13487Y43586D02*
X13665D01*
X12243D02*
X12929D01*
X13487Y43561D02*
X13665D01*
X12243D02*
X12929D01*
X11862Y47930D02*
X13513D01*
X10058Y41478D02*
X10262D01*
X10058Y41453D02*
X10262D01*
X10058Y41427D02*
X10262D01*
X10058Y41402D02*
X10262D01*
X10058Y41377D02*
X10262D01*
X10084Y41351D02*
X10262D01*
X10084Y41326D02*
X10287D01*
X10084Y41300D02*
X10287D01*
X10084Y41275D02*
X10287D01*
X10084Y41250D02*
X10287D01*
X10084Y41224D02*
X10287D01*
X10084Y41199D02*
X10287D01*
X10084Y41173D02*
X10287D01*
X10109Y41148D02*
X10287D01*
X10109Y41123D02*
X10287D01*
X10109Y41097D02*
X10312D01*
X10109Y41072D02*
X10312D01*
X10109Y41046D02*
X10312D01*
X10109Y41021D02*
X10312D01*
X10109Y40996D02*
X10312D01*
X10109Y40970D02*
X10312D01*
X10135Y40945D02*
X10312D01*
X10135Y40919D02*
X10312D01*
X10135Y40894D02*
X10338D01*
X10135Y40869D02*
X10338D01*
X10135Y40843D02*
X10338D01*
X10135Y40818D02*
X10338D01*
X10135Y40792D02*
X10338D01*
X10135Y40767D02*
X10338D01*
X10135Y40742D02*
X10338D01*
X10160Y40716D02*
X10338D01*
X10160Y40691D02*
X10363D01*
X10160Y40665D02*
X10363D01*
X10160Y40640D02*
X10363D01*
X10160Y40615D02*
X10363D01*
X10160Y40589D02*
X10363D01*
X10160Y40564D02*
X10363D01*
X10160Y40538D02*
X10363D01*
X10185Y40513D02*
X10363D01*
X10185Y40488D02*
X10389D01*
X10185Y40462D02*
X10389D01*
X10185Y40437D02*
X10389D01*
X10185Y40411D02*
X10389D01*
X10185Y40386D02*
X10389D01*
X10185Y40361D02*
X10389D01*
X10185Y40335D02*
X10389D01*
X10211Y40310D02*
X10389D01*
X10211Y40284D02*
X10414D01*
X10211Y40259D02*
X10414D01*
X10211Y40234D02*
X10414D01*
X10211Y40208D02*
X10414D01*
X10211Y40183D02*
X10414D01*
X10211Y40157D02*
X10414D01*
X10211Y40132D02*
X10414D01*
X10236Y40107D02*
X10414D01*
X10236Y40081D02*
X10439D01*
X10236Y40056D02*
X10439D01*
X10236Y40030D02*
X10439D01*
X10236Y40005D02*
X10439D01*
X10236Y39980D02*
X10439D01*
X10236Y39954D02*
X10439D01*
X10236Y39929D02*
X10439D01*
X10262Y39903D02*
X10439D01*
X10262Y39827D02*
X11633D01*
X10262Y39802D02*
X11405D01*
X10262Y39776D02*
X11201D01*
X10287Y39751D02*
X10998D01*
X10287Y39726D02*
X10795D01*
X10312Y39700D02*
X10592D01*
X9804Y43510D02*
X10008D01*
X9804Y43485D02*
X10008D01*
X9804Y43459D02*
X10008D01*
X9804Y43434D02*
X10008D01*
X9830Y43409D02*
X10008D01*
X10541Y43383D02*
X11201D01*
X9830D02*
X10033D01*
X10541Y43358D02*
X11201D01*
X9830D02*
X10033D01*
X10566Y43332D02*
X11201D01*
X9830D02*
X10033D01*
X10566Y43307D02*
X11201D01*
X9830D02*
X10033D01*
X10566Y43282D02*
X11201D01*
X9830D02*
X10033D01*
X10566Y43256D02*
X11201D01*
X9830D02*
X10033D01*
X10566Y43231D02*
X11201D01*
X9830D02*
X10033D01*
X10566Y43205D02*
X11201D01*
X9855D02*
X10033D01*
X10566Y43180D02*
X11201D01*
X9855D02*
X10058D01*
X10566Y43155D02*
X11201D01*
X9855D02*
X10058D01*
X10566Y43129D02*
X11201D01*
X9855D02*
X10058D01*
X10592Y43104D02*
X11201D01*
X9855D02*
X10058D01*
X10592Y43078D02*
X11201D01*
X9855D02*
X10058D01*
X10592Y43053D02*
X11201D01*
X9855D02*
X10058D01*
X10592Y43028D02*
X11201D01*
X9855D02*
X10058D01*
X10592Y43002D02*
X11201D01*
X9881D02*
X10058D01*
X10592Y42977D02*
X11201D01*
X9881D02*
X10084D01*
X10592Y42951D02*
X11201D01*
X9881D02*
X10084D01*
X9881Y42926D02*
X10084D01*
X9881Y42901D02*
X10084D01*
X9881Y42875D02*
X10084D01*
X9881Y42850D02*
X10084D01*
X9881Y42824D02*
X10084D01*
X9906Y42799D02*
X10084D01*
X9906Y42774D02*
X10109D01*
X9906Y42748D02*
X10109D01*
X9906Y42723D02*
X10109D01*
X9906Y42697D02*
X10109D01*
X9906Y42672D02*
X10109D01*
X9906Y42647D02*
X10109D01*
X9906Y42621D02*
X10109D01*
X9931Y42596D02*
X10109D01*
X9931Y42570D02*
X10109D01*
X9931Y42545D02*
X10135D01*
X9931Y42520D02*
X10135D01*
X9931Y42494D02*
X10135D01*
X9931Y42469D02*
X10135D01*
X9931Y42443D02*
X10135D01*
X9931Y42418D02*
X10135D01*
X9957Y42393D02*
X10135D01*
X9957Y42367D02*
X10135D01*
X9957Y42342D02*
X10160D01*
X9957Y42316D02*
X10160D01*
X9957Y42291D02*
X10160D01*
X9957Y42266D02*
X10160D01*
X9957Y42240D02*
X10160D01*
X9957Y42215D02*
X10160D01*
X9982Y42189D02*
X10160D01*
X9982Y42164D02*
X10160D01*
X9982Y42139D02*
X10185D01*
X9982Y42113D02*
X10185D01*
X9982Y42088D02*
X10185D01*
X9982Y42062D02*
X10185D01*
X9982Y42037D02*
X10185D01*
X9982Y42012D02*
X10185D01*
X9982Y41986D02*
X10185D01*
X10008Y41961D02*
X10185D01*
X10008Y41935D02*
X10211D01*
X10008Y41910D02*
X10211D01*
X10008Y41885D02*
X10211D01*
X10008Y41859D02*
X10211D01*
X10008Y41834D02*
X10211D01*
X10008Y41808D02*
X10211D01*
X10008Y41783D02*
X10211D01*
X10033Y41758D02*
X10211D01*
X10033Y41732D02*
X10236D01*
X10033Y41707D02*
X10236D01*
X10033Y41681D02*
X10236D01*
X10033Y41656D02*
X10236D01*
X10033Y41631D02*
X10236D01*
X10033Y41605D02*
X10236D01*
X10033Y41580D02*
X10236D01*
X10058Y41554D02*
X10236D01*
X10058Y41529D02*
X10262D01*
X9652Y44856D02*
X9830D01*
X9652Y44831D02*
X9855D01*
X9652Y44806D02*
X9855D01*
X9652Y44780D02*
X9855D01*
X9652Y44755D02*
X9855D01*
X9652Y44729D02*
X9855D01*
X9652Y44704D02*
X9855D01*
X9652Y44679D02*
X9855D01*
X9677Y44653D02*
X9855D01*
X9677Y44628D02*
X9881D01*
X9677Y44602D02*
X9881D01*
X9677Y44577D02*
X9881D01*
X9677Y44552D02*
X9881D01*
X9677Y44526D02*
X9881D01*
X9677Y44501D02*
X9881D01*
X9677Y44475D02*
X9881D01*
X9703Y44450D02*
X9881D01*
X9703Y44425D02*
X9906D01*
X9703Y44399D02*
X9906D01*
X9703Y44374D02*
X9906D01*
X9703Y44348D02*
X9906D01*
X9703Y44323D02*
X9906D01*
X9703Y44298D02*
X9906D01*
X9703Y44272D02*
X9906D01*
X9728Y44247D02*
X9906D01*
X9728Y44221D02*
X9931D01*
X9728Y44196D02*
X9931D01*
X9728Y44171D02*
X9931D01*
X9728Y44145D02*
X9931D01*
X9728Y44120D02*
X9931D01*
X9728Y44094D02*
X9931D01*
X9728Y44069D02*
X9931D01*
X9754Y44044D02*
X9931D01*
X9754Y44018D02*
X9957D01*
X9754Y43993D02*
X9957D01*
X9754Y43967D02*
X9957D01*
X9754Y43942D02*
X9957D01*
X9754Y43917D02*
X9957D01*
X9754Y43891D02*
X9957D01*
X9754Y43866D02*
X9957D01*
X9779Y43840D02*
X9957D01*
X9779Y43815D02*
X9957D01*
X9779Y43790D02*
X9982D01*
X9779Y43764D02*
X9982D01*
X9779Y43739D02*
X9982D01*
X9779Y43713D02*
X9982D01*
X9779Y43688D02*
X9982D01*
X9779Y43663D02*
X9982D01*
X9804Y43637D02*
X9982D01*
X9804Y43612D02*
X9982D01*
X9804Y43586D02*
X10008D01*
X9804Y43561D02*
X10008D01*
Y47701D02*
X11633D01*
X9804Y47676D02*
X11430D01*
X9322Y47447D02*
X9576D01*
X9322Y47422D02*
X9525D01*
X9322Y47396D02*
X9525D01*
X9322Y47371D02*
X9525D01*
X9347Y47346D02*
X9525D01*
X9347Y47320D02*
X9550D01*
X9347Y47295D02*
X9550D01*
X9347Y47269D02*
X9550D01*
X9347Y47244D02*
X9550D01*
X9347Y47219D02*
X9550D01*
X9347Y47193D02*
X9550D01*
X9347Y47168D02*
X9550D01*
X9373Y47142D02*
X9550D01*
X9373Y47117D02*
X9576D01*
X9373Y47092D02*
X9576D01*
X9373Y47066D02*
X9576D01*
X9373Y47041D02*
X9576D01*
X9373Y47015D02*
X9576D01*
X9373Y46990D02*
X9576D01*
X9373Y46965D02*
X9576D01*
X9398Y46939D02*
X9576D01*
X9398Y46914D02*
X9601D01*
X9398Y46888D02*
X9601D01*
X9398Y46863D02*
X9601D01*
X9398Y46838D02*
X9601D01*
X9398Y46812D02*
X9601D01*
X9398Y46787D02*
X9601D01*
X9398Y46761D02*
X9601D01*
X9423Y46736D02*
X9601D01*
X9423Y46711D02*
X9601D01*
D112*
X2476Y22098D02*
X2667Y21907D01*
Y21526D01*
X2476Y21336D01*
X1714D01*
X1524Y21526D01*
Y21907D01*
X1714Y22098D01*
X1524Y22479D02*
X2286D01*
X2667Y22860D01*
X2286Y23240D01*
X1524D01*
X2095D01*
Y22479D01*
X1524Y23621D02*
X2667D01*
X1524Y24383D01*
X2667D01*
Y24764D02*
X1524D01*
Y25526D01*
X2476Y17018D02*
X2667Y16827D01*
Y16446D01*
X2476Y16256D01*
X1714D01*
X1524Y16446D01*
Y16827D01*
X1714Y17018D01*
X1524Y17399D02*
X2286D01*
X2667Y17780D01*
X2286Y18160D01*
X1524D01*
X2095D01*
Y17399D01*
X1524Y18541D02*
X2667D01*
X1524Y19303D01*
X2667D01*
Y19684D02*
X1524D01*
X2095D01*
Y20446D01*
X2667D01*
X1524D01*
X2476Y12700D02*
X2667Y12509D01*
Y12128D01*
X2476Y11938D01*
X1714D01*
X1524Y12128D01*
Y12509D01*
X1714Y12700D01*
X2095D01*
Y12319D01*
X1524Y13081D02*
X2667D01*
X1524Y13842D01*
X2667D01*
Y14223D02*
X1524D01*
Y14795D01*
X1714Y14985D01*
X2476D01*
X2667Y14795D01*
Y14223D01*
M02*
