%FSLAX43Y43*%
%MOMM*%
G71*
G01*
G75*
G04 Layer_Physical_Order=2*
G04 Layer_Color=16711680*
%ADD10R,1.270X0.508*%
%ADD11R,0.762X0.762*%
%ADD12R,2.160X2.500*%
%ADD13R,0.762X0.762*%
%ADD14R,2.300X0.500*%
%ADD15R,2.500X2.000*%
%ADD16R,6.200X5.800*%
%ADD17R,3.000X1.600*%
G04:AMPARAMS|DCode=18|XSize=2.5mm|YSize=1.7mm|CornerRadius=0.212mm|HoleSize=0mm|Usage=FLASHONLY|Rotation=90.000|XOffset=0mm|YOffset=0mm|HoleType=Round|Shape=RoundedRectangle|*
%AMROUNDEDRECTD18*
21,1,2.500,1.275,0,0,90.0*
21,1,2.075,1.700,0,0,90.0*
1,1,0.425,0.637,1.038*
1,1,0.425,0.637,-1.038*
1,1,0.425,-0.637,-1.038*
1,1,0.425,-0.637,1.038*
%
%ADD18ROUNDEDRECTD18*%
%ADD19R,1.524X1.524*%
%ADD20R,2.032X3.175*%
%ADD21R,1.000X1.000*%
%ADD22R,1.016X1.270*%
%ADD23R,3.500X2.200*%
%ADD24R,1.200X2.200*%
%ADD25R,1.100X0.600*%
%ADD26O,0.650X1.650*%
%ADD27R,5.600X2.100*%
%ADD28O,1.450X0.300*%
%ADD29O,0.300X1.450*%
%ADD30R,1.200X0.750*%
%ADD31R,1.700X2.500*%
%ADD32O,0.800X0.350*%
%ADD33R,4.400X1.900*%
%ADD34R,1.000X0.750*%
%ADD35C,0.203*%
%ADD36C,0.254*%
%ADD37C,0.406*%
%ADD38C,0.762*%
%ADD39C,0.508*%
%ADD40R,1.702X1.270*%
%ADD41R,2.667X3.302*%
%ADD42R,4.318X4.953*%
%ADD43R,2.667X15.240*%
%ADD44R,4.953X5.588*%
%ADD45R,6.604X3.556*%
%ADD46R,2.540X2.540*%
%ADD47R,1.219X0.635*%
%ADD48R,12.192X5.588*%
%ADD49R,9.119X4.715*%
%ADD50R,10.160X2.286*%
%ADD51R,4.826X5.588*%
%ADD52R,1.270X9.652*%
%ADD53R,10.262X8.890*%
%ADD54R,9.906X8.890*%
%ADD55R,1.270X13.589*%
%ADD56R,11.430X3.683*%
%ADD57R,11.836X3.683*%
%ADD58R,11.811X3.683*%
%ADD59R,1.270X11.303*%
%ADD60R,2.540X5.842*%
%ADD61R,4.064X14.732*%
%ADD62R,12.040X3.708*%
%ADD63R,2.413X8.128*%
%ADD64R,4.064X12.294*%
%ADD65R,37.160X3.708*%
%ADD66R,4.064X3.683*%
%ADD67R,2.413X3.175*%
%ADD68R,2.921X13.589*%
%ADD69R,4.826X4.064*%
%ADD70R,2.921X21.234*%
%ADD71R,0.889X0.762*%
%ADD72R,3.048X3.556*%
%ADD73R,5.461X3.302*%
%ADD74R,9.271X8.001*%
%ADD75R,4.953X8.890*%
%ADD76R,1.803X17.018*%
%ADD77C,6.500*%
%ADD78R,1.778X1.778*%
%ADD79C,1.778*%
%ADD80R,2.200X2.200*%
%ADD81C,2.200*%
%ADD82C,2.700*%
%ADD83R,2.700X2.700*%
%ADD84R,2.200X2.200*%
%ADD85C,0.900*%
%ADD86R,1.524X1.524*%
%ADD87C,1.524*%
%ADD88C,1.500*%
%ADD89C,0.700*%
%ADD90C,1.000*%
%ADD91C,0.500*%
%ADD92R,4.191X5.588*%
%ADD93R,6.604X3.048*%
%ADD94R,13.208X3.048*%
%ADD95R,1.270X2.794*%
%ADD96R,4.572X6.858*%
%ADD97R,2.794X17.018*%
%ADD98R,22.860X2.921*%
%ADD99R,2.921X18.796*%
%ADD100R,17.856X6.096*%
%ADD101R,6.350X12.700*%
%ADD102R,15.494X5.842*%
G36*
X96576Y49636D02*
X97138Y49501D01*
X97671Y49280D01*
X98164Y48978D01*
X98603Y48603D01*
X98978Y48164D01*
X99280Y47671D01*
X99501Y47138D01*
X99636Y46576D01*
X99680Y46018D01*
X99676Y46000D01*
Y4000D01*
X99680Y3982D01*
X99636Y3424D01*
X99501Y2862D01*
X99280Y2329D01*
X98978Y1836D01*
X98603Y1397D01*
X98164Y1022D01*
X97671Y720D01*
X97138Y499D01*
X96576Y364D01*
X96018Y320D01*
X96000Y324D01*
X4000D01*
X3982Y320D01*
X3424Y364D01*
X2862Y499D01*
X2329Y720D01*
X1836Y1022D01*
X1397Y1397D01*
X1022Y1836D01*
X720Y2329D01*
X499Y2862D01*
X364Y3424D01*
X320Y3982D01*
X324Y4000D01*
Y46000D01*
X320Y46018D01*
X364Y46576D01*
X499Y47138D01*
X720Y47671D01*
X1022Y48164D01*
X1397Y48603D01*
X1836Y48978D01*
X2329Y49280D01*
X2862Y49501D01*
X3424Y49636D01*
X3982Y49680D01*
X4000Y49676D01*
X49134D01*
X49146Y49550D01*
X48995Y49520D01*
X48865Y49433D01*
X46907Y47474D01*
X46764Y47534D01*
X46482Y47571D01*
X46200Y47534D01*
X45938Y47425D01*
X45712Y47252D01*
X45539Y47026D01*
X45430Y46764D01*
X45393Y46482D01*
X45430Y46200D01*
X45539Y45938D01*
X45712Y45712D01*
X45938Y45539D01*
X46081Y45480D01*
Y45124D01*
X45808Y44851D01*
X39056D01*
Y45466D01*
X39041Y45540D01*
X38999Y45603D01*
X38936Y45645D01*
X38862Y45660D01*
X32258D01*
X32184Y45645D01*
X32121Y45603D01*
X32079Y45540D01*
X32064Y45466D01*
Y42418D01*
X32079Y42344D01*
X32121Y42281D01*
X32184Y42239D01*
X32258Y42224D01*
X38862D01*
X38936Y42239D01*
X38999Y42281D01*
X39041Y42344D01*
X39056Y42418D01*
Y44049D01*
X45974D01*
X46128Y44079D01*
X46258Y44166D01*
X46258Y44166D01*
X46258Y44166D01*
X46766Y44674D01*
X46853Y44804D01*
X46883Y44958D01*
X46883Y44958D01*
X46883Y44958D01*
Y44958D01*
Y45480D01*
X47026Y45539D01*
X47252Y45712D01*
X47425Y45938D01*
X47534Y46200D01*
X47571Y46482D01*
X47534Y46764D01*
X47474Y46907D01*
X49315Y48748D01*
X61398D01*
Y47516D01*
X61178Y47425D01*
X60952Y47252D01*
X60779Y47026D01*
X60670Y46764D01*
X60633Y46482D01*
X60670Y46200D01*
X60779Y45938D01*
X60952Y45712D01*
X61178Y45539D01*
X61398Y45448D01*
Y44577D01*
X61398Y44577D01*
X61398D01*
X61423Y44453D01*
X61493Y44348D01*
X61874Y43967D01*
X61979Y43897D01*
X62103Y43872D01*
X68781D01*
X68825Y43806D01*
X69004Y43687D01*
X69215Y43645D01*
X69426Y43687D01*
X69605Y43806D01*
X69724Y43985D01*
X69766Y44196D01*
X69724Y44407D01*
X69605Y44586D01*
X69426Y44705D01*
X69215Y44747D01*
X69004Y44705D01*
X68825Y44586D01*
X68781Y44520D01*
X62237D01*
X62046Y44711D01*
Y45448D01*
X62266Y45539D01*
X62492Y45712D01*
X62665Y45938D01*
X62774Y46200D01*
X62811Y46482D01*
X62774Y46764D01*
X62665Y47026D01*
X62492Y47252D01*
X62266Y47425D01*
X62046Y47516D01*
Y48748D01*
X74098D01*
Y47562D01*
X73342D01*
Y45403D01*
X75502D01*
Y47562D01*
X74746D01*
Y48748D01*
X86829D01*
X98532Y37045D01*
Y26968D01*
X87782D01*
X87659Y26944D01*
X87553Y26874D01*
X86946Y26266D01*
X86868Y26281D01*
X86657Y26239D01*
X86478Y26120D01*
X86359Y25941D01*
X86317Y25730D01*
X86359Y25519D01*
X86478Y25341D01*
X86657Y25221D01*
X86868Y25179D01*
X87079Y25221D01*
X87258Y25341D01*
X87377Y25519D01*
X87419Y25730D01*
X87404Y25808D01*
X87916Y26321D01*
X98532D01*
Y15406D01*
X90623Y7498D01*
X87192Y10929D01*
Y12393D01*
X87258Y12437D01*
X87377Y12616D01*
X87419Y12827D01*
X87377Y13038D01*
X87258Y13217D01*
X87079Y13336D01*
X86868Y13378D01*
X86657Y13336D01*
X86478Y13217D01*
X86359Y13038D01*
X86317Y12827D01*
X86359Y12616D01*
X86478Y12437D01*
X86544Y12393D01*
Y10795D01*
X86569Y10671D01*
X86639Y10566D01*
X90277Y6929D01*
Y3595D01*
X88886Y2205D01*
X84906D01*
Y2659D01*
X85062Y2724D01*
X85261Y2877D01*
X85414Y3076D01*
X85510Y3307D01*
X85543Y3556D01*
X85510Y3805D01*
X85414Y4036D01*
X85261Y4235D01*
X85062Y4388D01*
X84831Y4484D01*
X84582Y4517D01*
X84333Y4484D01*
X84102Y4388D01*
X83903Y4235D01*
X83750Y4036D01*
X83654Y3805D01*
X83621Y3556D01*
X83654Y3307D01*
X83750Y3076D01*
X83903Y2877D01*
X84102Y2724D01*
X84258Y2659D01*
Y2205D01*
X72379D01*
X72355Y2329D01*
X72426Y2359D01*
X72652Y2532D01*
X72825Y2758D01*
X72934Y3020D01*
X72971Y3302D01*
X72934Y3584D01*
X72825Y3846D01*
X72652Y4072D01*
X72426Y4245D01*
X72164Y4354D01*
X71882Y4391D01*
X71600Y4354D01*
X71338Y4245D01*
X71112Y4072D01*
X70939Y3846D01*
X70830Y3584D01*
X70793Y3302D01*
X70830Y3020D01*
X70939Y2758D01*
X71112Y2532D01*
X71338Y2359D01*
X71409Y2329D01*
X71385Y2205D01*
X69839D01*
X69815Y2329D01*
X69886Y2359D01*
X70112Y2532D01*
X70285Y2758D01*
X70394Y3020D01*
X70431Y3302D01*
X70394Y3584D01*
X70285Y3846D01*
X70112Y4072D01*
X69886Y4245D01*
X69624Y4354D01*
X69342Y4391D01*
X69060Y4354D01*
X68798Y4245D01*
X68572Y4072D01*
X68399Y3846D01*
X68290Y3584D01*
X68253Y3302D01*
X68290Y3020D01*
X68399Y2758D01*
X68572Y2532D01*
X68798Y2359D01*
X68869Y2329D01*
X68845Y2205D01*
X64760D01*
X64735Y2329D01*
X64806Y2359D01*
X65032Y2532D01*
X65205Y2758D01*
X65314Y3020D01*
X65351Y3302D01*
X65314Y3584D01*
X65205Y3846D01*
X65032Y4072D01*
X64806Y4245D01*
X64544Y4354D01*
X64262Y4391D01*
X63980Y4354D01*
X63718Y4245D01*
X63492Y4072D01*
X63319Y3846D01*
X63210Y3584D01*
X63173Y3302D01*
X63210Y3020D01*
X63319Y2758D01*
X63492Y2532D01*
X63718Y2359D01*
X63789Y2329D01*
X63764Y2205D01*
X63387D01*
X62801Y2790D01*
Y4381D01*
X60643D01*
Y2223D01*
X62234D01*
X62937Y1520D01*
X63067Y1433D01*
X63221Y1402D01*
X89052D01*
X89206Y1433D01*
X89336Y1520D01*
X89336Y1520D01*
X89336Y1520D01*
X90962Y3145D01*
X91049Y3275D01*
X91079Y3429D01*
X91079Y3429D01*
X91079Y3429D01*
Y3429D01*
Y6819D01*
X99217Y14956D01*
X99304Y15086D01*
X99334Y15240D01*
X99334Y15240D01*
X99334Y15240D01*
Y15240D01*
Y26645D01*
Y37211D01*
X99304Y37365D01*
X99217Y37495D01*
X87279Y49433D01*
X87149Y49520D01*
X86998Y49550D01*
X87010Y49676D01*
X96000D01*
X96018Y49680D01*
X96576Y49636D01*
D02*
G37*
%LPC*%
G36*
X6874Y24930D02*
X3793D01*
Y21849D01*
X6874D01*
Y24930D01*
D02*
G37*
G36*
X96468Y11399D02*
X96222Y11366D01*
X95994Y11272D01*
X95797Y11121D01*
X95646Y10924D01*
X95552Y10696D01*
X95519Y10450D01*
X95552Y10204D01*
X95646Y9976D01*
X95797Y9779D01*
X95994Y9628D01*
X96222Y9534D01*
X96468Y9501D01*
X96714Y9534D01*
X96942Y9628D01*
X97139Y9779D01*
X97290Y9976D01*
X97384Y10204D01*
X97417Y10450D01*
X97384Y10696D01*
X97290Y10924D01*
X97139Y11121D01*
X96942Y11272D01*
X96714Y11366D01*
X96468Y11399D01*
D02*
G37*
G36*
X5334Y19938D02*
X5032Y19908D01*
X4742Y19820D01*
X4474Y19677D01*
X4239Y19484D01*
X4047Y19250D01*
X3904Y18982D01*
X3816Y18692D01*
X3786Y18390D01*
X3816Y18088D01*
X3904Y17797D01*
X4047Y17530D01*
X4239Y17295D01*
X4474Y17103D01*
X4742Y16959D01*
X5032Y16871D01*
X5334Y16842D01*
X5636Y16871D01*
X5926Y16959D01*
X6194Y17103D01*
X6429Y17295D01*
X6621Y17530D01*
X6764Y17797D01*
X6852Y18088D01*
X6882Y18390D01*
X6852Y18692D01*
X6764Y18982D01*
X6621Y19250D01*
X6429Y19484D01*
X6194Y19677D01*
X5926Y19820D01*
X5636Y19908D01*
X5334Y19938D01*
D02*
G37*
G36*
X89968Y24607D02*
X89722Y24574D01*
X89494Y24480D01*
X89297Y24329D01*
X89146Y24132D01*
X89052Y23904D01*
X89019Y23658D01*
X89052Y23412D01*
X89125Y23236D01*
X85237Y19348D01*
X78955D01*
X78876Y19466D01*
X78697Y19586D01*
X78486Y19628D01*
X78275Y19586D01*
X78096Y19466D01*
X77977Y19287D01*
X77935Y19076D01*
X77977Y18866D01*
X78096Y18687D01*
X78275Y18567D01*
X78486Y18525D01*
X78697Y18567D01*
X78876Y18687D01*
X78919Y18752D01*
X85360D01*
X85474Y18775D01*
X85571Y18839D01*
X85571Y18839D01*
X85571Y18839D01*
X89546Y22815D01*
X89722Y22742D01*
X89968Y22709D01*
X90214Y22742D01*
X90442Y22836D01*
X90639Y22987D01*
X90790Y23184D01*
X90884Y23412D01*
X90917Y23658D01*
X90884Y23904D01*
X90790Y24132D01*
X90639Y24329D01*
X90442Y24480D01*
X90214Y24574D01*
X89968Y24607D01*
D02*
G37*
G36*
X1575Y39896D02*
X1364Y39854D01*
X1185Y39734D01*
X1066Y39555D01*
X1024Y39345D01*
X1066Y39134D01*
X1185Y38955D01*
X1251Y38911D01*
Y25959D01*
X1251Y25959D01*
X1251D01*
X1276Y25835D01*
X1346Y25730D01*
X1634Y25442D01*
X1739Y25372D01*
X1863Y25347D01*
X11392D01*
X11433Y25227D01*
X11426Y25222D01*
X11253Y24996D01*
X11144Y24733D01*
X11107Y24452D01*
X11144Y24170D01*
X11253Y23907D01*
X11426Y23682D01*
X11521Y23609D01*
X11480Y23489D01*
X9290D01*
X9280Y23504D01*
X9101Y23623D01*
X8890Y23665D01*
X8679Y23623D01*
X8500Y23504D01*
X8381Y23325D01*
X8339Y23114D01*
X8381Y22903D01*
X8489Y22742D01*
Y14961D01*
X8489Y14961D01*
X8489D01*
X8519Y14807D01*
X8606Y14677D01*
X14922Y8361D01*
X14959Y8171D01*
X15079Y7992D01*
X15258Y7873D01*
X15469Y7831D01*
X15679Y7873D01*
X15858Y7992D01*
X15978Y8171D01*
X16020Y8382D01*
X15978Y8593D01*
X15858Y8772D01*
X15679Y8891D01*
X15489Y8929D01*
X9291Y15127D01*
Y22742D01*
X9358Y22841D01*
X11437D01*
X11477Y22721D01*
X11426Y22681D01*
X11253Y22456D01*
X11144Y22193D01*
X11107Y21912D01*
X11144Y21630D01*
X11253Y21367D01*
X11426Y21142D01*
X11652Y20969D01*
X11914Y20860D01*
X12196Y20823D01*
X12478Y20860D01*
X12740Y20969D01*
X12966Y21142D01*
X13139Y21367D01*
X13248Y21630D01*
X13285Y21912D01*
X13248Y22193D01*
X13139Y22456D01*
X12966Y22681D01*
X12905Y22728D01*
X12934Y22852D01*
X13002Y22866D01*
X13107Y22936D01*
X14104Y23933D01*
X18009D01*
X18132Y23958D01*
X18237Y24028D01*
X18921Y24712D01*
X18999Y24697D01*
X19210Y24738D01*
X19389Y24858D01*
X19508Y25037D01*
X19550Y25248D01*
X19508Y25458D01*
X19389Y25637D01*
X19210Y25757D01*
X18999Y25799D01*
X18788Y25757D01*
X18610Y25637D01*
X18490Y25458D01*
X18448Y25248D01*
X18464Y25170D01*
X17875Y24581D01*
X15459D01*
X15422Y24702D01*
X15503Y24756D01*
X15622Y24935D01*
X15664Y25146D01*
X15622Y25357D01*
X15503Y25536D01*
X15324Y25655D01*
X15113Y25697D01*
X15035Y25682D01*
X14817Y25900D01*
X14712Y25970D01*
X14588Y25995D01*
X1997D01*
X1899Y26093D01*
Y38911D01*
X1964Y38955D01*
X2084Y39134D01*
X2126Y39345D01*
X2084Y39555D01*
X1964Y39734D01*
X1786Y39854D01*
X1575Y39896D01*
D02*
G37*
G36*
X79756Y39667D02*
X79545Y39625D01*
X79366Y39506D01*
X79247Y39327D01*
X79205Y39116D01*
X79247Y38905D01*
X79355Y38744D01*
Y29884D01*
X79164Y29846D01*
X78985Y29727D01*
X78866Y29548D01*
X78824Y29337D01*
X78866Y29126D01*
X78985Y28947D01*
X79164Y28828D01*
X79375Y28786D01*
X79586Y28828D01*
X79749Y28937D01*
X79756Y28936D01*
X79763Y28937D01*
X79926Y28828D01*
X80137Y28786D01*
X80348Y28828D01*
X80527Y28947D01*
X80646Y29126D01*
X80688Y29337D01*
X80646Y29548D01*
X80527Y29727D01*
X80348Y29846D01*
X80157Y29884D01*
Y38744D01*
X80265Y38905D01*
X80307Y39116D01*
X80265Y39327D01*
X80146Y39506D01*
X79967Y39625D01*
X79756Y39667D01*
D02*
G37*
G36*
X96468Y24607D02*
X96222Y24574D01*
X95994Y24480D01*
X95797Y24329D01*
X95646Y24132D01*
X95552Y23904D01*
X95519Y23658D01*
X95552Y23412D01*
X95646Y23184D01*
X95797Y22987D01*
X95994Y22836D01*
X96222Y22742D01*
X96468Y22709D01*
X96714Y22742D01*
X96942Y22836D01*
X97139Y22987D01*
X97290Y23184D01*
X97384Y23412D01*
X97417Y23658D01*
X97384Y23904D01*
X97290Y24132D01*
X97139Y24329D01*
X96942Y24480D01*
X96714Y24574D01*
X96468Y24607D01*
D02*
G37*
G36*
X71501Y26611D02*
X71290Y26570D01*
X71111Y26450D01*
X70992Y26271D01*
X70950Y26060D01*
X70992Y25850D01*
X71111Y25671D01*
X71203Y25609D01*
Y23644D01*
X70184Y22624D01*
X68396D01*
X68335Y22716D01*
X68156Y22836D01*
X67945Y22878D01*
X67734Y22836D01*
X67555Y22716D01*
X67436Y22537D01*
X67394Y22327D01*
X67436Y22116D01*
X67555Y21937D01*
X67734Y21817D01*
X67945Y21776D01*
X68156Y21817D01*
X68335Y21937D01*
X68396Y22029D01*
X68725D01*
X68774Y21911D01*
X67769Y20906D01*
X67691Y20922D01*
X67480Y20880D01*
X67301Y20760D01*
X67182Y20582D01*
X67140Y20371D01*
X67182Y20160D01*
X67259Y20045D01*
X67211Y19954D01*
X67085Y19936D01*
X66389Y20632D01*
Y21258D01*
X66455Y21302D01*
X66575Y21481D01*
X66616Y21692D01*
X66575Y21902D01*
X66455Y22081D01*
X66276Y22201D01*
X66065Y22243D01*
X65855Y22201D01*
X65676Y22081D01*
X65556Y21902D01*
X65514Y21692D01*
X65556Y21481D01*
X65676Y21302D01*
X65742Y21258D01*
Y20498D01*
X65742Y20498D01*
X65742D01*
X65766Y20374D01*
X65837Y20269D01*
X66726Y19380D01*
X66725D01*
X66726Y19380D01*
X66726Y19380D01*
Y19380D01*
X66831Y19310D01*
X66954Y19285D01*
X67996D01*
X68120Y19310D01*
X68225Y19380D01*
X69501Y20657D01*
X72358D01*
X73124Y19890D01*
X73109Y19812D01*
X73151Y19601D01*
X73270Y19422D01*
X73449Y19303D01*
X73660Y19261D01*
X73871Y19303D01*
X74050Y19422D01*
X74169Y19601D01*
X74211Y19812D01*
X74169Y20023D01*
X74050Y20202D01*
X73871Y20321D01*
X73660Y20363D01*
X73582Y20348D01*
X72720Y21209D01*
X72615Y21279D01*
X72492Y21304D01*
X69367D01*
X69244Y21279D01*
X69222Y21265D01*
X69141Y21363D01*
X69349Y21571D01*
X70764D01*
X70888Y21596D01*
X70993Y21666D01*
X73811Y24483D01*
X73889Y24468D01*
X74099Y24510D01*
X74278Y24629D01*
X74398Y24808D01*
X74440Y25019D01*
X74398Y25230D01*
X74278Y25409D01*
X74099Y25528D01*
X73889Y25570D01*
X73678Y25528D01*
X73499Y25409D01*
X73379Y25230D01*
X73338Y25019D01*
X73353Y24941D01*
X71916Y23504D01*
X71799Y23553D01*
Y25609D01*
X71891Y25671D01*
X72010Y25850D01*
X72052Y26060D01*
X72010Y26271D01*
X71891Y26450D01*
X71712Y26570D01*
X71501Y26611D01*
D02*
G37*
G36*
X82994Y4509D02*
X81090D01*
Y2603D01*
X82994D01*
Y4509D01*
D02*
G37*
G36*
X21463Y7384D02*
X21252Y7342D01*
X21073Y7222D01*
X20954Y7043D01*
X20912Y6833D01*
X20954Y6622D01*
X21062Y6460D01*
Y5766D01*
X21062Y5766D01*
X21062D01*
X21092Y5612D01*
X21179Y5482D01*
X22322Y4339D01*
X22452Y4252D01*
X22606Y4221D01*
X30404D01*
X30557Y4252D01*
X30688Y4339D01*
X30688Y4339D01*
X30688Y4339D01*
X31372Y5023D01*
X31496Y5007D01*
X31778Y5044D01*
X32040Y5153D01*
X32266Y5326D01*
X32439Y5552D01*
X32548Y5814D01*
X32585Y6096D01*
X32548Y6378D01*
X32439Y6640D01*
X32266Y6866D01*
X32040Y7039D01*
X31778Y7148D01*
X31496Y7185D01*
X31214Y7148D01*
X30952Y7039D01*
X30726Y6866D01*
X30553Y6640D01*
X30444Y6378D01*
X30407Y6096D01*
X30444Y5814D01*
X30553Y5552D01*
X30645Y5432D01*
X30238Y5024D01*
X26975D01*
X26950Y5149D01*
X26960Y5153D01*
X27186Y5326D01*
X27359Y5552D01*
X27468Y5814D01*
X27505Y6096D01*
X27468Y6378D01*
X27359Y6640D01*
X27186Y6866D01*
X26960Y7039D01*
X26698Y7148D01*
X26416Y7185D01*
X26134Y7148D01*
X25872Y7039D01*
X25646Y6866D01*
X25473Y6640D01*
X25364Y6378D01*
X25327Y6096D01*
X25364Y5814D01*
X25473Y5552D01*
X25646Y5326D01*
X25872Y5153D01*
X25882Y5149D01*
X25857Y5024D01*
X24955D01*
Y7175D01*
X22796D01*
Y5166D01*
X22679Y5117D01*
X21864Y5932D01*
Y6460D01*
X21972Y6622D01*
X22014Y6833D01*
X21972Y7043D01*
X21853Y7222D01*
X21674Y7342D01*
X21463Y7384D01*
D02*
G37*
G36*
X13991Y4846D02*
X11410D01*
Y2266D01*
X13991D01*
Y4846D01*
D02*
G37*
G36*
X87122Y4517D02*
X86873Y4484D01*
X86642Y4388D01*
X86443Y4235D01*
X86290Y4036D01*
X86194Y3805D01*
X86161Y3556D01*
X86194Y3307D01*
X86290Y3076D01*
X86443Y2877D01*
X86642Y2724D01*
X86873Y2628D01*
X87122Y2595D01*
X87371Y2628D01*
X87602Y2724D01*
X87801Y2877D01*
X87954Y3076D01*
X88050Y3307D01*
X88083Y3556D01*
X88050Y3805D01*
X87954Y4036D01*
X87801Y4235D01*
X87602Y4388D01*
X87371Y4484D01*
X87122Y4517D01*
D02*
G37*
G36*
X43028Y33316D02*
X20168D01*
X20093Y33301D01*
X20030Y33259D01*
X19988Y33196D01*
X19973Y33122D01*
Y31217D01*
Y30201D01*
Y12421D01*
Y9500D01*
X19988Y9425D01*
X20030Y9362D01*
X20093Y9320D01*
X20168Y9305D01*
X43028D01*
X43102Y9320D01*
X43165Y9362D01*
X43207Y9425D01*
X43222Y9500D01*
Y12421D01*
Y12558D01*
X43282Y12607D01*
X55093D01*
X55093Y12607D01*
X56896D01*
X56970Y12622D01*
X57033Y12664D01*
X57075Y12727D01*
X57090Y12802D01*
Y29820D01*
X57075Y29894D01*
X57033Y29957D01*
X56970Y29999D01*
X56896Y30014D01*
X43282D01*
X43222Y30063D01*
Y30201D01*
Y33122D01*
X43207Y33196D01*
X43165Y33259D01*
X43102Y33301D01*
X43028Y33316D01*
D02*
G37*
G36*
X89968Y11399D02*
X89722Y11366D01*
X89494Y11272D01*
X89297Y11121D01*
X89146Y10924D01*
X89052Y10696D01*
X89019Y10450D01*
X89052Y10204D01*
X89146Y9976D01*
X89297Y9779D01*
X89494Y9628D01*
X89722Y9534D01*
X89968Y9501D01*
X90214Y9534D01*
X90442Y9628D01*
X90639Y9779D01*
X90790Y9976D01*
X90884Y10204D01*
X90917Y10450D01*
X90884Y10696D01*
X90790Y10924D01*
X90639Y11121D01*
X90442Y11272D01*
X90214Y11366D01*
X89968Y11399D01*
D02*
G37*
G36*
X34036Y7185D02*
X33754Y7148D01*
X33492Y7039D01*
X33266Y6866D01*
X33093Y6640D01*
X32984Y6378D01*
X32947Y6096D01*
X32984Y5814D01*
X33093Y5552D01*
X33266Y5326D01*
X33492Y5153D01*
X33754Y5044D01*
X34036Y5007D01*
X34318Y5044D01*
X34580Y5153D01*
X34806Y5326D01*
X34979Y5552D01*
X35088Y5814D01*
X35125Y6096D01*
X35088Y6378D01*
X34979Y6640D01*
X34806Y6866D01*
X34580Y7039D01*
X34318Y7148D01*
X34036Y7185D01*
D02*
G37*
G36*
X36576Y7185D02*
X36294Y7148D01*
X36032Y7039D01*
X35806Y6866D01*
X35633Y6640D01*
X35524Y6378D01*
X35487Y6096D01*
X35524Y5814D01*
X35633Y5552D01*
X35806Y5326D01*
X36032Y5153D01*
X36294Y5044D01*
X36576Y5007D01*
X36858Y5044D01*
X37120Y5153D01*
X37346Y5326D01*
X37519Y5552D01*
X37628Y5814D01*
X37665Y6096D01*
X37628Y6378D01*
X37519Y6640D01*
X37346Y6866D01*
X37120Y7039D01*
X36858Y7148D01*
X36576Y7185D01*
D02*
G37*
G36*
X66802Y47571D02*
X66520Y47534D01*
X66258Y47425D01*
X66032Y47252D01*
X65859Y47026D01*
X65750Y46764D01*
X65713Y46482D01*
X65750Y46200D01*
X65859Y45938D01*
X66032Y45712D01*
X66258Y45539D01*
X66520Y45430D01*
X66802Y45393D01*
X67084Y45430D01*
X67346Y45539D01*
X67572Y45712D01*
X67745Y45938D01*
X67854Y46200D01*
X67891Y46482D01*
X67854Y46764D01*
X67745Y47026D01*
X67572Y47252D01*
X67346Y47425D01*
X67084Y47534D01*
X66802Y47571D01*
D02*
G37*
G36*
X82042D02*
X81760Y47534D01*
X81498Y47425D01*
X81272Y47252D01*
X81099Y47026D01*
X80990Y46764D01*
X80953Y46482D01*
X80990Y46200D01*
X81099Y45938D01*
X81272Y45712D01*
X81498Y45539D01*
X81760Y45430D01*
X82042Y45393D01*
X82324Y45430D01*
X82586Y45539D01*
X82812Y45712D01*
X82985Y45938D01*
X83094Y46200D01*
X83131Y46482D01*
X83094Y46764D01*
X82985Y47026D01*
X82812Y47252D01*
X82586Y47425D01*
X82324Y47534D01*
X82042Y47571D01*
D02*
G37*
G36*
X79502Y47571D02*
X79220Y47534D01*
X78958Y47425D01*
X78732Y47252D01*
X78559Y47026D01*
X78450Y46764D01*
X78413Y46482D01*
X78450Y46200D01*
X78559Y45938D01*
X78732Y45712D01*
X78958Y45539D01*
X79220Y45430D01*
X79502Y45393D01*
X79784Y45430D01*
X80046Y45539D01*
X80272Y45712D01*
X80445Y45938D01*
X80554Y46200D01*
X80591Y46482D01*
X80554Y46764D01*
X80445Y47026D01*
X80272Y47252D01*
X80046Y47425D01*
X79784Y47534D01*
X79502Y47571D01*
D02*
G37*
G36*
X51562Y47571D02*
X51280Y47534D01*
X51018Y47425D01*
X50792Y47252D01*
X50619Y47026D01*
X50510Y46764D01*
X50473Y46482D01*
X50510Y46200D01*
X50619Y45938D01*
X50792Y45712D01*
X51018Y45539D01*
X51280Y45430D01*
X51562Y45393D01*
X51844Y45430D01*
X52106Y45539D01*
X52332Y45712D01*
X52505Y45938D01*
X52614Y46200D01*
X52651Y46482D01*
X52614Y46764D01*
X52505Y47026D01*
X52332Y47252D01*
X52106Y47425D01*
X51844Y47534D01*
X51562Y47571D01*
D02*
G37*
G36*
X60262Y47562D02*
X58103D01*
Y45403D01*
X60262D01*
Y47562D01*
D02*
G37*
G36*
X40259Y49473D02*
X31166D01*
X31042Y49448D01*
X30937Y49378D01*
X28145Y46586D01*
X28067Y46601D01*
X27856Y46559D01*
X27677Y46440D01*
X27558Y46261D01*
X27516Y46050D01*
X27558Y45839D01*
X27677Y45661D01*
X27856Y45541D01*
X28067Y45499D01*
X28278Y45541D01*
X28457Y45661D01*
X28576Y45839D01*
X28618Y46050D01*
X28603Y46128D01*
X31300Y48825D01*
X40125D01*
X40739Y48211D01*
X40724Y48133D01*
X40766Y47922D01*
X40885Y47743D01*
X41064Y47624D01*
X41275Y47582D01*
X41486Y47624D01*
X41665Y47743D01*
X41784Y47922D01*
X41826Y48133D01*
X41784Y48344D01*
X41665Y48523D01*
X41486Y48642D01*
X41275Y48684D01*
X41197Y48669D01*
X40488Y49378D01*
X40383Y49448D01*
X40259Y49473D01*
D02*
G37*
G36*
X84582Y47571D02*
X84300Y47534D01*
X84038Y47425D01*
X83812Y47252D01*
X83639Y47026D01*
X83530Y46764D01*
X83493Y46482D01*
X83530Y46200D01*
X83639Y45938D01*
X83812Y45712D01*
X84038Y45539D01*
X84300Y45430D01*
X84582Y45393D01*
X84864Y45430D01*
X85126Y45539D01*
X85352Y45712D01*
X85525Y45938D01*
X85634Y46200D01*
X85671Y46482D01*
X85634Y46764D01*
X85525Y47026D01*
X85352Y47252D01*
X85126Y47425D01*
X84864Y47534D01*
X84582Y47571D01*
D02*
G37*
G36*
X45021Y47562D02*
X42862D01*
Y45403D01*
X45021D01*
Y47562D01*
D02*
G37*
G36*
X64262Y47571D02*
X63980Y47534D01*
X63718Y47425D01*
X63492Y47252D01*
X63319Y47026D01*
X63210Y46764D01*
X63173Y46482D01*
X63210Y46200D01*
X63319Y45938D01*
X63492Y45712D01*
X63718Y45539D01*
X63980Y45430D01*
X64262Y45393D01*
X64544Y45430D01*
X64806Y45539D01*
X65032Y45712D01*
X65205Y45938D01*
X65314Y46200D01*
X65351Y46482D01*
X65314Y46764D01*
X65205Y47026D01*
X65032Y47252D01*
X64806Y47425D01*
X64544Y47534D01*
X64262Y47571D01*
D02*
G37*
G36*
X4846Y36850D02*
X2266D01*
Y34270D01*
X4846D01*
Y36850D01*
D02*
G37*
G36*
X64262Y41445D02*
X64051Y41403D01*
X63872Y41284D01*
X63753Y41105D01*
X63711Y40894D01*
X63753Y40683D01*
X63872Y40504D01*
X64051Y40385D01*
X64262Y40343D01*
X64473Y40385D01*
X64652Y40504D01*
X64696Y40570D01*
X66310D01*
X66370Y40458D01*
X66293Y40343D01*
X66251Y40132D01*
X66293Y39921D01*
X66412Y39742D01*
X66591Y39623D01*
X66802Y39581D01*
X67013Y39623D01*
X67192Y39742D01*
X67236Y39808D01*
X72383D01*
X73768Y38423D01*
Y35957D01*
X73647Y35920D01*
X73542Y36077D01*
X73363Y36196D01*
X73152Y36238D01*
X72941Y36196D01*
X72762Y36077D01*
X72701Y35985D01*
X68718D01*
X68639Y36102D01*
X68461Y36222D01*
X68250Y36263D01*
X68039Y36222D01*
X67860Y36102D01*
X67741Y35923D01*
X67699Y35712D01*
X67741Y35502D01*
X67860Y35323D01*
X68039Y35203D01*
X68250Y35161D01*
X68282Y35168D01*
X68420Y35076D01*
X68378Y34865D01*
X68420Y34654D01*
X68540Y34475D01*
X68718Y34356D01*
X68929Y34314D01*
X69140Y34356D01*
X69319Y34475D01*
X69420Y34627D01*
X72889D01*
X72897Y34587D01*
X73016Y34408D01*
X73195Y34289D01*
X73406Y34247D01*
X73617Y34289D01*
X73656Y34315D01*
X73768Y34255D01*
Y34071D01*
X73656Y34011D01*
X73617Y34037D01*
X73406Y34079D01*
X73195Y34037D01*
X73016Y33918D01*
X72939Y33802D01*
X66816D01*
X66803Y33866D01*
X66684Y34045D01*
X66505Y34164D01*
X66294Y34206D01*
X66083Y34164D01*
X65904Y34045D01*
X65785Y33866D01*
X65747Y33676D01*
X63504Y31432D01*
X62901D01*
X62817Y31634D01*
X62644Y31860D01*
X62419Y32033D01*
X62156Y32141D01*
X61874Y32178D01*
X61593Y32141D01*
X61330Y32033D01*
X61104Y31860D01*
X61048Y31786D01*
X60928Y31827D01*
Y33673D01*
X62533Y35278D01*
X62611Y35263D01*
X62822Y35305D01*
X63001Y35424D01*
X63120Y35603D01*
X63162Y35814D01*
X63120Y36025D01*
X63001Y36204D01*
X62822Y36323D01*
X62737Y36340D01*
X62700Y36462D01*
X63679Y37440D01*
X69385D01*
X69455Y37394D01*
X69666Y37352D01*
X69877Y37394D01*
X70056Y37513D01*
X70175Y37692D01*
X70217Y37903D01*
X70175Y38114D01*
X70056Y38292D01*
X69877Y38412D01*
X69666Y38454D01*
X69455Y38412D01*
X69277Y38292D01*
X69157Y38114D01*
X69152Y38088D01*
X68213D01*
X68153Y38200D01*
X68200Y38270D01*
X68242Y38481D01*
X68200Y38692D01*
X68081Y38871D01*
X67902Y38990D01*
X67691Y39032D01*
X67480Y38990D01*
X67301Y38871D01*
X67182Y38692D01*
X67179Y38678D01*
X61214D01*
X61090Y38653D01*
X60985Y38583D01*
X60116Y37714D01*
X60012Y37770D01*
X59971Y37981D01*
X59851Y38159D01*
X59672Y38279D01*
X59461Y38321D01*
X59251Y38279D01*
X59241Y38273D01*
X59152Y38363D01*
X59209Y38448D01*
X59250Y38659D01*
X59209Y38870D01*
X59089Y39048D01*
X58910Y39168D01*
X58699Y39210D01*
X58489Y39168D01*
X58310Y39048D01*
X58190Y38870D01*
X58148Y38659D01*
X58170Y38550D01*
X54532Y34913D01*
X54508Y34917D01*
X54298Y34875D01*
X54119Y34756D01*
X53999Y34577D01*
X53957Y34366D01*
D01*
X53863Y34347D01*
X53765Y34428D01*
Y35310D01*
X57296Y38840D01*
X57404Y38819D01*
X57615Y38861D01*
X57794Y38980D01*
X57913Y39159D01*
X57955Y39370D01*
X57913Y39581D01*
X57794Y39760D01*
X57615Y39879D01*
X57404Y39921D01*
X57193Y39879D01*
X57014Y39760D01*
X56895Y39581D01*
X56853Y39370D01*
X56874Y39262D01*
X53256Y35644D01*
X53192Y35547D01*
X53169Y35433D01*
Y34360D01*
X53077Y34299D01*
X52958Y34120D01*
X52916Y33909D01*
X52958Y33698D01*
X53077Y33519D01*
X53256Y33400D01*
X53467Y33358D01*
X53678Y33400D01*
X53857Y33519D01*
X53976Y33698D01*
X54018Y33909D01*
X54298Y33857D01*
X54298Y33857D01*
X54298Y33857D01*
X54508Y33815D01*
X54719Y33857D01*
X54898Y33977D01*
X55018Y34155D01*
X55059Y34366D01*
X55021Y34559D01*
X58591Y38129D01*
X58699Y38108D01*
X58910Y38150D01*
X58919Y38156D01*
X59009Y38066D01*
X58952Y37981D01*
X58910Y37770D01*
X58932Y37661D01*
X54653Y33383D01*
X54589Y33286D01*
X54568Y33182D01*
X54482Y33053D01*
X54440Y32842D01*
X54482Y32631D01*
X54601Y32453D01*
X54780Y32333D01*
X54991Y32291D01*
X55202Y32333D01*
X55381Y32453D01*
X55500Y32631D01*
X55542Y32842D01*
X55500Y33053D01*
X55381Y33232D01*
X55377Y33265D01*
X59341Y37228D01*
X59466Y37209D01*
X59517Y37115D01*
X59004Y36602D01*
X58934Y36497D01*
X58909Y36373D01*
Y9684D01*
X55136Y5912D01*
X51996D01*
X51952Y5978D01*
X51773Y6097D01*
X51562Y6139D01*
X51351Y6097D01*
X51172Y5978D01*
X51053Y5799D01*
X51011Y5588D01*
X51053Y5377D01*
X51130Y5262D01*
X51070Y5150D01*
X49813D01*
X49785Y5291D01*
X49666Y5470D01*
X49487Y5589D01*
X49276Y5631D01*
X49065Y5589D01*
X48886Y5470D01*
X48767Y5291D01*
X48725Y5080D01*
X48767Y4869D01*
X48827Y4779D01*
X48767Y4667D01*
X39885D01*
X39440Y5112D01*
Y5794D01*
X39446Y5799D01*
X39657Y5841D01*
X39836Y5960D01*
X39955Y6139D01*
X39997Y6350D01*
X39955Y6561D01*
X39836Y6740D01*
X39657Y6859D01*
X39446Y6901D01*
X39235Y6859D01*
X39057Y6740D01*
X38874Y6862D01*
X38871Y6867D01*
X38692Y6986D01*
X38481Y7028D01*
X38270Y6986D01*
X38091Y6867D01*
X37972Y6688D01*
X37930Y6477D01*
X37972Y6266D01*
X38091Y6087D01*
X38270Y5968D01*
X38284Y5965D01*
Y4750D01*
X38309Y4626D01*
X38379Y4521D01*
X39030Y3870D01*
X38981Y3753D01*
X22232D01*
X18536Y7449D01*
Y22498D01*
X18569Y22548D01*
X18610Y22758D01*
X18569Y22969D01*
X18536Y23019D01*
Y23074D01*
X18511Y23198D01*
X18441Y23303D01*
X18336Y23373D01*
X18212Y23398D01*
X18088Y23373D01*
X17983Y23303D01*
X17972Y23292D01*
X17849Y23268D01*
X17670Y23148D01*
X17550Y22969D01*
X17508Y22758D01*
X17550Y22548D01*
X17670Y22369D01*
X17849Y22249D01*
X17888Y22241D01*
Y19032D01*
X17771Y18984D01*
X17579Y19175D01*
X17594Y19253D01*
X17553Y19464D01*
X17433Y19643D01*
X17254Y19762D01*
X17043Y19804D01*
X16833Y19762D01*
X16654Y19643D01*
X16534Y19464D01*
X16492Y19253D01*
X16508Y19174D01*
X16396Y19114D01*
X14599Y20911D01*
Y22181D01*
X14708Y22344D01*
X14750Y22555D01*
X14708Y22766D01*
X14588Y22945D01*
X14409Y23064D01*
X14199Y23106D01*
X13988Y23064D01*
X13809Y22945D01*
X13689Y22766D01*
X13648Y22555D01*
X13689Y22344D01*
X13809Y22166D01*
X13951Y22071D01*
Y20777D01*
X13951Y20777D01*
X13951D01*
X13976Y20653D01*
X14046Y20548D01*
X16974Y17621D01*
Y17070D01*
X16856Y17022D01*
X15544Y18335D01*
X15565Y18443D01*
X15523Y18654D01*
X15404Y18833D01*
X15225Y18952D01*
X15014Y18994D01*
X14803Y18952D01*
X14624Y18833D01*
X14505Y18654D01*
X14463Y18443D01*
X14505Y18232D01*
X14624Y18053D01*
X14803Y17934D01*
X15014Y17892D01*
X15122Y17913D01*
X16568Y16468D01*
Y6614D01*
X16590Y6500D01*
X16655Y6403D01*
X18162Y4896D01*
X18092Y4791D01*
X18037Y4813D01*
X17700Y4858D01*
X17363Y4813D01*
X17049Y4683D01*
X16780Y4476D01*
X16573Y4207D01*
X16443Y3893D01*
X16398Y3556D01*
X16443Y3219D01*
X16573Y2905D01*
X16780Y2636D01*
X17049Y2429D01*
X17363Y2299D01*
X17700Y2254D01*
X18037Y2299D01*
X18351Y2429D01*
X18620Y2636D01*
X18827Y2905D01*
X18957Y3219D01*
X19002Y3556D01*
X18957Y3893D01*
X18935Y3948D01*
X19040Y4018D01*
X21262Y1796D01*
X21359Y1731D01*
X21473Y1709D01*
X56107D01*
X56221Y1731D01*
X56318Y1796D01*
X61793Y7271D01*
X76149D01*
X76263Y7294D01*
X76360Y7359D01*
X76360Y7359D01*
X76360Y7359D01*
X84220Y15218D01*
X84328Y15197D01*
X84539Y15239D01*
X84718Y15358D01*
X84837Y15537D01*
X84879Y15748D01*
X84837Y15959D01*
X84718Y16138D01*
X84539Y16257D01*
X84328Y16299D01*
X84117Y16257D01*
X83938Y16138D01*
X83819Y15959D01*
X83777Y15748D01*
X83798Y15640D01*
X76026Y7867D01*
X74150D01*
X74101Y7984D01*
X77445Y11328D01*
X77515Y11433D01*
X77540Y11557D01*
X77540Y11557D01*
X77540Y11557D01*
Y11557D01*
Y16002D01*
X77515Y16126D01*
X77445Y16231D01*
X76778Y16898D01*
Y23188D01*
X76844Y23232D01*
X76963Y23411D01*
X77005Y23622D01*
X76963Y23833D01*
X76844Y24012D01*
X76665Y24131D01*
X76454Y24173D01*
X76243Y24131D01*
X76064Y24012D01*
X75945Y23833D01*
X75903Y23622D01*
X75945Y23411D01*
X76064Y23232D01*
X76130Y23188D01*
Y16764D01*
X76130Y16764D01*
X76130D01*
X76155Y16640D01*
X76225Y16535D01*
X76892Y15868D01*
Y11691D01*
X73526Y8325D01*
X61755D01*
X61707Y8442D01*
X62110Y8846D01*
X62175Y8942D01*
X62175Y8942D01*
X62175Y8942D01*
X62198Y9056D01*
Y23229D01*
X63584Y24615D01*
X63648Y24711D01*
X63671Y24825D01*
Y26346D01*
X63763Y26407D01*
X63882Y26586D01*
X63924Y26797D01*
X63882Y27008D01*
X63763Y27187D01*
X63629Y27276D01*
X63604Y27401D01*
X63654Y27475D01*
X63695Y27686D01*
X63654Y27897D01*
X63534Y28076D01*
X63355Y28195D01*
X63144Y28237D01*
X63047Y28218D01*
X62995Y28239D01*
X62930Y28300D01*
X62963Y28550D01*
X62926Y28831D01*
X62817Y29094D01*
X62644Y29319D01*
X62419Y29493D01*
X62156Y29601D01*
X61874Y29638D01*
X61593Y29601D01*
X61330Y29493D01*
X61104Y29319D01*
X61048Y29246D01*
X60928Y29287D01*
Y30352D01*
X61048Y30393D01*
X61104Y30320D01*
X61330Y30147D01*
X61593Y30038D01*
X61874Y30001D01*
X62156Y30038D01*
X62419Y30147D01*
X62644Y30320D01*
X62817Y30545D01*
X62852Y30629D01*
X63504D01*
X64242Y29891D01*
Y25645D01*
X64134Y25484D01*
X64092Y25273D01*
X64134Y25062D01*
X64253Y24883D01*
X64432Y24764D01*
X64643Y24722D01*
X64854Y24764D01*
X65033Y24883D01*
X65152Y25062D01*
X65194Y25273D01*
X65152Y25484D01*
X65044Y25645D01*
Y30058D01*
X65014Y30211D01*
X64927Y30341D01*
X64237Y31031D01*
X66300Y33093D01*
X66394Y33030D01*
X66548Y33000D01*
X73292D01*
X73406Y32977D01*
X73617Y33019D01*
X73656Y33045D01*
X73768Y32985D01*
Y32697D01*
X72214Y31143D01*
X72136Y31158D01*
X71925Y31116D01*
X71746Y30997D01*
X71627Y30818D01*
X71585Y30607D01*
X71627Y30396D01*
X71746Y30217D01*
X71892Y30120D01*
Y29993D01*
X71873Y29981D01*
X71754Y29802D01*
X71714Y29602D01*
X71593Y29565D01*
X71472Y29686D01*
X71493Y29794D01*
X71451Y30005D01*
X71332Y30184D01*
X71153Y30303D01*
X70942Y30345D01*
X70731Y30303D01*
X70553Y30184D01*
X70433Y30005D01*
X70391Y29794D01*
X70433Y29583D01*
X70553Y29405D01*
X70731Y29285D01*
X70815Y29268D01*
Y29141D01*
X70782Y29135D01*
X70603Y29015D01*
X70484Y28837D01*
X70442Y28626D01*
X70484Y28415D01*
X70603Y28236D01*
X70782Y28117D01*
X70993Y28075D01*
X71101Y28096D01*
X71189Y28009D01*
X71285Y27944D01*
X71399Y27922D01*
X75315D01*
X77934Y25302D01*
Y22676D01*
X77842Y22615D01*
X77723Y22436D01*
X77681Y22225D01*
X77723Y22014D01*
X77842Y21835D01*
X78021Y21716D01*
X78232Y21674D01*
X78443Y21716D01*
X78622Y21835D01*
X78741Y22014D01*
X78783Y22225D01*
X78741Y22436D01*
X78622Y22615D01*
X78530Y22676D01*
Y25115D01*
X78647Y25164D01*
X78950Y24861D01*
Y21025D01*
X78858Y20964D01*
X78739Y20785D01*
X78697Y20574D01*
X78739Y20363D01*
X78858Y20184D01*
X79037Y20065D01*
X79248Y20023D01*
X79459Y20065D01*
X79638Y20184D01*
X79757Y20363D01*
X79799Y20574D01*
X79757Y20785D01*
X79638Y20964D01*
X79546Y21025D01*
Y24984D01*
X79523Y25098D01*
X79459Y25195D01*
X75817Y28836D01*
X75720Y28901D01*
X75606Y28924D01*
X72400D01*
X72351Y29041D01*
X72372Y29062D01*
X72474Y29082D01*
X72653Y29201D01*
X72772Y29380D01*
X72814Y29591D01*
X72799Y29669D01*
X74778Y31648D01*
X74848Y31753D01*
X74873Y31877D01*
Y39624D01*
X74848Y39748D01*
X74778Y39853D01*
X73508Y41123D01*
X73403Y41193D01*
X73279Y41218D01*
X64696D01*
X64652Y41284D01*
X64473Y41403D01*
X64262Y41445D01*
D02*
G37*
G36*
X13208Y38421D02*
X9017D01*
X8943Y38406D01*
X8880Y38364D01*
X8838Y38301D01*
X8823Y38227D01*
Y32639D01*
X8838Y32565D01*
X8880Y32502D01*
X8943Y32460D01*
X9017Y32445D01*
X13208D01*
X13282Y32460D01*
X13345Y32502D01*
X13387Y32565D01*
X13402Y32639D01*
Y38227D01*
X13387Y38301D01*
X13345Y38364D01*
X13282Y38406D01*
X13208Y38421D01*
D02*
G37*
G36*
X93188Y34267D02*
X92938Y34217D01*
X92726Y34076D01*
X92585Y33864D01*
X92535Y33614D01*
X92585Y33364D01*
X92726Y33152D01*
X92938Y33011D01*
X93188Y32961D01*
X93438Y33011D01*
X93650Y33152D01*
X93791Y33364D01*
X93841Y33614D01*
X93791Y33864D01*
X93650Y34076D01*
X93438Y34217D01*
X93188Y34267D01*
D02*
G37*
G36*
X76962Y47571D02*
X76680Y47534D01*
X76418Y47425D01*
X76192Y47252D01*
X76019Y47026D01*
X75910Y46764D01*
X75873Y46482D01*
X75910Y46200D01*
X76019Y45938D01*
X76192Y45712D01*
X76418Y45539D01*
X76680Y45430D01*
X76962Y45393D01*
X77244Y45430D01*
X77506Y45539D01*
X77732Y45712D01*
X77905Y45938D01*
X78014Y46200D01*
X78051Y46482D01*
X78014Y46764D01*
X77905Y47026D01*
X77732Y47252D01*
X77506Y47425D01*
X77244Y47534D01*
X76962Y47571D01*
D02*
G37*
G36*
X49022Y47571D02*
X48740Y47534D01*
X48478Y47425D01*
X48252Y47252D01*
X48079Y47026D01*
X47970Y46764D01*
X47933Y46482D01*
X47970Y46200D01*
X48079Y45938D01*
X48252Y45712D01*
X48478Y45539D01*
X48740Y45430D01*
X49022Y45393D01*
X49304Y45430D01*
X49566Y45539D01*
X49792Y45712D01*
X49965Y45938D01*
X50074Y46200D01*
X50111Y46482D01*
X50074Y46764D01*
X49965Y47026D01*
X49792Y47252D01*
X49566Y47425D01*
X49304Y47534D01*
X49022Y47571D01*
D02*
G37*
G36*
X93188Y38667D02*
X92938Y38617D01*
X92726Y38476D01*
X92585Y38264D01*
X92535Y38014D01*
X92585Y37764D01*
X92726Y37552D01*
X92938Y37411D01*
X93188Y37361D01*
X93438Y37411D01*
X93650Y37552D01*
X93791Y37764D01*
X93841Y38014D01*
X93791Y38264D01*
X93650Y38476D01*
X93438Y38617D01*
X93188Y38667D01*
D02*
G37*
G36*
X20193Y49470D02*
X17145D01*
X17071Y49455D01*
X17008Y49413D01*
X16966Y49350D01*
X16951Y49276D01*
Y45720D01*
X16966Y45646D01*
X17008Y45583D01*
X17071Y45541D01*
X17145Y45526D01*
X18354D01*
Y42619D01*
X16750Y41016D01*
X16298D01*
X16137Y41124D01*
X15926Y41166D01*
X15715Y41124D01*
X15536Y41004D01*
X15417Y40825D01*
X15391Y40695D01*
X15273Y40646D01*
X15215Y40685D01*
X15091Y40710D01*
X13614D01*
X13491Y40685D01*
X13385Y40615D01*
X12651Y39880D01*
X12573Y39896D01*
X12362Y39854D01*
X12183Y39734D01*
X12064Y39555D01*
X12022Y39345D01*
X12064Y39134D01*
X12183Y38955D01*
X12362Y38835D01*
X12573Y38794D01*
X12784Y38835D01*
X12963Y38955D01*
X13082Y39134D01*
X13124Y39345D01*
X13109Y39422D01*
X13748Y40062D01*
X14957D01*
X15415Y39604D01*
X15520Y39534D01*
X15644Y39509D01*
X16889D01*
X17013Y39534D01*
X17118Y39604D01*
X17118Y39604D01*
X17118Y39604D01*
X17576Y40062D01*
X23368D01*
X23492Y40087D01*
X23597Y40157D01*
X23597Y40157D01*
X23597Y40157D01*
X25983Y42543D01*
X26060Y42527D01*
X26271Y42569D01*
X26450Y42689D01*
X26570Y42868D01*
X26611Y43078D01*
X26570Y43289D01*
X26450Y43468D01*
X26271Y43588D01*
X26060Y43629D01*
X25850Y43588D01*
X25671Y43468D01*
X25551Y43289D01*
X25509Y43078D01*
X25525Y43001D01*
X23234Y40710D01*
X17745D01*
X17697Y40827D01*
X19039Y42169D01*
X19126Y42300D01*
X19156Y42453D01*
X19156Y42453D01*
X19156Y42453D01*
Y42453D01*
Y45526D01*
X20193D01*
X20267Y45541D01*
X20330Y45583D01*
X20372Y45646D01*
X20387Y45720D01*
Y49276D01*
X20372Y49350D01*
X20330Y49413D01*
X20267Y49455D01*
X20193Y49470D01*
D02*
G37*
%LPD*%
D35*
X54508Y34468D02*
X58699Y38659D01*
X54508Y34366D02*
Y34468D01*
X79248Y20574D02*
Y24984D01*
X75606Y28626D02*
X79248Y24984D01*
X72111Y28626D02*
X75606D01*
X70942Y29794D02*
X72111Y28626D01*
X71399Y28219D02*
X75438D01*
X70993Y28626D02*
X71399Y28219D01*
X75438D02*
X78232Y25425D01*
Y22225D02*
Y25425D01*
X71501Y23520D02*
Y26060D01*
X70307Y22327D02*
X71501Y23520D01*
X67945Y22327D02*
X70307D01*
X63373Y24825D02*
Y26797D01*
X68428Y35712D02*
X68453Y35687D01*
X73152D01*
X69088Y34925D02*
X73279D01*
X85360Y19050D02*
X89968Y23658D01*
X78639Y19050D02*
X85360D01*
X78486Y19203D02*
X78639Y19050D01*
X62687Y24714D02*
Y27260D01*
X63105Y27678D01*
X16866Y6614D02*
Y16591D01*
X15014Y18443D02*
X16866Y16591D01*
Y6614D02*
X21473Y2007D01*
X56107D01*
X61670Y7569D01*
X76149D01*
X84328Y15748D01*
X61900Y23352D02*
X63373Y24825D01*
X55790Y2946D02*
X61900Y9056D01*
Y23352D01*
X61493Y9261D02*
Y23520D01*
X62687Y24714D01*
X55662Y3429D02*
X61493Y9261D01*
X53467Y35433D02*
X57404Y39370D01*
X53467Y33909D02*
Y35433D01*
X54864Y33172D02*
X59461Y37770D01*
X54864Y32842D02*
Y33172D01*
D36*
X61491Y8001D02*
X73660D01*
X63545Y37764D02*
X69528D01*
X61214Y38354D02*
X67818D01*
X67691Y38481D02*
X67818Y38354D01*
X72517Y40132D02*
X74092Y38557D01*
X73279Y40894D02*
X74549Y39624D01*
X64262Y40894D02*
X73279D01*
X66802Y40132D02*
X72517D01*
X61722Y44577D02*
Y46482D01*
Y44577D02*
X62103Y44196D01*
X69215D01*
X23368Y40386D02*
X26060Y43078D01*
X14588Y25671D02*
X15113Y25146D01*
X16889Y39833D02*
X17442Y40386D01*
X23368D01*
X86868Y10795D02*
X90678Y6985D01*
X86868Y10795D02*
Y12827D01*
X74422Y46482D02*
Y49149D01*
X84582Y2057D02*
Y3556D01*
X40259Y49149D02*
X41275Y48133D01*
X31166Y49149D02*
X40259D01*
X28067Y46050D02*
X31166Y49149D01*
X8941Y23165D02*
X12878D01*
X13970Y24257D01*
X61722Y46482D02*
Y49149D01*
X72263Y29591D02*
X74549Y31877D01*
Y39624D01*
X72136Y30607D02*
X74092Y32563D01*
Y38557D01*
X73660Y8001D02*
X77216Y11557D01*
X76454Y16764D02*
Y23622D01*
Y16764D02*
X77216Y16002D01*
Y11557D02*
Y16002D01*
X86868Y25730D02*
X87782Y26645D01*
X98933D01*
X67691Y20371D02*
X69215Y21895D01*
X70764D01*
X73889Y25019D01*
X72492Y20980D02*
X73660Y19812D01*
X69367Y20980D02*
X72492D01*
X67996Y19609D02*
X69367Y20980D01*
X66954Y19609D02*
X67996D01*
X66065Y20498D02*
X66954Y19609D01*
X66065Y20498D02*
Y21692D01*
X1575Y25959D02*
Y39345D01*
Y25959D02*
X1863Y25671D01*
X14588D01*
X13970Y24257D02*
X18009D01*
X18999Y25248D01*
X14275Y20777D02*
Y22555D01*
X39116Y6020D02*
X39446Y6350D01*
X18212Y7315D02*
Y23074D01*
X18059Y22922D02*
X18212Y23074D01*
X17043Y19253D02*
X17755Y18542D01*
Y7054D02*
Y18542D01*
X17297Y6793D02*
Y17755D01*
X14275Y20777D02*
X17297Y17755D01*
X39116Y4978D02*
Y6020D01*
Y4978D02*
X39751Y4343D01*
X55319D01*
X38608Y4750D02*
Y6426D01*
Y4750D02*
X39472Y3886D01*
X55508D01*
X18212Y7315D02*
X22098Y3429D01*
X55662D01*
X17755Y7054D02*
X21862Y2946D01*
X55790D01*
X17297Y6793D02*
X21652Y2438D01*
X55928D01*
X61491Y8001D01*
X55508Y3886D02*
X60604Y8982D01*
Y33807D01*
X62611Y35814D01*
X55319Y4343D02*
X60147Y9172D01*
Y34366D01*
X63545Y37764D01*
X59690Y9361D02*
Y35052D01*
X60833Y36195D01*
X55270Y5588D02*
X59233Y9550D01*
Y36373D01*
X61214Y38354D01*
X15644Y39833D02*
X16889D01*
X15091Y40386D02*
X15644Y39833D01*
X12573Y39345D02*
X13614Y40386D01*
X15091D01*
X51562Y5588D02*
X55270D01*
X55155Y4826D02*
X59690Y9361D01*
X49276Y5080D02*
X49530Y4826D01*
X55155D01*
D37*
X15926Y40615D02*
X16916D01*
X18755Y42453D01*
X79756Y29337D02*
Y39116D01*
X74422Y49149D02*
X86995D01*
X49149D02*
X74422D01*
X90678Y3429D02*
Y6985D01*
X98933Y15240D01*
X86995Y49149D02*
X98933Y37211D01*
X18755Y42453D02*
Y47203D01*
X8890Y14961D02*
Y23114D01*
X37592Y44450D02*
X45974D01*
X46482Y44958D01*
Y46482D01*
X49149Y49149D01*
X66294Y33655D02*
X66548Y33401D01*
X98933Y15240D02*
Y26645D01*
Y37211D01*
X66548Y33401D02*
X73406D01*
X8890Y14961D02*
X15469Y8382D01*
X31496Y5715D02*
Y6096D01*
X21463Y5766D02*
Y6833D01*
Y5766D02*
X22606Y4623D01*
X30404D01*
X31496Y5715D01*
X61722Y3302D02*
X63221Y1803D01*
X89052D01*
X90678Y3429D01*
X61784Y31031D02*
X63670D01*
X66294Y33655D01*
X63670Y31031D02*
X64643Y30058D01*
Y25273D02*
Y30058D01*
D54*
X31725Y21311D02*
D03*
X49759Y21311D02*
D03*
D58*
X32296Y27978D02*
D03*
X49187Y14643D02*
D03*
X32296D02*
D03*
X49187Y27978D02*
D03*
D72*
X18669Y47498D02*
D03*
D73*
X49079Y32360D02*
D03*
X47435Y10414D02*
D03*
D74*
X12128Y45276D02*
D03*
D76*
X55994Y21311D02*
D03*
D77*
X4000Y46000D02*
D03*
X96000D02*
D03*
X4000Y4000D02*
D03*
X96000D02*
D03*
D78*
X61722Y3302D02*
D03*
X23876Y6096D02*
D03*
X59182Y46482D02*
D03*
X43942D02*
D03*
X74422D02*
D03*
D79*
X64262Y3302D02*
D03*
X66802Y3302D02*
D03*
X69342Y3302D02*
D03*
X71882Y3302D02*
D03*
X26416Y6096D02*
D03*
X28956Y6096D02*
D03*
X31496Y6096D02*
D03*
X34036Y6096D02*
D03*
X36576Y6096D02*
D03*
X61722Y46482D02*
D03*
X64262Y46482D02*
D03*
X66802Y46482D02*
D03*
X69342Y46482D02*
D03*
X46482Y46482D02*
D03*
X49022Y46482D02*
D03*
X51562Y46482D02*
D03*
X54102Y46482D02*
D03*
X76962Y46482D02*
D03*
X79502Y46482D02*
D03*
X82042Y46482D02*
D03*
X84582Y46482D02*
D03*
X87122Y46482D02*
D03*
X12196Y24452D02*
D03*
X12196Y21912D02*
D03*
X61874Y31090D02*
D03*
X61874Y28550D02*
D03*
D80*
X3556Y35560D02*
D03*
D81*
Y30560D02*
D03*
X17700Y3556D02*
D03*
D82*
X5334Y13390D02*
D03*
Y18390D02*
D03*
D83*
Y23390D02*
D03*
D84*
X12700Y3556D02*
D03*
D85*
X93188Y33614D02*
D03*
Y38014D02*
D03*
D86*
X82042Y3556D02*
D03*
D87*
X84582D02*
D03*
X87122D02*
D03*
D88*
X89968Y10450D02*
D03*
Y14950D02*
D03*
X96468Y10450D02*
D03*
Y14950D02*
D03*
X89968Y23658D02*
D03*
Y28158D02*
D03*
X96468Y23658D02*
D03*
Y28158D02*
D03*
D89*
X54508Y34366D02*
D03*
X58699Y38659D02*
D03*
X59461Y37770D02*
D03*
X70942Y29794D02*
D03*
X70993Y28626D02*
D03*
X72263Y29591D02*
D03*
X73889Y25019D02*
D03*
X67691Y20371D02*
D03*
X71501Y26060D02*
D03*
X67945Y22327D02*
D03*
X76429Y12395D02*
D03*
X65380Y18339D02*
D03*
X63373Y26797D02*
D03*
X66929Y26416D02*
D03*
X62611Y35814D02*
D03*
X67691Y38481D02*
D03*
X60833Y36195D02*
D03*
X69666Y37903D02*
D03*
X67615Y34214D02*
D03*
X68929Y34865D02*
D03*
X68250Y35712D02*
D03*
X73152Y35687D02*
D03*
X53467Y33909D02*
D03*
X57404Y39370D02*
D03*
X70358Y25781D02*
D03*
X84328Y15748D02*
D03*
X78232Y22225D02*
D03*
X79248Y20574D02*
D03*
X78486Y19076D02*
D03*
X73406Y34798D02*
D03*
X64262Y40894D02*
D03*
X66802Y40132D02*
D03*
X72136Y30607D02*
D03*
X73660Y19812D02*
D03*
X70866D02*
D03*
X66294Y33655D02*
D03*
X64643Y25273D02*
D03*
X75692Y30607D02*
D03*
X77089Y34036D02*
D03*
X75692D02*
D03*
X66421Y37084D02*
D03*
X65024D02*
D03*
X63627Y22606D02*
D03*
X69215Y44196D02*
D03*
X26060Y43078D02*
D03*
X1575Y39345D02*
D03*
X12573D02*
D03*
X17393Y39375D02*
D03*
X15926Y40615D02*
D03*
X3810Y27686D02*
D03*
X2540D02*
D03*
X3810Y26670D02*
D03*
X2540D02*
D03*
Y28702D02*
D03*
X3810D02*
D03*
X5080D02*
D03*
Y27686D02*
D03*
Y26670D02*
D03*
X15113Y25146D02*
D03*
X84582Y5715D02*
D03*
X86868Y12827D02*
D03*
X88265D02*
D03*
X79756Y39116D02*
D03*
X80137Y29337D02*
D03*
X79375D02*
D03*
X96393Y20396D02*
D03*
Y19304D02*
D03*
Y18237D02*
D03*
X41275Y48133D02*
D03*
X28067Y46050D02*
D03*
X8890Y23114D02*
D03*
X16129Y41910D02*
D03*
X15014Y18443D02*
D03*
X38100Y42926D02*
D03*
Y43942D02*
D03*
Y44958D02*
D03*
X37084D02*
D03*
Y43942D02*
D03*
Y42926D02*
D03*
X36068D02*
D03*
Y43942D02*
D03*
X35052D02*
D03*
Y42926D02*
D03*
X34036D02*
D03*
Y43942D02*
D03*
X36068Y44958D02*
D03*
X35052D02*
D03*
X34036D02*
D03*
X33020Y42926D02*
D03*
Y43942D02*
D03*
Y44958D02*
D03*
X41580Y45466D02*
D03*
X40005D02*
D03*
X39243Y46355D02*
D03*
Y47117D02*
D03*
Y47879D02*
D03*
X23749Y43942D02*
D03*
X19050Y46228D02*
D03*
X18288D02*
D03*
X17526D02*
D03*
X19812D02*
D03*
X87478Y35382D02*
D03*
X85649Y38633D02*
D03*
X86893Y38659D02*
D03*
X82042Y28092D02*
D03*
Y26670D02*
D03*
X88265Y25730D02*
D03*
X92583Y40894D02*
D03*
X93345D02*
D03*
X94107D02*
D03*
X92669Y30734D02*
D03*
X93431D02*
D03*
X94193D02*
D03*
X89281Y38608D02*
D03*
X90551Y38227D02*
D03*
X89967Y38608D02*
D03*
X84404Y22885D02*
D03*
X32766Y34925D02*
D03*
Y35687D02*
D03*
Y36449D02*
D03*
Y37211D02*
D03*
Y37973D02*
D03*
Y38735D02*
D03*
X32004D02*
D03*
X31242D02*
D03*
X30480D02*
D03*
X32766Y34163D02*
D03*
X32004D02*
D03*
X31242D02*
D03*
X30480D02*
D03*
X45187Y22581D02*
D03*
Y21946D02*
D03*
Y21311D02*
D03*
Y20676D02*
D03*
Y20041D02*
D03*
X46457Y22581D02*
D03*
Y23851D02*
D03*
Y25121D02*
D03*
Y21311D02*
D03*
Y20041D02*
D03*
Y18771D02*
D03*
Y17501D02*
D03*
X47727D02*
D03*
Y18771D02*
D03*
Y20041D02*
D03*
Y21311D02*
D03*
Y25121D02*
D03*
Y23851D02*
D03*
Y22581D02*
D03*
X48997Y17501D02*
D03*
Y18771D02*
D03*
Y20041D02*
D03*
Y21311D02*
D03*
Y25121D02*
D03*
Y23851D02*
D03*
Y22581D02*
D03*
X50267Y17501D02*
D03*
Y18771D02*
D03*
Y20041D02*
D03*
Y21311D02*
D03*
Y25121D02*
D03*
Y23851D02*
D03*
Y22581D02*
D03*
X51537Y17501D02*
D03*
Y18771D02*
D03*
Y20041D02*
D03*
Y21311D02*
D03*
Y25121D02*
D03*
Y23851D02*
D03*
Y22581D02*
D03*
X52807Y17501D02*
D03*
Y18771D02*
D03*
Y20041D02*
D03*
Y21311D02*
D03*
Y25121D02*
D03*
Y23851D02*
D03*
Y22581D02*
D03*
X54077Y17501D02*
D03*
Y18771D02*
D03*
Y20041D02*
D03*
Y21311D02*
D03*
Y25121D02*
D03*
Y23851D02*
D03*
Y22581D02*
D03*
X37313Y25375D02*
D03*
X37821Y25883D02*
D03*
X37313Y26391D02*
D03*
X37821Y26899D02*
D03*
X37313Y27407D02*
D03*
X37821Y27915D02*
D03*
X37313Y28423D02*
D03*
X37821Y28931D02*
D03*
X37313Y29439D02*
D03*
X36297Y29312D02*
D03*
Y28042D02*
D03*
Y26772D02*
D03*
X35027Y29312D02*
D03*
Y28042D02*
D03*
Y26772D02*
D03*
X33757Y29312D02*
D03*
Y28042D02*
D03*
Y26772D02*
D03*
X32487Y29312D02*
D03*
Y28042D02*
D03*
Y26772D02*
D03*
X31217Y29312D02*
D03*
Y28042D02*
D03*
Y26772D02*
D03*
X29947Y29312D02*
D03*
Y28042D02*
D03*
Y26772D02*
D03*
X28677Y29312D02*
D03*
Y28042D02*
D03*
Y26772D02*
D03*
X27407Y29312D02*
D03*
Y28042D02*
D03*
Y26772D02*
D03*
X36297Y20041D02*
D03*
Y20676D02*
D03*
Y21311D02*
D03*
Y21946D02*
D03*
Y22581D02*
D03*
X54077Y15850D02*
D03*
Y14580D02*
D03*
Y13310D02*
D03*
X52807Y15850D02*
D03*
Y14580D02*
D03*
Y13310D02*
D03*
X51537Y15850D02*
D03*
Y14580D02*
D03*
Y13310D02*
D03*
X50267Y15850D02*
D03*
Y14580D02*
D03*
Y13310D02*
D03*
X48997Y15850D02*
D03*
Y14580D02*
D03*
Y13310D02*
D03*
X47727Y15850D02*
D03*
Y14580D02*
D03*
Y13310D02*
D03*
X46457Y15850D02*
D03*
Y14580D02*
D03*
Y13310D02*
D03*
X45187Y15850D02*
D03*
Y14580D02*
D03*
Y13310D02*
D03*
X44171Y13183D02*
D03*
X43663Y13691D02*
D03*
X44171Y14199D02*
D03*
X43663Y14707D02*
D03*
X44171Y15215D02*
D03*
X43663Y15723D02*
D03*
X44171Y16231D02*
D03*
X43663Y16739D02*
D03*
X44171Y17247D02*
D03*
X27407Y15850D02*
D03*
Y14580D02*
D03*
Y13310D02*
D03*
X28677Y15850D02*
D03*
Y14580D02*
D03*
Y13310D02*
D03*
X29947Y15850D02*
D03*
Y14580D02*
D03*
Y13310D02*
D03*
X31217Y15850D02*
D03*
Y14580D02*
D03*
Y13310D02*
D03*
X32487Y15850D02*
D03*
Y14580D02*
D03*
Y13310D02*
D03*
X33757Y15850D02*
D03*
Y14580D02*
D03*
Y13310D02*
D03*
X35027Y15850D02*
D03*
Y14580D02*
D03*
Y13310D02*
D03*
X36297Y15850D02*
D03*
Y14580D02*
D03*
Y13310D02*
D03*
X37313Y13183D02*
D03*
X37821Y13691D02*
D03*
X37313Y14199D02*
D03*
X37821Y14707D02*
D03*
X37313Y15215D02*
D03*
X37821Y15723D02*
D03*
X37313Y16231D02*
D03*
X37821Y16739D02*
D03*
X37313Y17247D02*
D03*
X54077Y26772D02*
D03*
Y28042D02*
D03*
Y29312D02*
D03*
X52807Y26772D02*
D03*
Y28042D02*
D03*
Y29312D02*
D03*
X51537Y26772D02*
D03*
Y28042D02*
D03*
Y29312D02*
D03*
X50267Y26772D02*
D03*
Y28042D02*
D03*
Y29312D02*
D03*
X48997Y26772D02*
D03*
Y28042D02*
D03*
Y29312D02*
D03*
X47727Y26772D02*
D03*
Y28042D02*
D03*
Y29312D02*
D03*
X46457Y26772D02*
D03*
Y28042D02*
D03*
Y29312D02*
D03*
X45187Y26772D02*
D03*
Y28042D02*
D03*
Y29312D02*
D03*
X44171Y29439D02*
D03*
X43663Y28931D02*
D03*
X44171Y28423D02*
D03*
X43663Y27915D02*
D03*
X44171Y27407D02*
D03*
X43663Y26899D02*
D03*
X44171Y26391D02*
D03*
X43663Y25883D02*
D03*
X44171Y25375D02*
D03*
X27407Y20041D02*
D03*
Y18771D02*
D03*
Y17501D02*
D03*
Y21311D02*
D03*
Y22581D02*
D03*
Y23851D02*
D03*
Y25121D02*
D03*
X28677Y20041D02*
D03*
Y18771D02*
D03*
Y17501D02*
D03*
Y21311D02*
D03*
Y22581D02*
D03*
Y23851D02*
D03*
Y25121D02*
D03*
X29947Y20041D02*
D03*
Y18771D02*
D03*
Y17501D02*
D03*
Y21311D02*
D03*
Y22581D02*
D03*
Y23851D02*
D03*
Y25121D02*
D03*
X31217Y20041D02*
D03*
Y18771D02*
D03*
Y17501D02*
D03*
Y21311D02*
D03*
Y22581D02*
D03*
Y23851D02*
D03*
Y25121D02*
D03*
X32487Y20041D02*
D03*
Y18771D02*
D03*
Y17501D02*
D03*
Y21311D02*
D03*
Y22581D02*
D03*
Y23851D02*
D03*
Y25121D02*
D03*
X33757Y20041D02*
D03*
Y18771D02*
D03*
Y17501D02*
D03*
Y21311D02*
D03*
Y22581D02*
D03*
Y23851D02*
D03*
Y25121D02*
D03*
X35027D02*
D03*
Y23851D02*
D03*
Y22581D02*
D03*
Y21311D02*
D03*
Y17501D02*
D03*
Y18771D02*
D03*
Y20041D02*
D03*
X41504Y17374D02*
D03*
X40742D02*
D03*
X39980D02*
D03*
X41504Y16104D02*
D03*
X40742D02*
D03*
X39980D02*
D03*
Y14834D02*
D03*
Y13564D02*
D03*
X40742Y14834D02*
D03*
X41504D02*
D03*
Y13564D02*
D03*
X40742D02*
D03*
X41046Y25248D02*
D03*
X41707D02*
D03*
X41885Y27280D02*
D03*
X41123D02*
D03*
X40361Y28296D02*
D03*
Y29312D02*
D03*
Y27280D02*
D03*
Y26264D02*
D03*
X41123D02*
D03*
X41885D02*
D03*
X41123Y28296D02*
D03*
X41885D02*
D03*
Y29312D02*
D03*
X41123D02*
D03*
X49276Y5080D02*
D03*
X45974Y9271D02*
D03*
X45212D02*
D03*
Y10033D02*
D03*
Y10795D02*
D03*
Y11557D02*
D03*
X46736Y9271D02*
D03*
X47498D02*
D03*
X48260D02*
D03*
X49022D02*
D03*
X49784D02*
D03*
X51428Y33503D02*
D03*
X50666D02*
D03*
X49904D02*
D03*
X49142D02*
D03*
X48380D02*
D03*
X46856Y31217D02*
D03*
Y31979D02*
D03*
Y32741D02*
D03*
Y33503D02*
D03*
X47618D02*
D03*
X29464Y44704D02*
D03*
X31115D02*
D03*
X16510Y25273D02*
D03*
X17907D02*
D03*
X20574Y31623D02*
D03*
X21590D02*
D03*
X22606D02*
D03*
Y30607D02*
D03*
X21590D02*
D03*
X20574D02*
D03*
Y29591D02*
D03*
X21590D02*
D03*
X22606D02*
D03*
Y25781D02*
D03*
X21590D02*
D03*
X20574D02*
D03*
Y24765D02*
D03*
X21590D02*
D03*
X22606D02*
D03*
Y23749D02*
D03*
X21590D02*
D03*
X20574D02*
D03*
Y22733D02*
D03*
X21590D02*
D03*
X22606D02*
D03*
Y21717D02*
D03*
X21590D02*
D03*
X20574D02*
D03*
Y20701D02*
D03*
X21590D02*
D03*
X22606D02*
D03*
Y19685D02*
D03*
X21590D02*
D03*
X20574D02*
D03*
Y18669D02*
D03*
X21590D02*
D03*
X22606D02*
D03*
X14605Y26670D02*
D03*
Y27432D02*
D03*
Y28194D02*
D03*
Y28956D02*
D03*
Y29718D02*
D03*
X18415D02*
D03*
X17653D02*
D03*
X16891D02*
D03*
X16129D02*
D03*
X15367D02*
D03*
Y28956D02*
D03*
Y28194D02*
D03*
Y27432D02*
D03*
Y26670D02*
D03*
X17043Y19253D02*
D03*
X8001Y41783D02*
D03*
X9017D02*
D03*
X10033D02*
D03*
X13081D02*
D03*
X12065D02*
D03*
X11049D02*
D03*
X15113D02*
D03*
X14097D02*
D03*
Y48768D02*
D03*
X15113D02*
D03*
X16129D02*
D03*
X11049D02*
D03*
X12065D02*
D03*
X13081D02*
D03*
X10033D02*
D03*
X9017D02*
D03*
X8001D02*
D03*
X15113Y42799D02*
D03*
X16129D02*
D03*
X15113Y43815D02*
D03*
X16129D02*
D03*
Y46863D02*
D03*
X15113D02*
D03*
Y47879D02*
D03*
X16129D02*
D03*
Y45847D02*
D03*
X15113D02*
D03*
Y44831D02*
D03*
X16129D02*
D03*
X13716Y39243D02*
D03*
X33528Y34163D02*
D03*
Y38735D02*
D03*
Y37973D02*
D03*
Y37211D02*
D03*
Y36449D02*
D03*
Y35687D02*
D03*
Y34925D02*
D03*
X34290Y34163D02*
D03*
Y38735D02*
D03*
Y37973D02*
D03*
Y37211D02*
D03*
Y36449D02*
D03*
Y35687D02*
D03*
Y34925D02*
D03*
X25400Y39497D02*
D03*
X31115Y39751D02*
D03*
X9779Y28321D02*
D03*
X39446Y6350D02*
D03*
X21209Y42291D02*
D03*
X21971D02*
D03*
X24841Y47803D02*
D03*
Y48565D02*
D03*
X19812Y48895D02*
D03*
X17526D02*
D03*
X18288D02*
D03*
X19050D02*
D03*
X36957Y8890D02*
D03*
X39497Y34493D02*
D03*
X51562Y5588D02*
D03*
X39497Y33731D02*
D03*
X76454Y23622D02*
D03*
X73406Y33528D02*
D03*
X86868Y25730D02*
D03*
X72263Y19812D02*
D03*
X72923Y18339D02*
D03*
X66065Y21692D02*
D03*
X18999Y25248D02*
D03*
X15469Y8382D02*
D03*
X38481Y6477D02*
D03*
X21463Y6833D02*
D03*
X63144Y27686D02*
D03*
X14199Y22555D02*
D03*
X18059Y22758D02*
D03*
X62662Y22962D02*
D03*
X62967Y12370D02*
D03*
X84049Y33249D02*
D03*
X54991Y32842D02*
D03*
D90*
X1835Y47250D02*
D03*
Y44750D02*
D03*
X4000Y43500D02*
D03*
X6165Y44750D02*
D03*
X4000Y48500D02*
D03*
X6165Y47250D02*
D03*
X93835D02*
D03*
Y44750D02*
D03*
X96000Y43500D02*
D03*
X98165Y44750D02*
D03*
X96000Y48500D02*
D03*
X98165Y47250D02*
D03*
X1835Y5250D02*
D03*
Y2750D02*
D03*
X4000Y1500D02*
D03*
X6165Y2750D02*
D03*
X4000Y6500D02*
D03*
X6165Y5250D02*
D03*
X93835D02*
D03*
Y2750D02*
D03*
X96000Y1500D02*
D03*
X98165Y2750D02*
D03*
X96000Y6500D02*
D03*
X98165Y5250D02*
D03*
D91*
X15914Y21724D02*
D03*
X17114D02*
D03*
X15914Y20524D02*
D03*
X17114D02*
D03*
X9741Y35306D02*
D03*
Y34306D02*
D03*
Y33306D02*
D03*
Y37306D02*
D03*
Y36306D02*
D03*
X12741Y35306D02*
D03*
Y33306D02*
D03*
Y36306D02*
D03*
Y37306D02*
D03*
Y34306D02*
D03*
X10741Y36306D02*
D03*
Y37306D02*
D03*
Y33306D02*
D03*
Y34306D02*
D03*
Y35306D02*
D03*
X11741Y34306D02*
D03*
Y37306D02*
D03*
Y36306D02*
D03*
Y33306D02*
D03*
Y35306D02*
D03*
D92*
X11113Y35433D02*
D03*
D93*
X35560Y43942D02*
D03*
D94*
X40742Y21311D02*
D03*
D95*
X37567Y24740D02*
D03*
Y17882D02*
D03*
X43917D02*
D03*
Y24740D02*
D03*
D96*
X40742Y26772D02*
D03*
Y15850D02*
D03*
D97*
X24994Y21311D02*
D03*
D98*
X31598Y31661D02*
D03*
Y10960D02*
D03*
D99*
X21628Y21819D02*
D03*
D100*
X10884Y29210D02*
D03*
D101*
X16637Y33020D02*
D03*
D102*
X27305Y36449D02*
D03*
M02*
