M48
;Layer_Color=9474304
;FILE_FORMAT=4:3
METRIC,LZ
;TYPE=PLATED
T1F00S00C0.300
T2F00S00C0.330
T3F00S00C0.400
T4F00S00C0.500
T5F00S00C1.000
T6F00S00C1.016
T7F00S00C1.300
T8F00S00C1.600
T9F00S00C3.500
;TYPE=NON_PLATED
T10F00S00C0.900
%
T01
X0009741Y0033306
Y0034306
Y0035306
Y0036306
Y0037306
X0010741
Y0036306
Y0035306
Y0034306
Y0033306
X0011741
X0012741
Y0034306
Y0035306
Y0036306
Y0037306
X0011741
Y0036306
Y0035306
Y0034306
T02
X0015914Y0020524
Y0021724
X0017114
Y0020524
T03
X0015469Y0008382
X0021463Y0006833
X0027407Y001331
X0028677
X0029947
X0031217
X0032487
X0033757
X0035027
X0036297
X0037313Y0013183
X0036957Y000889
X0038481Y0006477
X0039446Y000635
X0045212Y0009271
X0045974
X0046736
X0047498
X004826
X0049022
X0049784
X0050267Y001331
X0051537
X0052807
X0054077
X0048997
X0047727
X0046457
X0045187
X0044171Y0013183
X0045212Y0011557
Y0010795
Y0010033
X0049276Y000508
X0051562Y0005588
X0062967Y001237
X0076429Y0012395
X0086868Y0012827
X0088265
X0084582Y0005715
X0084328Y0015748
X0084404Y0022885
X0086868Y002573
X0088265
X0082042Y002667
Y0028092
X0080137Y0029337
X0079375
X0075692Y0030607
Y0034036
X0077089
X0073406Y0033528
Y0034798
X0073152Y0035687
X0069666Y0037903
X0069215Y0044196
X0079756Y0039116
X0085649Y0038633
X0086893Y0038659
X0089281Y0038608
X0089967
X0090551Y0038227
X0092583Y0040894
X0093345
X0094107
X0094193Y0030734
X0093431
X0092669
X0087478Y0035382
X0084049Y0033249
X0072136Y0030607
X0072263Y0029591
X0070942Y0029794
X0070993Y0028626
X0071501Y002606
X0070358Y0025781
X0073889Y0025019
X0076454Y0023622
X0078232Y0022225
X0079248Y0020574
X0078486Y0019076
X007366Y0019812
X0072263
X0070866
X0072923Y0018339
X0096393Y0018237
Y0019304
Y0020396
X0067691Y0020371
X0067945Y0022327
X0066065Y0021692
X0063627Y0022606
X0062662Y0022962
X0064643Y0025273
X0063373Y0026797
X0063144Y0027686
X0066929Y0026416
X0066294Y0033655
X0067615Y0034214
X0068929Y0034865
X006825Y0035712
X0066421Y0037084
X0065024
X0062611Y0035814
X0060833Y0036195
X0059461Y003777
X0058699Y0038659
X0057404Y003937
X0054508Y0034366
X0053467Y0033909
X0051428Y0033503
X0050666
X0049904
X0049142
X004838
X0047618
X0046856
Y0032741
Y0031979
Y0031217
X0046457Y0029312
X0047727
X0048997
X0050267
X0051537
X0052807
X0054077
Y0028042
Y0026772
X0052807
Y0028042
X0051537
Y0026772
X0050267
Y0028042
X0048997
Y0026772
X0047727
Y0028042
X0046457
Y0026772
X0045187
Y0028042
Y0029312
X0044171Y0029439
X0043663Y0028931
X0044171Y0028423
X0043663Y0027915
X0044171Y0027407
X0043663Y0026899
X0044171Y0026391
X0043663Y0025883
X0044171Y0025375
X0046457Y0025121
Y0023851
Y0022581
X0045187
Y0021946
Y0021311
Y0020676
Y0020041
X0046457
Y0021311
X0047727
Y0020041
Y0018771
X0046457
Y0017501
X0047727
X0048997
Y0018771
Y0020041
Y0021311
Y0022581
X0047727
Y0023851
Y0025121
X0048997
Y0023851
X0050267
Y0025121
X0051537
Y0023851
Y0022581
X0050267
Y0021311
Y0020041
Y0018771
Y0017501
X0051537
Y0018771
Y0020041
Y0021311
X0052807
Y0020041
Y0018771
Y0017501
X0054077
Y0018771
Y0020041
Y0021311
Y0022581
X0052807
Y0023851
Y0025121
X0054077
Y0023851
Y001585
Y001458
X0052807
Y001585
X0051537
Y001458
X0050267
Y001585
X0048997
Y001458
X0047727
Y001585
X0046457
Y001458
X0045187
Y001585
X0044171Y0016231
Y0015215
Y0014199
X0043663Y0013691
Y0014707
Y0015723
Y0016739
X0044171Y0017247
X0041504Y0017374
X0040742
X003998
Y0016104
X0040742
X0041504
Y0014834
X0040742
X003998
Y0013564
X0040742
X0041504
X0037821Y0013691
X0037313Y0014199
X0037821Y0014707
X0037313Y0015215
X0037821Y0015723
X0037313Y0016231
X0037821Y0016739
X0037313Y0017247
X0036297Y001585
X0035027
X0033757
X0032487
X0031217
X0029947
Y001458
X0031217
X0032487
X0033757
X0035027
X0036297
X0035027Y0017501
X0033757
X0032487
X0031217
X0029947
Y0018771
Y0020041
Y0021311
Y0022581
Y0023851
Y0025121
X0031217
Y0023851
Y0022581
Y0021311
Y0020041
Y0018771
X0032487
Y0020041
Y0021311
Y0022581
Y0023851
Y0025121
X0033757
Y0023851
Y0022581
Y0021311
Y0020041
Y0018771
X0035027
Y0020041
Y0021311
Y0022581
Y0023851
Y0025121
Y0026772
X0036297
Y0028042
Y0029312
X0037313Y0029439
Y0028423
Y0027407
Y0026391
Y0025375
X0037821Y0025883
Y0026899
Y0027915
Y0028931
X0040361Y0029312
X0041123
X0041885
Y0028296
X0041123
X0040361
Y002728
X0041123
X0041885
Y0026264
X0041123
X0040361
X0041046Y0025248
X0041707
X0036297Y0022581
Y0021946
Y0021311
Y0020676
Y0020041
X0035027Y0028042
Y0029312
X0033757
Y0028042
Y0026772
X0032487
Y0028042
Y0029312
X0031217
Y0028042
Y0026772
X0029947
Y0028042
Y0029312
X003048Y0034163
X0031242
X0032004
X0032766
Y0034925
Y0035687
Y0036449
Y0037211
Y0037973
Y0038735
X0032004
X0031242
X003048
X0031115Y0039751
X0033528Y0038735
Y0037973
Y0037211
Y0036449
Y0035687
Y0034925
Y0034163
X003429
Y0034925
Y0035687
Y0036449
Y0037211
Y0037973
Y0038735
X0034036Y0042926
X0035052
X0036068
X0037084
X00381
Y0043942
Y0044958
X0037084
Y0043942
X0036068
X0035052
X0034036
Y0044958
X0035052
X0036068
X003302
Y0043942
Y0042926
X0031115Y0044704
X0029464
X0040005Y0045466
X004158
X0041275Y0048133
X0039243Y0047879
Y0047117
Y0046355
X0039497Y0034493
Y0033731
X0054991Y0032842
X0064262Y0040894
X0066802Y0040132
X0067691Y0038481
X006538Y0018339
X0028677Y0018771
X0027407
Y0020041
Y0021311
Y0022581
Y0023851
Y0025121
X0028677
Y0023851
Y0022581
Y0021311
Y0020041
Y0017501
X0027407
Y001585
Y001458
X0028677
Y001585
X0022606Y0018669
Y0019685
Y0020701
Y0021717
Y0022733
Y0023749
Y0024765
Y0025781
X002159
X0020574
Y0024765
X002159
Y0023749
X0020574
Y0022733
X002159
Y0021717
X0020574
Y0020701
X002159
Y0019685
X0020574
Y0018669
X002159
X0017043Y0019253
X0015014Y0018443
X0014199Y0022555
X0015113Y0025146
X001651Y0025273
X0017907
X0018999Y0025248
X0018059Y0022758
X0015367Y002667
X0014605
Y0027432
Y0028194
Y0028956
Y0029718
X0015367
X0016129
X0016891
X0017653
X0018415
X0020574Y0029591
Y0030607
Y0031623
X002159
X0022606
Y0030607
X002159
Y0029591
X0022606
X0027407Y0029312
X0028677
Y0028042
Y0026772
X0027407
Y0028042
X0015367Y0028194
Y0028956
Y0027432
X0009779Y0028321
X000508Y0028702
Y0027686
Y002667
X000381
Y0027686
Y0028702
X000254
Y0027686
Y002667
X000889Y0023114
X0009017Y0041783
X0008001
X0010033
X0011049
X0012065
X0013081
X0014097
X0015113
Y0042799
X0016129
Y004191
X0015926Y0040615
X0017393Y0039375
X0013716Y0039243
X0012573Y0039345
X0015113Y0043815
X0016129
Y0044831
Y0045847
Y0046863
X0015113
Y0047879
Y0048768
X0014097
X0013081
X0012065
X0011049
X0010033
X0009017
X0008001
X0016129
Y0047879
X0017526Y0048895
X0018288
X001905
X0019812
Y0046228
X001905
X0018288
X0017526
X0015113Y0045847
Y0044831
X0021209Y0042291
X0021971
X0023749Y0043942
X002606Y0043078
X00254Y0039497
X0024841Y0047803
Y0048565
X0028067Y004605
X0001575Y0039345
T04
X0001835Y000275
Y000525
X0004Y00065
X0006165Y000525
Y000275
X0004Y00015
X0093835Y000275
Y000525
X0096Y00065
X0098165Y000525
Y000275
X0096Y00015
Y00435
X0093835Y004475
Y004725
X0096Y00485
X0098165Y004725
Y004475
X0006165
Y004725
X0004Y00485
X0001835Y004725
Y004475
X0004Y00435
T05
X0089968Y001045
X0096468
Y001495
X0089968
Y0023658
Y0028158
X0096468
Y0023658
T06
X0023876Y0006096
X0026416Y0006096
X0028956Y0006096
X0031496Y0006096
X0034036Y0006096
X0036576Y0006096
X0061722Y0003302
X0064262Y0003302
X0066802Y0003302
X0069342Y0003302
X0071882Y0003302
X0082042Y0003556
X0084582
X0087122
X0087122Y0046482
X0084582Y0046482
X0082042Y0046482
X0079502Y0046482
X0076962Y0046482
X0074422Y0046482
X0069342Y0046482
X0066802Y0046482
X0064262Y0046482
X0061722Y0046482
X0059182Y0046482
X0054102Y0046482
X0051562Y0046482
X0049022Y0046482
X0046482Y0046482
X0043942Y0046482
X0061874Y003109
X0061874Y002855
X0012196Y0024452
X0012196Y0021912
T07
X00127Y0003556
X00177
X0003556Y003056
Y003556
T08
X0005334Y001339
Y001839
Y002339
T09
X0004Y0004
X0096
Y0046
X0004
T10
X0093188Y0033614
Y0038014
M30
