%FSLAX43Y43*%
%MOMM*%
G71*
G01*
G75*
%ADD10R,1.270X0.508*%
%ADD11R,0.762X0.762*%
%ADD12R,2.160X2.500*%
%ADD13R,0.762X0.762*%
%ADD14R,2.300X0.500*%
%ADD15R,2.500X2.000*%
%ADD16R,6.200X5.800*%
%ADD17R,3.000X1.600*%
G04:AMPARAMS|DCode=18|XSize=2.5mm|YSize=1.7mm|CornerRadius=0.212mm|HoleSize=0mm|Usage=FLASHONLY|Rotation=90.000|XOffset=0mm|YOffset=0mm|HoleType=Round|Shape=RoundedRectangle|*
%AMROUNDEDRECTD18*
21,1,2.500,1.275,0,0,90.0*
21,1,2.075,1.700,0,0,90.0*
1,1,0.425,0.637,1.038*
1,1,0.425,0.637,-1.038*
1,1,0.425,-0.637,-1.038*
1,1,0.425,-0.637,1.038*
%
%ADD18ROUNDEDRECTD18*%
%ADD19R,1.524X1.524*%
%ADD20R,2.032X3.175*%
%ADD21R,1.000X1.000*%
%ADD22R,1.016X1.270*%
%ADD23R,3.500X2.200*%
%ADD24R,1.200X2.200*%
%ADD25R,1.100X0.600*%
%ADD26O,0.650X1.650*%
%ADD27R,5.600X2.100*%
%ADD28O,1.450X0.300*%
%ADD29O,0.300X1.450*%
%ADD30R,1.200X0.750*%
%ADD31R,1.700X2.500*%
%ADD32O,0.800X0.350*%
%ADD33R,4.400X1.900*%
%ADD34R,1.000X0.750*%
%ADD35C,0.203*%
%ADD36C,0.254*%
%ADD37C,0.406*%
%ADD38C,0.762*%
%ADD39C,0.508*%
%ADD40R,1.702X1.270*%
%ADD41R,2.667X3.302*%
%ADD42R,4.318X4.953*%
%ADD43R,2.667X15.240*%
%ADD44R,4.953X5.588*%
%ADD45R,6.604X3.556*%
%ADD46R,2.540X2.540*%
%ADD47R,1.219X0.635*%
%ADD48R,12.192X5.588*%
%ADD49R,9.119X4.715*%
%ADD50R,10.160X2.286*%
%ADD51R,4.826X5.588*%
%ADD52R,1.270X9.652*%
%ADD53R,10.262X8.890*%
%ADD54R,9.906X8.890*%
%ADD55R,1.270X13.589*%
%ADD56R,11.430X3.683*%
%ADD57R,11.836X3.683*%
%ADD58R,11.811X3.683*%
%ADD59R,1.270X11.303*%
%ADD60R,2.540X5.842*%
%ADD61R,4.064X14.732*%
%ADD62R,12.040X3.708*%
%ADD63R,2.413X8.128*%
%ADD64R,4.064X12.294*%
%ADD65R,37.160X3.708*%
%ADD66R,4.064X3.683*%
%ADD67R,2.413X3.175*%
%ADD68R,2.921X13.589*%
%ADD69R,4.826X4.064*%
%ADD70R,2.921X21.234*%
%ADD71R,0.889X0.762*%
%ADD72R,3.048X3.556*%
%ADD73R,5.461X3.302*%
%ADD74R,9.271X8.001*%
%ADD75R,4.953X8.890*%
%ADD76R,1.803X17.018*%
%ADD77C,6.500*%
%ADD78R,1.778X1.778*%
%ADD79C,1.778*%
%ADD80R,2.200X2.200*%
%ADD81C,2.200*%
%ADD82C,2.700*%
%ADD83R,2.700X2.700*%
%ADD84R,2.200X2.200*%
%ADD85C,0.900*%
%ADD86R,1.524X1.524*%
%ADD87C,1.524*%
%ADD88C,1.500*%
%ADD89C,0.700*%
%ADD90C,1.000*%
%ADD91C,0.500*%
%ADD92R,4.191X5.588*%
%ADD93R,6.604X3.048*%
%ADD94R,13.208X3.048*%
%ADD95R,1.270X2.794*%
%ADD96R,4.572X6.858*%
%ADD97R,2.794X17.018*%
%ADD98R,22.860X2.921*%
%ADD99R,2.921X18.796*%
%ADD100R,17.856X6.096*%
%ADD101R,6.350X12.700*%
%ADD102R,15.494X5.842*%
%ADD103C,0.250*%
%ADD104C,0.100*%
%ADD105C,0.600*%
%ADD106C,0.127*%
%ADD107C,0.025*%
%ADD108C,0.203*%
%ADD109C,0.102*%
%ADD110C,0.200*%
%ADD111C,0.152*%
%ADD112C,0.229*%
%ADD113R,0.762X0.500*%
%ADD114R,2.530X2.540*%
%ADD115R,0.500X1.000*%
D35*
X60452Y4572D02*
X60452Y2032D01*
X60452D02*
X73152Y2032D01*
X62992Y2032D02*
Y4572D01*
X60452Y4572D02*
X73152Y4572D01*
X65532Y2032D02*
Y4572D01*
X68072Y2032D02*
Y4572D01*
X70612Y2032D02*
Y4572D01*
X73152Y2032D02*
Y4572D01*
X22606Y7366D02*
X22606Y4826D01*
X22606D02*
X37846Y4826D01*
X25146Y4826D02*
Y7366D01*
X27686Y4826D02*
Y7366D01*
X22606Y7366D02*
X37846Y7366D01*
X30226Y4826D02*
Y7366D01*
X32766Y4826D02*
Y7366D01*
Y4826D02*
Y7366D01*
X35306Y4826D02*
Y7366D01*
X37846Y4826D02*
Y7366D01*
X35306Y4826D02*
Y7366D01*
X37846Y4826D02*
Y7366D01*
Y4826D02*
Y7366D01*
X57912Y47752D02*
X57912Y45212D01*
X57912D02*
X70612Y45212D01*
X60452Y45212D02*
Y47752D01*
X57912Y47752D02*
X70612Y47752D01*
X62992Y45212D02*
Y47752D01*
X65532Y45212D02*
Y47752D01*
X68072Y45212D02*
Y47752D01*
X70612Y45212D02*
Y47752D01*
X42672Y47752D02*
X42672Y45212D01*
X42672D02*
X55372Y45212D01*
X45212Y45212D02*
Y47752D01*
X42672Y47752D02*
X55372Y47752D01*
X47752Y45212D02*
Y47752D01*
X50292Y45212D02*
Y47752D01*
X52832Y45212D02*
Y47752D01*
X55372Y45212D02*
Y47752D01*
X73152Y47752D02*
X73152Y45212D01*
X73152D02*
X88392Y45212D01*
X75692Y45212D02*
Y47752D01*
X78232Y45212D02*
Y47752D01*
X73152Y47752D02*
X88392Y47752D01*
X80772Y45212D02*
Y47752D01*
X83312Y45212D02*
Y47752D01*
Y45212D02*
Y47752D01*
X85852Y45212D02*
Y47752D01*
X88392Y45212D02*
Y47752D01*
X85852Y45212D02*
Y47752D01*
X88392Y45212D02*
Y47752D01*
Y45212D02*
Y47752D01*
X10926Y20642D02*
X10926Y25087D01*
X10926Y20642D02*
X13466D01*
X10926Y25087D02*
X11561Y25722D01*
X13466Y25722D02*
X13466Y20642D01*
X11561Y25722D02*
X13466Y25722D01*
X56Y28060D02*
Y38060D01*
X7656Y28060D02*
Y38060D01*
X834Y10890D02*
Y26490D01*
X9834Y10890D02*
Y26490D01*
X10200Y56D02*
X20200D01*
X10200Y7656D02*
X20200D01*
X60604Y27280D02*
X60604Y31725D01*
X60604Y27280D02*
X63144D01*
X60604Y31725D02*
X61239Y32360D01*
X63144Y32360D02*
X63144Y27280D01*
X61239Y32360D02*
X63144Y32360D01*
D36*
X22093Y14006D02*
G03*
X22093Y14006I-885J0D01*
G01*
X48648Y5620D02*
G03*
X49448Y6420I0J800D01*
G01*
Y15120D02*
G03*
X48648Y15920I-800J0D01*
G01*
X50292Y26854D02*
G03*
X51092Y27654I0J800D01*
G01*
Y36354D02*
G03*
X50292Y37154I-800J0D01*
G01*
X27686Y2921D02*
Y4826D01*
Y2921D02*
X28067Y2540D01*
X37846Y2921D02*
Y4826D01*
X37465Y2540D02*
X37846Y2921D01*
X28067Y2540D02*
X37465D01*
X27305D02*
X27686Y2921D01*
X22987Y2540D02*
X27305D01*
X22606Y2921D02*
X22987Y2540D01*
X22606Y2921D02*
Y4826D01*
X39148Y13920D02*
X41148Y15920D01*
X39148Y7620D02*
X41148Y5620D01*
X39148Y11950D02*
Y13920D01*
Y7620D02*
Y9590D01*
X49448Y6420D02*
Y9600D01*
Y11940D02*
Y15120D01*
X41148Y5620D02*
X48648D01*
X41148Y15920D02*
X48648D01*
X40792Y35154D02*
X42792Y37154D01*
X40792Y28854D02*
X42792Y26854D01*
X40792Y33184D02*
Y35154D01*
Y28854D02*
Y30824D01*
X51092Y27654D02*
Y30834D01*
Y33174D02*
Y36354D01*
X42792Y26854D02*
X50292D01*
X42792Y37154D02*
X50292D01*
X97790Y9906D02*
X99060D01*
X99314Y10160D01*
Y10668D01*
X99060Y10922D01*
X97790D01*
X98044Y12445D02*
X97790Y12191D01*
Y11683D01*
X98044Y11430D01*
X98298D01*
X98552Y11683D01*
Y12191D01*
X98806Y12445D01*
X99060D01*
X99314Y12191D01*
Y11683D01*
X99060Y11430D01*
X97790Y13969D02*
Y12953D01*
X99314D01*
Y13969D01*
X98552Y12953D02*
Y13461D01*
X99314Y14477D02*
X97790D01*
Y15238D01*
X98044Y15492D01*
X98552D01*
X98806Y15238D01*
Y14477D01*
Y14984D02*
X99314Y15492D01*
Y22606D02*
X97790D01*
Y23368D01*
X98044Y23622D01*
X98552D01*
X98806Y23368D01*
Y22606D01*
Y23114D02*
X99314Y23622D01*
X97790Y25145D02*
Y24130D01*
X99314D01*
Y25145D01*
X98552Y24130D02*
Y24637D01*
X98044Y26669D02*
X97790Y26415D01*
Y25907D01*
X98044Y25653D01*
X98298D01*
X98552Y25907D01*
Y26415D01*
X98806Y26669D01*
X99060D01*
X99314Y26415D01*
Y25907D01*
X99060Y25653D01*
X97790Y28192D02*
Y27177D01*
X99314D01*
Y28192D01*
X98552Y27177D02*
Y27684D01*
X97790Y28700D02*
Y29716D01*
Y29208D01*
X99314D01*
X2286Y41148D02*
Y40640D01*
Y40894D01*
X762D01*
Y41148D01*
Y40640D01*
Y39878D02*
X2286D01*
X762Y38863D01*
X2286D01*
X3937Y39878D02*
Y38862D01*
X4445Y39370D02*
X3429D01*
X4064Y9779D02*
X3810Y10033D01*
X3302D01*
X3048Y9779D01*
Y8763D01*
X3302Y8509D01*
X3810D01*
X4064Y8763D01*
X4572Y8509D02*
Y9525D01*
X5079Y10033D01*
X5587Y9525D01*
Y8509D01*
Y9271D01*
X4572D01*
X6095Y8509D02*
Y10033D01*
X7111Y8509D01*
Y10033D01*
X8763Y4064D02*
Y3048D01*
X9271Y3556D02*
X8255D01*
X26035Y508D02*
Y2032D01*
X26543Y1524D01*
X27051Y2032D01*
Y508D01*
X28320Y2032D02*
X27812D01*
X27559Y1778D01*
Y762D01*
X27812Y508D01*
X28320D01*
X28574Y762D01*
Y1778D01*
X28320Y2032D01*
X29082D02*
X30098D01*
X29590D01*
Y508D01*
X31367Y2032D02*
X30859D01*
X30606Y1778D01*
Y762D01*
X30859Y508D01*
X31367D01*
X31621Y762D01*
Y1778D01*
X31367Y2032D01*
X32129Y508D02*
Y2032D01*
X32891D01*
X33145Y1778D01*
Y1270D01*
X32891Y1016D01*
X32129D01*
X32637D02*
X33145Y508D01*
X55118Y4064D02*
X54610D01*
X54864D01*
Y2794D01*
X54610Y2540D01*
X54356D01*
X54102Y2794D01*
X55626Y4064D02*
X56641D01*
X56133D01*
Y2540D01*
X57149D02*
Y3556D01*
X57657Y4064D01*
X58165Y3556D01*
Y2540D01*
Y3302D01*
X57149D01*
X59688Y3810D02*
X59434Y4064D01*
X58926D01*
X58673Y3810D01*
Y2794D01*
X58926Y2540D01*
X59434D01*
X59688Y2794D01*
Y3302D01*
X59180D01*
X23393Y3708D02*
X24409D01*
X23901Y4216D02*
Y3200D01*
X25933Y3708D02*
X26949D01*
X29421Y4318D02*
X28575D01*
Y3048D01*
X29421D01*
X28575Y3683D02*
X28998D01*
X29845Y3048D02*
Y4318D01*
X30691Y3048D01*
Y4318D01*
X31961Y4106D02*
X31749Y4318D01*
X31326D01*
X31114Y4106D01*
Y3260D01*
X31326Y3048D01*
X31749D01*
X31961Y3260D01*
X33019Y4318D02*
X32595D01*
X32384Y4106D01*
Y3260D01*
X32595Y3048D01*
X33019D01*
X33230Y3260D01*
Y4106D01*
X33019Y4318D01*
X33653D02*
Y3048D01*
X34288D01*
X34500Y3260D01*
Y4106D01*
X34288Y4318D01*
X33653D01*
X35769D02*
X34923D01*
Y3048D01*
X35769D01*
X34923Y3683D02*
X35346D01*
X36193Y3048D02*
Y4318D01*
X36827D01*
X37039Y4106D01*
Y3683D01*
X36827Y3471D01*
X36193D01*
X36616D02*
X37039Y3048D01*
X59817Y32512D02*
X58293D01*
Y31750D01*
X58547Y31496D01*
X58801D01*
X59055Y31750D01*
Y32512D01*
Y31750D01*
X59309Y31496D01*
X59563D01*
X59817Y31750D01*
Y32512D01*
Y30227D02*
Y30735D01*
X59563Y30988D01*
X58547D01*
X58293Y30735D01*
Y30227D01*
X58547Y29973D01*
X59563D01*
X59817Y30227D01*
Y28703D02*
Y29211D01*
X59563Y29465D01*
X58547D01*
X58293Y29211D01*
Y28703D01*
X58547Y28449D01*
X59563D01*
X59817Y28703D01*
Y27941D02*
Y26926D01*
Y27434D01*
X58293D01*
X11811Y8509D02*
Y10033D01*
X12319Y9525D01*
X12827Y10033D01*
Y8509D01*
X14096Y10033D02*
X13588D01*
X13335Y9779D01*
Y8763D01*
X13588Y8509D01*
X14096D01*
X14350Y8763D01*
Y9779D01*
X14096Y10033D01*
X14858D02*
X15874D01*
X15366D01*
Y8509D01*
X17143Y10033D02*
X16635D01*
X16382Y9779D01*
Y8763D01*
X16635Y8509D01*
X17143D01*
X17397Y8763D01*
Y9779D01*
X17143Y10033D01*
X17905Y8509D02*
Y10033D01*
X18667D01*
X18921Y9779D01*
Y9271D01*
X18667Y9017D01*
X17905D01*
X18413D02*
X18921Y8509D01*
X62357Y49530D02*
X62865D01*
X62611D01*
Y48006D01*
X62357D01*
X62865D01*
X64642D02*
X63627D01*
X64642Y49022D01*
Y49276D01*
X64388Y49530D01*
X63881D01*
X63627Y49276D01*
X66166D02*
X65912Y49530D01*
X65404D01*
X65150Y49276D01*
Y48260D01*
X65404Y48006D01*
X65912D01*
X66166Y48260D01*
X46609Y49530D02*
Y48260D01*
X46863Y48006D01*
X47371D01*
X47625Y48260D01*
Y49530D01*
X48133Y48006D02*
Y49022D01*
X48640Y49530D01*
X49148Y49022D01*
Y48006D01*
Y48768D01*
X48133D01*
X49656Y48006D02*
Y49530D01*
X50418D01*
X50672Y49276D01*
Y48768D01*
X50418Y48514D01*
X49656D01*
X50164D02*
X50672Y48006D01*
X51180Y49530D02*
X52195D01*
X51687D01*
Y48006D01*
X80010Y49276D02*
X79756Y49530D01*
X79248D01*
X78994Y49276D01*
Y49022D01*
X79248Y48768D01*
X79756D01*
X80010Y48514D01*
Y48260D01*
X79756Y48006D01*
X79248D01*
X78994Y48260D01*
X80518Y48006D02*
Y49530D01*
X81279D01*
X81533Y49276D01*
Y48768D01*
X81279Y48514D01*
X80518D01*
X82041Y49530D02*
X82549D01*
X82295D01*
Y48006D01*
X82041D01*
X82549D01*
X81534Y508D02*
Y1524D01*
X82042Y2032D01*
X82550Y1524D01*
Y508D01*
Y1270D01*
X81534D01*
X86614Y2032D02*
Y508D01*
X87376D01*
X87630Y762D01*
Y1016D01*
X87376Y1270D01*
X86614D01*
X87376D01*
X87630Y1524D01*
Y1778D01*
X87376Y2032D01*
X86614D01*
X84074Y1778D02*
X84328Y2032D01*
X84836D01*
X85090Y1778D01*
Y762D01*
X84836Y508D01*
X84328D01*
X84074Y762D01*
Y1778D01*
X40030Y8534D02*
X41046D01*
X40538Y9042D02*
Y8026D01*
X41681Y34315D02*
X42697D01*
X42189Y34823D02*
Y33807D01*
D103*
X88938Y34214D02*
G03*
X88938Y34214I-125J0D01*
G01*
X39035Y46942D02*
G03*
X39035Y46942I-125J0D01*
G01*
X35547Y18486D02*
G03*
X35547Y18486I-125J0D01*
G01*
X66322Y24401D02*
G03*
X66322Y24401I-125J0D01*
G01*
X17889Y19274D02*
G03*
X17889Y19274I-125J0D01*
G01*
X15908Y33401D02*
G03*
X15908Y33401I-125J0D01*
G01*
X19768Y27051D02*
Y27686D01*
Y28321D01*
X18809Y36339D02*
X19444D01*
X18174D02*
X18809D01*
X79134Y29371D02*
X79769D01*
X80404D01*
D104*
X26544Y42546D02*
G03*
X26544Y42546I-50J0D01*
G01*
D105*
X37042Y20711D02*
G03*
X37042Y20711I-300J0D01*
G01*
X67847Y26526D02*
G03*
X67847Y26526I-300J0D01*
G01*
D106*
X65791Y16790D02*
G03*
X64216Y15837I0J-1778D01*
G01*
Y14187D02*
G03*
X65791Y13234I1575J825D01*
G01*
X72217D02*
G03*
X73792Y14187I0J1778D01*
G01*
Y15837D02*
G03*
X72217Y16790I-1575J-825D01*
G01*
X94968Y12700D02*
G03*
X94968Y12700I-1750J0D01*
G01*
Y25908D02*
G03*
X94968Y25908I-1750J0D01*
G01*
X82806Y33806D02*
Y36981D01*
Y33806D02*
X87124D01*
X82806Y36981D02*
X87124D01*
X86718Y33806D02*
X86768D01*
X86743D02*
X87124D01*
Y34060D01*
Y33806D02*
Y36981D01*
Y34136D02*
Y34161D01*
X66218Y43612D02*
Y44780D01*
Y43612D02*
X68783D01*
X66218Y44780D02*
X68783D01*
Y43612D02*
Y44780D01*
X62281Y43612D02*
Y44780D01*
Y43612D02*
X64846D01*
X62281Y44780D02*
X64846D01*
Y43612D02*
Y44780D01*
X10901Y19245D02*
Y20413D01*
Y19245D02*
X13466D01*
X10901Y20413D02*
X13466D01*
Y19245D02*
Y20413D01*
X9195Y28626D02*
Y29794D01*
Y28626D02*
X11760D01*
X9195Y29794D02*
X11760D01*
Y28626D02*
Y29794D01*
X9195Y30150D02*
Y31318D01*
Y30150D02*
X11760D01*
X9195Y31318D02*
X11760D01*
Y30150D02*
Y31318D01*
X11989Y28626D02*
Y31191D01*
Y28626D02*
X13157D01*
X11989Y31191D02*
X13157D01*
Y28626D02*
Y31191D01*
X14529Y23546D02*
Y24714D01*
Y23546D02*
X17094D01*
X14529Y24714D02*
X17094D01*
Y23546D02*
Y24714D01*
X17323Y23546D02*
Y24714D01*
Y23546D02*
X19888D01*
X17323Y24714D02*
X19888D01*
Y23546D02*
Y24714D01*
X49835Y7950D02*
X51003D01*
X49835Y5385D02*
Y7950D01*
X51003Y5385D02*
Y7950D01*
X49835Y5385D02*
X51003D01*
X51486Y8712D02*
X52654D01*
X51486Y6147D02*
Y8712D01*
X52654Y6147D02*
Y8712D01*
X51486Y6147D02*
X52654D01*
X33452Y8026D02*
Y10592D01*
Y8026D02*
X34620D01*
X33452Y10592D02*
X34620D01*
Y8026D02*
Y10592D01*
X34976Y9576D02*
Y12141D01*
Y9576D02*
X36144D01*
X34976Y12141D02*
X36144D01*
Y9576D02*
Y12141D01*
X36373Y9576D02*
Y12141D01*
Y9576D02*
X37541D01*
X36373Y12141D02*
X37541D01*
Y9576D02*
Y12141D01*
X48458Y42106D02*
Y44671D01*
Y42106D02*
X49626D01*
X48458Y44671D02*
X49626D01*
Y42106D02*
Y44671D01*
X51058Y42106D02*
Y44671D01*
Y42106D02*
X52226D01*
X51058Y44671D02*
X52226D01*
Y42106D02*
Y44671D01*
X84038Y42152D02*
Y44717D01*
Y42152D02*
X85206D01*
X84038Y44717D02*
X85206D01*
Y42152D02*
Y44717D01*
X81538Y42152D02*
Y44717D01*
Y42152D02*
X82706D01*
X81538Y44717D02*
X82706D01*
Y42152D02*
Y44717D01*
X76438Y42152D02*
Y44717D01*
Y42152D02*
X77606D01*
X76438Y44717D02*
X77606D01*
Y42152D02*
Y44717D01*
X78938Y42152D02*
Y44717D01*
Y42152D02*
X80106D01*
X78938Y44717D02*
X80106D01*
Y42152D02*
Y44717D01*
X7874Y42037D02*
Y48514D01*
Y42037D02*
X20447D01*
X16444Y42103D02*
Y48503D01*
Y42703D02*
X17019D01*
X16444Y47203D02*
X17019D01*
X16444Y47903D02*
X17019D01*
X7874Y48514D02*
X20447D01*
X16444Y42703D02*
X17019D01*
X16444Y43403D02*
X17019D01*
X20193Y42037D02*
X20447Y42291D01*
Y42037D02*
Y48514D01*
X16444Y43403D02*
X17019D01*
X16444Y44953D02*
X17444D01*
Y45653D01*
X16444D02*
X17444D01*
X14275Y38532D02*
Y39700D01*
Y38532D02*
X16840D01*
X14275Y39700D02*
X16840D01*
Y38532D02*
Y39700D01*
X15672Y35357D02*
Y37922D01*
Y35357D02*
X16840D01*
X15672Y37922D02*
X16840D01*
Y35357D02*
Y37922D01*
X17396Y33768D02*
Y38368D01*
X20196Y33768D02*
Y38368D01*
X17396Y33768D02*
X17896D01*
X17396Y38368D02*
X17896D01*
X19696Y33768D02*
X20196D01*
X19696Y38368D02*
X20196D01*
X17896Y37368D02*
Y38368D01*
X19696Y37368D02*
Y38368D01*
X17396Y37368D02*
X17885D01*
X19696D02*
X20196D01*
X20320Y36322D02*
Y42291D01*
Y36322D02*
X22860D01*
X20320Y42291D02*
X22860D01*
Y36322D02*
Y42291D01*
X23113Y34349D02*
Y38583D01*
Y34349D02*
X32546D01*
X23113Y38583D02*
X32546D01*
Y34349D02*
Y36449D01*
Y38583D01*
X16815Y39929D02*
Y41097D01*
Y39929D02*
X19380D01*
X16815Y41097D02*
X19380D01*
Y39929D02*
Y41097D01*
X23165Y44501D02*
Y47066D01*
Y44501D02*
X24333D01*
X23165Y47066D02*
X24333D01*
Y44501D02*
Y47066D01*
X20777Y47295D02*
Y49073D01*
Y47295D02*
X24333D01*
X20777Y49073D02*
X24333Y49073D01*
X24333Y47295D02*
X24333Y49073D01*
X23419Y41402D02*
Y42570D01*
Y41402D02*
X25984D01*
X23419Y42570D02*
X25984D01*
Y41402D02*
Y42570D01*
X30531Y40234D02*
Y42799D01*
Y40234D02*
X31699D01*
X30531Y42799D02*
X31699D01*
Y40234D02*
Y42799D01*
X28880Y45009D02*
Y47574D01*
Y45009D02*
X30048D01*
X28880Y47574D02*
X30048D01*
Y45009D02*
Y47574D01*
X30531Y45009D02*
Y47574D01*
Y45009D02*
X31699D01*
X30531Y47574D02*
X31699D01*
Y45009D02*
Y47574D01*
X23419Y40005D02*
Y41173D01*
Y40005D02*
X25984D01*
X23419Y41173D02*
X25984D01*
Y40005D02*
Y41173D01*
X39472Y42520D02*
Y45085D01*
Y42520D02*
X40640D01*
X39472Y45085D02*
X40640D01*
Y42520D02*
Y45085D01*
X40996Y42520D02*
Y45085D01*
Y42520D02*
X42164D01*
X40996Y45085D02*
X42164D01*
Y42520D02*
Y45085D01*
X36373Y33706D02*
Y34874D01*
Y33706D02*
X38938D01*
X36373Y34874D02*
X38938D01*
Y33706D02*
Y34874D01*
X34976Y30531D02*
Y33096D01*
Y30531D02*
X36144D01*
X34976Y33096D02*
X36144D01*
Y30531D02*
Y33096D01*
X33579Y30531D02*
Y33096D01*
Y30531D02*
X34747D01*
X33579Y33096D02*
X34747D01*
Y30531D02*
Y33096D01*
X36373Y30531D02*
Y33096D01*
Y30531D02*
X37541D01*
X36373Y33096D02*
X37541D01*
Y30531D02*
Y33096D01*
X37770Y30912D02*
Y33477D01*
Y30912D02*
X38938D01*
X37770Y33477D02*
X38938D01*
Y30912D02*
Y33477D01*
X53264Y30785D02*
Y33350D01*
Y30785D02*
X54432D01*
X53264Y33350D02*
X54432D01*
Y30785D02*
Y33350D01*
X60122Y23800D02*
Y26365D01*
Y23800D02*
X61290D01*
X60122Y26365D02*
X61290D01*
Y23800D02*
Y26365D01*
X61519Y23800D02*
Y24968D01*
Y23800D02*
X64084D01*
X61519Y24968D02*
X64084D01*
Y23800D02*
Y24968D01*
X64059Y22022D02*
Y23190D01*
Y22022D02*
X66624D01*
X64059Y23190D02*
X66624D01*
Y22022D02*
Y23190D01*
X63200Y17425D02*
X63200Y12726D01*
X74884D01*
X63200Y17425D02*
X74884D01*
X65740Y13225D02*
X72226D01*
X74884Y12726D02*
X74884Y17425D01*
X65740Y16790D02*
X72217D01*
X63678Y5004D02*
Y7569D01*
Y5004D02*
X64846D01*
X63678Y7569D02*
X64846D01*
Y5004D02*
Y7569D01*
X68758Y5004D02*
Y7569D01*
Y5004D02*
X69926D01*
X68758Y7569D02*
X69926D01*
Y5004D02*
Y7569D01*
X71298Y5004D02*
Y7569D01*
Y5004D02*
X72466D01*
X71298Y7569D02*
X72466D01*
Y5004D02*
Y7569D01*
X61519Y25197D02*
Y26365D01*
Y25197D02*
X64084D01*
X61519Y26365D02*
X64084D01*
Y25197D02*
Y26365D01*
X65837Y17755D02*
Y18923D01*
Y17755D02*
X68402D01*
X65837Y18923D02*
X68402D01*
Y17755D02*
Y18923D01*
X69901Y17755D02*
Y18923D01*
Y17755D02*
X72466D01*
X69901Y18923D02*
X72466D01*
Y17755D02*
Y18923D01*
X73101Y20041D02*
Y22606D01*
Y20041D02*
X74270D01*
X73101Y22606D02*
X74270D01*
Y20041D02*
Y22606D01*
X71704Y20041D02*
Y22606D01*
Y20041D02*
X72873D01*
X71704Y22606D02*
X72873D01*
Y20041D02*
Y22606D01*
X70333Y20041D02*
Y22606D01*
Y20041D02*
X71501D01*
X70333Y22606D02*
X71501D01*
Y20041D02*
Y22606D01*
X75108Y31039D02*
Y33604D01*
Y31039D02*
X76276D01*
X75108Y33604D02*
X76276D01*
Y31039D02*
Y33604D01*
X76505Y31039D02*
Y33604D01*
Y31039D02*
X77673D01*
X76505Y33604D02*
X77673D01*
Y31039D02*
Y33604D01*
X81181Y27342D02*
Y31942D01*
X78381Y27342D02*
Y31942D01*
X80681D02*
X81181D01*
X80681Y27342D02*
X81181D01*
X78381Y31942D02*
X78881D01*
X78381Y27342D02*
X78881D01*
X80681D02*
Y28342D01*
X78881Y27342D02*
Y28342D01*
X80692D02*
X81181D01*
X78381D02*
X78881D01*
X83654Y37107D02*
Y38275D01*
Y37107D02*
X86219D01*
X83654Y38275D02*
X86219D01*
Y37107D02*
Y38275D01*
X86339Y37095D02*
Y38263D01*
Y37095D02*
X88904D01*
X86339Y38263D02*
X88904D01*
Y37095D02*
Y38263D01*
X85348Y27341D02*
Y33310D01*
Y27341D02*
X87888D01*
X85348Y33310D02*
X87888D01*
Y27341D02*
Y33310D01*
X81458Y5131D02*
Y6299D01*
Y5131D02*
X84023D01*
X81458Y6299D02*
X84023D01*
Y5131D02*
Y6299D01*
X85141Y5131D02*
Y6299D01*
Y5131D02*
X87706D01*
X85141Y6299D02*
X87706D01*
Y5131D02*
Y6299D01*
X86284Y9830D02*
Y12395D01*
Y9830D02*
X87452D01*
X86284Y12395D02*
X87452D01*
Y9830D02*
Y12395D01*
X87681Y9830D02*
Y12395D01*
Y9830D02*
X88849D01*
X87681Y12395D02*
X88849D01*
Y9830D02*
Y12395D01*
X90118Y11460D02*
Y13940D01*
X90738Y9600D02*
X95698D01*
X90738Y15800D02*
X95698D01*
X96318Y11460D02*
Y13940D01*
X90118Y24668D02*
Y27148D01*
X90738Y22808D02*
X95698D01*
X90738Y29008D02*
X95698D01*
X96318Y24668D02*
Y27148D01*
X88316Y17196D02*
Y18364D01*
Y17196D02*
X90881D01*
X88316Y18364D02*
X90881D01*
Y17196D02*
Y18364D01*
X88316Y18720D02*
Y19888D01*
Y18720D02*
X90881D01*
X88316Y19888D02*
X90881D01*
Y18720D02*
Y19888D01*
X88316Y20244D02*
Y21412D01*
Y20244D02*
X90881D01*
X88316Y21412D02*
X90881D01*
Y20244D02*
Y21412D01*
X86284Y22784D02*
Y25349D01*
Y22784D02*
X87452D01*
X86284Y25349D02*
X87452D01*
Y22784D02*
Y25349D01*
X87681Y22784D02*
Y25349D01*
Y22784D02*
X88849D01*
X87681Y25349D02*
X88849D01*
Y22784D02*
Y25349D01*
X82402Y23328D02*
Y24496D01*
Y23328D02*
X84967D01*
X82402Y24496D02*
X84967D01*
Y23328D02*
Y24496D01*
X82402Y24725D02*
Y25893D01*
Y24725D02*
X84967D01*
X82402Y25893D02*
X84967D01*
Y24725D02*
Y25893D01*
X82402Y26122D02*
Y27290D01*
Y26122D02*
X84967D01*
X82402Y27290D02*
X84967D01*
Y26122D02*
Y27290D01*
X82402Y27519D02*
Y28687D01*
Y27519D02*
X84967D01*
X82402Y28687D02*
X84967D01*
Y27519D02*
Y28687D01*
X82402Y28916D02*
Y30084D01*
Y28916D02*
X84967D01*
X82402Y30084D02*
X84967D01*
Y28916D02*
Y30084D01*
X82402Y30313D02*
Y31481D01*
Y30313D02*
X84967D01*
X82402Y31481D02*
X84967D01*
Y30313D02*
Y31481D01*
X82398Y31725D02*
Y32893D01*
Y31725D02*
X84963D01*
X82398Y32893D02*
X84963D01*
Y31725D02*
Y32893D01*
X64440Y34087D02*
Y36652D01*
Y34087D02*
X65608D01*
X64440Y36652D02*
X65608D01*
Y34087D02*
Y36652D01*
X65837Y34087D02*
Y36652D01*
Y34087D02*
X67005D01*
X65837Y36652D02*
X67005D01*
Y34087D02*
Y36652D01*
D107*
X33249Y17323D02*
X33452D01*
X33045Y17348D02*
X33477D01*
X32842Y17374D02*
X33503D01*
X32639Y17399D02*
X33503D01*
X32410Y17424D02*
X33528D01*
X32207Y17450D02*
X33528D01*
X32004Y17475D02*
X33528D01*
X31801Y17501D02*
X33528D01*
X33325Y17526D02*
X33528D01*
X31598D02*
X33223D01*
X33325Y17551D02*
X33528D01*
X31394D02*
X33020D01*
X33325Y17577D02*
X33528D01*
X31191D02*
X32817D01*
X33350Y17602D02*
X33528D01*
X30963D02*
X32614D01*
X33350Y17628D02*
X33553D01*
X30759D02*
X32410D01*
X33350Y17653D02*
X33553D01*
X30556D02*
X32207D01*
X33350Y17678D02*
X33553D01*
X30353D02*
X31979D01*
X33350Y17704D02*
X33553D01*
X30150D02*
X31775D01*
X33350Y17729D02*
X33553D01*
X29947D02*
X31572D01*
X33350Y17755D02*
X33553D01*
X29743D02*
X31369D01*
X33350Y17780D02*
X33553D01*
X29515D02*
X31166D01*
X33376Y17805D02*
X33553D01*
X29312D02*
X30963D01*
X33376Y17831D02*
X33579D01*
X29108D02*
X30734D01*
X33376Y17856D02*
X33579D01*
X28905D02*
X30531D01*
X33376Y17882D02*
X33579D01*
X28702D02*
X30328D01*
X33376Y17907D02*
X33579D01*
X28499D02*
X30124D01*
X33376Y17932D02*
X33579D01*
X28270D02*
X29921D01*
X33376Y17958D02*
X33579D01*
X28067D02*
X29718D01*
X33376Y17983D02*
X33579D01*
X27864D02*
X29515D01*
X33401Y18009D02*
X33579D01*
X27661D02*
X29286D01*
X33401Y18034D02*
X33604D01*
X27457D02*
X29083D01*
X33401Y18059D02*
X33604D01*
X27254D02*
X28880D01*
X33401Y18085D02*
X33604D01*
X27051D02*
X28677D01*
X33401Y18110D02*
X33604D01*
X26822D02*
X28473D01*
X33401Y18136D02*
X33604D01*
X26619D02*
X28270D01*
X33401Y18161D02*
X33604D01*
X26416D02*
X28042D01*
X33401Y18186D02*
X33604D01*
X26213D02*
X27838D01*
X33426Y18212D02*
X33604D01*
X26010D02*
X27635D01*
X33426Y18237D02*
X33630D01*
X25806D02*
X27432D01*
X33426Y18263D02*
X33630D01*
X31699D02*
X32156D01*
X25629D02*
X27229D01*
X33426Y18288D02*
X33630D01*
X31521D02*
X32207D01*
X25552D02*
X27026D01*
X33426Y18313D02*
X33630D01*
X31369D02*
X32283D01*
X25527D02*
X26822D01*
X33426Y18339D02*
X33630D01*
X31090D02*
X32360D01*
X25527D02*
X26594D01*
X33426Y18364D02*
X33630D01*
X30886D02*
X32410D01*
X25527D02*
X26391D01*
X33426Y18390D02*
X33630D01*
X30683D02*
X32461D01*
X25527D02*
X26187D01*
X33452Y18415D02*
X33630D01*
X30429D02*
X32512D01*
X25527D02*
X25984D01*
X33452Y18440D02*
X33630D01*
X30251D02*
X32537D01*
X25527D02*
X25781D01*
X33452Y18466D02*
X33655D01*
X30048D02*
X32588D01*
X25527D02*
X25730D01*
X33452Y18491D02*
X33655D01*
X29820D02*
X32614D01*
X25527D02*
X25730D01*
X33452Y18517D02*
X33655D01*
X29642D02*
X32639D01*
X25527D02*
X25730D01*
X33452Y18542D02*
X33655D01*
X29413D02*
X32664D01*
X25552D02*
X25730D01*
X33452Y18567D02*
X33655D01*
X29210D02*
X32690D01*
X25552D02*
X25756D01*
X33452Y18593D02*
X33655D01*
X28981D02*
X32715D01*
X25552D02*
X25756D01*
X33477Y18618D02*
X33655D01*
X28778D02*
X32741D01*
X25552D02*
X25756D01*
X33477Y18644D02*
X33655D01*
X28524D02*
X32766D01*
X25552D02*
X25756D01*
X33477Y18669D02*
X33680D01*
X28346D02*
X32766D01*
X25552D02*
X25756D01*
X33477Y18694D02*
X33680D01*
X28092D02*
X32791D01*
X25552D02*
X25756D01*
X33477Y18720D02*
X33680D01*
X27915D02*
X32817D01*
X25552D02*
X25756D01*
X33477Y18745D02*
X33680D01*
X27737D02*
X32842D01*
X25578D02*
X25756D01*
X33477Y18771D02*
X33680D01*
X27483D02*
X32842D01*
X25578D02*
X25781D01*
X33477Y18796D02*
X33680D01*
X27305D02*
X32868D01*
X25578D02*
X25781D01*
X33477Y18821D02*
X33680D01*
X27203D02*
X32868D01*
X25578D02*
X25781D01*
X33503Y18847D02*
X33680D01*
X27102D02*
X32868D01*
X25578D02*
X25781D01*
X33503Y18872D02*
X33706D01*
X27051D02*
X32893D01*
X25578D02*
X25781D01*
X33503Y18898D02*
X33706D01*
X27026D02*
X32918D01*
X25578D02*
X25781D01*
X33503Y18923D02*
X33706D01*
X26975D02*
X32918D01*
X25578D02*
X25781D01*
X33503Y18948D02*
X33706D01*
X26924D02*
X32918D01*
X25603D02*
X25781D01*
X33503Y18974D02*
X33706D01*
X26899D02*
X32944D01*
X25603D02*
X25806D01*
X33503Y18999D02*
X33706D01*
X26848D02*
X32944D01*
X25603D02*
X25806D01*
X33503Y19025D02*
X33706D01*
X26822D02*
X32944D01*
X25603D02*
X25806D01*
X33528Y19050D02*
X33706D01*
X26797D02*
X32944D01*
X25603D02*
X25806D01*
X33528Y19075D02*
X33731D01*
X26772D02*
X32969D01*
X25603D02*
X25806D01*
X33528Y19101D02*
X33731D01*
X26746D02*
X32969D01*
X25603D02*
X25806D01*
X33528Y19126D02*
X33731D01*
X26721D02*
X32969D01*
X25603D02*
X25806D01*
X33528Y19152D02*
X33731D01*
X26695D02*
X32969D01*
X25629D02*
X25806D01*
X33528Y19177D02*
X33731D01*
X26670D02*
X32995D01*
X25629D02*
X25806D01*
X33528Y19202D02*
X33731D01*
X26645D02*
X32995D01*
X25629D02*
X25832D01*
X33528Y19228D02*
X33731D01*
X26645D02*
X32995D01*
X25629D02*
X25832D01*
X33553Y19253D02*
X33731D01*
X26619D02*
X32995D01*
X25629D02*
X25832D01*
X33553Y19279D02*
X33757D01*
X26594D02*
X32995D01*
X25629D02*
X25832D01*
X33553Y19304D02*
X33757D01*
X26594D02*
X32995D01*
X25629D02*
X25832D01*
X33553Y19329D02*
X33757D01*
X26568D02*
X32995D01*
X25629D02*
X25832D01*
X33553Y19355D02*
X33757D01*
X26568D02*
X32995D01*
X25654D02*
X25832D01*
X33553Y19380D02*
X33757D01*
X26543D02*
X32995D01*
X25654D02*
X25832D01*
X33553Y19406D02*
X33757D01*
X26543D02*
X32995D01*
X25654D02*
X25857D01*
X33553Y19431D02*
X33757D01*
X26518D02*
X33020D01*
X25654D02*
X25857D01*
X33579Y19456D02*
X33757D01*
X26518D02*
X33020D01*
X25654D02*
X25857D01*
X33579Y19482D02*
X33782D01*
X26518D02*
X33020D01*
X25654D02*
X25857D01*
X33579Y19507D02*
X33782D01*
X26492D02*
X33020D01*
X25654D02*
X25857D01*
X33579Y19533D02*
X33782D01*
X26492D02*
X33020D01*
X25654D02*
X25857D01*
X33579Y19558D02*
X33782D01*
X26492D02*
X33020D01*
X25679D02*
X25857D01*
X33579Y19583D02*
X33782D01*
X26467D02*
X33020D01*
X25679D02*
X25857D01*
X33579Y19609D02*
X33782D01*
X26467D02*
X33045D01*
X25679D02*
X25883D01*
X33579Y19634D02*
X33782D01*
X26467D02*
X33045D01*
X25679D02*
X25883D01*
X33604Y19660D02*
X33782D01*
X26467D02*
X33045D01*
X25679D02*
X25883D01*
X33604Y19685D02*
X33782D01*
X26441D02*
X33045D01*
X25679D02*
X25883D01*
X33604Y19710D02*
X33807D01*
X26441D02*
X33045D01*
X25679D02*
X25883D01*
X33604Y19736D02*
X33807D01*
X26441D02*
X33045D01*
X25679D02*
X25883D01*
X33604Y19761D02*
X33807D01*
X26441D02*
X33045D01*
X25679D02*
X25883D01*
X33604Y19787D02*
X33807D01*
X26441D02*
X33045D01*
X25705D02*
X25883D01*
X33604Y19812D02*
X33807D01*
X26441D02*
X33071D01*
X25705D02*
X25908D01*
X33604Y19837D02*
X33807D01*
X26441D02*
X33071D01*
X25705D02*
X25908D01*
X33630Y19863D02*
X33807D01*
X26441D02*
X33071D01*
X25705D02*
X25908D01*
X33630Y19888D02*
X33807D01*
X26441D02*
X33071D01*
X25705D02*
X25908D01*
X33630Y19914D02*
X33833D01*
X26441D02*
X33071D01*
X25705D02*
X25908D01*
X33630Y19939D02*
X33833D01*
X26441D02*
X33071D01*
X25705D02*
X25908D01*
X33630Y19964D02*
X33833D01*
X26441D02*
X33071D01*
X25705D02*
X25908D01*
X33630Y19990D02*
X33833D01*
X26467D02*
X33071D01*
X25730D02*
X25908D01*
X33630Y20015D02*
X33833D01*
X26467D02*
X33071D01*
X25730D02*
X25933D01*
X33630Y20041D02*
X33833D01*
X26467D02*
X33071D01*
X25730D02*
X25933D01*
X33655Y20066D02*
X33833D01*
X26467D02*
X33096D01*
X25730D02*
X25933D01*
X33655Y20091D02*
X33833D01*
X26467D02*
X33096D01*
X25730D02*
X25933D01*
X33655Y20117D02*
X33858D01*
X26467D02*
X33096D01*
X25730D02*
X25933D01*
X33655Y20142D02*
X33858D01*
X26467D02*
X33096D01*
X25730D02*
X25933D01*
X33655Y20168D02*
X33858D01*
X26492D02*
X33096D01*
X25730D02*
X25933D01*
X33655Y20193D02*
X33858D01*
X26492D02*
X33096D01*
X25756D02*
X25933D01*
X33655Y20218D02*
X33858D01*
X26492D02*
X33122D01*
X25756D02*
X25959D01*
X33655Y20244D02*
X33858D01*
X26492D02*
X33122D01*
X25756D02*
X25959D01*
X33655Y20269D02*
X33858D01*
X26492D02*
X33122D01*
X25756D02*
X25959D01*
X33680Y20295D02*
X33858D01*
X26492D02*
X33122D01*
X25756D02*
X25959D01*
X33680Y20320D02*
X33884D01*
X26492D02*
X33122D01*
X25756D02*
X25959D01*
X33680Y20345D02*
X33884D01*
X26518D02*
X33122D01*
X25756D02*
X25959D01*
X33680Y20371D02*
X33884D01*
X26518D02*
X33147D01*
X25756D02*
X25959D01*
X33680Y20396D02*
X33884D01*
X26518D02*
X33147D01*
X25781D02*
X25959D01*
X33680Y20422D02*
X33884D01*
X26518D02*
X33147D01*
X25781D02*
X25984D01*
X33680Y20447D02*
X33884D01*
X26518D02*
X33147D01*
X25781D02*
X25984D01*
X33680Y20472D02*
X33884D01*
X26518D02*
X33147D01*
X25781D02*
X25984D01*
X33706Y20498D02*
X33884D01*
X26518D02*
X33147D01*
X25781D02*
X25984D01*
X33706Y20523D02*
X33909D01*
X26518D02*
X33147D01*
X25781D02*
X25984D01*
X33706Y20549D02*
X33909D01*
X26518D02*
X33147D01*
X25781D02*
X25984D01*
X33706Y20574D02*
X33909D01*
X26518D02*
X33147D01*
X25781D02*
X25984D01*
X33706Y20599D02*
X33909D01*
X26543D02*
X33147D01*
X25806D02*
X25984D01*
X33706Y20625D02*
X33909D01*
X26543D02*
X33172D01*
X25806D02*
X25984D01*
X33706Y20650D02*
X33909D01*
X26543D02*
X33172D01*
X25806D02*
X26010D01*
X33706Y20676D02*
X33909D01*
X26543D02*
X33172D01*
X25806D02*
X26010D01*
X33731Y20701D02*
X33909D01*
X26543D02*
X33172D01*
X25806D02*
X26010D01*
X33731Y20726D02*
X33934D01*
X26543D02*
X33172D01*
X25806D02*
X26010D01*
X33731Y20752D02*
X33934D01*
X31826D02*
X33172D01*
X26543D02*
X31623D01*
X25806D02*
X26010D01*
X33731Y20777D02*
X33934D01*
X31953D02*
X33198D01*
X26543D02*
X31521D01*
X25806D02*
X26010D01*
X33731Y20803D02*
X33934D01*
X32029D02*
X33198D01*
X31115D02*
X31471D01*
X29693D02*
X30404D01*
X28423D02*
X29134D01*
X26543D02*
X27889D01*
X25832D02*
X26010D01*
X33731Y20828D02*
X33934D01*
X32080D02*
X33198D01*
X31115D02*
X31420D01*
X29693D02*
X30378D01*
X28448D02*
X29134D01*
X26568D02*
X27864D01*
X25832D02*
X26010D01*
X33731Y20853D02*
X33934D01*
X32131D02*
X33198D01*
X31090D02*
X31369D01*
X29693D02*
X30378D01*
X28448D02*
X29134D01*
X26568D02*
X27864D01*
X25832D02*
X26035D01*
X33731Y20879D02*
X33934D01*
X32156D02*
X33198D01*
X31090D02*
X31344D01*
X29693D02*
X30353D01*
X28448D02*
X29134D01*
X26568D02*
X27864D01*
X25832D02*
X26035D01*
X33757Y20904D02*
X33934D01*
X32207D02*
X33198D01*
X31064D02*
X31318D01*
X29693D02*
X30328D01*
X28448D02*
X29134D01*
X26568D02*
X27864D01*
X25832D02*
X26035D01*
X33757Y20930D02*
X33960D01*
X32233D02*
X33198D01*
X31039D02*
X31267D01*
X29693D02*
X30302D01*
X28448D02*
X29134D01*
X26568D02*
X27864D01*
X25832D02*
X26035D01*
X33757Y20955D02*
X33960D01*
X32258D02*
X33198D01*
X31013D02*
X31242D01*
X29693D02*
X30302D01*
X28448D02*
X29134D01*
X26568D02*
X27864D01*
X25832D02*
X26035D01*
X33757Y20980D02*
X33960D01*
X32283D02*
X33198D01*
X30988D02*
X31242D01*
X29693D02*
X30277D01*
X28448D02*
X29134D01*
X26568D02*
X27864D01*
X25832D02*
X26035D01*
X33757Y21006D02*
X33960D01*
X32309D02*
X33223D01*
X30963D02*
X31217D01*
X29693D02*
X30251D01*
X28448D02*
X29134D01*
X26568D02*
X27864D01*
X25832D02*
X26035D01*
X33757Y21031D02*
X33960D01*
X32309D02*
X33223D01*
X30963D02*
X31191D01*
X29693D02*
X30226D01*
X28448D02*
X29134D01*
X26594D02*
X27864D01*
X25857D02*
X26035D01*
X33757Y21057D02*
X33960D01*
X32334D02*
X33223D01*
X30937D02*
X31166D01*
X29693D02*
X30201D01*
X28448D02*
X29134D01*
X26594D02*
X27864D01*
X25857D02*
X26060D01*
X33757Y21082D02*
X33960D01*
X32360D02*
X33223D01*
X30912D02*
X31191D01*
X29693D02*
X30201D01*
X28448D02*
X29134D01*
X26594D02*
X27864D01*
X25857D02*
X26060D01*
X33782Y21107D02*
X33960D01*
X32360D02*
X33223D01*
X30886D02*
X31217D01*
X29693D02*
X30175D01*
X28448D02*
X29134D01*
X26594D02*
X27864D01*
X25857D02*
X26060D01*
X33782Y21133D02*
X33960D01*
X32385D02*
X33223D01*
X30861D02*
X31242D01*
X29693D02*
X30150D01*
X28448D02*
X29134D01*
X26594D02*
X27864D01*
X25857D02*
X26060D01*
X33782Y21158D02*
X33985D01*
X32385D02*
X33223D01*
X30861D02*
X31267D01*
X29693D02*
X30124D01*
X28448D02*
X29134D01*
X26594D02*
X27864D01*
X25857D02*
X26060D01*
X33782Y21184D02*
X33985D01*
X32410D02*
X33223D01*
X30836D02*
X31293D01*
X29693D02*
X30124D01*
X28448D02*
X29134D01*
X26594D02*
X27864D01*
X25857D02*
X26060D01*
X33782Y21209D02*
X33985D01*
X32410D02*
X33249D01*
X30810D02*
X31318D01*
X29693D02*
X30099D01*
X28448D02*
X29134D01*
X26594D02*
X27864D01*
X25857D02*
X26060D01*
X33782Y21234D02*
X33985D01*
X32410D02*
X33249D01*
X30785D02*
X31344D01*
X29693D02*
X30074D01*
X28448D02*
X29134D01*
X26594D02*
X27864D01*
X25883D02*
X26060D01*
X33782Y21260D02*
X33985D01*
X32410D02*
X33249D01*
X31623D02*
X31801D01*
X30759D02*
X31369D01*
X29693D02*
X30048D01*
X28448D02*
X29134D01*
X26594D02*
X27864D01*
X25883D02*
X26086D01*
X33782Y21285D02*
X33985D01*
X32436D02*
X33249D01*
X31598D02*
X31826D01*
X30759D02*
X31394D01*
X29693D02*
X30048D01*
X28448D02*
X29134D01*
X26594D02*
X27864D01*
X25883D02*
X26086D01*
X33807Y21311D02*
X33985D01*
X32436D02*
X33249D01*
X31572D02*
X31852D01*
X30734D02*
X31420D01*
X29693D02*
X30023D01*
X28448D02*
X29134D01*
X26619D02*
X27864D01*
X25883D02*
X26086D01*
X33807Y21336D02*
X33985D01*
X32436D02*
X33249D01*
X31572D02*
X31852D01*
X30709D02*
X31445D01*
X29693D02*
X29997D01*
X28448D02*
X29134D01*
X26619D02*
X27864D01*
X25883D02*
X26086D01*
X33807Y21361D02*
X34011D01*
X32436D02*
X33249D01*
X31572D02*
X31852D01*
X30683D02*
X31471D01*
X29693D02*
X29972D01*
X28448D02*
X29134D01*
X26619D02*
X27864D01*
X25883D02*
X26086D01*
X33807Y21387D02*
X34011D01*
X32436D02*
X33274D01*
X31547D02*
X31852D01*
X30658D02*
X31496D01*
X29693D02*
X29947D01*
X28448D02*
X29134D01*
X26619D02*
X27864D01*
X25883D02*
X26086D01*
X33807Y21412D02*
X34011D01*
X32436D02*
X33274D01*
X31547D02*
X31877D01*
X30632D02*
X31521D01*
X29693D02*
X29947D01*
X28448D02*
X29134D01*
X26619D02*
X27864D01*
X25883D02*
X26086D01*
X33807Y21438D02*
X34011D01*
X32436D02*
X33274D01*
X30632D02*
X31877D01*
X29693D02*
X29921D01*
X28448D02*
X29134D01*
X26619D02*
X27864D01*
X25908D02*
X26086D01*
X33807Y21463D02*
X34011D01*
X32436D02*
X33274D01*
X30607D02*
X31877D01*
X29693D02*
X29896D01*
X28448D02*
X29134D01*
X26619D02*
X27864D01*
X25908D02*
X26111D01*
X33807Y21488D02*
X34011D01*
X32436D02*
X33274D01*
X30582D02*
X31877D01*
X29693D02*
X29870D01*
X28448D02*
X29134D01*
X26645D02*
X27864D01*
X25908D02*
X26111D01*
X33807Y21514D02*
X34011D01*
X32436D02*
X33274D01*
X30556D02*
X31877D01*
X29693D02*
X29870D01*
X28448D02*
X29134D01*
X26645D02*
X27864D01*
X25908D02*
X26111D01*
X33833Y21539D02*
X34011D01*
X32436D02*
X33274D01*
X30531D02*
X31877D01*
X29693D02*
X29845D01*
X28448D02*
X29134D01*
X26645D02*
X27864D01*
X25908D02*
X26111D01*
X33833Y21565D02*
X34036D01*
X32436D02*
X33274D01*
X30531D02*
X31877D01*
X29693D02*
X29820D01*
X28448D02*
X29134D01*
X26645D02*
X27864D01*
X25908D02*
X26111D01*
X33833Y21590D02*
X34036D01*
X32436D02*
X33299D01*
X30505D02*
X31877D01*
X29693D02*
X29794D01*
X28448D02*
X29134D01*
X26645D02*
X27864D01*
X25908D02*
X26111D01*
X33833Y21615D02*
X34036D01*
X32436D02*
X33299D01*
X30480D02*
X31877D01*
X29693D02*
X29794D01*
X28448D02*
X29134D01*
X26645D02*
X27864D01*
X25908D02*
X26111D01*
X33833Y21641D02*
X34036D01*
X32436D02*
X33299D01*
X30455D02*
X31877D01*
X29693D02*
X29769D01*
X28448D02*
X29134D01*
X26645D02*
X27864D01*
X25933D02*
X26111D01*
X33833Y21666D02*
X34036D01*
X32436D02*
X33299D01*
X30429D02*
X31877D01*
X29693D02*
X29743D01*
X28448D02*
X29134D01*
X26645D02*
X27864D01*
X25933D02*
X26137D01*
X33833Y21692D02*
X34036D01*
X32436D02*
X33299D01*
X30429D02*
X31877D01*
X29693D02*
X29718D01*
X28448D02*
X29134D01*
X26670D02*
X27864D01*
X25933D02*
X26137D01*
X33833Y21717D02*
X34036D01*
X32436D02*
X33299D01*
X30404D02*
X31877D01*
X28448D02*
X29134D01*
X26670D02*
X27864D01*
X25933D02*
X26137D01*
X33858Y21742D02*
X34036D01*
X32436D02*
X33299D01*
X30378D02*
X31877D01*
X28448D02*
X29134D01*
X26670D02*
X27864D01*
X25933D02*
X26137D01*
X33858Y21768D02*
X34061D01*
X32436D02*
X33299D01*
X30353D02*
X31877D01*
X28448D02*
X29134D01*
X26670D02*
X27864D01*
X25933D02*
X26137D01*
X33858Y21793D02*
X34061D01*
X32436D02*
X33299D01*
X30328D02*
X31877D01*
X28448D02*
X29134D01*
X26670D02*
X27864D01*
X25933D02*
X26137D01*
X33858Y21819D02*
X34061D01*
X32436D02*
X33325D01*
X30302D02*
X31877D01*
X28448D02*
X29134D01*
X26670D02*
X27864D01*
X25933D02*
X26137D01*
X33858Y21844D02*
X34061D01*
X32436D02*
X33325D01*
X30302D02*
X31877D01*
X28448D02*
X29134D01*
X26670D02*
X27864D01*
X25959D02*
X26137D01*
X33858Y21869D02*
X34061D01*
X32436D02*
X33325D01*
X30277D02*
X31877D01*
X28448D02*
X29134D01*
X26670D02*
X27864D01*
X25959D02*
X26162D01*
X33858Y21895D02*
X34061D01*
X32436D02*
X33325D01*
X30251D02*
X31877D01*
X28448D02*
X29134D01*
X26670D02*
X27864D01*
X25959D02*
X26162D01*
X33858Y21920D02*
X34061D01*
X32436D02*
X33325D01*
X30226D02*
X31877D01*
X28448D02*
X29134D01*
X26670D02*
X27864D01*
X25959D02*
X26162D01*
X33884Y21946D02*
X34061D01*
X32436D02*
X33325D01*
X30226D02*
X31877D01*
X28448D02*
X29134D01*
X26695D02*
X27864D01*
X25959D02*
X26162D01*
X33884Y21971D02*
X34087D01*
X32436D02*
X33350D01*
X30251D02*
X31877D01*
X28448D02*
X29134D01*
X26695D02*
X27864D01*
X25959D02*
X26162D01*
X33884Y21996D02*
X34087D01*
X32436D02*
X33350D01*
X30251D02*
X31877D01*
X28448D02*
X29134D01*
X26695D02*
X27864D01*
X25959D02*
X26162D01*
X33884Y22022D02*
X34087D01*
X32436D02*
X33350D01*
X30277D02*
X31877D01*
X28448D02*
X29134D01*
X26695D02*
X27864D01*
X25959D02*
X26162D01*
X33884Y22047D02*
X34087D01*
X32436D02*
X33350D01*
X30302D02*
X31877D01*
X28448D02*
X29134D01*
X26695D02*
X27864D01*
X25984D02*
X26162D01*
X33884Y22073D02*
X34087D01*
X32436D02*
X33350D01*
X30328D02*
X31877D01*
X28448D02*
X29134D01*
X26695D02*
X27864D01*
X25984D02*
X26162D01*
X33884Y22098D02*
X34087D01*
X32436D02*
X33350D01*
X30353D02*
X31877D01*
X28448D02*
X29134D01*
X26721D02*
X27864D01*
X25984D02*
X26187D01*
X33884Y22123D02*
X34087D01*
X32436D02*
X33350D01*
X30378D02*
X31877D01*
X29693D02*
X29718D01*
X28448D02*
X29134D01*
X26721D02*
X27864D01*
X25984D02*
X26187D01*
X33909Y22149D02*
X34087D01*
X32436D02*
X33350D01*
X30378D02*
X31877D01*
X29693D02*
X29743D01*
X28448D02*
X29134D01*
X26721D02*
X27864D01*
X25984D02*
X26187D01*
X33909Y22174D02*
X34112D01*
X32436D02*
X33350D01*
X30404D02*
X31877D01*
X29693D02*
X29769D01*
X28448D02*
X29134D01*
X26721D02*
X27864D01*
X25984D02*
X26187D01*
X33909Y22200D02*
X34112D01*
X32436D02*
X33376D01*
X30429D02*
X31877D01*
X29693D02*
X29794D01*
X28448D02*
X29134D01*
X26721D02*
X27864D01*
X25984D02*
X26187D01*
X33909Y22225D02*
X34112D01*
X32436D02*
X33376D01*
X30455D02*
X31877D01*
X29693D02*
X29794D01*
X28448D02*
X29134D01*
X26721D02*
X27864D01*
X25984D02*
X26187D01*
X33909Y22250D02*
X34112D01*
X32436D02*
X33376D01*
X30480D02*
X31877D01*
X29693D02*
X29820D01*
X28448D02*
X29134D01*
X26721D02*
X27864D01*
X26010D02*
X26187D01*
X33909Y22276D02*
X34112D01*
X32436D02*
X33376D01*
X30505D02*
X31877D01*
X29693D02*
X29845D01*
X28448D02*
X29134D01*
X26721D02*
X27864D01*
X26010D02*
X26187D01*
X33909Y22301D02*
X34112D01*
X32436D02*
X33376D01*
X30505D02*
X31877D01*
X29693D02*
X29870D01*
X28448D02*
X29134D01*
X26721D02*
X27864D01*
X26010D02*
X26213D01*
X33909Y22327D02*
X34112D01*
X32436D02*
X33376D01*
X30531D02*
X31877D01*
X29693D02*
X29870D01*
X28448D02*
X29134D01*
X26746D02*
X27864D01*
X26010D02*
X26213D01*
X33934Y22352D02*
X34112D01*
X32436D02*
X33376D01*
X30556D02*
X31877D01*
X29693D02*
X29896D01*
X28448D02*
X29134D01*
X26746D02*
X27864D01*
X26010D02*
X26213D01*
X33934Y22377D02*
X34112D01*
X32436D02*
X33376D01*
X30582D02*
X31877D01*
X29693D02*
X29921D01*
X28448D02*
X29134D01*
X26746D02*
X27864D01*
X26010D02*
X26213D01*
X33934Y22403D02*
X34138D01*
X32436D02*
X33401D01*
X30607D02*
X31877D01*
X29693D02*
X29947D01*
X28448D02*
X29134D01*
X26746D02*
X27864D01*
X26010D02*
X26213D01*
X33934Y22428D02*
X34138D01*
X32436D02*
X33401D01*
X30632D02*
X31877D01*
X29693D02*
X29972D01*
X28448D02*
X29134D01*
X26746D02*
X27864D01*
X26010D02*
X26213D01*
X33934Y22454D02*
X34138D01*
X32436D02*
X33401D01*
X30632D02*
X31877D01*
X29693D02*
X29972D01*
X28448D02*
X29134D01*
X26746D02*
X27864D01*
X26010D02*
X26213D01*
X33934Y22479D02*
X34138D01*
X32436D02*
X33401D01*
X30658D02*
X31877D01*
X29693D02*
X29997D01*
X28448D02*
X29134D01*
X26746D02*
X27864D01*
X26035D02*
X26213D01*
X33934Y22504D02*
X34138D01*
X32436D02*
X33401D01*
X30683D02*
X31877D01*
X29693D02*
X30023D01*
X28905D02*
X29134D01*
X26746D02*
X27407D01*
X26035D02*
X26238D01*
X33934Y22530D02*
X34138D01*
X32436D02*
X33401D01*
X30709D02*
X31877D01*
X29693D02*
X30048D01*
X28905D02*
X29134D01*
X26746D02*
X27407D01*
X26035D02*
X26238D01*
X33960Y22555D02*
X34138D01*
X32436D02*
X33426D01*
X30734D02*
X31877D01*
X29693D02*
X30048D01*
X28905D02*
X29134D01*
X26772D02*
X27407D01*
X26035D02*
X26238D01*
X33960Y22581D02*
X34138D01*
X32436D02*
X33426D01*
X30734D02*
X31877D01*
X29693D02*
X30074D01*
X28905D02*
X29134D01*
X26772D02*
X27407D01*
X26035D02*
X26238D01*
X33960Y22606D02*
X34163D01*
X32436D02*
X33426D01*
X30759D02*
X31877D01*
X29693D02*
X30099D01*
X28905D02*
X29134D01*
X26772D02*
X27407D01*
X26035D02*
X26238D01*
X33960Y22631D02*
X34163D01*
X32436D02*
X33426D01*
X30785D02*
X31877D01*
X29693D02*
X30124D01*
X28905D02*
X29134D01*
X26772D02*
X27407D01*
X26035D02*
X26238D01*
X33960Y22657D02*
X34163D01*
X32436D02*
X33426D01*
X30810D02*
X31877D01*
X29693D02*
X30124D01*
X28905D02*
X29134D01*
X26772D02*
X27407D01*
X26035D02*
X26238D01*
X33960Y22682D02*
X34163D01*
X32436D02*
X33426D01*
X30836D02*
X31877D01*
X29693D02*
X30150D01*
X28905D02*
X29134D01*
X26772D02*
X27407D01*
X26060D02*
X26238D01*
X33960Y22708D02*
X34163D01*
X32436D02*
X33426D01*
X30861D02*
X31877D01*
X29693D02*
X30175D01*
X28905D02*
X29134D01*
X26772D02*
X27407D01*
X26060D02*
X26264D01*
X33960Y22733D02*
X34163D01*
X32436D02*
X33426D01*
X30861D02*
X31877D01*
X29693D02*
X30201D01*
X28905D02*
X29134D01*
X26772D02*
X27407D01*
X26060D02*
X26264D01*
X33960Y22758D02*
X34163D01*
X32436D02*
X33426D01*
X30886D02*
X31877D01*
X29693D02*
X30201D01*
X28905D02*
X29134D01*
X26772D02*
X27407D01*
X26060D02*
X26264D01*
X33985Y22784D02*
X34163D01*
X32436D02*
X33426D01*
X30912D02*
X31877D01*
X29693D02*
X30226D01*
X28905D02*
X29134D01*
X26797D02*
X27407D01*
X26060D02*
X26264D01*
X33985Y22809D02*
X34188D01*
X32436D02*
X33452D01*
X30937D02*
X31877D01*
X29693D02*
X30251D01*
X28905D02*
X29134D01*
X26797D02*
X27407D01*
X26060D02*
X26264D01*
X33985Y22835D02*
X34188D01*
X32436D02*
X33452D01*
X30963D02*
X31877D01*
X29693D02*
X30277D01*
X28905D02*
X29134D01*
X26797D02*
X27407D01*
X26060D02*
X26264D01*
X33985Y22860D02*
X34188D01*
X32436D02*
X33452D01*
X30988D02*
X31877D01*
X29693D02*
X30277D01*
X28905D02*
X29134D01*
X26797D02*
X27407D01*
X26060D02*
X26264D01*
X33985Y22885D02*
X34188D01*
X32436D02*
X33452D01*
X30988D02*
X31877D01*
X29693D02*
X30302D01*
X28905D02*
X29134D01*
X26797D02*
X27407D01*
X26086D02*
X26264D01*
X33985Y22911D02*
X34188D01*
X32436D02*
X33452D01*
X31013D02*
X31877D01*
X29693D02*
X30328D01*
X28905D02*
X29134D01*
X26797D02*
X27407D01*
X26086D02*
X26289D01*
X33985Y22936D02*
X34188D01*
X32436D02*
X33452D01*
X31039D02*
X31877D01*
X29693D02*
X30353D01*
X28905D02*
X29134D01*
X26797D02*
X27407D01*
X26086D02*
X26289D01*
X33985Y22962D02*
X34188D01*
X32436D02*
X33452D01*
X26797D02*
X31877D01*
X26086D02*
X26289D01*
X34011Y22987D02*
X34188D01*
X26797D02*
X33477D01*
X26086D02*
X26289D01*
X34011Y23012D02*
X34214D01*
X26822D02*
X33477D01*
X26086D02*
X26289D01*
X34011Y23038D02*
X34214D01*
X26822D02*
X33477D01*
X26086D02*
X26289D01*
X34011Y23063D02*
X34214D01*
X26822D02*
X33477D01*
X26086D02*
X26289D01*
X34011Y23089D02*
X34214D01*
X26822D02*
X33477D01*
X26111D02*
X26289D01*
X34011Y23114D02*
X34214D01*
X26822D02*
X33477D01*
X26111D02*
X26314D01*
X34011Y23139D02*
X34214D01*
X26822D02*
X33477D01*
X26111D02*
X26314D01*
X34011Y23165D02*
X34214D01*
X26822D02*
X33477D01*
X26111D02*
X26314D01*
X34036Y23190D02*
X34214D01*
X26822D02*
X33503D01*
X26111D02*
X26314D01*
X34036Y23216D02*
X34239D01*
X26822D02*
X33503D01*
X26111D02*
X26314D01*
X34036Y23241D02*
X34239D01*
X26822D02*
X33503D01*
X26111D02*
X26314D01*
X34036Y23266D02*
X34239D01*
X26848D02*
X33503D01*
X26111D02*
X26314D01*
X34036Y23292D02*
X34239D01*
X26848D02*
X33503D01*
X26137D02*
X26314D01*
X34036Y23317D02*
X34239D01*
X26848D02*
X33503D01*
X26137D02*
X26314D01*
X34036Y23343D02*
X34239D01*
X26848D02*
X33503D01*
X26137D02*
X26340D01*
X34036Y23368D02*
X34239D01*
X26848D02*
X33503D01*
X26137D02*
X26340D01*
X34061Y23393D02*
X34239D01*
X26848D02*
X33503D01*
X26137D02*
X26340D01*
X34061Y23419D02*
X34265D01*
X26873D02*
X33528D01*
X26137D02*
X26340D01*
X34061Y23444D02*
X34265D01*
X26873D02*
X33528D01*
X26137D02*
X26340D01*
X34061Y23470D02*
X34265D01*
X26873D02*
X33528D01*
X26137D02*
X26340D01*
X34061Y23495D02*
X34265D01*
X26873D02*
X33528D01*
X26162D02*
X26340D01*
X34061Y23520D02*
X34265D01*
X26873D02*
X33528D01*
X26162D02*
X26340D01*
X34061Y23546D02*
X34265D01*
X26873D02*
X33528D01*
X26162D02*
X26365D01*
X34061Y23571D02*
X34265D01*
X26873D02*
X33553D01*
X26162D02*
X26365D01*
X34087Y23597D02*
X34265D01*
X26873D02*
X33553D01*
X26162D02*
X26365D01*
X34087Y23622D02*
X34290D01*
X26873D02*
X33553D01*
X26162D02*
X26365D01*
X34087Y23647D02*
X34290D01*
X26873D02*
X33553D01*
X26162D02*
X26365D01*
X34087Y23673D02*
X34290D01*
X26899D02*
X33553D01*
X26162D02*
X26365D01*
X34087Y23698D02*
X34290D01*
X26899D02*
X33553D01*
X26187D02*
X26365D01*
X34087Y23724D02*
X34290D01*
X26899D02*
X33553D01*
X26187D02*
X26365D01*
X34087Y23749D02*
X34290D01*
X26899D02*
X33528D01*
X26187D02*
X26391D01*
X34087Y23774D02*
X34290D01*
X26899D02*
X33528D01*
X26187D02*
X26391D01*
X34112Y23800D02*
X34290D01*
X26899D02*
X33528D01*
X26187D02*
X26391D01*
X34112Y23825D02*
X34290D01*
X26899D02*
X33528D01*
X26187D02*
X26391D01*
X34112Y23851D02*
X34315D01*
X26899D02*
X33528D01*
X26187D02*
X26391D01*
X34112Y23876D02*
X34315D01*
X26924D02*
X33528D01*
X26187D02*
X26391D01*
X34112Y23901D02*
X34315D01*
X26924D02*
X33528D01*
X26187D02*
X26391D01*
X34112Y23927D02*
X34315D01*
X26924D02*
X33528D01*
X26213D02*
X26391D01*
X34112Y23952D02*
X34315D01*
X26924D02*
X33528D01*
X26213D02*
X26416D01*
X34112Y23978D02*
X34315D01*
X26924D02*
X33503D01*
X26213D02*
X26416D01*
X34138Y24003D02*
X34315D01*
X26924D02*
X33503D01*
X26213D02*
X26416D01*
X34138Y24028D02*
X34315D01*
X26949D02*
X33503D01*
X26213D02*
X26416D01*
X34138Y24054D02*
X34341D01*
X26949D02*
X33503D01*
X26213D02*
X26416D01*
X34138Y24079D02*
X34341D01*
X26949D02*
X33477D01*
X26213D02*
X26416D01*
X34138Y24105D02*
X34341D01*
X26949D02*
X33477D01*
X26213D02*
X26416D01*
X34138Y24130D02*
X34341D01*
X26949D02*
X33452D01*
X26238D02*
X26416D01*
X34138Y24155D02*
X34341D01*
X26949D02*
X33452D01*
X26238D02*
X26441D01*
X34138Y24181D02*
X34341D01*
X26949D02*
X33426D01*
X26238D02*
X26441D01*
X34138Y24206D02*
X34341D01*
X26949D02*
X33426D01*
X26238D02*
X26441D01*
X34163Y24232D02*
X34341D01*
X26949D02*
X33401D01*
X26238D02*
X26441D01*
X34163Y24257D02*
X34366D01*
X26949D02*
X33401D01*
X26238D02*
X26441D01*
X34163Y24282D02*
X34366D01*
X26949D02*
X33376D01*
X26238D02*
X26441D01*
X34163Y24308D02*
X34366D01*
X26975D02*
X33350D01*
X26238D02*
X26441D01*
X34163Y24333D02*
X34366D01*
X26975D02*
X33350D01*
X26264D02*
X26441D01*
X34163Y24359D02*
X34366D01*
X26975D02*
X33325D01*
X26264D02*
X26467D01*
X34163Y24384D02*
X34366D01*
X26975D02*
X33299D01*
X26264D02*
X26467D01*
X34163Y24409D02*
X34366D01*
X26975D02*
X33274D01*
X26264D02*
X26467D01*
X34188Y24435D02*
X34366D01*
X26975D02*
X33249D01*
X26264D02*
X26467D01*
X34188Y24460D02*
X34392D01*
X26975D02*
X33223D01*
X26264D02*
X26467D01*
X34188Y24486D02*
X34392D01*
X27000D02*
X33198D01*
X26264D02*
X26467D01*
X34188Y24511D02*
X34392D01*
X27000D02*
X33172D01*
X26264D02*
X26467D01*
X34188Y24536D02*
X34392D01*
X27000D02*
X33147D01*
X26289D02*
X26467D01*
X34188Y24562D02*
X34392D01*
X27000D02*
X33122D01*
X26289D02*
X26492D01*
X34188Y24587D02*
X34392D01*
X27026D02*
X33071D01*
X26289D02*
X26492D01*
X34188Y24613D02*
X34392D01*
X27026D02*
X33020D01*
X26289D02*
X26492D01*
X34214Y24638D02*
X34392D01*
X27026D02*
X32995D01*
X26289D02*
X26492D01*
X34214Y24663D02*
X34417D01*
X27026D02*
X32918D01*
X26289D02*
X26492D01*
X34214Y24689D02*
X34417D01*
X27051D02*
X32868D01*
X26289D02*
X26492D01*
X34214Y24714D02*
X34417D01*
X27051D02*
X32817D01*
X26289D02*
X26492D01*
X34214Y24740D02*
X34417D01*
X27076D02*
X32664D01*
X26314D02*
X26492D01*
X34214Y24765D02*
X34417D01*
X27102D02*
X32537D01*
X26314D02*
X26492D01*
X34214Y24790D02*
X34417D01*
X27102D02*
X32334D01*
X26314D02*
X26518D01*
X34214Y24816D02*
X34417D01*
X27102D02*
X32106D01*
X26314D02*
X26518D01*
X34239Y24841D02*
X34417D01*
X27127D02*
X31902D01*
X26314D02*
X26518D01*
X34239Y24867D02*
X34442D01*
X27153D02*
X31699D01*
X26314D02*
X26518D01*
X34239Y24892D02*
X34442D01*
X27178D02*
X31471D01*
X26314D02*
X26518D01*
X34239Y24917D02*
X34442D01*
X27178D02*
X31318D01*
X26314D02*
X26518D01*
X34239Y24943D02*
X34442D01*
X27203D02*
X31115D01*
X26340D02*
X26518D01*
X34239Y24968D02*
X34442D01*
X27229D02*
X30886D01*
X26340D02*
X26518D01*
X34239Y24994D02*
X34442D01*
X27254D02*
X30734D01*
X26340D02*
X26543D01*
X34239Y25019D02*
X34442D01*
X27280D02*
X30480D01*
X26340D02*
X26543D01*
X34265Y25044D02*
X34442D01*
X27305D02*
X30277D01*
X26340D02*
X26543D01*
X34265Y25070D02*
X34442D01*
X27330D02*
X30099D01*
X26340D02*
X26543D01*
X34061Y25095D02*
X34468D01*
X27356D02*
X29896D01*
X26340D02*
X26543D01*
X33858Y25121D02*
X34468D01*
X27407D02*
X29667D01*
X26340D02*
X26543D01*
X33655Y25146D02*
X34468D01*
X27432D02*
X29515D01*
X26340D02*
X26543D01*
X33452Y25171D02*
X34468D01*
X27483D02*
X29286D01*
X26365D02*
X26543D01*
X33223Y25197D02*
X34442D01*
X27508D02*
X29108D01*
X26365D02*
X26568D01*
X33020Y25222D02*
X34442D01*
X27559D02*
X28931D01*
X26365D02*
X26568D01*
X32817Y25248D02*
X34392D01*
X27635D02*
X28677D01*
X26365D02*
X26568D01*
X32614Y25273D02*
X34239D01*
X27711D02*
X28473D01*
X26365D02*
X26568D01*
X32410Y25298D02*
X34036D01*
X27788D02*
X28270D01*
X26365D02*
X26568D01*
X32207Y25324D02*
X33833D01*
X26365D02*
X26568D01*
X32004Y25349D02*
X33630D01*
X26365D02*
X26568D01*
X31775Y25375D02*
X33426D01*
X26391D02*
X26568D01*
X31572Y25400D02*
X33223D01*
X26391D02*
X26594D01*
X31369Y25425D02*
X33020D01*
X26391D02*
X26594D01*
X31166Y25451D02*
X32791D01*
X26391D02*
X26594D01*
X30963Y25476D02*
X32588D01*
X26391D02*
X26594D01*
X30759Y25502D02*
X32385D01*
X26391D02*
X26594D01*
X30531Y25527D02*
X32182D01*
X26391D02*
X26594D01*
X30328Y25552D02*
X31979D01*
X26391D02*
X26594D01*
X30124Y25578D02*
X31775D01*
X26416D02*
X26594D01*
X29921Y25603D02*
X31547D01*
X26416D02*
X26619D01*
X29718Y25629D02*
X31344D01*
X26416D02*
X26619D01*
X29515Y25654D02*
X31140D01*
X26416D02*
X26619D01*
X29312Y25679D02*
X30937D01*
X26416D02*
X26619D01*
X29083Y25705D02*
X30734D01*
X26416D02*
X26619D01*
X28880Y25730D02*
X30531D01*
X26416D02*
X26619D01*
X28677Y25756D02*
X30302D01*
X26416D02*
X26619D01*
X28473Y25781D02*
X30099D01*
X26441D02*
X26619D01*
X28270Y25806D02*
X29896D01*
X26441D02*
X26645D01*
X28067Y25832D02*
X29693D01*
X26441D02*
X26645D01*
X27838Y25857D02*
X29489D01*
X26441D02*
X26645D01*
X27635Y25883D02*
X29286D01*
X26441D02*
X26645D01*
X27432Y25908D02*
X29083D01*
X26441D02*
X26645D01*
X27229Y25933D02*
X28854D01*
X26441D02*
X26645D01*
X27026Y25959D02*
X28651D01*
X26441D02*
X26645D01*
X26822Y25984D02*
X28448D01*
X26467D02*
X26645D01*
X26467Y26010D02*
X28245D01*
X26467Y26035D02*
X28042D01*
X26467Y26060D02*
X27838D01*
X26467Y26086D02*
X27610D01*
X26467Y26111D02*
X27407D01*
X26492Y26137D02*
X27203D01*
X26492Y26162D02*
X27000D01*
X26518Y26187D02*
X26797D01*
D108*
X56Y38060D02*
X7656D01*
X56Y28060D02*
X7656D01*
X834Y10890D02*
X9834D01*
X834Y26490D02*
X9834D01*
X10200Y56D02*
Y7656D01*
X20200Y56D02*
Y7656D01*
D109*
X15922Y26136D02*
Y29261D01*
Y26136D02*
X23072D01*
X19133Y27686D02*
Y28321D01*
X15922Y29261D02*
X23072D01*
Y26136D02*
Y29261D01*
X19133Y27051D02*
Y27686D01*
Y28321D02*
X19768Y27686D01*
X19133Y27051D02*
X19768Y27686D01*
X18809Y35704D02*
X19444D01*
X18809Y36339D02*
X19444Y35704D01*
X18174D02*
X18809D01*
X18174D02*
X18809Y36339D01*
X20777Y43663D02*
Y47066D01*
Y43663D02*
X22149D01*
X20777Y47066D02*
X22149D01*
Y43663D02*
Y47066D01*
X79134Y30006D02*
X79769D01*
X79134D02*
X79769Y29371D01*
Y30006D02*
X80404D01*
X79769Y29371D02*
X80404Y30006D01*
X80772Y2286D02*
X81407D01*
X80772D02*
Y2921D01*
X81407Y2286D02*
X88392D01*
X80772Y2921D02*
X81407Y2286D01*
X80772Y2921D02*
Y4826D01*
X88392D01*
Y2286D02*
Y4826D01*
D110*
X20372Y26361D02*
Y29036D01*
X92288Y32064D02*
X94488D01*
X92288Y39564D02*
X94488D01*
X21057Y45136D02*
X21857Y45136D01*
X21463Y45204D02*
X21863Y45604D01*
X21063Y45604D02*
X21463Y45204D01*
X21263Y45404D02*
X21663D01*
X21063Y45604D02*
X21863Y45604D01*
X32210Y42342D02*
Y45542D01*
Y42342D02*
X38910D01*
X32210Y45542D02*
X38910D01*
Y42342D02*
Y45542D01*
X26894Y39471D02*
Y39521D01*
Y42521D02*
Y42571D01*
Y39471D02*
X29519D01*
Y39521D01*
X26894Y42571D02*
X29494D01*
Y42521D02*
Y42571D01*
X35742Y19711D02*
Y22911D01*
X45742D01*
X35742Y19711D02*
X45742D01*
Y22911D01*
X66547Y25526D02*
Y31726D01*
Y25526D02*
X72747D01*
X66547Y31726D02*
X72747D01*
Y25526D02*
Y31726D01*
X91622Y17504D02*
X95322D01*
X91622Y21104D02*
X95322D01*
X18214Y19124D02*
X18714D01*
Y19624D01*
X18214Y23124D02*
X18714D01*
Y22624D02*
Y23124D01*
X14314Y22624D02*
Y23124D01*
X14814D01*
X14314Y19124D02*
X14814D01*
X14314Y19124D02*
Y19624D01*
X20908Y18245D02*
Y17579D01*
X21241Y17245D01*
X21574Y17579D01*
Y18245D01*
X21907Y17245D02*
X22240D01*
X22074D01*
Y18245D01*
X21907Y18078D01*
X22740Y17245D02*
Y17412D01*
X22907D01*
Y17245D01*
X22740D01*
X23573Y18078D02*
X23740Y18245D01*
X24073D01*
X24240Y18078D01*
Y17412D01*
X24073Y17245D01*
X23740D01*
X23573Y17412D01*
Y18078D01*
X21494Y16454D02*
X21328Y16621D01*
X20995D01*
X20828Y16454D01*
Y16287D01*
X20995Y16121D01*
X21328D01*
X21494Y15954D01*
Y15788D01*
X21328Y15621D01*
X20995D01*
X20828Y15788D01*
X22328Y15621D02*
X21994D01*
X21828Y15788D01*
Y16121D01*
X21994Y16287D01*
X22328D01*
X22494Y16121D01*
Y15954D01*
X21828D01*
X22827Y15288D02*
Y16287D01*
X23327D01*
X23494Y16121D01*
Y15788D01*
X23327Y15621D01*
X22827D01*
X23994Y16454D02*
Y16287D01*
X23827D01*
X24160D01*
X23994D01*
Y15788D01*
X24160Y15621D01*
X25160D02*
X24827D01*
X24660Y15788D01*
Y16121D01*
X24827Y16287D01*
X25160D01*
X25327Y16121D01*
Y15954D01*
X24660D01*
X25660Y15621D02*
Y16287D01*
X25826D01*
X25993Y16121D01*
Y15621D01*
Y16121D01*
X26160Y16287D01*
X26326Y16121D01*
Y15621D01*
X26659Y16621D02*
Y15621D01*
X27159D01*
X27326Y15788D01*
Y15954D01*
Y16121D01*
X27159Y16287D01*
X26659D01*
X28159Y15621D02*
X27826D01*
X27659Y15788D01*
Y16121D01*
X27826Y16287D01*
X28159D01*
X28326Y16121D01*
Y15954D01*
X27659D01*
X28659Y16287D02*
Y15621D01*
Y15954D01*
X28825Y16121D01*
X28992Y16287D01*
X29159D01*
X31325Y15621D02*
X30658D01*
X31325Y16287D01*
Y16454D01*
X31158Y16621D01*
X30825D01*
X30658Y16454D01*
X31658D02*
X31824Y16621D01*
X32158D01*
X32324Y16454D01*
Y15788D01*
X32158Y15621D01*
X31824D01*
X31658Y15788D01*
Y16454D01*
X32658Y15621D02*
X32991D01*
X32824D01*
Y16621D01*
X32658Y16454D01*
X33491Y15788D02*
X33657Y15621D01*
X33990D01*
X34157Y15788D01*
Y16454D01*
X33990Y16621D01*
X33657D01*
X33491Y16454D01*
Y16287D01*
X33657Y16121D01*
X34157D01*
X21474Y14337D02*
X20974D01*
X20808Y14170D01*
Y13837D01*
X20974Y13670D01*
X21474D01*
X22807Y14670D02*
X23473D01*
X23140D01*
Y13670D01*
X23807Y14670D02*
Y13670D01*
Y14004D01*
X24473Y14670D01*
X23973Y14170D01*
X24473Y13670D01*
X25473Y14670D02*
X25140D01*
X25306D01*
Y13837D01*
X25140Y13670D01*
X24973D01*
X24806Y13837D01*
X27472Y14670D02*
X26806D01*
Y13670D01*
X27472D01*
X26806Y14170D02*
X27139D01*
X27805Y13670D02*
X28139D01*
X27972D01*
Y14670D01*
X27805D01*
X29138Y13670D02*
X28805D01*
X28638Y13837D01*
Y14170D01*
X28805Y14337D01*
X29138D01*
X29305Y14170D01*
Y14004D01*
X28638D01*
X30305Y14337D02*
X29805D01*
X29638Y14170D01*
Y13837D01*
X29805Y13670D01*
X30305D01*
X30804Y14503D02*
Y14337D01*
X30638D01*
X30971D01*
X30804D01*
Y13837D01*
X30971Y13670D01*
X31471Y14337D02*
Y13670D01*
Y14004D01*
X31637Y14170D01*
X31804Y14337D01*
X31971D01*
X32637Y13670D02*
X32970D01*
X33137Y13837D01*
Y14170D01*
X32970Y14337D01*
X32637D01*
X32471Y14170D01*
Y13837D01*
X32637Y13670D01*
X33470D02*
Y14337D01*
X33970D01*
X34137Y14170D01*
Y13670D01*
X34470D02*
X34803D01*
X34636D01*
Y14337D01*
X34470D01*
X35969D02*
X35470D01*
X35303Y14170D01*
Y13837D01*
X35470Y13670D01*
X35969D01*
X36303D02*
X36802D01*
X36969Y13837D01*
X36802Y14004D01*
X36469D01*
X36303Y14170D01*
X36469Y14337D01*
X36969D01*
D111*
X80518Y22733D02*
X84328D01*
Y18923D02*
Y22733D01*
X80518Y18923D02*
X84328D01*
X80518D02*
Y22733D01*
X84328Y21463D02*
X86284Y22784D01*
X79629Y6604D02*
Y18415D01*
Y6604D02*
X83439D01*
Y18415D01*
X79629D02*
X83439D01*
X79883D02*
Y23373D01*
X82402Y28687D01*
D112*
X9525Y38925D02*
Y39687D01*
X9334Y39878D01*
X8953D01*
X8763Y39687D01*
Y38925D01*
X8953Y38735D01*
X9334D01*
X9144Y39116D02*
X9525Y38735D01*
X9334D02*
X9525Y38925D01*
X9906Y38735D02*
X10287D01*
X10096D01*
Y39878D01*
X9906Y39687D01*
X15291Y17018D02*
Y16065D01*
X15481Y15875D01*
X15862D01*
X16053Y16065D01*
Y17018D01*
X17195D02*
X16433D01*
Y16446D01*
X16814Y16637D01*
X17005D01*
X17195Y16446D01*
Y16065D01*
X17005Y15875D01*
X16624D01*
X16433Y16065D01*
X83820Y39687D02*
X83629Y39878D01*
X83248D01*
X83058Y39687D01*
Y38925D01*
X83248Y38735D01*
X83629D01*
X83820Y38925D01*
X84201Y39687D02*
X84391Y39878D01*
X84772D01*
X84962Y39687D01*
Y39497D01*
X84772Y39306D01*
X84582D01*
X84772D01*
X84962Y39116D01*
Y38925D01*
X84772Y38735D01*
X84391D01*
X84201Y38925D01*
X86105Y39878D02*
X85724Y39687D01*
X85343Y39306D01*
Y38925D01*
X85534Y38735D01*
X85915D01*
X86105Y38925D01*
Y39116D01*
X85915Y39306D01*
X85343D01*
X88138Y5080D02*
Y6223D01*
X88709D01*
X88900Y6032D01*
Y5651D01*
X88709Y5461D01*
X88138D01*
X88519D02*
X88900Y5080D01*
X89281Y6032D02*
X89471Y6223D01*
X89852D01*
X90042Y6032D01*
Y5842D01*
X89852Y5651D01*
X89662D01*
X89852D01*
X90042Y5461D01*
Y5270D01*
X89852Y5080D01*
X89471D01*
X89281Y5270D01*
X90995Y5080D02*
Y6223D01*
X90423Y5651D01*
X91185D01*
X77978Y5080D02*
Y6223D01*
X78549D01*
X78740Y6032D01*
Y5651D01*
X78549Y5461D01*
X77978D01*
X78359D02*
X78740Y5080D01*
X79121Y6032D02*
X79311Y6223D01*
X79692D01*
X79882Y6032D01*
Y5842D01*
X79692Y5651D01*
X79502D01*
X79692D01*
X79882Y5461D01*
Y5270D01*
X79692Y5080D01*
X79311D01*
X79121Y5270D01*
X80263Y6032D02*
X80454Y6223D01*
X80835D01*
X81025Y6032D01*
Y5842D01*
X80835Y5651D01*
X80644D01*
X80835D01*
X81025Y5461D01*
Y5270D01*
X80835Y5080D01*
X80454D01*
X80263Y5270D01*
X90043Y4445D02*
X88900D01*
X89281D01*
X90043Y3683D01*
X89471Y4255D01*
X88900Y3683D01*
X89852Y3302D02*
X90043Y3112D01*
Y2731D01*
X89852Y2541D01*
X89662D01*
X89471Y2731D01*
Y2921D01*
Y2731D01*
X89281Y2541D01*
X89090D01*
X88900Y2731D01*
Y3112D01*
X89090Y3302D01*
X21590Y35623D02*
X21399Y35814D01*
X21018D01*
X20828Y35623D01*
Y34861D01*
X21018Y34671D01*
X21399D01*
X21590Y34861D01*
X21971Y34671D02*
X22352D01*
X22161D01*
Y35814D01*
X21971Y35623D01*
X15240Y40957D02*
X15049Y41148D01*
X14668D01*
X14478Y40957D01*
Y40195D01*
X14668Y40005D01*
X15049D01*
X15240Y40195D01*
X16382Y40005D02*
X15621D01*
X16382Y40767D01*
Y40957D01*
X16192Y41148D01*
X15811D01*
X15621Y40957D01*
X26035Y48577D02*
X25844Y48768D01*
X25463D01*
X25273Y48577D01*
Y47815D01*
X25463Y47625D01*
X25844D01*
X26035Y47815D01*
X26416Y48577D02*
X26606Y48768D01*
X26987D01*
X27177Y48577D01*
Y48387D01*
X26987Y48196D01*
X26797D01*
X26987D01*
X27177Y48006D01*
Y47815D01*
X26987Y47625D01*
X26606D01*
X26416Y47815D01*
X27368Y45847D02*
X27559Y46038D01*
Y46419D01*
X27368Y46609D01*
X26606D01*
X26416Y46419D01*
Y46038D01*
X26606Y45847D01*
X26416Y44895D02*
X27559D01*
X26987Y45466D01*
Y44705D01*
X15926Y18478D02*
X15735Y18669D01*
X15354D01*
X15164Y18478D01*
Y17716D01*
X15354Y17526D01*
X15735D01*
X15926Y17716D01*
X17068Y18669D02*
X16306D01*
Y18097D01*
X16687Y18288D01*
X16878D01*
X17068Y18097D01*
Y17716D01*
X16878Y17526D01*
X16497D01*
X16306Y17716D01*
X18567Y18478D02*
X18377Y18669D01*
X17996D01*
X17805Y18478D01*
Y17716D01*
X17996Y17526D01*
X18377D01*
X18567Y17716D01*
X19710Y18669D02*
X19329Y18478D01*
X18948Y18097D01*
Y17716D01*
X19138Y17526D01*
X19519D01*
X19710Y17716D01*
Y17907D01*
X19519Y18097D01*
X18948D01*
X28702Y48958D02*
X28511Y49149D01*
X28130D01*
X27940Y48958D01*
Y48196D01*
X28130Y48006D01*
X28511D01*
X28702Y48196D01*
X29083Y49149D02*
X29844D01*
Y48958D01*
X29083Y48196D01*
Y48006D01*
X31115Y48958D02*
X30924Y49149D01*
X30543D01*
X30353Y48958D01*
Y48196D01*
X30543Y48006D01*
X30924D01*
X31115Y48196D01*
X31496Y48958D02*
X31686Y49149D01*
X32067D01*
X32257Y48958D01*
Y48768D01*
X32067Y48577D01*
X32257Y48387D01*
Y48196D01*
X32067Y48006D01*
X31686D01*
X31496Y48196D01*
Y48387D01*
X31686Y48577D01*
X31496Y48768D01*
Y48958D01*
X31686Y48577D02*
X32067D01*
X42100Y40894D02*
X42291Y41085D01*
Y41466D01*
X42100Y41656D01*
X41338D01*
X41148Y41466D01*
Y41085D01*
X41338Y40894D01*
Y40513D02*
X41148Y40323D01*
Y39942D01*
X41338Y39752D01*
X42100D01*
X42291Y39942D01*
Y40323D01*
X42100Y40513D01*
X41910D01*
X41719Y40323D01*
Y39752D01*
X40449Y40894D02*
X40640Y41085D01*
Y41466D01*
X40449Y41656D01*
X39687D01*
X39497Y41466D01*
Y41085D01*
X39687Y40894D01*
X39497Y40513D02*
Y40132D01*
Y40323D01*
X40640D01*
X40449Y40513D01*
Y39561D02*
X40640Y39371D01*
Y38990D01*
X40449Y38799D01*
X39687D01*
X39497Y38990D01*
Y39371D01*
X39687Y39561D01*
X40449D01*
X80899Y11239D02*
X80708Y11430D01*
X80327D01*
X80137Y11239D01*
Y10477D01*
X80327Y10287D01*
X80708D01*
X80899Y10477D01*
X81280Y10287D02*
X81661D01*
X81470D01*
Y11430D01*
X81280Y11239D01*
X82232Y10287D02*
X82613D01*
X82422D01*
Y11430D01*
X82232Y11239D01*
X80899Y12890D02*
X80708Y13081D01*
X80327D01*
X80137Y12890D01*
Y12128D01*
X80327Y11938D01*
X80708D01*
X80899Y12128D01*
X81280Y11938D02*
X81661D01*
X81470D01*
Y13081D01*
X81280Y12890D01*
X82994Y11938D02*
X82232D01*
X82994Y12700D01*
Y12890D01*
X82803Y13081D01*
X82422D01*
X82232Y12890D01*
X80899Y16192D02*
X80708Y16383D01*
X80327D01*
X80137Y16192D01*
Y15430D01*
X80327Y15240D01*
X80708D01*
X80899Y15430D01*
X81280Y15240D02*
X81661D01*
X81470D01*
Y16383D01*
X81280Y16192D01*
X82232D02*
X82422Y16383D01*
X82803D01*
X82994Y16192D01*
Y16002D01*
X82803Y15811D01*
X82613D01*
X82803D01*
X82994Y15621D01*
Y15430D01*
X82803Y15240D01*
X82422D01*
X82232Y15430D01*
X80899Y17843D02*
X80708Y18034D01*
X80327D01*
X80137Y17843D01*
Y17081D01*
X80327Y16891D01*
X80708D01*
X80899Y17081D01*
X81280Y16891D02*
X81661D01*
X81470D01*
Y18034D01*
X81280Y17843D01*
X82803Y16891D02*
Y18034D01*
X82232Y17462D01*
X82994D01*
X88709Y14859D02*
X88900Y15050D01*
Y15431D01*
X88709Y15621D01*
X87947D01*
X87757Y15431D01*
Y15050D01*
X87947Y14859D01*
X87757Y14478D02*
Y14097D01*
Y14288D01*
X88900D01*
X88709Y14478D01*
X88900Y12764D02*
Y13526D01*
X88328D01*
X88519Y13145D01*
Y12955D01*
X88328Y12764D01*
X87947D01*
X87757Y12955D01*
Y13336D01*
X87947Y13526D01*
X63246Y18859D02*
X63055Y19050D01*
X62674D01*
X62484Y18859D01*
Y18097D01*
X62674Y17907D01*
X63055D01*
X63246Y18097D01*
X63627Y17907D02*
X64008D01*
X63817D01*
Y19050D01*
X63627Y18859D01*
X65341Y19050D02*
X64960Y18859D01*
X64579Y18478D01*
Y18097D01*
X64769Y17907D01*
X65150D01*
X65341Y18097D01*
Y18288D01*
X65150Y18478D01*
X64579D01*
X83629Y21463D02*
X83820Y21654D01*
Y22035D01*
X83629Y22225D01*
X82867D01*
X82677Y22035D01*
Y21654D01*
X82867Y21463D01*
X82677Y21082D02*
Y20701D01*
Y20892D01*
X83820D01*
X83629Y21082D01*
X83820Y20130D02*
Y19368D01*
X83629D01*
X82867Y20130D01*
X82677D01*
X10058Y27978D02*
X9868Y28168D01*
X9487D01*
X9296Y27978D01*
Y27216D01*
X9487Y27026D01*
X9868D01*
X10058Y27216D01*
X10439Y27026D02*
X10820D01*
X10629D01*
Y28168D01*
X10439Y27978D01*
X11391D02*
X11582Y28168D01*
X11963D01*
X12153Y27978D01*
Y27787D01*
X11963Y27597D01*
X12153Y27406D01*
Y27216D01*
X11963Y27026D01*
X11582D01*
X11391Y27216D01*
Y27406D01*
X11582Y27597D01*
X11391Y27787D01*
Y27978D01*
X11582Y27597D02*
X11963D01*
X73787Y18859D02*
X73596Y19050D01*
X73215D01*
X73025Y18859D01*
Y18097D01*
X73215Y17907D01*
X73596D01*
X73787Y18097D01*
X74168Y17907D02*
X74549D01*
X74358D01*
Y19050D01*
X74168Y18859D01*
X75120Y18097D02*
X75310Y17907D01*
X75691D01*
X75882Y18097D01*
Y18859D01*
X75691Y19050D01*
X75310D01*
X75120Y18859D01*
Y18669D01*
X75310Y18478D01*
X75882D01*
X36957Y36258D02*
X36766Y36449D01*
X36385D01*
X36195Y36258D01*
Y35496D01*
X36385Y35306D01*
X36766D01*
X36957Y35496D01*
X38099Y35306D02*
X37338D01*
X38099Y36068D01*
Y36258D01*
X37909Y36449D01*
X37528D01*
X37338Y36258D01*
X38480D02*
X38671Y36449D01*
X39052D01*
X39242Y36258D01*
Y35496D01*
X39052Y35306D01*
X38671D01*
X38480Y35496D01*
Y36258D01*
X67818Y22923D02*
X67627Y23114D01*
X67246D01*
X67056Y22923D01*
Y22161D01*
X67246Y21971D01*
X67627D01*
X67818Y22161D01*
X68960Y21971D02*
X68199D01*
X68960Y22733D01*
Y22923D01*
X68770Y23114D01*
X68389D01*
X68199Y22923D01*
X69341Y21971D02*
X69722D01*
X69532D01*
Y23114D01*
X69341Y22923D01*
X65341Y39497D02*
X65532Y39688D01*
Y40069D01*
X65341Y40259D01*
X64579D01*
X64389Y40069D01*
Y39688D01*
X64579Y39497D01*
X64389Y38355D02*
Y39116D01*
X65151Y38355D01*
X65341D01*
X65532Y38545D01*
Y38926D01*
X65341Y39116D01*
X64389Y37212D02*
Y37974D01*
X65151Y37212D01*
X65341D01*
X65532Y37402D01*
Y37783D01*
X65341Y37974D01*
X66865Y39497D02*
X67056Y39688D01*
Y40069D01*
X66865Y40259D01*
X66103D01*
X65913Y40069D01*
Y39688D01*
X66103Y39497D01*
X65913Y38355D02*
Y39116D01*
X66675Y38355D01*
X66865D01*
X67056Y38545D01*
Y38926D01*
X66865Y39116D01*
Y37974D02*
X67056Y37783D01*
Y37402D01*
X66865Y37212D01*
X66675D01*
X66484Y37402D01*
Y37593D01*
Y37402D01*
X66294Y37212D01*
X66103D01*
X65913Y37402D01*
Y37783D01*
X66103Y37974D01*
X76009Y36322D02*
X76200Y36513D01*
Y36894D01*
X76009Y37084D01*
X75247D01*
X75057Y36894D01*
Y36513D01*
X75247Y36322D01*
X75057Y35180D02*
Y35941D01*
X75819Y35180D01*
X76009D01*
X76200Y35370D01*
Y35751D01*
X76009Y35941D01*
X75057Y34227D02*
X76200D01*
X75628Y34799D01*
Y34037D01*
X77533Y36322D02*
X77724Y36513D01*
Y36894D01*
X77533Y37084D01*
X76771D01*
X76581Y36894D01*
Y36513D01*
X76771Y36322D01*
X76581Y35180D02*
Y35941D01*
X77343Y35180D01*
X77533D01*
X77724Y35370D01*
Y35751D01*
X77533Y35941D01*
X77724Y34037D02*
Y34799D01*
X77152D01*
X77343Y34418D01*
Y34227D01*
X77152Y34037D01*
X76771D01*
X76581Y34227D01*
Y34608D01*
X76771Y34799D01*
X57404Y24701D02*
X57213Y24892D01*
X56832D01*
X56642Y24701D01*
Y23939D01*
X56832Y23749D01*
X57213D01*
X57404Y23939D01*
X58546Y23749D02*
X57785D01*
X58546Y24511D01*
Y24701D01*
X58356Y24892D01*
X57975D01*
X57785Y24701D01*
X59689Y24892D02*
X59308Y24701D01*
X58927Y24320D01*
Y23939D01*
X59118Y23749D01*
X59499D01*
X59689Y23939D01*
Y24130D01*
X59499Y24320D01*
X58927D01*
X57404Y26225D02*
X57213Y26416D01*
X56832D01*
X56642Y26225D01*
Y25463D01*
X56832Y25273D01*
X57213D01*
X57404Y25463D01*
X58546Y25273D02*
X57785D01*
X58546Y26035D01*
Y26225D01*
X58356Y26416D01*
X57975D01*
X57785Y26225D01*
X58927Y26416D02*
X59689D01*
Y26225D01*
X58927Y25463D01*
Y25273D01*
X75628Y22098D02*
X75819Y22289D01*
Y22670D01*
X75628Y22860D01*
X74866D01*
X74676Y22670D01*
Y22289D01*
X74866Y22098D01*
X74676Y20956D02*
Y21717D01*
X75438Y20956D01*
X75628D01*
X75819Y21146D01*
Y21527D01*
X75628Y21717D01*
Y20575D02*
X75819Y20384D01*
Y20003D01*
X75628Y19813D01*
X75438D01*
X75247Y20003D01*
X75057Y19813D01*
X74866D01*
X74676Y20003D01*
Y20384D01*
X74866Y20575D01*
X75057D01*
X75247Y20384D01*
X75438Y20575D01*
X75628D01*
X75247Y20384D02*
Y20003D01*
X77279Y22098D02*
X77470Y22289D01*
Y22670D01*
X77279Y22860D01*
X76517D01*
X76327Y22670D01*
Y22289D01*
X76517Y22098D01*
X76327Y20956D02*
Y21717D01*
X77089Y20956D01*
X77279D01*
X77470Y21146D01*
Y21527D01*
X77279Y21717D01*
X76517Y20575D02*
X76327Y20384D01*
Y20003D01*
X76517Y19813D01*
X77279D01*
X77470Y20003D01*
Y20384D01*
X77279Y20575D01*
X77089D01*
X76898Y20384D01*
Y19813D01*
X24003Y39687D02*
X23812Y39878D01*
X23431D01*
X23241Y39687D01*
Y38925D01*
X23431Y38735D01*
X23812D01*
X24003Y38925D01*
X24384Y39687D02*
X24574Y39878D01*
X24955D01*
X25145Y39687D01*
Y39497D01*
X24955Y39306D01*
X24765D01*
X24955D01*
X25145Y39116D01*
Y38925D01*
X24955Y38735D01*
X24574D01*
X24384Y38925D01*
X25526Y39687D02*
X25717Y39878D01*
X26098D01*
X26288Y39687D01*
Y38925D01*
X26098Y38735D01*
X25717D01*
X25526Y38925D01*
Y39687D01*
X33083Y41021D02*
X33274Y41212D01*
Y41593D01*
X33083Y41783D01*
X32321D01*
X32131Y41593D01*
Y41212D01*
X32321Y41021D01*
X33083Y40640D02*
X33274Y40450D01*
Y40069D01*
X33083Y39879D01*
X32893D01*
X32702Y40069D01*
Y40259D01*
Y40069D01*
X32512Y39879D01*
X32321D01*
X32131Y40069D01*
Y40450D01*
X32321Y40640D01*
X32131Y39498D02*
Y39117D01*
Y39307D01*
X33274D01*
X33083Y39498D01*
X32829Y32512D02*
X33020Y32703D01*
Y33084D01*
X32829Y33274D01*
X32067D01*
X31877Y33084D01*
Y32703D01*
X32067Y32512D01*
X32829Y32131D02*
X33020Y31941D01*
Y31560D01*
X32829Y31370D01*
X32639D01*
X32448Y31560D01*
Y31750D01*
Y31560D01*
X32258Y31370D01*
X32067D01*
X31877Y31560D01*
Y31941D01*
X32067Y32131D01*
X31877Y30227D02*
Y30989D01*
X32639Y30227D01*
X32829D01*
X33020Y30417D01*
Y30798D01*
X32829Y30989D01*
X36195Y8953D02*
X36004Y9144D01*
X35623D01*
X35433Y8953D01*
Y8191D01*
X35623Y8001D01*
X36004D01*
X36195Y8191D01*
X36576Y8953D02*
X36766Y9144D01*
X37147D01*
X37337Y8953D01*
Y8763D01*
X37147Y8572D01*
X36957D01*
X37147D01*
X37337Y8382D01*
Y8191D01*
X37147Y8001D01*
X36766D01*
X36576Y8191D01*
X37718Y8953D02*
X37909Y9144D01*
X38290D01*
X38480Y8953D01*
Y8763D01*
X38290Y8572D01*
X38099D01*
X38290D01*
X38480Y8382D01*
Y8191D01*
X38290Y8001D01*
X37909D01*
X37718Y8191D01*
X46355Y4889D02*
X46164Y5080D01*
X45783D01*
X45593Y4889D01*
Y4127D01*
X45783Y3937D01*
X46164D01*
X46355Y4127D01*
X46736Y4889D02*
X46926Y5080D01*
X47307D01*
X47497Y4889D01*
Y4699D01*
X47307Y4508D01*
X47117D01*
X47307D01*
X47497Y4318D01*
Y4127D01*
X47307Y3937D01*
X46926D01*
X46736Y4127D01*
X48450Y3937D02*
Y5080D01*
X47878Y4508D01*
X48640D01*
X48133Y38671D02*
X47942Y38862D01*
X47561D01*
X47371Y38671D01*
Y37909D01*
X47561Y37719D01*
X47942D01*
X48133Y37909D01*
X48514Y38671D02*
X48704Y38862D01*
X49085D01*
X49275Y38671D01*
Y38481D01*
X49085Y38290D01*
X48895D01*
X49085D01*
X49275Y38100D01*
Y37909D01*
X49085Y37719D01*
X48704D01*
X48514Y37909D01*
X50418Y38862D02*
X49656D01*
Y38290D01*
X50037Y38481D01*
X50228D01*
X50418Y38290D01*
Y37909D01*
X50228Y37719D01*
X49847D01*
X49656Y37909D01*
X96901Y18288D02*
X98044D01*
Y18859D01*
X97854Y19050D01*
X97092D01*
X96901Y18859D01*
Y18288D01*
Y20192D02*
Y19431D01*
X97473D01*
X97282Y19812D01*
Y20002D01*
X97473Y20192D01*
X97854D01*
X98044Y20002D01*
Y19621D01*
X97854Y19431D01*
X24739Y28524D02*
X23597D01*
Y27953D01*
X23787Y27762D01*
X24549D01*
X24739Y27953D01*
Y28524D01*
X23597Y26810D02*
X24739D01*
X24168Y27382D01*
Y26620D01*
X86614Y27051D02*
X85852D01*
Y26479D01*
X86233D01*
X85852D01*
Y25908D01*
X86995D02*
X87376D01*
X87185D01*
Y27051D01*
X86995Y26860D01*
X80899Y14732D02*
X80137D01*
Y14160D01*
X80518D01*
X80137D01*
Y13589D01*
X81280Y14732D02*
Y13589D01*
X81851D01*
X82041Y13779D01*
Y13970D01*
X81851Y14160D01*
X81280D01*
X81851D01*
X82041Y14351D01*
Y14541D01*
X81851Y14732D01*
X81280D01*
X82422Y13589D02*
X82803D01*
X82613D01*
Y14732D01*
X82422Y14541D01*
X79121Y22098D02*
Y22860D01*
X78549D01*
Y22479D01*
Y22860D01*
X77978D01*
X79121Y21717D02*
X77978D01*
Y21146D01*
X78168Y20956D01*
X78359D01*
X78549Y21146D01*
Y21717D01*
Y21146D01*
X78740Y20956D01*
X78930D01*
X79121Y21146D01*
Y21717D01*
X77978Y19813D02*
Y20575D01*
X78740Y19813D01*
X78930D01*
X79121Y20003D01*
Y20384D01*
X78930Y20575D01*
X90932Y42672D02*
Y43053D01*
Y42863D01*
X89979D01*
X89789Y43053D01*
Y43244D01*
X89979Y43434D01*
X89789Y42291D02*
Y41910D01*
Y42101D01*
X90932D01*
X90741Y42291D01*
X11481Y18821D02*
Y17678D01*
Y18059D01*
X12243Y18821D01*
X11671Y18250D01*
X12243Y17678D01*
X12623D02*
X13004D01*
X12814D01*
Y18821D01*
X12623Y18631D01*
X61087Y34036D02*
Y32893D01*
Y33274D01*
X61849Y34036D01*
X61277Y33464D01*
X61849Y32893D01*
X62991D02*
X62230D01*
X62991Y33655D01*
Y33845D01*
X62801Y34036D01*
X62420D01*
X62230Y33845D01*
X5893Y38608D02*
Y39751D01*
X6464D01*
X6655Y39560D01*
Y39179D01*
X6464Y38989D01*
X5893D01*
X7035Y38608D02*
X7416D01*
X7226D01*
Y39751D01*
X7035Y39560D01*
X10414Y14986D02*
X11557D01*
Y14415D01*
X11366Y14224D01*
X10985D01*
X10795Y14415D01*
Y14986D01*
X10414Y13082D02*
Y13843D01*
X11176Y13082D01*
X11366D01*
X11557Y13272D01*
Y13653D01*
X11366Y13843D01*
X73290Y43375D02*
Y44518D01*
X73862D01*
X74052Y44327D01*
Y43947D01*
X73862Y43756D01*
X73290D01*
X74433Y44327D02*
X74623Y44518D01*
X75004D01*
X75195Y44327D01*
Y44137D01*
X75004Y43947D01*
X74814D01*
X75004D01*
X75195Y43756D01*
Y43566D01*
X75004Y43375D01*
X74623D01*
X74433Y43566D01*
X42810Y43375D02*
Y44518D01*
X43382D01*
X43572Y44327D01*
Y43947D01*
X43382Y43756D01*
X42810D01*
X44524Y43375D02*
Y44518D01*
X43953Y43947D01*
X44715D01*
X58050Y43375D02*
Y44518D01*
X58622D01*
X58812Y44327D01*
Y43947D01*
X58622Y43756D01*
X58050D01*
X59955Y44518D02*
X59193D01*
Y43947D01*
X59574Y44137D01*
X59764D01*
X59955Y43947D01*
Y43566D01*
X59764Y43375D01*
X59383D01*
X59193Y43566D01*
X7747Y6350D02*
Y7493D01*
X8318D01*
X8509Y7302D01*
Y6921D01*
X8318Y6731D01*
X7747D01*
X9651Y7493D02*
X9271Y7302D01*
X8890Y6921D01*
Y6540D01*
X9080Y6350D01*
X9461D01*
X9651Y6540D01*
Y6731D01*
X9461Y6921D01*
X8890D01*
X22744Y8196D02*
Y9339D01*
X23316D01*
X23506Y9148D01*
Y8768D01*
X23316Y8577D01*
X22744D01*
X23887Y9339D02*
X24649D01*
Y9148D01*
X23887Y8387D01*
Y8196D01*
X60590Y5402D02*
Y6545D01*
X61162D01*
X61352Y6354D01*
Y5974D01*
X61162Y5783D01*
X60590D01*
X61733Y6354D02*
X61923Y6545D01*
X62304D01*
X62495Y6354D01*
Y6164D01*
X62304Y5974D01*
X62495Y5783D01*
Y5593D01*
X62304Y5402D01*
X61923D01*
X61733Y5593D01*
Y5783D01*
X61923Y5974D01*
X61733Y6164D01*
Y6354D01*
X61923Y5974D02*
X62304D01*
X25908Y46609D02*
X24765D01*
Y46038D01*
X24955Y45847D01*
X25717D01*
X25908Y46038D01*
Y46609D01*
X24765Y45466D02*
Y45085D01*
Y45276D01*
X25908D01*
X25717Y45466D01*
X17780Y32258D02*
Y31115D01*
X18351D01*
X18542Y31305D01*
Y32067D01*
X18351Y32258D01*
X17780D01*
X19684Y31115D02*
X18923D01*
X19684Y31877D01*
Y32067D01*
X19494Y32258D01*
X19113D01*
X18923Y32067D01*
X77851Y29337D02*
X76708D01*
Y28766D01*
X76898Y28575D01*
X77660D01*
X77851Y28766D01*
Y29337D01*
X77660Y28194D02*
X77851Y28004D01*
Y27623D01*
X77660Y27433D01*
X77470D01*
X77279Y27623D01*
Y27813D01*
Y27623D01*
X77089Y27433D01*
X76898D01*
X76708Y27623D01*
Y28004D01*
X76898Y28194D01*
X62444Y42029D02*
Y43172D01*
X63016D01*
X63206Y42981D01*
Y42600D01*
X63016Y42410D01*
X62444D01*
X62825D02*
X63206Y42029D01*
X63587D02*
X63968D01*
X63777D01*
Y43172D01*
X63587Y42981D01*
X66381Y42029D02*
Y43172D01*
X66953D01*
X67143Y42981D01*
Y42600D01*
X66953Y42410D01*
X66381D01*
X66762D02*
X67143Y42029D01*
X68286D02*
X67524D01*
X68286Y42791D01*
Y42981D01*
X68095Y43172D01*
X67714D01*
X67524Y42981D01*
X11481Y16027D02*
Y17170D01*
X12052D01*
X12243Y16980D01*
Y16599D01*
X12052Y16408D01*
X11481D01*
X11862D02*
X12243Y16027D01*
X12623Y16980D02*
X12814Y17170D01*
X13195D01*
X13385Y16980D01*
Y16789D01*
X13195Y16599D01*
X13004D01*
X13195D01*
X13385Y16408D01*
Y16218D01*
X13195Y16027D01*
X12814D01*
X12623Y16218D01*
X48006Y40513D02*
Y41656D01*
X48577D01*
X48768Y41465D01*
Y41084D01*
X48577Y40894D01*
X48006D01*
X48387D02*
X48768Y40513D01*
X49720D02*
Y41656D01*
X49149Y41084D01*
X49910D01*
X50800Y40513D02*
Y41656D01*
X51371D01*
X51562Y41465D01*
Y41084D01*
X51371Y40894D01*
X50800D01*
X51181D02*
X51562Y40513D01*
X52704Y41656D02*
X51943D01*
Y41084D01*
X52324Y41275D01*
X52514D01*
X52704Y41084D01*
Y40703D01*
X52514Y40513D01*
X52133D01*
X51943Y40703D01*
X15621Y34925D02*
X16764D01*
Y34354D01*
X16573Y34163D01*
X16192D01*
X16002Y34354D01*
Y34925D01*
Y34544D02*
X15621Y34163D01*
X16764Y33021D02*
X16573Y33401D01*
X16192Y33782D01*
X15811D01*
X15621Y33592D01*
Y33211D01*
X15811Y33021D01*
X16002D01*
X16192Y33211D01*
Y33782D01*
X11684Y38735D02*
Y39878D01*
X12255D01*
X12446Y39687D01*
Y39306D01*
X12255Y39116D01*
X11684D01*
X12065D02*
X12446Y38735D01*
X12827Y39878D02*
X13588D01*
Y39687D01*
X12827Y38925D01*
Y38735D01*
X80137Y8636D02*
Y9779D01*
X80708D01*
X80899Y9588D01*
Y9207D01*
X80708Y9017D01*
X80137D01*
X80518D02*
X80899Y8636D01*
X81280Y9588D02*
X81470Y9779D01*
X81851D01*
X82041Y9588D01*
Y9398D01*
X81851Y9207D01*
X82041Y9017D01*
Y8826D01*
X81851Y8636D01*
X81470D01*
X81280Y8826D01*
Y9017D01*
X81470Y9207D01*
X81280Y9398D01*
Y9588D01*
X81470Y9207D02*
X81851D01*
X86868Y38735D02*
Y39878D01*
X87439D01*
X87630Y39687D01*
Y39306D01*
X87439Y39116D01*
X86868D01*
X87249D02*
X87630Y38735D01*
X88011Y38925D02*
X88201Y38735D01*
X88582D01*
X88772Y38925D01*
Y39687D01*
X88582Y39878D01*
X88201D01*
X88011Y39687D01*
Y39497D01*
X88201Y39306D01*
X88772D01*
X80137Y6985D02*
Y8128D01*
X80708D01*
X80899Y7937D01*
Y7556D01*
X80708Y7366D01*
X80137D01*
X80518D02*
X80899Y6985D01*
X81280D02*
X81661D01*
X81470D01*
Y8128D01*
X81280Y7937D01*
X82232D02*
X82422Y8128D01*
X82803D01*
X82994Y7937D01*
Y7175D01*
X82803Y6985D01*
X82422D01*
X82232Y7175D01*
Y7937D01*
X86106Y15621D02*
X87249D01*
Y15050D01*
X87058Y14859D01*
X86677D01*
X86487Y15050D01*
Y15621D01*
Y15240D02*
X86106Y14859D01*
Y14478D02*
Y14097D01*
Y14288D01*
X87249D01*
X87058Y14478D01*
X86106Y13526D02*
Y13145D01*
Y13336D01*
X87249D01*
X87058Y13526D01*
X84963Y20320D02*
Y21463D01*
X85534D01*
X85725Y21272D01*
Y20891D01*
X85534Y20701D01*
X84963D01*
X85344D02*
X85725Y20320D01*
X86106D02*
X86487D01*
X86296D01*
Y21463D01*
X86106Y21272D01*
X87820Y20320D02*
X87058D01*
X87820Y21082D01*
Y21272D01*
X87629Y21463D01*
X87248D01*
X87058Y21272D01*
X81026Y22225D02*
X82169D01*
Y21654D01*
X81978Y21463D01*
X81597D01*
X81407Y21654D01*
Y22225D01*
Y21844D02*
X81026Y21463D01*
Y21082D02*
Y20701D01*
Y20892D01*
X82169D01*
X81978Y21082D01*
Y20130D02*
X82169Y19940D01*
Y19559D01*
X81978Y19368D01*
X81788D01*
X81597Y19559D01*
Y19749D01*
Y19559D01*
X81407Y19368D01*
X81216D01*
X81026Y19559D01*
Y19940D01*
X81216Y20130D01*
X13513Y30378D02*
Y31521D01*
X14084D01*
X14275Y31331D01*
Y30950D01*
X14084Y30759D01*
X13513D01*
X13894D02*
X14275Y30378D01*
X14655D02*
X15036D01*
X14846D01*
Y31521D01*
X14655Y31331D01*
X16179Y30378D02*
Y31521D01*
X15608Y30950D01*
X16369D01*
X84963Y18720D02*
Y19862D01*
X85534D01*
X85725Y19672D01*
Y19291D01*
X85534Y19101D01*
X84963D01*
X85344D02*
X85725Y18720D01*
X86106D02*
X86487D01*
X86296D01*
Y19862D01*
X86106Y19672D01*
X87820Y19862D02*
X87058D01*
Y19291D01*
X87439Y19482D01*
X87629D01*
X87820Y19291D01*
Y18910D01*
X87629Y18720D01*
X87248D01*
X87058Y18910D01*
X9068Y31598D02*
Y32740D01*
X9639D01*
X9830Y32550D01*
Y32169D01*
X9639Y31978D01*
X9068D01*
X9449D02*
X9830Y31598D01*
X10210D02*
X10591D01*
X10401D01*
Y32740D01*
X10210Y32550D01*
X11924Y32740D02*
X11543Y32550D01*
X11163Y32169D01*
Y31788D01*
X11353Y31598D01*
X11734D01*
X11924Y31788D01*
Y31978D01*
X11734Y32169D01*
X11163D01*
X84963Y17145D02*
Y18288D01*
X85534D01*
X85725Y18097D01*
Y17716D01*
X85534Y17526D01*
X84963D01*
X85344D02*
X85725Y17145D01*
X86106D02*
X86487D01*
X86296D01*
Y18288D01*
X86106Y18097D01*
X87058Y18288D02*
X87820D01*
Y18097D01*
X87058Y17335D01*
Y17145D01*
X31623Y11430D02*
Y12573D01*
X32194D01*
X32385Y12382D01*
Y12001D01*
X32194Y11811D01*
X31623D01*
X32004D02*
X32385Y11430D01*
X32766D02*
X33147D01*
X32956D01*
Y12573D01*
X32766Y12382D01*
X33718D02*
X33908Y12573D01*
X34289D01*
X34480Y12382D01*
Y12192D01*
X34289Y12001D01*
X34480Y11811D01*
Y11620D01*
X34289Y11430D01*
X33908D01*
X33718Y11620D01*
Y11811D01*
X33908Y12001D01*
X33718Y12192D01*
Y12382D01*
X33908Y12001D02*
X34289D01*
X54864Y8890D02*
X56007D01*
Y8319D01*
X55816Y8128D01*
X55435D01*
X55245Y8319D01*
Y8890D01*
Y8509D02*
X54864Y8128D01*
Y7747D02*
Y7366D01*
Y7557D01*
X56007D01*
X55816Y7747D01*
X55054Y6795D02*
X54864Y6605D01*
Y6224D01*
X55054Y6033D01*
X55816D01*
X56007Y6224D01*
Y6605D01*
X55816Y6795D01*
X55626D01*
X55435Y6605D01*
Y6033D01*
X54864Y33528D02*
X56007D01*
Y32957D01*
X55816Y32766D01*
X55435D01*
X55245Y32957D01*
Y33528D01*
Y33147D02*
X54864Y32766D01*
Y31624D02*
Y32385D01*
X55626Y31624D01*
X55816D01*
X56007Y31814D01*
Y32195D01*
X55816Y32385D01*
Y31243D02*
X56007Y31052D01*
Y30671D01*
X55816Y30481D01*
X55054D01*
X54864Y30671D01*
Y31052D01*
X55054Y31243D01*
X55816D01*
X54991Y26416D02*
X56134D01*
Y25845D01*
X55943Y25654D01*
X55562D01*
X55372Y25845D01*
Y26416D01*
Y26035D02*
X54991Y25654D01*
Y24512D02*
Y25273D01*
X55753Y24512D01*
X55943D01*
X56134Y24702D01*
Y25083D01*
X55943Y25273D01*
X54991Y24131D02*
Y23750D01*
Y23940D01*
X56134D01*
X55943Y24131D01*
X26797Y33274D02*
X27940D01*
Y32703D01*
X27749Y32512D01*
X27368D01*
X27178Y32703D01*
Y33274D01*
Y32893D02*
X26797Y32512D01*
Y31370D02*
Y32131D01*
X27559Y31370D01*
X27749D01*
X27940Y31560D01*
Y31941D01*
X27749Y32131D01*
X26797Y30227D02*
Y30989D01*
X27559Y30227D01*
X27749D01*
X27940Y30417D01*
Y30798D01*
X27749Y30989D01*
X28575Y33274D02*
X29718D01*
Y32703D01*
X29527Y32512D01*
X29146D01*
X28956Y32703D01*
Y33274D01*
Y32893D02*
X28575Y32512D01*
Y31370D02*
Y32131D01*
X29337Y31370D01*
X29527D01*
X29718Y31560D01*
Y31941D01*
X29527Y32131D01*
Y30989D02*
X29718Y30798D01*
Y30417D01*
X29527Y30227D01*
X29337D01*
X29146Y30417D01*
Y30608D01*
Y30417D01*
X28956Y30227D01*
X28765D01*
X28575Y30417D01*
Y30798D01*
X28765Y30989D01*
X31877Y10922D02*
X33020D01*
Y10351D01*
X32829Y10160D01*
X32448D01*
X32258Y10351D01*
Y10922D01*
Y10541D02*
X31877Y10160D01*
Y9018D02*
Y9779D01*
X32639Y9018D01*
X32829D01*
X33020Y9208D01*
Y9589D01*
X32829Y9779D01*
X31877Y8065D02*
X33020D01*
X32448Y8637D01*
Y7875D01*
X53086Y8890D02*
X54229D01*
Y8319D01*
X54038Y8128D01*
X53657D01*
X53467Y8319D01*
Y8890D01*
Y8509D02*
X53086Y8128D01*
Y6986D02*
Y7747D01*
X53848Y6986D01*
X54038D01*
X54229Y7176D01*
Y7557D01*
X54038Y7747D01*
X54229Y5843D02*
Y6605D01*
X53657D01*
X53848Y6224D01*
Y6033D01*
X53657Y5843D01*
X53276D01*
X53086Y6033D01*
Y6414D01*
X53276Y6605D01*
X30226Y33274D02*
X31369D01*
Y32703D01*
X31178Y32512D01*
X30797D01*
X30607Y32703D01*
Y33274D01*
Y32893D02*
X30226Y32512D01*
Y31370D02*
Y32131D01*
X30988Y31370D01*
X31178D01*
X31369Y31560D01*
Y31941D01*
X31178Y32131D01*
X31369Y30227D02*
X31178Y30608D01*
X30797Y30989D01*
X30416D01*
X30226Y30798D01*
Y30417D01*
X30416Y30227D01*
X30607D01*
X30797Y30417D01*
Y30989D01*
X23368Y32639D02*
Y33782D01*
X23939D01*
X24130Y33591D01*
Y33210D01*
X23939Y33020D01*
X23368D01*
X23749D02*
X24130Y32639D01*
X25272D02*
X24511D01*
X25272Y33401D01*
Y33591D01*
X25082Y33782D01*
X24701D01*
X24511Y33591D01*
X25653Y33782D02*
X26415D01*
Y33591D01*
X25653Y32829D01*
Y32639D01*
X23241Y42926D02*
Y44069D01*
X23812D01*
X24003Y43878D01*
Y43497D01*
X23812Y43307D01*
X23241D01*
X23622D02*
X24003Y42926D01*
X25145D02*
X24384D01*
X25145Y43688D01*
Y43878D01*
X24955Y44069D01*
X24574D01*
X24384Y43878D01*
X25526D02*
X25717Y44069D01*
X26098D01*
X26288Y43878D01*
Y43688D01*
X26098Y43497D01*
X26288Y43307D01*
Y43116D01*
X26098Y42926D01*
X25717D01*
X25526Y43116D01*
Y43307D01*
X25717Y43497D01*
X25526Y43688D01*
Y43878D01*
X25717Y43497D02*
X26098D01*
X91567Y8953D02*
X91376Y9144D01*
X90995D01*
X90805Y8953D01*
Y8763D01*
X90995Y8572D01*
X91376D01*
X91567Y8382D01*
Y8191D01*
X91376Y8001D01*
X90995D01*
X90805Y8191D01*
X91948Y9144D02*
Y8001D01*
X92329Y8382D01*
X92709Y8001D01*
Y9144D01*
X93090Y8001D02*
X93471D01*
X93281D01*
Y9144D01*
X93090Y8953D01*
X89090Y28702D02*
X89281Y28893D01*
Y29274D01*
X89090Y29464D01*
X88900D01*
X88709Y29274D01*
Y28893D01*
X88519Y28702D01*
X88328D01*
X88138Y28893D01*
Y29274D01*
X88328Y29464D01*
X89281Y28321D02*
X88138D01*
X88519Y27940D01*
X88138Y27560D01*
X89281D01*
X88138Y26417D02*
Y27179D01*
X88900Y26417D01*
X89090D01*
X89281Y26607D01*
Y26988D01*
X89090Y27179D01*
X7112Y42926D02*
X6159D01*
X5969Y42736D01*
Y42355D01*
X6159Y42164D01*
X7112D01*
X5969Y41783D02*
Y41402D01*
Y41593D01*
X7112D01*
X6921Y41783D01*
X38862Y41656D02*
X37909D01*
X37719Y41466D01*
Y41085D01*
X37909Y40894D01*
X38862D01*
X37719Y39752D02*
Y40513D01*
X38481Y39752D01*
X38671D01*
X38862Y39942D01*
Y40323D01*
X38671Y40513D01*
X73533Y24892D02*
Y23939D01*
X73723Y23749D01*
X74104D01*
X74295Y23939D01*
Y24892D01*
X74676Y24701D02*
X74866Y24892D01*
X75247D01*
X75437Y24701D01*
Y24511D01*
X75247Y24320D01*
X75057D01*
X75247D01*
X75437Y24130D01*
Y23939D01*
X75247Y23749D01*
X74866D01*
X74676Y23939D01*
X47371Y22225D02*
X46418D01*
X46228Y22035D01*
Y21654D01*
X46418Y21463D01*
X47371D01*
X46228Y20511D02*
X47371D01*
X46799Y21082D01*
Y20321D01*
X82296Y36830D02*
X81343D01*
X81153Y36640D01*
Y36259D01*
X81343Y36068D01*
X82296D01*
Y34926D02*
X82105Y35306D01*
X81724Y35687D01*
X81343D01*
X81153Y35497D01*
Y35116D01*
X81343Y34926D01*
X81534D01*
X81724Y35116D01*
Y35687D01*
X28067Y44069D02*
Y43116D01*
X28257Y42926D01*
X28638D01*
X28829Y43116D01*
Y44069D01*
X29210D02*
X29971D01*
Y43878D01*
X29210Y43116D01*
Y42926D01*
X63500Y12192D02*
X64262Y11049D01*
Y12192D02*
X63500Y11049D01*
X64643D02*
X65024D01*
X64833D01*
Y12192D01*
X64643Y12001D01*
X73914Y40640D02*
Y41783D01*
X74485D01*
X74676Y41592D01*
Y41211D01*
X74485Y41021D01*
X73914D01*
X74295D02*
X74676Y40640D01*
X75818D02*
X75057D01*
X75818Y41402D01*
Y41592D01*
X75628Y41783D01*
X75247D01*
X75057Y41592D01*
X76199Y40830D02*
X76390Y40640D01*
X76771D01*
X76961Y40830D01*
Y41592D01*
X76771Y41783D01*
X76390D01*
X76199Y41592D01*
Y41402D01*
X76390Y41211D01*
X76961D01*
X85725Y44704D02*
X86868D01*
Y44133D01*
X86677Y43942D01*
X86296D01*
X86106Y44133D01*
Y44704D01*
Y44323D02*
X85725Y43942D01*
X86677Y43561D02*
X86868Y43371D01*
Y42990D01*
X86677Y42800D01*
X86487D01*
X86296Y42990D01*
Y43180D01*
Y42990D01*
X86106Y42800D01*
X85915D01*
X85725Y42990D01*
Y43371D01*
X85915Y43561D01*
X85725Y41657D02*
Y42419D01*
X86487Y41657D01*
X86677D01*
X86868Y41847D01*
Y42228D01*
X86677Y42419D01*
X81915Y40640D02*
Y41783D01*
X82486D01*
X82677Y41592D01*
Y41211D01*
X82486Y41021D01*
X81915D01*
X82296D02*
X82677Y40640D01*
X83058Y41592D02*
X83248Y41783D01*
X83629D01*
X83819Y41592D01*
Y41402D01*
X83629Y41211D01*
X83439D01*
X83629D01*
X83819Y41021D01*
Y40830D01*
X83629Y40640D01*
X83248D01*
X83058Y40830D01*
X84200Y40640D02*
X84581D01*
X84391D01*
Y41783D01*
X84200Y41592D01*
X77978Y40640D02*
Y41783D01*
X78549D01*
X78740Y41592D01*
Y41211D01*
X78549Y41021D01*
X77978D01*
X78359D02*
X78740Y40640D01*
X79121Y41592D02*
X79311Y41783D01*
X79692D01*
X79882Y41592D01*
Y41402D01*
X79692Y41211D01*
X79502D01*
X79692D01*
X79882Y41021D01*
Y40830D01*
X79692Y40640D01*
X79311D01*
X79121Y40830D01*
X80263Y41592D02*
X80454Y41783D01*
X80835D01*
X81025Y41592D01*
Y40830D01*
X80835Y40640D01*
X80454D01*
X80263Y40830D01*
Y41592D01*
X65278Y8128D02*
X66421D01*
Y7557D01*
X66230Y7366D01*
X65849D01*
X65659Y7557D01*
Y8128D01*
Y7747D02*
X65278Y7366D01*
X66230Y6985D02*
X66421Y6795D01*
Y6414D01*
X66230Y6224D01*
X66040D01*
X65849Y6414D01*
Y6604D01*
Y6414D01*
X65659Y6224D01*
X65468D01*
X65278Y6414D01*
Y6795D01*
X65468Y6985D01*
X66421Y5081D02*
Y5843D01*
X65849D01*
X66040Y5462D01*
Y5271D01*
X65849Y5081D01*
X65468D01*
X65278Y5271D01*
Y5652D01*
X65468Y5843D01*
X67183Y8128D02*
X68326D01*
Y7557D01*
X68135Y7366D01*
X67754D01*
X67564Y7557D01*
Y8128D01*
Y7747D02*
X67183Y7366D01*
X68135Y6985D02*
X68326Y6795D01*
Y6414D01*
X68135Y6224D01*
X67945D01*
X67754Y6414D01*
Y6604D01*
Y6414D01*
X67564Y6224D01*
X67373D01*
X67183Y6414D01*
Y6795D01*
X67373Y6985D01*
X68326Y5081D02*
X68135Y5462D01*
X67754Y5843D01*
X67373D01*
X67183Y5652D01*
Y5271D01*
X67373Y5081D01*
X67564D01*
X67754Y5271D01*
Y5843D01*
X72898Y8128D02*
X74041D01*
Y7557D01*
X73850Y7366D01*
X73469D01*
X73279Y7557D01*
Y8128D01*
Y7747D02*
X72898Y7366D01*
X73850Y6985D02*
X74041Y6795D01*
Y6414D01*
X73850Y6224D01*
X73660D01*
X73469Y6414D01*
Y6604D01*
Y6414D01*
X73279Y6224D01*
X73088D01*
X72898Y6414D01*
Y6795D01*
X73088Y6985D01*
X74041Y5843D02*
Y5081D01*
X73850D01*
X73088Y5843D01*
X72898D01*
D113*
X84968Y34091D02*
D03*
D114*
X61717Y3302D02*
D03*
X23871Y6096D02*
D03*
X59177Y46482D02*
D03*
X43937D02*
D03*
X74417D02*
D03*
D115*
X17646Y37868D02*
D03*
X19946Y37868D02*
D03*
X80931Y27842D02*
D03*
X78631Y27842D02*
D03*
M02*
